<svg xmlns="http://www.w3.org/2000/svg" width="95" height="144" viewBox="-193 469 95 144" enable-background="new -193 469 95 144"><switch><g><g><path d="m-103.2 553.6l-3.1.3h-.1l-.6-.4-1.4-1-1.4-1c-.5-.3-.9-.6-1.4-1-1-.6-1.9-1.2-2.9-1.8l-1.4-.9-.3-.2c0 0 0 0 0 0 .1-.2.1-.4.1-.6v-1.1c0-.4 0-.8 0-1.2v-1.2c0-.4 0-.8-.1-1.2 0-.4 0-.8-.1-1.2l-.1-1.2v-.6l-.1-.6-.1-1.2-.2-1.2c-.1-.4-.1-.8-.2-1.1-.1-.4-.2-.8-.3-1.1-.1-.4-.2-.8-.3-1.1-.1-.4-.2-.8-.4-1.1-.1-.4-.3-.8-.4-1.1-.1-.2-.2-.4-.3-.6-.1-.2-.2-.4-.3-.6l-.1-.2-1.1-.3c-.4-.1-.7-.1-1 0-.3 0-.6.1-.9.2l-1.8.6-1.8.6c-.6.2-1.2.4-1.8.6l-3.6 1.2c-.6.2-1.2.4-1.8.6-.6.2-1.2.4-1.8.7l2.4 5.3c.6-.3 1.1-.6 1.7-.9.6-.3 1.1-.6 1.7-.9l3.3-1.9c.5-.3 1.1-.6 1.6-1l1.6-1 1.6-1c.1-.1.3-.2.4-.3 0 .2 0 .3 0 .5 0 .4.1.7.1 1.1 0 .4 0 .7.1 1.1 0 .4.1.7.1 1.1 0 .4 0 .7 0 1.1v1.1 1.1c0 .7 0 1.5 0 2.2 0 .7 0 1.5 0 2.2v1.1c0 .4 0 .7 0 1.1v1.1c0 .2 0 .4.3.6.1.1.3.2.5.3.2.1.5.2.9.3l.1.2c0 .3 0 .5 0 .8 0 .2.1.4.2.5.1.3.4.5.6.7.2.2.5.3.7.5.2.1.5.3.7.4.2.1.5.3.8.4.3.1.5.2.8.3l.8.3c.3.1.5.2.8.4.5.2 1 .5 1.5.8l1.5.8c.7.4 1.5.7 2.2 1.1l.9 2.6v.1c.1.2.3.4.6.4.3 0 .5-.3.5-.6l-.2-2.3 2.2-1c.1-.1.2-.2.2-.4.3-.2.1-.4-.1-.3" fill="#2d2e24"/><path d="m-113.5 562.8c-.1-.3-.2-.5-.3-.7-.2-.4-.6-.6-.9-.9l-2-1.6c-.3-.3-.7-.5-1-.8l-1-.8-1-.8c-.3-.3-.7-.5-1-.8l-2.1-1.5c-.3-.3-.7-.5-1.1-.7l-1.1-.7c-.4-.2-.7-.5-1.1-.7l-1.1-.7-1.1-.7-1.1-.7-2.6 3.9 1 .9 1 .8 1 .8c.3.3.7.5 1 .8l1 .8c.3.3.7.5 1 .8l2.1 1.5c.3.3.7.5 1.1.7l1.1.7 1.1.7c.4.2.7.5 1.1.7l2.2 1.4c.4.2.7.5 1.2.6.2 0 .4.1.6 0l-.1.3-.7 1.9-1.5 3.7-1.4 3.8-1.4 3.8c-.5 1.3-.9 2.5-1.3 3.8-.4 1.3-.9 2.5-1.3 3.8l-1.3 3.8-.6 1.9c-.1.3-.2.6-.2 1 0 .4.1.7.4 1.2l.1.1-.1.5c0 .4 0 .7 0 1.1 0 .3.1.7.1 1 .1.3.1.7.2 1 .1.3.2.6.3 1l.6 1.9c.2.6.4 1.3.7 1.9.2.6.5 1.3.7 1.9l.4.9.4.9c.1.3.2.6.4.9l.4.9.4.9c0 .1.1.1.1.2l-.9 2.2-.1.1c-.1.2 0 .4.1.6.2.2.6.2.8-.1l1.5-1.7 2.3.9c.1.1.3 0 .4-.1.2-.1.2-.4 0-.5l-.1-.1-2-2.1c0-.1 0-.1 0-.2l-.2-1-.2-1c-.1-.3-.2-.7-.3-1l-.3-1-.3-1c-.2-.6-.4-1.3-.6-1.9-.2-.6-.4-1.3-.6-1.9l-.6-1.9c-.1-.3-.2-.6-.3-1-.1-.3-.3-.6-.4-.9-.2-.3-.3-.6-.5-.9-.1-.1-.2-.3-.3-.4.3-.2.5-.4.7-.6.2-.3.4-.6.5-.9l.7-1.9 1.3-3.8c.4-1.3.9-2.5 1.3-3.8.4-1.3.9-2.5 1.3-3.8l1.2-3.8 1.2-3.8 1.1-3.8.6-1.9.5-1.9-.4-1.3c-.5-.4-.6-.7-.7-.9" fill="#2d2e24"/><path d="m-132.9 523.8c.3-.4.7-.8 1-1.2.3-.4.7-.8 1-1.2l1-1.2.9-1.2c.3-.4.6-.8.9-1.2.1-.2.3-.5.4-.7 0 0 0-.1.1-.2.1.1.1.2.2.3.1.2.2.3.3.5.1.2.2.4.3.6.1.2.2.4.3.6.1.2.2.4.2.6.1.2.2.4.2.6.1.2.1.4.2.6l.2.7.2.7c.1.2.1.4.2.7l.2.7c.1.2.1.5.2.7.1.2.1.5.2.7l.1.3c0 .1.1.2.2.3.1.1.2.2.4.3l.2.1c.1 0 .1 0 .2.1.1 0 .3.1.5.1l.2.1c.4.2.7.3 1 .3.3 0 .6 0 .8-.1l.7-.3c.2-.1.5-.2.7-.3.2-.1.5-.2.7-.3l.7-.3c.5-.2.9-.5 1.4-.7.5-.2.9-.5 1.4-.7l.7-.3.7-.3c.2-.1.5-.2.7-.3.2-.1.5-.2.7-.3l.7-.3c0 0 0 0 0 0h.2l2.7.3h.1c.3 0 .5-.1.6-.4.1-.3-.1-.6-.4-.7l-2.2-.7-.1-2.4c0-.2-.1-.3-.3-.4-.2-.1-.4.1-.5.3l-.6 2.6c0 0 0 0-.1 0-.2.1-.5.2-.7.3-.2.1-.5.2-.7.3-.2.1-.5.2-.7.3-.5.2-1 .4-1.5.5-.5.2-1 .3-1.5.5l-1.5.5c-.5.2-1 .3-1.5.5-.5.2-1 .4-1.5.5-.1 0-.2.1-.3.1 0-.1 0-.2-.1-.3-.1-.5-.2-1-.4-1.4-.1-.2-.1-.5-.2-.7-.1-.2-.1-.5-.2-.7-.2-.5-.3-1-.5-1.4-.2-.5-.4-.9-.6-1.4-.1-.2-.2-.5-.4-.7-.1-.2-.3-.5-.4-.7-.1-.2-.3-.4-.5-.6-.2-.2-.4-.4-.6-.6-.2-.2-.4-.4-.7-.5-.1-.1-.3-.2-.4-.2-.1 0-.2-.1-.3-.1 0 0-.1 0-.2 0 0 0-.1 0-.1 0h-.1c0 0 0 0-.1 0l-.5.2c-.3.1-.5.2-.8.3-.2.1-.5.2-.7.4-.2.1-.4.3-.6.4l-.6.5-1.2.9-1.2.9c-.4.3-.8.6-1.2.9l-1.2.9c-.4.3-.8.6-1.2 1-.4.3-.8.6-1.2 1l3.7 3.6c.4-.4.7-.7 1-1.1.4-.5.8-.8 1.1-1.2" fill="#2d2e24"/></g><g><path d="m-187.8 553.6l3.1.3h.1l.6-.4 1.4-1 1.4-1c.5-.3.9-.6 1.4-1 1-.6 1.9-1.2 2.9-1.8l1.4-.9.3-.2c0 0 0 0 0 0-.1-.2-.1-.4-.1-.6v-1.1c0-.4 0-.8 0-1.2v-1.2c0-.4 0-.8.1-1.2 0-.4 0-.8.1-1.2l.1-1.2v-.6l.1-.6.1-1.2.2-1.2c.1-.4.1-.8.2-1.1.1-.4.2-.8.3-1.1.1-.4.2-.8.3-1.1.1-.4.2-.8.4-1.1.1-.4.3-.8.4-1.1.1-.2.2-.4.3-.6.1-.2.2-.4.3-.6l.1-.2 1.1-.3c.4-.1.7-.1 1 0 .3 0 .6.1.9.2l1.8.6 1.8.6c.6.2 1.2.4 1.8.6l3.6 1.2c.6.2 1.2.4 1.8.6.6.2 1.2.4 1.8.7l-2.4 5.3c-.6-.3-1.1-.6-1.7-.9-.6-.3-1.1-.6-1.7-.9l-3.3-1.9c-.5-.3-1.1-.6-1.6-1l-1.6-1-1.6-1c-.1-.1-.3-.2-.4-.3 0 .2 0 .3 0 .5 0 .4-.1.7-.1 1.1 0 .4 0 .7-.1 1.1 0 .4-.1.7-.1 1.1 0 .4 0 .7 0 1.1v1.1 1.1c0 .7 0 1.5 0 2.2 0 .7 0 1.5 0 2.2v1.1c0 .4 0 .7 0 1.1v1.1c0 .2 0 .4-.3.6-.1.1-.3.2-.5.3-.2.1-.5.2-.9.3l-.1.2c0 .3 0 .5 0 .8 0 .2-.1.4-.2.5-.1.3-.4.5-.6.7-.2.2-.5.3-.7.5-.2.1-.5.3-.7.4-.2.1-.5.3-.8.4-.3.1-.5.2-.8.3l-.8.3c-.3.1-.5.2-.8.4-.5.2-1 .5-1.5.8l-1.5.8c-.7.4-1.5.7-2.2 1.1l-.9 2.6v.1c-.1.2-.3.4-.6.4-.3 0-.5-.3-.5-.6l.2-2.3-2.2-1c-.1-.1-.2-.2-.2-.4-.3-.2-.1-.4.1-.3" fill="#2d2e24"/><path d="m-177.6 562.8c.1-.3.2-.5.3-.7.2-.4.6-.6.9-.9l2-1.6c.3-.3.7-.5 1-.8l1-.8 1-.8c.3-.3.7-.5 1-.8l2.1-1.5c.3-.3.7-.5 1.1-.7l1.1-.7c.4-.2.7-.5 1.1-.7l1.1-.7 1.1-.7 1.1-.7 2.6 3.9-1 .9-1 .8-1 .8c-.3.3-.7.5-1 .8l-1 .8c-.3.3-.7.5-1 .8l-2.1 1.5c-.3.3-.7.5-1.1.7l-1.1.7-1.1.7c-.4.2-.7.5-1.1.7l-2.2 1.4c-.4.2-.7.5-1.2.6-.2 0-.4.1-.6 0l.1.3.7 1.9 1.5 3.7 1.4 3.8 1.4 3.8c.5 1.3.9 2.5 1.3 3.8.4 1.3.9 2.5 1.3 3.8l1.3 3.8.6 1.9c.1.3.2.6.2 1 0 .4-.1.7-.4 1.2l-.1.1.1.5c0 .4 0 .7 0 1.1 0 .3-.1.7-.1 1-.1.3-.1.7-.2 1-.1.3-.2.6-.3 1l-.6 1.9c-.2.6-.4 1.3-.7 1.9-.2.6-.5 1.3-.7 1.9l-.4.9-.4.9c-.1.3-.2.6-.4.9l-.4.9-.4.9c0 .1-.1.1-.1.2l.9 2.2.1.1c.1.2 0 .4-.1.6-.2.2-.6.2-.8-.1l-1.5-1.7-2.3.9c-.1.1-.3 0-.4-.1-.2-.1-.2-.4 0-.5l.1-.1 2-2.1c0-.1 0-.1 0-.2l.2-1 .2-1c.1-.3.2-.7.3-1l.3-1 .3-1c.2-.6.4-1.3.6-1.9.2-.6.4-1.3.6-1.9l.6-1.9c.1-.3.2-.6.3-1 .1-.3.3-.6.4-.9.2-.3.3-.6.5-.9.1-.1.2-.3.3-.4-.3-.2-.5-.4-.7-.6-.2-.3-.4-.6-.5-.9l-.7-1.9-1.3-3.8c-.4-1.3-.9-2.5-1.3-3.8-.4-1.3-.9-2.5-1.3-3.8l-1.2-3.8-1.2-3.8-1.1-3.8-.6-1.9-.5-1.9.4-1.3c.6-.4.7-.7.7-.9" fill="#2d2e24"/><path d="m-158.1 523.8c-.3-.4-.7-.8-1-1.2-.3-.4-.7-.8-1-1.2l-1-1.2-.9-1.2c-.3-.4-.6-.8-.9-1.2-.1-.2-.3-.5-.4-.7 0 0 0-.1-.1-.2-.1.1-.1.2-.2.3-.1.2-.2.3-.3.5-.1.2-.2.4-.3.6-.1.2-.2.4-.3.6-.1.2-.2.4-.2.6-.1.2-.2.4-.2.6-.1.2-.1.4-.2.6l-.2.7-.2.7c-.1.2-.1.4-.2.7l-.2.7c-.1.2-.1.5-.2.7-.1.2-.1.5-.2.7l-.1.3c0 .1-.1.2-.2.3-.1.1-.2.2-.4.3l-.2.1c-.1 0-.1 0-.2.1-.1 0-.3.1-.5.1l-.2.1c-.4.2-.7.3-1 .3-.3 0-.6 0-.8-.1l-.7-.3c-.2-.1-.5-.2-.7-.3-.2-.1-.5-.2-.7-.3l-.7-.3c-.5-.2-.9-.5-1.4-.7-.5-.2-.9-.5-1.4-.7l-.7-.3-.7-.3c-.2-.1-.5-.2-.7-.3-.2-.1-.5-.2-.7-.3l-.7-.3c0 0 0 0 0 0h-.2l-2.7.3h-.1c-.3 0-.5-.1-.6-.4-.1-.3.1-.6.4-.7l2.2-.7.1-2.4c0-.2.1-.3.3-.4.2-.1.4.1.5.3l.6 2.6c0 0 0 0 .1 0 .2.1.5.2.7.3.2.1.5.2.7.3.2.1.5.2.7.3.5.2 1 .4 1.5.5.5.2 1 .3 1.5.5l1.5.5c.5.2 1 .3 1.5.5.5.2 1 .4 1.5.5.1 0 .2.1.3.1 0-.1 0-.2.1-.3.1-.5.2-1 .4-1.4.1-.2.1-.5.2-.7.1-.2.1-.5.2-.7.2-.5.3-1 .5-1.4.2-.5.4-.9.6-1.4.1-.2.2-.5.4-.7.1-.2.3-.5.4-.7.1-.2.3-.4.5-.6.2-.2.4-.4.6-.6.2-.2.4-.4.7-.5.1-.1.3-.2.4-.2.1 0 .2-.1.3-.1 0 0 .1 0 .2 0 0 0 .1 0 .1 0h.1c0 0 0 0 .1 0l.5.2c.3.1.5.2.8.3.2.1.5.2.7.4.2.1.4.3.6.4l.6.5 1.2.9 1.2.9c.4.3.8.6 1.2.9l1.2.9c.4.3.8.6 1.2 1 .4.3.8.6 1.2 1l-3.7 3.6c-.4-.4-.7-.7-1-1.1-.5-.5-.8-.8-1.1-1.2" fill="#2d2e24"/></g><path d="m-159.9 529.3c-3.3 12.3-5.3 27.3-5.3 39.7 0 26 8.8 43.4 19.7 43.4 10.9 0 19.7-17.5 19.7-43.4 0-12.4-2-27.5-5.3-39.7h-28.8" fill="#604729"/><path d="m-159.3 529.3c-3.2 11.9-5.1 26.3-5.1 38.3 0 25 8.5 41.9 19 41.9 10.5 0 19-16.9 19-41.9 0-12-1.9-26.5-5.1-38.3h-27.8" fill="#2d2e24"/><g><g><path d="m-162.6 589l13.8-19.8c1.9-2.7 2.9-6 2.9-9.3v-6.4c0-2.4-.6-4.8-1.7-7l-7.9-14.8h-6c0 0-10.8 30.6-2.8 57 .2.8 1.2.9 1.7.3" fill="#d2722f"/><path d="m-161.6 584.4l11.6-16.6c1.6-2.3 2.5-5 2.5-7.8v-5.4c0-2-.5-4-1.5-5.9l-6.6-17.1h-5c0 0-.1 15.4-4.1 29.4-2 7-.5 15.4 1.8 23.1 0 .8.9.9 1.3.3" fill="#44453e"/></g><g><path d="m-128.4 589l-13.8-19.8c-1.9-2.7-2.9-6-2.9-9.3v-6.4c0-2.4.6-4.8 1.7-7l7.9-14.8h6c0 0 10.8 30.6 2.8 57-.2.8-1.3.9-1.7.3" fill="#d2722f"/><path d="m-129.4 584.4l-11.6-16.6c-1.6-2.3-2.5-5-2.5-7.8v-5.4c0-2 .5-4 1.5-5.9l6.6-17.1h5c0 0 .1 15.4 4.1 29.4 2 7 .5 15.4-1.8 23.1 0 .8-.9.9-1.3.3" fill="#44453e"/></g></g><g><path d="m-129.3 532.3c-.9 2.2-6.2 3.8-14.3 4-.6 0-1.3 0-2 0s-1.3 0-2 0c-8.1-.2-13.3-1.8-14.3-4-1.7-4 7.1-14.5 7.1-14.5-1-2 .9-2.4.9-2.4 1.9 1.2 8.3 1.1 8.3 1.1s6.4.1 8.3-1.1c0 0 1.9.3.9 2.4.1 0 8.8 10.5 7.1 14.5" fill="#464941"/><g><g><path d="m-157.8 526.5c-1.6 1.8-2.1 5.2-2.2 7.4-.9-.5-1.5-1.1-1.8-1.7-1.7-4 7.1-14.5 7.1-14.5 1.8 3.2-.6 6.1-3.1 8.8" fill="#d26527"/><path d="m-133.3 526.5c1.6 1.8 2.1 5.2 2.2 7.4.9-.5 1.5-1.1 1.8-1.7 1.7-4-7.1-14.5-7.1-14.5-1.7 3.2.7 6.1 3.1 8.8" fill="#d26527"/></g><path d="m-143.3 529.6c0 2.2-.1 4.5-.2 6.7-.6 0-1.3 0-2 0s-1.3 0-2 0c-.1-2.2-.2-4.6-.2-6.7 0-7.6 2.2-10.3 2.2-10.3s2.2 2.7 2.2 10.3" fill="#d26527"/></g></g><path d="m-138.2 512.3c0-1.6-.4-3-1.1-4.1.1-.2.1-.4.1-.5 0-.9-.7-1.6-1.5-1.6-.4 0-.7.1-1 .4-.1 0-.2-.1-.4-.1 0-.1-1.9-4.9-3.5-4.9-1.6 0-3.5 4.8-3.5 4.9-.1 0-.2.1-.4.1-.3-.2-.6-.4-1-.4-.8 0-1.5.7-1.5 1.6 0 .2 0 .4.1.5-.7 1.1-1.1 2.5-1.1 4.1 0 .7.1.6.3 1.2-.2.3-.3.7-.3 1.1 0 2.3 3.3 4.2 7.3 4.2 4 0 7.3-1.9 7.3-4.2 0-.4-.1-.8-.3-1.1.4-.6.5-.5.5-1.2" fill="#2d2e24"/><g><path d="m-151.4 511.5c0 1.2-.2 2.2-1.4 2.2s-2.2-1-2.2-2.2 1-2.2 2.2-2.2 1.4 1 1.4 2.2" fill="#8e4022"/><path d="m-139.6 511.5c0 1.2.2 2.2 1.4 2.2s2.2-1 2.2-2.2-1-2.2-2.2-2.2-1.4 1-1.4 2.2" fill="#8e4022"/></g><g><path d="m-150.7 507.1c-.2-.2-.3-.5-.5-.7-.1-.2-.3-.5-.4-.7-.1-.2-.2-.5-.3-.7-.1-.2-.2-.5-.3-.7-.1-.2-.2-.5-.2-.7-.1-.2-.1-.5-.2-.7l-.1-.4c0-.1-.1-.2 0-.4 0-.1.1-.3.2-.4.1-.1.1-.1.2-.2.1-.1.2-.2.3-.2l.2.3c-.6-.5-1.1-1-1.7-1.5l-1.6-1.5-1.6-1.6-1.6-1.6c-.5-.5-1.1-1.1-1.6-1.6l-1.6-1.6-1.6-1.6-.8-.8c-.1-.1-.3-.2-.3-.5 0-.2 0-.5-.1-.7l.1.1-1.8-1.2-1.8-1.1c-1.2-.7-2.5-1.5-3.7-2.2l-1.9-1.1c-.6-.4-1.2-.7-1.9-1.1-.6-.4-1.2-.8-1.8-1.2-.2-.1-.3-.2-.5-.3-.1-.1-.2-.3-.3-.5 0-.1-.1-.2-.2-.2l-.2-.2-.4-.3c-.6-.4-1.2-.8-1.8-1.2-.6-.4-1.2-.8-1.8-1.2l-3.7-2.3c-.6-.4-1.2-.8-1.8-1.2-.6-.4-1.2-.8-1.8-1.2-.6-.4-1.2-.8-1.8-1.2-.6-.4-1.2-.8-1.4-1.8l.1-.2c1-.2 1.6.2 2.2.6.6.4 1.2.8 1.8 1.2.6.4 1.2.8 1.8 1.2.6.4 1.2.8 1.8 1.3l3.5 2.6c.6.4 1.2.8 1.8 1.3.6.4 1.2.8 1.8 1.2l.4.3.2.1c.1 0 .2.1.3.1.2 0 .5 0 .6.1.2.1.3.2.5.3.6.4 1.2.8 1.8 1.2.6.4 1.2.8 1.8 1.2l1.8 1.3c1.2.8 2.3 1.7 3.5 2.5l1.8 1.2 1.8 1.2h.1c.1.1.4.1.6.2.2 0 .3.2.5.3l.8.8 1.6 1.6 1.6 1.6c.5.5 1 1.1 1.6 1.6l1.5 1.6 1.5 1.7 1.5 1.7c.5.6 1 1.1 1.5 1.7l.2.3c.2 0 .3.1.4.1.1 0 .2.1.3.2.1.1.2.2.3.3.1.1.1.2.1.4v.4c0 .3 0 .5 0 .8 0 .3 0 .5 0 .8 0 .3 0 .5-.1.8 0 .3-.1.5-.1.8 0 .3-.1.5-.2.8-.1.3-.1.5-.2.8l-.7-.1" fill="#2d2e24"/><path d="m-140.6 507c-.1-.3-.2-.5-.2-.8-.1-.3-.1-.5-.2-.8 0-.3-.1-.5-.1-.8 0-.3 0-.5-.1-.8 0-.3 0-.5 0-.8 0-.3 0-.5 0-.8v-.4c0-.1 0-.3.1-.4.1-.1.1-.2.3-.3.1-.1.2-.1.3-.2.1 0 .2-.1.4-.1l.2-.3c.5-.6 1-1.1 1.5-1.7l1.5-1.7 1.5-1.7 1.5-1.6c.5-.5 1-1.1 1.6-1.6l1.6-1.6 1.6-1.6.8-.8c.1-.1.2-.3.5-.3.2 0 .5 0 .6-.2h.1l1.8-1.2 1.8-1.2c1.2-.8 2.4-1.7 3.5-2.5l1.8-1.3c.6-.4 1.2-.8 1.8-1.2.6-.4 1.2-.8 1.8-1.2.2-.1.3-.2.5-.3.2-.1.4 0 .6-.1.1 0 .2 0 .3-.1l.2-.1.4-.3c.6-.4 1.2-.8 1.8-1.2.6-.4 1.2-.8 1.8-1.3l3.5-2.6c.6-.4 1.2-.8 1.8-1.3.6-.4 1.2-.8 1.8-1.2.6-.4 1.2-.8 1.8-1.2.6-.4 1.2-.8 2.2-.6l.1.2c-.2 1-.8 1.4-1.4 1.8-.6.4-1.2.8-1.8 1.2-.6.4-1.2.8-1.8 1.2-.6.4-1.2.8-1.8 1.2l-3.7 2.3c-.6.4-1.2.8-1.8 1.2-.6.4-1.2.8-1.8 1.2l-.4.3-.2.2c-.1.1-.1.1-.2.2-.1.2-.2.4-.3.5-.1.1-.3.2-.5.3-.6.4-1.2.8-1.8 1.2-.6.4-1.2.8-1.9 1.1l-1.9 1.1c-1.2.7-2.5 1.5-3.7 2.2l-1.8 1.1-1.8 1.2.1-.1c-.1.1-.1.4-.1.7 0 .2-.2.3-.3.5l-.8.8-1.6 1.6-1.6 1.6c-.5.5-1.1 1.1-1.6 1.6l-1.6 1.6-1.6 1.6-1.6 1.5c-.5.5-1.1 1-1.7 1.5l.2-.3c.1.1.2.2.3.2.1.1.2.1.2.2.1.1.2.3.2.4 0 .1 0 .2 0 .4l-.1.4c-.1.2-.1.5-.2.7-.1.2-.2.5-.2.7-.1.2-.2.5-.3.7-.1.2-.2.5-.3.7-.1.2-.2.5-.4.7-.1.2-.3.5-.5.7l-.7.1" fill="#2d2e24"/></g></g></switch></svg>