<svg xmlns="http://www.w3.org/2000/svg" width="443.8" height="288" viewBox="-303.3 252.4 443.8 288" enable-background="new -303.3 252.4 443.8 288"><switch><g><g><path d="m-106.3 348.6c-.8-2-1.8-4-2.8-5.8-.4-1-1-1.8-1.6-2.8-.6-1-1-1.8-1.6-2.8-2.2-3.6-4.4-7.2-7-10.5l1 .8c-2.6-1.4-5.4-2.6-8.1-3.8-2.8-1-5.6-2-8.5-3-2.8-1-5.8-2-8.5-3l-1-.4-.6-.2-.6-.2-1.8-1-2-1.2c-.8-.2-.2-2.8-.8-3.4-1.2-1-2.6-1.8-3.8-2.6l-3.6-2.8c-2.4-1.8-5-3.6-7.2-5.8-2.4-2.2-4.4-4.6-6-7.4-.8-1.4-1.6-3-2-4.6-.6-1.6-.8-3.4.6-5v.2c0-.2-.2-.6-.4-.8-.2-.2-.4-.6-.6-.8-.4-.4-1-.8-1.8-1-.4 0-.6-.2-1-.2-.4 0-.8 0-1.2.2-.8.2-1.4.4-2.2.8.6-.4 1.2-.8 2-1.2.4-.2.8-.2 1.2-.4.4-.2.8-.2 1.2-.2.8 0 1.8.4 2.4.8.4.2.8.6 1 .8.4.4.6.6.8 1.2v.2c1.6 1.2 2 2.4 2.4 3.8.4 1.2 1 2.4 1.6 3.6.6 1.2 1.4 2.4 2.2 3.6.8 1.2 1.6 2.4 2.6 3.4 1 1.2 1.8 2.2 3 3.2 1 1 2.2 2 3.2 3 1.2 1 2.4 1.8 3.6 2.6 1.2.8 2.4 1.6 3.8 2.2.8 0 2.6-1.6 3.2-1.2l1.8 1 1.8 1 .4.2.6.2 1 .4c2.6 1.4 5.2 2.8 7.8 4.4 2.6 1.6 5.2 3 7.8 4.4s5.4 2.6 8.1 3.6l.6.2.6.6c2.8 3.2 5.6 6.4 8.5 9.3.8.8 1.4 1.4 2.2 2.2.8.8 1.6 1.4 2.4 2.2 1.6 1.4 3.2 2.8 5 4.2l-9.7 7.8" fill="#ea9545"/><path d="m-85.6 415.4c-.8.2-1.8.6-2.6.8-.8.2-1.8.4-2.6.6l-5.4 1.2c-1.8.4-3.6.6-5.4 1-1.8.2-3.6.6-5.6.6-1 .2-1.8.2-2.8.2s-1.8 0-2.8 0h-5.6c-1.8 0-3.8.2-5.6.4l-2.8.4-2.8.8 2.4-2.2c-.2.8-.4 1.6-.4 2.6l-.4 2.6c-.2 1.8-.2 3.4-.4 5.2-.2 3.4-.4 7-.8 10.3-.2 1.8-.6 3.4-.8 5.2l-.6 2.2c-.2.8-.4 1.6-.6 2.6-.2.8-.6 1.6-1.2 2.4-.6.8-1.2 1.4-1.8 2.2l-2 2.2c-.6.8-1.2 1.4-1.6 2.2v-.2c-.2.6-.6 1.2-.6 2 0 .6.2 1.4.2 2 .4 1.4-.2 2.6-.2 4l-1.2 8c-.8 5.2-1.8 10.5-2.8 15.7-.6 2.6-1.2 5.2-1.8 7.8s-1.4 5.2-2.2 7.8c-.8 2.6-1.8 5.2-2.8 7.8-.6 1.2-1.2 2.6-1.8 4-.2.4-.4.6-.6 1-.2.2-.6.4-1.2.6-.8.4-2 .6-2.4 1l.2-.2-.2.2c0 .2-.2.2-.2.4-.2.2-.2.6-.2.8 0 .6 0 1.4.4 2 .4.6.8 1.2 1.4 1.8.6.4 1.2 1 2 1.4-.8-.4-1.4-.6-2.2-1s-1.4-.8-2-1.4c-.2-.2-.4-.4-.4-.6-.2-.2-.4-.4-.4-.6-.2-.4-.4-.8-.6-1.4-.2-.4-.2-1-.2-1.6 0-.2 0-.6 0-.8 0-.2 0-.4.2-.8l.2-.2c.2-.6 0-1.4-.2-2.2-.2-.8-.2-1.4.2-1.8.6-1 1-2.2 1.4-3.4 1-2.4 1.8-4.8 2.4-7.2.8-2.4 1.4-5 2.2-7.4.8-2.6 1.4-5 2-7.6 1.4-5 2.6-10.1 3.8-15.3l1.6-7.8c.4-1.2.4-2.6 1-3.8.4-.6.8-1.2 1-1.8.2-.6 0-1.4 0-2v-.2c0-.8-.2-1.8-.4-2.8l-.8-2.8c-.2-1-.4-1.8-.6-2.8-.2-1 0-1.8 0-2.6.2-.8.4-1.6.6-2.6l.6-2.4c.6-1.6 1-3.2 1.6-4.8 1.2-3.2 2.8-6.4 4-9.5.6-1.6 1.4-3.2 2-4.8l.8-2.4c.4-.8.6-1.6.8-2.4l.6-2 2-.6 2.8-.4 2.8-.6c1.8-.4 3.6-1 5.4-1.6l5.2-2c.8-.4 1.8-.8 2.6-1 .8-.2 1.8-.6 2.6-.8 1.8-.6 3.6-1 5.4-1.4 1.8-.4 3.6-.8 5.4-1.2l5.4-.8c1-.2 1.8-.2 2.8-.4s1.8-.2 2.8-.2l1.8 10.4" fill="#ea9545"/><path d="m-87.6 390.2c-.8.2-1.6.6-2.6.8-.8.2-1.8.4-2.6.6l-5.2 1c-3.4.6-7 1.2-10.3 1.6-.8.2-1.8.2-2.6.2s-1.8 0-2.6 0h-5.4c-1.8 0-3.6.2-5.2.4l-2.6.4-2.6.6 1.6-.8c-.4.6-1 1-1.4 1.6l-1.4 1.8c-.8 1.2-1.6 2.4-2.4 3.6-1.6 2.4-3 4.8-4.6 7.2-.8 1.2-1.6 2.4-2.4 3.4l-1.2 1.6-1.4 1.6c-1 1-1.8 2.2-3 3-.6.4-1.4.6-2.2.8-.8.2-1.8.4-2.8.2l.8-1.6c-.2.8-.6 1.6-.6 2.4-.2.8-.4 1.6-.6 2.4-.2.8-.4 1.6-.4 2.4l-.4 2.4-1 5c-.4 1.6-.8 3.4-1.2 5s-1 3.2-1.4 5c-.6 1.6-1 3.2-1.8 4.8-.8 1.6-1.4 3.2-2.4 4.8-.4.8-1 1.6-1.4 2.4-.2.4-.6.8-1.2.8-.8 0-1.6 0-2 .2l.2-.2-.2.2c0 .2-.2.2-.2.4-.2.2-.2.6-.2.8 0 .6 0 1.2.4 1.8s.8 1.2 1.4 1.8c.6.4 1.2 1 2 1.2-.6-.4-1.4-.6-2-1s-1.4-.8-2-1.4c-.4-.2-.6-.6-.8-1-.2-.4-.4-.8-.6-1.2-.2-.4-.2-1-.2-1.4 0-.2 0-.4 0-.8 0-.2 0-.4.2-.8l.2-.2c0-.4-.2-1.2-.6-1.8-.2-.6-.2-1 .2-1.2.4-.6.8-1.2 1.2-2 .8-1.4 1.4-2.8 2-4.2s1.2-2.8 1.8-4.4c.6-1.4 1.2-3 1.8-4.6 1.2-3 2.2-6.2 3-9.3l.6-2.4c.2-.8.4-1.6.6-2.4.4-1.6.6-3.2.6-4.8l.8-1.6c-.2-1.2-.2-2 0-2.8s.4-1.6.8-2.2c.6-1.4 1.8-2.2 2.8-3.2l1.4-1.4 1.6-1.4c1-1 2.2-1.8 3.2-2.8 2.2-1.8 4.6-3.4 6.8-5.2 1-.8 2.2-1.8 3.2-2.8l1.6-1.4c.6-.4 1-1 1.6-1.4l.8-.8.8-.2 2.6-.4 2.6-.6c1.8-.4 3.4-1 5.2-1.6l5-2c.8-.4 1.6-.6 2.6-1 .8-.2 1.6-.6 2.6-.8 3.4-1 6.8-1.6 10.3-2.4l5.2-.8c.8-.2 1.8-.2 2.6-.4.8-.2 1.8-.2 2.6-.2l.4 10.7" fill="#ea9545"/><path d="m-66.1 341.1c1.8-1.2 3.4-2.8 5-4.2.8-.8 1.6-1.4 2.4-2.2.8-.8 1.6-1.4 2.2-2.2 3-3 5.8-6.2 8.5-9.3l.6-.6.6-.2c2.8-1 5.6-2.4 8.1-3.6 2.6-1.4 5.2-2.8 7.8-4.4 2.6-1.6 5.2-3 7.8-4.4l1-.4.6-.2.4-.2 1.8-1 1.8-1c.6-.4 2.4 1.2 3.2 1.2 1.4-.6 2.6-1.4 3.8-2.2 1.2-.8 2.4-1.6 3.6-2.6 1.2-1 2.2-1.8 3.2-3 1-1 2-2 3-3.2 1-1.2 1.8-2.2 2.6-3.4.8-1.2 1.6-2.4 2.2-3.6.6-1.2 1.2-2.4 1.6-3.6.4-1.2.8-2.4 2.4-3.8v-.2c.2-.4.6-.8.8-1.2.4-.4.6-.6 1-.8.8-.4 1.6-.8 2.4-.8.4 0 .8 0 1.2.2.4 0 .8.2 1.2.4.8.4 1.4.8 2 1.2-.8-.4-1.4-.6-2.2-.8-.4 0-.8-.2-1.2-.2-.4 0-.8 0-1 .2-.6.2-1.2.6-1.8 1-.2.2-.4.4-.6.8-.2.2-.4.6-.4.8v-.2c1.2 1.6 1.2 3.6.6 5-.4 1.6-1.2 3.2-2 4.6-1.6 2.8-3.8 5.2-6 7.4-2.2 2.2-4.8 4-7.2 5.8l-3.8 2.6c-1.2.8-2.6 1.6-3.8 2.6-.4.6 0 3.2-.8 3.4l-2 1.2-2.2 1-.6.2-.6.2-1 .4c-2.8 1-5.6 2-8.5 3-2.8 1-5.8 1.8-8.5 3-2.8 1-5.6 2.4-8.1 3.8l1-.8c-2.4 3.4-4.8 7-7 10.5-.6 1-1 1.8-1.6 2.8-.6 1-1 1.8-1.6 2.8-1 2-2 3.8-2.8 5.8l-9.1-7.6" fill="#ea9545"/><path d="m-75.3 405.3c1 0 1.8.2 2.8.2 1 .2 1.8.2 2.8.4l5.4.8c1.8.4 3.6.6 5.4 1.2 1.8.4 3.6.8 5.4 1.4.8.2 1.8.6 2.6.8.8.2 1.8.6 2.6 1l5.2 2c1.8.6 3.6 1.2 5.4 1.6l2.8.6 2.8.4 1.8.2.6 2c.2.8.4 1.6.8 2.4l.8 2.4c.6 1.6 1.4 3.2 2 4.8 1.4 3.2 2.8 6.4 4 9.5.6 1.6 1.2 3.2 1.6 4.8l.6 2.4c.2.8.4 1.6.6 2.6.2.8.2 1.8 0 2.6-.2 1-.4 1.8-.6 2.8l-.8 2.8c-.2 1-.4 1.8-.4 2.8v.2c0 .6-.2 1.4 0 2 .2.6.6 1.2 1 1.8.8 1.2.8 2.6 1 3.8l1.6 7.8c1.2 5.2 2.4 10.1 3.8 15.3.6 2.6 1.2 5 2 7.6.6 2.6 1.4 5 2.2 7.4.8 2.4 1.6 5 2.4 7.2.4 1.2 1 2.4 1.4 3.4.4.6.4 1 .2 1.8-.2.8-.4 1.6-.2 2.2l.2.2c.2.4.2.6.2.8 0 .2 0 .6 0 .8 0 .6 0 1-.2 1.6-.2.4-.4 1-.6 1.4-.2.2-.2.4-.4.6-.2.2-.2.4-.4.6-.6.6-1.4 1-2 1.4-.8.4-1.4.6-2.2 1 .8-.4 1.4-.8 2-1.4.6-.6 1-1.2 1.4-1.8s.4-1.4.4-2c0-.4-.2-.6-.2-.8s-.2-.2-.2-.4c0-.2-.2-.2-.2-.2l.2.2c-.6-.4-1.6-.6-2.4-1-.4-.2-.8-.4-1.2-.6-.2-.2-.4-.6-.6-1-.6-1.4-1.2-2.6-1.8-4-1-2.6-2-5.2-2.8-7.8-.8-2.6-1.6-5.2-2.2-7.8-.6-2.6-1.2-5.2-1.8-7.8-1-5.2-2-10.5-2.8-15.7l-1.2-8c-.2-1.4-.6-2.6-.2-4 .2-.6.4-1.4.2-2 0-.6-.4-1.2-.6-2v.2c-.4-.8-1-1.6-1.6-2.2l-2-2.2c-.6-.8-1.2-1.4-1.8-2.2-.6-.8-.8-1.6-1.2-2.4-.2-.8-.4-1.6-.6-2.6l-.6-2.6c-.2-1.8-.6-3.4-.8-5.2-.4-3.4-.6-7-.8-10.3-.2-1.8-.2-3.4-.4-5.2l-.4-2.6c0-.8-.2-1.6-.4-2.6l2.4 2.2-2.6-.6-2.8-.4c-1.8-.2-3.6-.4-5.6-.4h-5.7c-1 0-1.8 0-2.8 0-1 0-1.8 0-2.8-.2-1.8-.2-3.6-.4-5.6-.6-1.8-.2-3.6-.6-5.4-1l-5.4-1.2c-1-.2-1.8-.4-2.6-.6-.8-.2-1.8-.4-2.6-.8l1.9-9.8" fill="#ea9545"/><path d="m-73.5 380.5c.8 0 1.8.2 2.6.2.8.2 1.8.2 2.6.4l5.2.8c3.4.6 7 1.4 10.3 2.4.8.2 1.6.6 2.6.8.8.2 1.6.6 2.6 1l5 2c1.6.6 3.4 1.2 5.2 1.6l2.6.6 2.6.4.8.2.8.8c.6.4 1 1 1.6 1.4l1.6 1.4c1 1 2.2 1.8 3.2 2.8 2.2 1.8 4.6 3.4 6.8 5.2 1.2.8 2.2 1.8 3.2 2.8l1.6 1.4 1.4 1.4c1 1 2 2 2.8 3.2.4.6.6 1.4.6 2.2.2.8.2 1.8 0 2.8l.8 1.6c0 1.6.2 3.2.6 4.8.2.8.4 1.6.6 2.4l.6 2.4c.8 3.2 1.8 6.2 3 9.3.6 1.6 1.2 3 1.8 4.6.6 1.4 1.2 3 1.8 4.4.6 1.4 1.2 2.8 2 4.2.4.6.8 1.4 1.2 2 .2.2.4.6.2 1.2-.2.6-.6 1.4-.6 1.8l.2.2c.2.4.2.6.2.8 0 .2 0 .6 0 .8 0 .4 0 1-.2 1.4-.2.4-.4.8-.6 1.2-.2.4-.6.8-.8 1-.6.6-1.2 1-2 1.4-.6.4-1.4.6-2 1 .6-.4 1.4-.8 2-1.2.6-.6 1-1 1.4-1.8.4-.6.4-1.4.4-1.8 0-.2-.2-.6-.2-.8s-.6-.6-.6-.8l-.2-.2.2.2c-.4-.2-1.2-.2-2-.2s-1-.4-1.2-.8c-.4-.8-1-1.6-1.4-2.4-.8-1.6-1.6-3.2-2.4-4.8-.6-1.6-1.2-3.2-1.8-4.8-.6-1.6-1-3.2-1.4-5-.4-1.6-.8-3.4-1.2-5l-1-5-.4-2.4c-.2-.8-.2-1.6-.4-2.4-.2-.8-.4-1.6-.6-2.4-.2-.8-.4-1.6-.6-2.4l.8 1.6c-1.2 0-2 0-2.8-.2-.8-.2-1.6-.6-2.2-.8-1.2-.8-2-2-3-3l-1.4-1.6-1.2-1.6c-.8-1.2-1.6-2.2-2.4-3.4-1.6-2.4-3-4.8-4.6-7.2-.8-1.2-1.6-2.4-2.4-3.6l-1.2-1.8c-.4-.6-.8-1-1.4-1.6l1.6.8-2.6-.6-2.6-.4c-1.8-.2-3.6-.4-5.2-.4h-5.4c-.8 0-1.8 0-2.6 0-.8 0-1.8 0-2.6-.2-3.6-.4-7-1-10.3-1.6l-5.2-1c-.8-.2-1.8-.4-2.6-.6-.8-.2-1.8-.4-2.6-.8l.8-10.3" fill="#ea9545"/></g><g><path d="m-52 434.3c0-.4 0-.8 0-1-.2-5.6-2.2-12.7-5.2-17.1-.2-.2-.2-.2-.4-.4-2.6-3.8-6.2-6.8-10.1-8.9l-3.4-7.2c-.6-1.2-1.8-2-3.2-2h-13.5c-1.4 0-2.6.8-3.2 2l-3 6.6c-4.4 2.2-8.3 5.4-11.1 9.3l-.2.2c-.2.2-.2.2-.4.4-2.8 4.2-4.6 11.1-5 16.3 0 .2 0 .6 0 .8 0 .4 0 .6 0 1 0 .2 0 .4 0 .4 0 5 .2 9.7.4 14.3.4 7.8 1 14.7 2 20.9 0 .2 0 .4 0 .6.6 3.8 1.2 7.2 1.8 10.5 1.2 5.4 2.4 10.1 3.8 14.3 7 21.3 16.3 29 19.9 31.2 0 1.4.2 3.2.2 4.8 0 1.2.2 2.2.2 3.4.2 1 .2 2 .2 3 0 .8.2 1.6.2 2s.2.8.2.8h.8c0 0 0-.2.2-.8 0-.4.2-1.2.2-2 0-.8.2-1.8.2-3 0-1 .2-2.2.2-3.4.2-1.6.2-3.4.2-4.8 3.6-2.4 13.1-9.9 19.9-31.2 1.4-4.2 2.6-8.9 3.8-14.3.6-3.2 1.2-6.8 1.8-10.5 0-.2 0-.4 0-.6.8-6.4 1.6-13.3 2-20.9.2-4.6.4-9.3.4-14.3.1-.2.1-.2.1-.4" fill="#313334"/><g><path d="m-86.2 442.1c-12.1-1-19.9-4.2-24.4-7.8 0-.4 0-.8 0-1s0-.6 0-.8c.4-5.2 2.2-12.1 5-16.3 4.2 3.2 5.8 7.8 5.8 10.3 10.3-.2 15.5-9.3 15.5-9.3s2.9 15.3-1.9 24.9" fill="#fff9c4"/><path d="m-85 475.9c0 0-15.1.6-23.5-5.8-.8-6.4-1.6-13.3-2-20.9 3.2 1.8 11.3 7.4 8 14.9 0 0 11.7 1.4 10.9-7.4 0-.1 9 5.6 6.6 19.2" fill="#fff9c4"/><path d="m-83.4 499.1c0 0-10.7.6-19.5-3.6-1.4-4.2-2.6-8.9-3.8-14.3 7.4 4.2 3.2 7.8 9.1 11.5 2.4 1.6 6.2-1.4 8.5-.8 3.3.8 4.9 5 5.7 7.2" fill="#fff9c4"/><path d="m-56.2 481.2c-1.2 5.4-2.4 10.1-3.8 14.3-8.7 4-19.5 3.6-19.5 3.6.8-2.2 2.4-6.4 5.6-7.2 2.4-.6 6.2 2.4 8.5.8 6-3.7 1.8-7.3 9.2-11.5" fill="#fff9c4"/><path d="m-52 434.3c-4.6 3.6-12.3 6.8-24.4 7.8-5-9.5-2.2-25-2.2-25s5.2 9.1 15.5 9.3c0-2.6 1.8-7.2 6-10.3 3 4.4 4.8 11.5 5.2 17.1-.1.3-.1.7-.1 1.1" fill="#fff9c4"/><path d="m-52.4 449c-.4 7.8-1 14.7-2 20.9-8.3 6.4-23.5 5.8-23.5 5.8-2.4-13.5 6.6-19.3 6.6-19.3-.8 8.9 10.9 7.4 10.9 7.4-3.4-7.4 4.8-13 8-14.8" fill="#fff9c4"/></g></g><path d="m-50.2 355.2c0 18.3-13.9 46.1-31 46.1s-31.2-27.8-31.2-46.1c0-18.3 13.9-29.2 31-29.2s31.2 11.1 31.2 29.2" fill="#fff9c4"/><g><g><path d="m-97.9 348.1l.2 9.5-138.5 15.9c-17.7 0-28-11.3-28-11.3-17.3-5.6-29.2-23.9-29.2-23.9-9.3-10.5-9.7-18.9-9.5-21.9 0-.8.2-1.2.2-1.2s14.3-10.9 38-9.1c23.3 2 166.8 42 166.8 42" opacity=".75" fill="#f4cb7c"/><path d="m-98.1 345.3v2.8c0 0-143.3-40.1-167.2-41.9-23.5-1.8-37.8 9.1-37.8 9.1s-.2-.2-.2-.8c0-1.2.6-2.2 1.6-2.8 4.2-2.6 17.3-9.5 36.6-8.1 23.7 1.7 167 41.7 167 41.7" fill="#ea9545"/></g><g><path d="m-98.1 359.6v2.2c0 0-20.5 23.3-23.3 27-2.6 3.8-30.4 19.1-53.5 18.7-23.3-.4-54.7-15.7-60.6-18.9-3.6-2-8.9-5.6-7.6-10.1.8-3 4.6-6.6 13.7-10.3 22.1-9.1 123.4-8.7 130.6-8.5.5-.1.7-.1.7-.1" opacity=".6" fill="#f4cb7c"/><path d="m-98.1 356.8v2.4c0 0-.2.2-.4.4-7.2 0-108.5-.6-130.6 8.5-9.1 3.8-12.9 7.4-13.7 10.3-1-3.6 1.8-8.1 13.7-13.1 22.8-9.5 131-8.5 131-8.5" fill="#ea9545"/></g><g><path d="m-64.8 348.1l-.2 9.5 138.5 15.9c17.7 0 28-11.3 28-11.3 17.3-5.6 29.2-23.9 29.2-23.9 9.3-10.7 9.7-19.3 9.7-22.1 0-.8-.2-1.2-.2-1.2s-14.3-10.9-38-9.1c-23.6 2.2-167 42.2-167 42.2" opacity=".75" fill="#f4cb7c"/><path d="m-64.8 345.3v2.8c0 0 143.3-40.1 167.2-41.9 23.7-1.8 38 9.1 38 9.1s.2-.4.2-1c0-1.2-.6-2.2-1.6-2.8-4.2-2.6-17.3-9.5-36.6-8.1-23.8 1.9-167.2 41.9-167.2 41.9" fill="#ea9545"/></g><g><path d="m-64.8 359.6v2.2c0 0 20.5 23.3 23.3 27 2.6 3.8 30.4 19.1 53.5 18.7 23.3-.4 54.7-15.7 60.6-18.9 3.6-2 8.9-5.6 7.6-10.1-.8-3-4.6-6.6-13.7-10.3-22.1-9.2-123.5-8.8-130.7-8.6-.4 0-.6 0-.6 0" opacity=".6" fill="#f4cb7c"/><path d="m-64.8 356.8v2.4c0 0 .2.2.4.4 7.2 0 108.5-.6 130.6 8.5 9.1 3.8 12.9 7.4 13.7 10.3 1-3.6-1.8-8.1-13.7-13.1-22.8-9.5-131-8.5-131-8.5" fill="#ea9545"/></g></g><path d="m-61.4 335.3v21.3c0 3.6-2 7-5.6 9.3-4.4 3-9.1 4.8-14.3 4.8-5.2 0-10.1-1.8-14.3-4.8-3.6-2.4-5.6-5.8-5.6-9.3v-21.3c0-6.4 6.4-8.1 14.9-9.1 1.6-.2 3.4-.2 5-.2 1.8 0 3.4.2 5 .2 8.6 1.2 14.9 3 14.9 9.1" fill="#313334"/><path d="m-70.9 374.3h-20.9c-5.6 0-10.1-4.6-10.1-10.1s4.6-10.1 10.1-10.1h20.9c5.6 0 10.1 4.6 10.1 10.1s-4.6 10.1-10.1 10.1" fill="#ea9545"/><g><g><path d="m-66.5 327.4c0 0-11.3 1.8-15.1 1.8-3.8 0-15.1-1.8-15.1-1.8v-10.4-10.3c0 0 11.3-2.6 15.1-2.6 3.8 0 15.1 2.6 15.1 2.6v10.3 10.4" fill="#313334"/><g><path d="m-91.8 317c0 6.2 2.6 11.1-3.6 11.1-6.2 0-11.1-5-11.1-11.1 0-6.2 5-11.1 11.1-11.1 6.2 0 3.6 5 3.6 11.1" fill="#996342"/><path d="m-71.3 317c0 6.2-2.6 11.1 3.6 11.1 6.2 0 11.1-5 11.1-11.1 0-6.2-5-11.1-11.1-11.1-6.2 0-3.6 5-3.6 11.1" fill="#996342"/></g></g><path d="m1.8 275.9c0 0 0-.4-.2-1.2-.2-.8-.4-2-1-3.4-.4-1.4-1.2-3.2-2.2-5-.4-1-1-1.8-1.6-2.6-.8-.8-1.4-1.8-2.4-2.6-.4-.4-.8-.8-1.4-1.2-.6-.4-1-.8-1.6-1-1.2-.6-2.4-1.2-3.8-1.4-2.6-.8-5.8-1-8.9-.8-.6 0-1.6.2-2.4.2-.8.2-1.4.2-2.2.6-1.6.4-3 1-4.6 1.8-3 1.6-5.6 3.6-8.1 6.2-5 5-9.1 10.7-13.1 16.1-4 5.6-7.8 10.7-11.3 14.7-3.6 4-7.2 7-9.9 8.7-1.4.8-2.4 1.4-3.2 1.8s-1.2.6-1.2.6l-.4-.8c0 0 .4-.2 1.2-.6.8-.4 1.8-1.2 3-2 1.2-1 2.6-2.2 4.2-3.8 1.6-1.6 3.2-3.4 4.8-5.4 1.6-2 3.4-4.4 5.2-7 1.8-2.6 3.6-5.2 5.4-8.1 1.8-2.8 3.8-5.8 6-8.7 2.2-3 4.4-5.8 7-8.5 2.6-2.6 5.6-5.2 8.9-7 1.6-1 3.4-1.6 5.2-2.2 1-.2 2-.4 2.8-.6 1-.2 1.6-.2 2.6-.2 3.6 0 7.2 0 10.3 1 1.6.4 3.2 1.2 4.6 1.8 1.4.8 2.8 1.6 3.8 2.8 2.2 2 3.6 4.6 4.4 6.8s1.2 4.4 1.2 6 0 3-.2 3.8c-.2.8-.2 1.4-.2 1.4l-.7-.2" fill="#313334"/><path d="m-165.5 275.9c0 0-.2-.4-.2-1.4-.2-.8-.2-2.2-.2-3.8.2-1.6.4-3.8 1.2-6s2.2-4.8 4.4-6.8c1-1.2 2.4-2 3.8-2.8 1.4-.6 3-1.4 4.6-1.8 3.6-1 7-1 10.5-1 1 0 1.8.2 2.6.2 1 .2 2 .4 2.8.6 1.8.6 3.6 1.2 5.2 2.2 3.4 1.8 6.4 4.2 8.9 7 2.6 2.6 5 5.6 7 8.5 2.2 3 4 5.8 6 8.7 1.8 2.8 3.6 5.6 5.4 8.1 1.8 2.6 3.4 5 5.2 7 1.6 2 3.4 4 4.8 5.4 1.6 1.6 3 2.8 4.2 3.8 1.2 1 2.2 1.6 3 2 .8.4 1.2.6 1.2.6l-.4.8c0 0-.4-.2-1.2-.6s-1.8-1-3.2-1.8c-2.8-1.8-6.4-4.8-9.9-8.7-3.8-4-7.6-9.1-11.3-14.7-4-5.6-8.1-11.3-13.1-16.1-2.4-2.4-5.2-4.6-8.1-6.2-1.4-.8-3-1.4-4.6-1.8-.8-.2-1.4-.4-2.2-.6-.8 0-1.8-.2-2.4-.2-3.2 0-6.4 0-8.9.8-1.4.2-2.6 1-3.8 1.4-.6.4-1 .8-1.6 1-.6.4-1 .8-1.4 1.2-1 .8-1.6 1.6-2.4 2.6-.6 1-1.2 1.8-1.6 2.6-1 1.8-1.6 3.4-2.2 5-.4 1.4-.8 2.6-1 3.4s-.2 1.2-.2 1.2l-.9.2" fill="#313334"/></g></g></switch></svg>