<svg xmlns="http://www.w3.org/2000/svg" width="1206.9" height="706.9" viewBox="-1349.3 1378 1206.9 706.9" enable-background="new -1349.3 1378 1206.9 706.9"><path d="m-715.9 1623.3c-1.2-1.7-3.1-2.7-5.1-2.7h-20.8c-1.6 0-3 .6-4.1 1.6-1.1-1-2.6-1.6-4.1-1.6h-20.9c-2 0-3.8 1-5.1 2.7-1.2 1.7-1.7 3.9-1.2 6 .6 2.5 1.1 7.5 1.8 13.3s1.4 12.4 2.5 19.4c.3 1.8 1.1 3.3 2.4 4.4-.4 1.1-.5 2.3-.4 3.4.3 2.2.2 4.4.2 6.8 0 1.9 0 3.8.1 5.7.1 1.7.8 3.3 1.9 4.4-.4 1-.7 2-.7 3.1v.5c0 2.1-.2 5.2-.5 9.2-.4 5.6-.8 12.5-1 20.6 0 1.9.6 3.7 1.8 5.1.1.1.2.2.3.3-.3.8-.5 1.7-.5 2.6-.2 7.4-.7 15.6-1.3 24.3-.7 10.7-1.5 21.8-1.7 33.3 0 1.9.6 3.7 1.9 5 .1.1.3.3.4.4-.3.8-.5 1.7-.5 2.6-.1 8.6-.6 17.4-1.1 25.9-.6 10.4-1.1 20.2-1 29.7 0 2.2.9 4.1 2.4 5.4-.3.8-.5 1.8-.5 2.7.1 7.4 0 14.6-.1 20.8-.2 10.2-.3 19 .5 25.4.3 2.4.6 5.1 1 8 .2 2.1 1.4 4 2.9 5.1-.3.9-.4 1.9-.3 2.9.7 7.4.9 15.8 1.1 24.6.2 7.5.3 15.3.9 23.2.1 2.1 1.2 4 2.7 5.2-.3.9-.4 1.8-.3 2.8.4 6.7.3 13.5.2 20.1-.1 5.9-.2 11.4.1 16.8.1 2.3 1.3 3.8 3.1 4.7-.6.9-.9 2-.8 3.3.4 8.7-.1 16.3-.4 21.9-.2 3.1-.4 5.6-.3 7.6 0 2.7 1.1 4.1 8.8 10l2.1 1.6 3.7-1.7 3.7 1.7 2.1-1.6c7.7-5.9 8.7-7.3 8.8-10 0-2-.1-4.5-.3-7.6-.3-5.6-.8-13.2-.4-21.9.1-1.3-.3-2.4-.8-3.3 1.7-.9 2.9-2.4 3.1-4.7.3-5.4.2-11 .1-16.8-.1-6.6-.2-13.3.2-20.1.1-1-.1-1.9-.3-2.8 1.5-1.2 2.6-3 2.7-5.2.5-7.9.7-15.6.9-23.2.2-8.8.4-17.2 1.1-24.6.1-1 0-1.9-.3-2.9 1.6-1.1 2.7-2.9 2.9-5.1.3-2.9.6-5.6 1-8 .8-6.4.7-15.2.5-25.4-.1-6.3-.2-13.4-.1-20.8 0-.9-.1-1.8-.5-2.7 1.4-1.3 2.4-3.2 2.4-5.4.1-9.5-.5-19.3-1-29.7-.5-8.5-1-17.3-1.1-25.9 0-.9-.2-1.8-.5-2.6.1-.1.3-.2.4-.4 1.2-1.4 1.9-3.1 1.9-5-.2-11.5-.9-22.6-1.7-33.3-.6-8.7-1.2-16.9-1.3-24.3 0-.9-.2-1.8-.5-2.6.1-.1.2-.2.3-.3 1.2-1.3 1.9-3.2 1.8-5.1-.2-8.1-.6-15-1-20.6-.3-4-.5-7.2-.5-9.2v-.5c0-1.1-.2-2.2-.7-3.1 1.1-1.2 1.8-2.7 1.9-4.4.1-2 .1-3.9.1-5.7 0-2.4 0-4.6.2-6.8.1-1.2 0-2.4-.4-3.4 1.2-1.1 2.1-2.6 2.4-4.4 1-7 1.8-13.5 2.5-19.4.7-5.8 1.3-10.8 1.8-13.3.2-2.1-.2-4.3-1.5-6" fill="#32313e"/><g fill="#9cacc4"><path d="m-749.2 1720.4l.9-30.5c0-1.1-.8-2-1.8-2h-12.8c-1 0-1.8.9-1.8 2 0 .2 0 .3 0 .5 0 5.2-1.2 14.9-1.5 28.9 0 1.1.8 2.1 1.8 2.1l13.4 1c1 0 1.8-.9 1.8-2"/><path d="m-750.1 1726.4h-12.6c-1 0-1.8.9-1.8 1.9-.4 16.6-2.7 35.7-3 56.5 0 1.1.8 2 1.8 2l14.7 1c1 0 1.8-.9 1.8-2l.9-57.5c.1-1.1-.8-1.9-1.8-1.9"/><path d="m-750.1 1791.9h-13.9c-1 0-1.8.9-1.8 2-.3 19-2.2 37.2-2.1 54.6 0 1.1.8 2 1.8 2l15.1 1c1 0 1.8-.9 1.8-2l.9-55.5c.1-1.3-.8-2.1-1.8-2.1"/><path d="m-750.1 1855.4h-14.1c-1 0-1.9.9-1.8 2 .3 19.4-.9 34.8.4 44.6.3 2.5.7 5.2 1 8.1.1 1 .9 1.8 1.8 1.8l11.9 1c1 0 1.8-.9 1.8-2l.9-53.5c0-1.2-.9-2-1.9-2"/><path d="m-750.1 1916.9l-10.1-1c-1.1 0-2 1-1.8 2.2 1.4 14 .9 30.9 2 47.9.1 1 .9 1.9 1.8 1.9l7.2 1c1 0 1.8-.9 1.8-2l.9-48c.1-1.2-.8-2-1.8-2"/><path d="m-750.1 2017.9c0 0-5.1-1-5 .1.6 13.6-.8 26.4-.7 31.7 0 .8 5.9 6 5.9 6l.8-.4.9-35.5c0-1.1-.9-1.9-1.9-1.9"/><path d="m-750.1 1972.9h-5.7c-1.1 0-1.9 1-1.8 2.1.8 12.9-.3 23.7.3 35 .1 1.1 6.4 3.9 6.4 3.9 1 0 1.8-.9 1.8-2l.9-37c0-1.2-.9-2-1.9-2"/><path d="m-750.1 1625.6h-20.8c-1.2 0-2.1 1.2-1.8 2.5 1.2 5.4 2.2 18.7 4.4 33.1.1 1 .9 1.7 1.8 1.7h15.5c1 0 1.8-.9 1.8-2l.9-33.2c.1-1.2-.8-2.1-1.8-2.1"/><path d="m-750.1 1666.9h-14.4c-1.1 0-2 1.1-1.8 2.3.5 4.4.1 8.7.3 12.9.1 1.1.9 1.9 1.8 1.9h12.3c1 0 1.8-.9 1.8-2l1.8-13c.1-1.3-.8-2.1-1.8-2.1"/><path d="m-742.7 1720.4l-.9-30.5c0-1.1.8-2 1.8-2h12.8c1 0 1.8.9 1.8 2 0 .2 0 .3 0 .5 0 5.2 1.2 14.9 1.5 28.9 0 1.1-.8 2.1-1.8 2.1l-13.4 1c-1 0-1.8-.9-1.8-2"/><path d="m-741.8 1726.4h12.6c1 0 1.8.9 1.8 1.9.4 16.6 2.7 35.7 3 56.5 0 1.1-.8 2-1.8 2l-14.7 1c-1 0-1.8-.9-1.8-2l-.9-57.5c0-1.1.8-1.9 1.8-1.9"/><path d="m-741.8 1791.9h13.9c1 0 1.8.9 1.8 2 .3 19 2.2 37.2 2.1 54.6 0 1.1-.8 2-1.8 2l-15.1 1c-1 0-1.8-.9-1.8-2l-.9-55.5c0-1.3.8-2.1 1.8-2.1"/><path d="m-741.8 1855.4h14.1c1 0 1.9.9 1.8 2-.3 19.4.9 34.8-.4 44.6-.3 2.5-.7 5.2-1 8.1-.1 1-.9 1.8-1.8 1.8l-11.9 1c-1 0-1.8-.9-1.8-2l-.9-53.5c.1-1.2.9-2 1.9-2"/><path d="m-741.8 1916.9l10.1-1c1.1 0 2 1 1.8 2.2-1.4 14-.9 30.9-2 47.9-.1 1-.9 1.9-1.8 1.9l-7.2 1c-1 0-1.8-.9-1.8-2l-.9-48c0-1.2.8-2 1.8-2"/><path d="m-741.8 2017.9c0 0 5.1-1 5 .1-.6 13.6.8 26.4.7 31.7 0 .8-5.9 6-5.9 6l-.8-.4-.9-35.5c.1-1.1.9-1.9 1.9-1.9"/><path d="m-741.8 1972.9h5.7c1.1 0 1.9 1 1.8 2.1-.8 12.9.3 23.7-.3 35-.1 1.1-6.4 3.9-6.4 3.9-1 0-1.8-.9-1.8-2l-.9-37c.1-1.2.9-2 1.9-2"/><path d="m-741.8 1625.6h20.9c1.2 0 2.1 1.2 1.8 2.5-1.2 5.4-2.2 18.7-4.4 33.1-.1 1-.9 1.7-1.8 1.7h-15.6c-1 0-1.8-.9-1.8-2l-.9-33.2c0-1.2.8-2.1 1.8-2.1"/><path d="m-741.8 1666.9h14.4c1.1 0 2 1.1 1.8 2.3-.5 4.4-.1 8.7-.3 12.9-.1 1.1-.9 1.9-1.8 1.9h-12.2c-1 0-1.8-.9-1.8-2l-1.8-13c-.1-1.3.7-2.1 1.7-2.1"/></g><g fill="#55110c"><path d="m-769.5 1483.5c-2.5-.9-4.9-2-7.3-3-2.4-1.1-4.8-2.1-7.1-3.2-2.4-1.1-4.7-2.2-7-3.4-2.3-1.2-4.7-2.4-7-3.6-4.6-2.5-9.2-5.1-13.7-7.9-1.1-.7-2.2-1.4-3.4-2.2-1.1-.7-2.2-1.5-3.2-2.4-1-.8-2-1.9-2.9-3-.2-.3-.4-.6-.6-.8-.2-.3-.4-.6-.6-1-.4-.7-.7-1.4-1-2.1l-.6-1.6c0-3.1.1-6.1.3-9.2.1-3.1.3-6.1.6-9.2s.6-6.1 1-9.2c.2-1.5.5-3.1.9-4.6.2-.8.4-1.6.7-2.4.4-.8.6-1.6 1.5-2.6l-.3 2.1c0-.6-.1-1.1-.3-1.6s-.4-1-.6-1.5c-.5-.9-.9-1.9-1.4-2.8-.9-1.9-1.9-3.7-2.9-5.5s-2-3.7-2.9-5.5c-.5-.9-.9-1.9-1.4-2.8l-.7-1.4c-.2-.5-.3-1 .1-1.8l.9-.4c.9.1 1.3.5 1.5 1l.7 1.4c.5.9 1 1.9 1.4 2.8.9 1.9 1.8 3.8 2.7 5.7.9 1.9 1.7 3.8 2.7 5.7.5.9.9 1.9 1.4 2.8.2.5.5.9.8 1.3s.7.8 1.1 1.2l-.3 2.1c-.2.2-.5.8-.7 1.4s-.4 1.3-.6 2c-.3 1.4-.6 2.8-.8 4.3-.4 2.9-.6 5.9-.8 8.9s-.3 6-.4 9c-.1 3-.1 6-.1 9l-.6-1.6c.7.1 1.3.3 1.9.5l.9.3c.3.1.6.2.9.3 1.2.4 2.3 1 3.4 1.5 1.1.6 2.2 1.2 3.2 1.9 1.1.7 2.1 1.3 3.2 2l3.3 2 3.3 1.9c1.1.7 2.2 1.3 3.3 1.9l3.3 1.9 6.7 3.9 3.4 1.9 3.3 2c2.2 1.3 4.4 2.6 6.7 3.9 2.2 1.3 4.4 2.7 6.6 4.1l-2.5 5.6"/><path d="m-724.9 1477.9c2.2-1.4 4.4-2.7 6.6-4.1 2.2-1.3 4.4-2.7 6.7-3.9l3.3-2 3.4-1.9 6.7-3.9 3.3-1.9c1.1-.6 2.2-1.3 3.3-1.9l3.3-1.9 3.3-2c1.1-.6 2.2-1.3 3.2-2 1.1-.7 2.1-1.3 3.2-1.9 1.1-.6 2.2-1.1 3.4-1.5.3-.1.6-.2.9-.3l.9-.3c.6-.2 1.2-.4 1.9-.5l-.6 1.6c0-3 0-6-.1-9s-.2-6-.4-9-.4-6-.8-8.9c-.2-1.5-.4-2.9-.8-4.3-.2-.7-.4-1.4-.6-2-.2-.6-.5-1.2-.7-1.4l-.3-2.1c.4-.4.8-.8 1.1-1.2.3-.4.6-.9.8-1.3.5-.9.9-1.9 1.4-2.8.9-1.9 1.8-3.8 2.7-5.7.9-1.9 1.7-3.8 2.7-5.7.5-.9.9-1.9 1.4-2.8l.7-1.4c.2-.5.6-.9 1.5-1l.9.4c.5.8.4 1.4.1 1.8l-.7 1.4c-.4.9-.9 1.9-1.4 2.8-.9 1.9-1.9 3.7-2.9 5.5s-2 3.7-2.9 5.5c-.5.9-.9 1.9-1.4 2.8-.2.5-.4 1-.6 1.5-.2.5-.3 1-.3 1.6l-.3-2.1c.9.9 1.2 1.8 1.5 2.6.3.8.5 1.6.7 2.4.4 1.6.7 3.1.9 4.6.5 3.1.8 6.1 1 9.2s.4 6.1.6 9.2c.1 3.1.2 6.1.3 9.2l-.6 1.6c-.3.7-.6 1.4-1 2.1-.2.3-.4.7-.6 1-.2.3-.4.6-.6.8-.9 1.1-1.9 2.2-2.9 3-1 .9-2.1 1.7-3.2 2.4-1.1.7-2.2 1.5-3.4 2.2-4.5 2.8-9 5.4-13.7 7.9-2.3 1.2-4.6 2.4-7 3.6-2.3 1.2-4.7 2.3-7 3.4s-4.7 2.2-7.1 3.2c-2.4 1-4.8 2.1-7.3 3l-2.5-5.6"/></g><path d="m-746.2 2052.8l-11.6-.9c0 0 3.2 28.4 7.8 33 0 0 1.9-4 3.8-5.9 1.9 1.9 3.8 5.9 3.8 5.9 4.6-4.6 7.8-33 7.8-33l-11.6.9" fill="#0d1022"/><path fill="#32313e" d="m-729 1455.3l-16.8-10.8-16.9 10.8-5.4 29.2 22.3 10.8 22.2-10.8z"/><g fill="#0d1022"><path d="m-773.3 1378.1c7 5.1 12.9 12.5 16.2 20.5.4 1 2 3.8.3 4.4s-1.9-2.1-2.3-3c-1.5-4.7-4.2-9.1-7.2-13-1.7-2.2-3.5-4.2-5.5-6.1-.7-.6-1.4-1.2-2-1.8-.1-.1-.3-.2-.4-.4 0-.5.5-.9.9-.6"/><path d="m-718.6 1378.1c-7 5.1-12.9 12.5-16.2 20.5-.4 1-2 3.8-.3 4.4s1.9-2.1 2.3-3c1.5-4.7 4.2-9.1 7.2-13 1.7-2.2 3.5-4.2 5.5-6.1.7-.6 1.4-1.2 2-1.8.1-.1.3-.2.4-.4 0-.5-.5-.9-.9-.6"/><path d="m-729.9 1400.4c-.5-.2-.8-.6-.9-1-.2-.8-1.2-2-5.7-2.2-.5 0-1-.4-1.2-.9l-.8-2c-1-2.6-3.9-3.8-6.5-2.7-.5.2-.9.7-.9 1.3 0-.6-.3-1.1-.9-1.3-2.5-1-5.4.2-6.5 2.7l-.8 2c-.2.5-.7.9-1.2.9-4.4.3-5.5 1.5-5.7 2.2-.1.5-.5.9-.9 1-34.2 11.4-35.6 32.1-32.5 45 1.6 6.8 6.8 12.1 13.5 13.8l7.2 1.9c3.9 1 8 .5 11.5-1.4l15.5-8.4c.5-.2 1-.2 1.5 0l15.5 8.4c3.5 1.9 7.6 2.4 11.5 1.4l7.2-1.9c6.7-1.7 11.9-7 13.5-13.8 3.2-12.9 1.7-33.6-32.4-45"/></g><g fill="#7eaead"><path d="m-795.6 1429.1c.1 2.1 1.7 3.7 3.8 3.8 6.2.3 20.1.2 29.7-5.1 12.7-7 16.6-20.3 14.1-22.2-2.5-1.8-12.3-5-20.2-4.8-7.3.2-28 13.4-27.4 28.3"/><path d="m-696.1 1429.1c-.1 2.1-1.7 3.7-3.8 3.8-6.2.3-20.1.2-29.7-5.1-12.7-7-16.6-20.3-14.1-22.2 2.5-1.8 12.3-5 20.2-4.8 7.4.2 28 13.4 27.4 28.3"/></g><g fill="#55110c"><path d="m-864.4 1494.8c.8-.5 1.4-.5 1.9-.3l1.6.5c1.1.3 2.1.7 3.2 1.1 2.1.8 4.2 1.6 6.3 2.4 2.1.8 4.2 1.7 6.3 2.4 1.1.4 2.1.7 3.2 1.1l.8.3c.3.1.5.2.9.1.6-.1 1.3-.3 1.9-.2l.6.3c1.4.6 2.9 1.3 4.2 2.1 1.3.8 2.6 1.7 3.8 2.6l7.6 5.3 15.2 10.7 15.1 10.8 7.5 5.5 7.5 5.5-2.8 4-7.8-5-7.8-5.1-15.5-10.2-15.5-10.3-7.7-5.2c-1.3-.9-2.6-1.7-3.8-2.6-1.2-.9-2.4-2.1-3.5-3.2l.6.3c-.5-.3-.8-1-1.3-1.4-.2-.2-.5-.4-.7-.5l-.8-.3c-1-.5-2.1-.9-3.1-1.3-2.1-.9-4.2-1.7-6.3-2.5-2.1-.8-4.2-1.6-6.3-2.4-1-.4-2.1-.9-3.1-1.3l-1.5-.7c-.5-.3-.9-.7-1.2-1.6l.5-.9"/><path d="m-828.8 1725.1c-.1-1.3.2-2.3.7-3.3l1.5-2.8c1-1.9 2-3.8 3.1-5.6 2.1-3.7 4.2-7.4 6.3-11.1 2.1-3.7 4.2-7.4 6.3-11.2 1-1.9 2-3.7 3-5.6l.8-1.4c.3-.5.5-.9.6-1.5.3-1.1.4-2.3.8-3.2l-.1.2c.4-1.5.8-3 1.3-4.3.6-1.4 1.3-2.7 1.9-4.1l3.9-8.1 7.9-16.2 8-16.1 4.1-8 4.1-8 4.4 2.1-3.6 8.3-3.6 8.3-7.4 16.5-7.5 16.4-3.8 8.2c-.6 1.4-1.2 2.7-1.9 4.1-.7 1.3-1.6 2.6-2.5 3.8l-.1.2c-.6.9-1.6 1.6-2.3 2.3-.4.4-.7.8-.9 1.3l-.8 1.4c-1.1 1.8-2.2 3.7-3.3 5.5-2.2 3.7-4.2 7.4-6.3 11.1-2.1 3.7-4.2 7.4-6.3 11.1-1.1 1.8-2.2 3.7-3.3 5.5l-1.7 2.7c-.6.9-1.3 1.7-2.5 2.3l-.8-.8"/><path d="m-627.4 1494.8c-.8-.5-1.4-.5-1.9-.3l-1.6.5c-1.1.3-2.1.7-3.2 1.1-2.1.8-4.2 1.6-6.3 2.4-2.1.8-4.2 1.7-6.3 2.4-1.1.4-2.1.7-3.2 1.1l-.8.3c-.3.1-.5.2-.9.1-.6-.1-1.3-.3-1.9-.2l-.6.3c-1.4.6-2.9 1.3-4.2 2.1-1.3.8-2.6 1.7-3.8 2.6l-7.6 5.3-15.2 10.7-15.1 10.8-7.5 5.5-7.5 5.5 2.8 4 7.8-5 7.8-5.1 15.5-10.2 15.5-10.3 7.7-5.2c1.3-.9 2.6-1.7 3.8-2.6 1.2-.9 2.4-2.1 3.5-3.2l-.6.3c.5-.3.8-1 1.3-1.4.2-.2.5-.4.7-.5l.8-.3c1-.5 2.1-.9 3.1-1.3 2.1-.9 4.2-1.7 6.3-2.5 2.1-.8 4.2-1.6 6.3-2.4 1-.4 2.1-.9 3.1-1.3l1.5-.7c.5-.3.9-.7 1.2-1.6l-.5-.9"/><path d="m-663 1725.1c.1-1.3-.2-2.3-.7-3.3l-1.5-2.8c-1-1.9-2-3.8-3.1-5.6-2.1-3.7-4.2-7.4-6.3-11.1-2.1-3.7-4.2-7.4-6.3-11.2-1-1.9-2-3.7-3-5.6l-.8-1.4c-.3-.5-.5-.9-.6-1.5-.3-1.1-.4-2.3-.8-3.2l.1.2c-.4-1.5-.8-3-1.3-4.3-.6-1.4-1.3-2.7-1.9-4.1l-3.9-8.1-7.9-16.2-8-16.1-4.1-8-4.1-8-4.4 2.1 3.6 8.3 3.6 8.3 7.4 16.5 7.5 16.4 3.8 8.2c.6 1.4 1.2 2.7 1.9 4.1.7 1.3 1.6 2.6 2.5 3.8l.1.2c.6.9 1.6 1.6 2.3 2.3.4.4.7.8.9 1.3l.8 1.4c1.1 1.8 2.2 3.7 3.3 5.5 2.2 3.7 4.2 7.4 6.3 11.1 2.1 3.7 4.2 7.4 6.3 11.1 1.1 1.8 2.2 3.7 3.3 5.5l1.7 2.7c.6.9 1.3 1.7 2.5 2.3l.8-.8"/></g><path d="m-714.3 1478.1c-3.2-5.5-10-7.7-15.9-5.2l-10.5 4.5c-3.3 1.4-7 1.4-10.3 0l-10.5-4.5c-5.8-2.5-12.6-.3-15.9 5.2-11 18.6-30 65.2-5.5 140.8 2.4 7.4 8.4 13.1 15.9 15.3l21.1 6 21.1-6c7.5-2.1 13.5-7.9 15.9-15.3 24.6-75.5 5.6-122.2-5.4-140.8" fill="#0d1022"/><g fill="#bcc6d6"><path d="m-747.4 1487.2c0-2.1-1.3-4-3.3-4.7-4.8-1.7-12.7-4.9-12.7-4.9-1-.4-2-.6-3-.6-2.7 0-5.2 1.4-6.6 3.8-5.4 9.1-12.5 24.7-15.4 47.1-3.6 27.2-.1 57.4 10.4 89.5 1.9 5.8 6.6 10.3 12.5 12l11.8 3.4c3.2.9 6.3-1.5 6.3-4.8v-140.8"/><path d="m-744.2 1487.2c0-2.1 1.3-4 3.3-4.7 4.8-1.7 12.7-4.9 12.7-4.9 1-.4 2-.6 3-.6 2.7 0 5.2 1.4 6.6 3.8 5.4 9.1 12.5 24.7 15.4 47.1 3.6 27.2.1 57.4-10.4 89.5-1.9 5.8-6.6 10.3-12.5 12l-11.8 3.4c-3.2.9-6.3-1.5-6.3-4.8v-140.8"/></g><path d="m-729.3 1515.9c-1.7-3.6-5.3-5.1-8.4-3.4l-5.5 3c-1.7.9-3.7.9-5.4 0l-5.5-3c-3.1-1.7-6.6-.2-8.4 3.4-5.8 12.2-15.8 42.8-2.9 92.4 1.3 4.9 4.4 8.6 8.4 10l11.1 3.9 11.1-3.9c3.9-1.4 7.1-5.2 8.4-10 12.8-49.6 2.8-80.2-2.9-92.4" fill="#0d1022"/><path d="m-758.6 1554.3v6.8c0 0-17.5 28.7-38.8 34.2-5.3 1.4-11.4 2.1-19.4 2.3-4 .1-8.5.2-13.6.1-.8 0-1.7 0-2.6 0-.9 0-1.8 0-2.7 0-1.4 0-2.8 0-4.3-.1-26-.6-65.8-2.2-132.1-2.2-120 0-190-45.1-190-45.1s-145-52.8-168-67.3c-8.6-5.4-24.3-21.9-17.7-45.4.5-1.9 1.8 17.2 2 15.3 1.2 9.4 7.3 18 15.7 23.3 23 14.5 168 67.3 168 67.3s70 49 190 49c66.2 0 106.1 1.7 132.1 2.2 1.5 0 2.9.1 4.3.1.9 0 1.8 0 2.7 0s1.8 0 2.6 0c5.1.1 9.6 0 13.6-.1 8-.3 14.1-.9 19.4-2.3 21.3-5.5 38.8-38.1 38.8-38.1" fill="#55110c"/><g fill="#0d1022"><path d="m-758.6 1540.5v2.9c0 0-187.5-70.2-294.5-74.6 0 0-.4-.2-1.2-.5-.1 0-.3-.1-.4-.2-2.1-.8-6.3-2.5-12.2-4.7-.6-.2-1.2-.4-1.8-.7-.1 0-.1 0-.2-.1-.5-.2-1.1-.4-1.7-.6-2.3-.9-4.9-1.8-7.6-2.9-.8-.3-1.5-.6-2.3-.9-.7-.3-1.3-.5-2-.8-2.5-.9-5.2-1.9-8-2.9-.4-.2-.9-.3-1.3-.5-.5-.2-.9-.3-1.4-.5-.4-.2-.9-.3-1.4-.5s-.9-.3-1.4-.5-.9-.3-1.4-.5c-1.4-.5-2.9-1-4.3-1.5-.5-.2-1-.3-1.5-.5s-1-.3-1.5-.5-1-.3-1.5-.5c-.8-.3-1.6-.6-2.4-.8-4.3-1.5-8.7-3-13.3-4.5-3-1-6-2-9.1-3-1.4-.5-2.8-.9-4.3-1.4-2.3-.7-4.6-1.5-6.9-2.2-1.2-.4-2.3-.7-3.5-1.1-2.4-.7-4.7-1.5-7.1-2.2-1.2-.4-2.4-.7-3.6-1.1-1.2-.4-2.4-.7-3.6-1.1-2.4-.7-4.8-1.4-7.3-2.2-1.4-.4-2.9-.8-4.3-1.2-3.4-1-6.9-2-10.3-2.9-2.5-.7-4.9-1.3-7.4-2-2.4-.6-4.9-1.3-7.3-1.9-8.1-2-16.1-3.9-23.9-5.6-.5-.1-1-.2-1.5-.3-.4 0-1.2 5.4-1.7 8.6-.2 1.3-1.4 2.1-2.7 1.8-10.3-2.7-51.3-12.9-71.6-10.4-21.5 2.6-48.8 19.6-48.2 35.7 0 .2 0 .5 0 .7-6.7-18.6 2.5-44.2 51.8-52.6 66.1-11.3 241 62.8 241 62.8 121.5 12.8 294.8 78.4 294.8 78.4"/><path d="m-1130.9 1440.6c3.1 1 6.2 2 9.1 3-3-.9-6-1.9-9.1-3"/></g><path d="m-758.6 1543.4v10.9c0 0-17.5 32.6-38.8 38.1-5.3 1.4-11.4 2.1-19.4 2.3-4 .1-8.5.2-13.6.1-.8 0-1.7 0-2.6 0-.9 0-1.8 0-2.7 0-1.4 0-2.8 0-4.3-.1-26-.6-65.8-2.2-132.1-2.2-120 0-190-49-190-49s-145-52.8-168-67.3c-8.4-5.3-14.5-13.9-15.7-23.3 0-.3-.1-.6-.1-.9 0-.2 0-.5 0-.7-.7-16 26.6-33.1 48.2-35.7 20.3-2.5 61.3 7.7 71.6 10.4 1.3.3 2.5-.5 2.7-1.8.5-3.2 1.3-8.6 1.7-8.6.5.1 1 .2 1.5.3 7.8 1.6 15.8 3.5 23.9 5.6 2.4.6 4.9 1.2 7.3 1.9 2.5.6 4.9 1.3 7.4 2 3.5 1 6.9 1.9 10.3 2.9 1.4.4 2.9.8 4.3 1.2 2.4.7 4.8 1.4 7.3 2.2 1.2.4 2.4.7 3.6 1.1 1.2.4 2.4.7 3.6 1.1 2.4.7 4.8 1.5 7.1 2.2 1.2.4 2.3.7 3.5 1.1 2.3.7 4.6 1.5 6.9 2.2 1.4.5 2.8.9 4.3 1.4 3.1 1 6.2 2 9.1 3 4.6 1.5 9 3.1 13.3 4.5.8.3 1.6.6 2.4.8.5.2 1 .3 1.5.5s1 .3 1.5.5 1 .3 1.5.5c1.5.5 2.9 1 4.3 1.5.5.2.9.3 1.4.5s.9.3 1.4.5.9.3 1.4.5.9.3 1.4.5c.4.2.9.3 1.3.5 2.8 1 5.4 2 8 2.9.7.3 1.4.5 2 .8.8.3 1.5.6 2.3.9 2.7 1 5.2 2 7.6 2.9.6.2 1.1.4 1.7.6.1 0 .1 0 .2.1.6.2 1.2.5 1.8.7 5.8 2.2 10 3.9 12.2 4.7.2.1.3.1.4.2.8.3 1.2.5 1.2.5 106.7 4.3 294.2 74.5 294.2 74.5" opacity=".25" fill="#e6e1ca"/><path d="m-771.7 1612.8c0-.7.4-1.2.9-1.5l-.2-.7c0 0-6.3-14.8-40.8-12.5s-214 16.2-220 16.2-185.5-5.7-221 0-84.5 30.9-84.5 56.6c0 .9.2 1.7.7 2.6 6.2-23.7 50.8-45.8 83.8-51.1 35.5-5.7 215 0 221 0s185.5-18.5 220-20.7c28.3-1.8 37.6 7.8 40.1 11.3 0-.1 0-.2 0-.2" fill="#0d1022"/><path d="m-765.8 1669.7c-.8 25-13 46.3-77.5 67.4-98.5 32.2-260.5-4.5-267-4.5-6.3 0-217.2-26.9-226.7-52.1-.2-.6-.3-1.2-.3-1.7 0-1.8.2-3.6.7-5.5 6.2-23.7 50.8-45.8 83.8-51.1 35.5-5.7 215 0 221 0s185.5-18.5 220-20.7 40.8 12.5 40.8 12.5l2.8 12.6c0 13.6 2.1 26.2 2.4 37.9.1 1.9.1 3.6 0 5.2" opacity=".25" fill="#e6e1ca"/><g fill="#55110c"><path d="m-843.3 1742.6c-98.5 32.2-260.5-4.5-267-4.5s-230.8-29.9-228.8-55.4c.6-7.3 1.7-11 2.6-17.4.4-2.8-.2 8.9 0 8.2 10.5 35.4 219.9 59.3 226.3 59.3 6.5 0 168.5 36.7 267 4.5 64.5-21.1 76.8-42.5 77.5-67.4 0 .1 0 .2 0 .3.6 27-8.8 49.9-77.6 72.4"/><path d="m-694.4 1592.4c5.3 1.4 11.4 2 19.4 2.3 4 .1 8.5.2 13.6.1.8 0 1.7 0 2.6 0s1.8 0 2.7 0c1.4 0 2.8-.1 4.3-.1 26-.5 65.9-2.2 132.1-2.2 120 0 190-49 190-49s145-52.8 168-67.3c8.4-5.3 14.5-13.9 15.7-23.3.2 1.9 1.5-17.2 2-15.3 6.6 23.5-9.1 40-17.7 45.4-23 14.5-168 67.3-168 67.3s-70 45.1-190 45.1c-66.3 0-106.1 1.6-132.1 2.2-1.5.1-2.9.1-4.3.1-.9 0-1.8 0-2.7 0-.9 0-1.8 0-2.6 0-5.1.1-9.6 0-13.6-.1-8-.2-14.1-.9-19.4-2.3-21.3-5.5-38.8-34.2-38.8-34.2v-6.8c0 0 17.5 32.6 38.8 38.1"/></g><g fill="#0d1022"><path d="m-438.4 1462.1c0 0 174.9-74.1 241-62.8 49.3 8.4 58.5 34 51.8 52.6 0-.2 0-.5 0-.7.6-16.1-26.7-33.1-48.2-35.7-20.3-2.5-61.3 7.7-71.6 10.4-1.3.3-2.5-.5-2.7-1.8-.5-3.2-1.3-8.6-1.7-8.6-.5.1-1 .2-1.5.3-7.8 1.7-15.8 3.6-23.9 5.6-2.4.6-4.9 1.3-7.3 1.9-2.5.7-4.9 1.3-7.4 2-3.4.9-6.9 1.9-10.3 2.9-1.4.4-2.9.8-4.3 1.2-2.5.8-4.9 1.5-7.3 2.2-1.2.4-2.4.7-3.6 1.1s-2.4.7-3.6 1.1c-2.4.7-4.7 1.5-7.1 2.2-1.2.4-2.3.7-3.5 1.1-2.3.7-4.6 1.5-6.9 2.2-1.5.5-2.9.9-4.3 1.4-3.1 1-6.1 2-9.1 3-4.6 1.5-9 3-13.3 4.5-.8.2-1.6.5-2.4.8-.5.2-1 .3-1.5.5s-1 .3-1.5.5-1 .3-1.5.5c-1.4.5-2.9 1-4.3 1.5-.5.2-.9.3-1.4.5s-.9.3-1.4.5-1 .3-1.4.5c-.5.2-.9.3-1.4.5-.4.2-.9.3-1.3.5-2.8 1-5.5 2-8 2.9-.7.3-1.3.5-2 .8-.8.3-1.5.6-2.3.9-2.7 1.1-5.3 2-7.6 2.9-.6.2-1.2.4-1.7.6-.1.1-.1.1-.2.1-.6.3-1.2.5-1.8.7-5.9 2.2-10.1 3.9-12.2 4.7-.1.1-.3.2-.4.2-.8.3-1.2.5-1.2.5-107 4.4-294.5 74.6-294.5 74.6v-2.9c0 0 173.3-65.6 294.8-78.4"/><path d="m-370 1443.6c2.9-1 6-2 9.1-3-3.1 1.1-6.1 2.1-9.1 3"/></g><path d="m-439 1468.9c0 0 .4-.2 1.2-.5.1-.1.2-.1.4-.2 2.2-.8 6.4-2.5 12.2-4.7.6-.2 1.2-.5 1.8-.7.1-.1.1-.1.2-.1.6-.2 1.1-.4 1.7-.6 2.4-.9 4.9-1.9 7.6-2.9.8-.3 1.5-.6 2.3-.9.6-.3 1.3-.5 2-.8 2.6-.9 5.2-1.9 8-2.9.4-.2.9-.3 1.3-.5.5-.2.9-.3 1.4-.5s.9-.3 1.4-.5.9-.3 1.4-.5.9-.3 1.4-.5c1.4-.5 2.8-1 4.3-1.5.5-.2 1-.3 1.5-.5s1-.3 1.5-.5 1-.3 1.5-.5c.8-.2 1.6-.5 2.4-.8 4.3-1.4 8.7-3 13.3-4.5 2.9-1 6-2 9.1-3 1.5-.5 2.9-.9 4.3-1.4 2.3-.7 4.6-1.5 6.9-2.2 1.2-.4 2.3-.7 3.5-1.1 2.3-.7 4.7-1.5 7.1-2.2 1.2-.4 2.4-.7 3.6-1.1s2.4-.7 3.6-1.1c2.5-.8 4.9-1.5 7.3-2.2 1.4-.4 2.9-.8 4.3-1.2 3.4-1 6.8-1.9 10.3-2.9 2.5-.7 4.9-1.4 7.4-2 2.4-.7 4.9-1.3 7.3-1.9 8.1-2.1 16.1-4 23.9-5.6.5-.1 1-.2 1.5-.3.4 0 1.2 5.4 1.7 8.6.2 1.3 1.4 2.1 2.7 1.8 10.3-2.7 51.3-12.9 71.6-10.4 21.6 2.6 48.9 19.7 48.2 35.7 0 .2 0 .5 0 .7 0 .3-.1.6-.1.9-1.2 9.4-7.3 18-15.7 23.3-23 14.5-168 67.3-168 67.3s-70 49-190 49c-66.3 0-106.1 1.6-132.1 2.2-1.5.1-2.9.1-4.3.1-.9 0-1.8 0-2.7 0-.9 0-1.8 0-2.6 0-5.1.1-9.6 0-13.6-.1-8-.2-14.1-.9-19.4-2.3-21.3-5.5-38.8-38.1-38.8-38.1v-10.9c0 0 187.5-70.2 294.2-74.5" opacity=".25" fill="#e6e1ca"/><path d="m-720.1 1613c2.5-3.5 11.8-13.1 40.1-11.3 34.5 2.2 214 20.7 220 20.7s185.5-5.7 221 0c33 5.3 77.6 27.4 83.8 51.1.5-.9.7-1.7.7-2.6 0-25.7-49-50.9-84.5-56.6s-215 0-221 0-185.5-13.9-220-16.2-40.8 12.5-40.8 12.5l-.2.7c.5.3.9.8.9 1.5 0 0 0 .1 0 .2" fill="#0d1022"/><path d="m-726 1664.5c.3-11.7 2.4-24.3 2.4-37.9l2.8-12.6c0 0 6.3-14.7 40.8-12.5s214 20.7 220 20.7 185.5-5.7 221 0c33 5.3 77.6 27.4 83.8 51.1.5 1.9.7 3.7.7 5.5 0 .5-.1 1.1-.3 1.7-9.5 25.2-220.4 52.1-226.7 52.1-6.5 0-168.5 36.7-267 4.5-64.5-21.1-76.7-42.4-77.5-67.4-.1-1.6-.1-3.3 0-5.2" opacity=".25" fill="#e6e1ca"/><path d="m-726.1 1670.2c0-.1 0-.2 0-.3.7 24.9 13 46.3 77.5 67.4 98.5 32.2 260.5-4.5 267-4.5 6.4 0 215.8-23.9 226.3-59.3.2.7-.4-11 0-8.2.9 6.4 2 10.1 2.6 17.4 2 25.5-222.3 55.4-228.8 55.4s-168.5 36.7-267 4.5c-68.8-22.5-78.2-45.4-77.6-72.4" fill="#55110c"/></svg>