<svg xmlns="http://www.w3.org/2000/svg" width="149.2" height="216" viewBox="-230 289 149.2 216" enable-background="new -230 289 149.2 216"><switch><g><g><g><path d="m-138.4 401.1c.8.5 1.4 1.1 2.1 1.7l.9.9.9 1c1.1 1.3 2.1 2.8 3 4.2.9 1.5 1.8 3 2.6 4.5s1.6 3.1 2.4 4.7c.7 1.6 1.4 3.3 2 4.9.6 1.7 1.2 3.4 1.7 5.1.1.4.3.9.4 1.3.1.4.1.9.2 1.4 0 1 0 2-.1 2.9-.1 1-.1 1.9 0 2.8.1.9.2 1.8.4 2.8l-.2.6c-.1.7-.3 1.4-.5 2l-.4.9c-.1.3-.3.6-.4.9-.3.6-.6 1.1-1 1.7-.4.5-.7 1-1.1 1.5l-2.3 2.9c-.7 1-1.5 1.9-2.2 2.9s-1.4 2-2.1 3c-.3.5-.7 1-1 1.5s-.6 1-.9 1.5c-.6 1-1.1 2.1-1.6 3.2l-.3.8-.3.8c-.1.3-.2.6-.3.8l-.2.9-.1-.4c.1.4.3.8.4 1.2.1.4.2.8.3 1.2.2.8.4 1.6.5 2.4.1.8.2 1.6.3 2.5 0 .8 0 1.7 0 2.5 0 .4-.1.8-.1 1.2-.1.4-.1.8-.2 1.2-.1.8-.3 1.6-.5 2.4-.2.8-.4 1.6-.4 2.3-.1.8 0 1.6.1 2.4-.2-.8-.3-1.6-.3-2.4 0-.8.1-1.6.2-2.4.1-.8.2-1.6.3-2.4 0-.4.1-.8.1-1.2s0-.8 0-1.2c0-.8-.1-1.6-.2-2.3-.1-.8-.3-1.5-.5-2.3s-.4-1.5-.7-2.3c-.1-.4-.3-.7-.4-1.1-.1-.4-.3-.7-.4-1.1l-.1-.1v-.3-1c0-.3 0-.7.1-1 .1-.7.1-1.3.3-2 .1-.7.3-1.3.5-1.9.2-.6.4-1.3.6-1.9.2-.6.5-1.2.7-1.8.3-.6.5-1.2.8-1.8.6-1.2 1.2-2.3 1.9-3.4.7-1.1 1.3-2.2 2.1-3.2l2.2-3.1c.4-.5.7-1 1.1-1.5.4-.5.8-.9 1.2-1.4s.9-.9 1.3-1.3c.5-.4.9-.8 1.4-1.2l-.2.6c.4-.7.3-1.5 0-2.2s-.9-1.4-1.6-2c-.7-.6-1.6-1.1-2.3-1.6-.4-.3-.7-.6-.9-.9-.3-.3-.5-.6-.7-1-1-1.3-2-2.6-3-3.8l-1.5-1.9-1.5-1.9-1.5-2-1.5-2-1.4-2-1.4-2c-1-1.3-1.8-2.8-2.5-4.3-.4-.8-.7-1.6-.9-2.4-.2-.8-.5-1.7-.6-2.6l7.3-5.4" fill="#0d0d0f"/><path d="m-146.7 371c.1-.4.3-.8.4-1.2.2-.4.4-.8.6-1.1.4-.7.9-1.4 1.4-2 .5-.7.9-1.3 1.3-2 .4-.7.9-1.3 1.3-2 .4-.7.8-1.4 1.2-2 .4-.7.7-1.4 1.1-2.1.7-1.4 1.2-2.8 1.5-4.1v.3c0-.3.4-.6.7-.9.1-.2.2-.3.2-.5v-.5c0-.6 0-1.2 0-1.9 0-1.2-.2-2.5-.4-3.6-.1-.3-.1-.6-.2-.8l-.1-.2-.1-.2-.1-.5c-.1-.4-.2-.7-.2-1.1 0-.3-.1-.7-.1-1-.1-.7 0-1.4 0-2 0-.3 0-.7.2-1 .1-.3.3-.6.5-1v.1c.1-.3.2-.5.3-.8 0-.3.1-.5.1-.8.1-.5.1-1 .1-1.6.1-1 .1-2.1.1-3.1s0-2.1.1-3.1c0-.5.1-1 .1-1.6 0-.5.1-1 .5-1.5v-.1c.1-.2.2-.3.3-.4.1-.1.3-.2.4-.3.1-.1.3-.1.5-.2.2 0 .3 0 .5.1-.3 0-.6.1-.7.3-.1.1-.2.2-.2.3-.1.1-.1.3-.1.4v-.1c.4.5.3 1.1.3 1.6s0 1-.1 1.6c-.1 1-.2 2.1-.3 3.1s-.2 2.1-.2 3.1c0 .5 0 1 0 1.6 0 .3 0 .5 0 .8s.1.5.2.8v.1c.1.3.3.6.3.9.1.3.1.6.1.9 0 .6 0 1.2 0 1.8 0 .3 0 .6 0 .9 0 .3 0 .5.1.8l.1.9c.1.4.1.7.1 1 .1 1.3.1 2.6.1 3.9 0 .6 0 1.3 0 1.9v.5c0 .2 0 .3.2.5.3.3.7.6.7 1v.1.1c-.2 1.9-.8 3.7-1.5 5.3-.7 1.7-1.6 3.2-2.5 4.6-1 1.5-2 2.8-3.1 4.1-.5.7-1.1 1.3-1.8 1.9-.3.3-.7.6-1 .8-.4.2-.8.5-1.2.6l-1.7-1.4" fill="#0d0d0f"/><path d="m-146.5 388.3l1.7-.2c.6-.1 1.2-.1 1.8-.1 1.2-.1 2.3-.1 3.5-.1.6 0 1.2 0 1.7 0 .6 0 1.2 0 1.7.1.3 0 .6.1.9.2.3.1.6.2.9.3.3.1.6.2.9.4.3.1.6.3.9.5l.6.3c.3.2.4.5.3.7-.1.3-.2.6-.3.8-.1.3-.2.6-.2.8l-.4 1.7-.4 1.7-.2.9c0 .3 0 .6.2.9l-1-.8c.2 0 .4 0 .6-.1.2 0 .4-.1.6-.1.4-.1.7-.2 1.1-.4.4-.1.7-.3 1.1-.4l1.1-.5 1.1-.4c.4-.1.7-.3 1.1-.4.2-.1.3-.2.3-.1 0 .1 0 0 0-.1s0-.3-.1-.5c0-.2-.1-.4-.1-.6.2.1.4.2.6.3.2.1.3.3.5.5.1.1.1.2.1.4s0 .4-.1.6c0 .1-.2.2-.2.2-.1.1-.1.1-.2.1-.1.1-.2.1-.3.2-.4.2-.7.3-1.1.5l-1.1.4-1.1.4c-.4.1-.7.3-1.1.4-.4.1-.7.3-1.1.4-.2.1-.3.2-.5.3s-.3.2-.5.3l-1-.8c-.3-.2-.4-.4-.5-.5-.1-.2-.1-.3-.1-.5l.1-.9c.1-.6.2-1.1.3-1.7.1-.6.3-1.1.5-1.7.1-.3.2-.6.3-.8.1-.3.2-.6.3-.8l.8 1.1c-.2 0-.5 0-.8 0s-.5 0-.8.1c-.3 0-.5.1-.8.2-.3.1-.5.2-.8.3s-.5.3-.8.4c-.3.1-.5.2-.8.2-.5.1-1 .2-1.6.3l-3.1.7c-.5.1-1 .2-1.5.3l-.8.2c-.3.1-.5.1-.8.2l-1.4-5.8" fill="#0d0d0f"/></g><g><path d="m-172.3 401.1c-.8.5-1.4 1.1-2.1 1.7l-.9.9-.9 1c-1.1 1.3-2.1 2.8-3 4.2-.9 1.5-1.8 3-2.6 4.5s-1.6 3.1-2.4 4.7c-.7 1.6-1.4 3.3-2 4.9-.6 1.7-1.2 3.4-1.7 5.1-.1.4-.3.9-.4 1.3-.1.4-.1.9-.2 1.4 0 1 0 2 .1 2.9.1 1 .1 1.9 0 2.8-.1.9-.2 1.8-.4 2.8l.2.6c.1.7.3 1.4.5 2l.4.9c.1.3.3.6.4.9.3.6.6 1.1 1 1.7.4.5.7 1 1.1 1.5l2.3 2.9c.7 1 1.5 1.9 2.2 2.9s1.4 2 2.1 3c.3.5.7 1 1 1.5s.6 1 .9 1.5c.6 1 1.1 2.1 1.6 3.2l.3.8.3.8c.1.3.2.6.3.8l.2.9.1-.4c-.1.4-.3.8-.4 1.2-.1.4-.2.8-.3 1.2-.2.8-.4 1.6-.5 2.4-.1.8-.2 1.6-.3 2.5 0 .8 0 1.7 0 2.5 0 .4.1.8.1 1.2.1.4.1.8.2 1.2.1.8.3 1.6.5 2.4.2.8.4 1.6.4 2.3.1.8 0 1.6-.1 2.4.2-.8.3-1.6.3-2.4 0-.8-.1-1.6-.2-2.4-.1-.8-.2-1.6-.3-2.4 0-.4-.1-.8-.1-1.2s0-.8 0-1.2c0-.8.1-1.6.2-2.3.1-.8.3-1.5.5-2.3s.4-1.5.7-2.3c.1-.4.3-.7.4-1.1.1-.4.3-.7.4-1.1l.1-.1v-.3-1c0-.3 0-.7-.1-1-.1-.7-.1-1.3-.3-2-.1-.7-.3-1.3-.5-1.9-.2-.6-.4-1.3-.6-1.9-.2-.6-.5-1.2-.7-1.8-.3-.6-.5-1.2-.8-1.8-.6-1.2-1.2-2.3-1.9-3.4-.7-1.1-1.3-2.2-2.1-3.2l-2.2-3.1c-.4-.5-.7-1-1.1-1.5-.4-.5-.8-.9-1.2-1.4s-.9-.9-1.3-1.3c-.5-.4-.9-.8-1.4-1.2l.2.6c-.4-.7-.3-1.5 0-2.2s.9-1.4 1.6-2c.7-.6 1.6-1.1 2.3-1.6.4-.3.7-.6.9-.9.3-.3.5-.6.7-1 1-1.3 2-2.6 3-3.8l1.5-1.9 1.5-1.9 1.5-2 1.5-2 1.4-2 1.4-2c1-1.3 1.8-2.8 2.5-4.3.4-.8.7-1.6.9-2.4.2-.8.5-1.7.6-2.6l-7.3-5.4" fill="#0d0d0f"/><path d="m-164 371c-.1-.4-.3-.8-.4-1.2-.2-.4-.4-.8-.6-1.1-.4-.7-.9-1.4-1.4-2-.5-.7-.9-1.3-1.3-2-.4-.7-.9-1.3-1.3-2-.4-.7-.8-1.4-1.2-2-.4-.7-.7-1.4-1.1-2.1-.7-1.4-1.2-2.8-1.5-4.1v.3c0-.3-.4-.6-.7-.9-.1-.2-.2-.3-.2-.5v-.5c0-.6 0-1.2 0-1.9 0-1.2.2-2.5.4-3.6.1-.3.1-.6.2-.8l.1-.2.1-.2.1-.5c.1-.4.2-.7.2-1.1 0-.3.1-.7.1-1 .1-.7 0-1.4 0-2 0-.3 0-.7-.2-1-.1-.3-.3-.6-.5-1v.1c-.1-.3-.2-.5-.3-.8 0-.3-.1-.5-.1-.8-.1-.5-.1-1-.1-1.6-.1-1-.1-2.1-.1-3.1s0-2.1-.1-3.1c0-.5-.1-1-.1-1.6 0-.5-.1-1-.5-1.5v-.1c-.1-.2-.2-.3-.3-.4-.1-.1-.3-.2-.4-.3-.1-.1-.3-.1-.5-.2-.2 0-.3 0-.5.1.3 0 .6.1.7.3.1.1.2.2.2.3.1.1.1.3.1.4v-.1c-.4.5-.3 1.1-.3 1.6s0 1 .1 1.6c.1 1 .2 2.1.3 3.1s.2 2.1.2 3.1c0 .5 0 1 0 1.6 0 .3 0 .5 0 .8s-.1.5-.2.8v.1c-.1.3-.3.6-.3.9-.1.3-.1.6-.1.9 0 .6 0 1.2 0 1.8 0 .3 0 .6 0 .9 0 .3 0 .5-.1.8l-.1.9c-.1.4-.1.7-.1 1-.1 1.3-.1 2.6-.1 3.9 0 .6 0 1.3 0 1.9v.5c0 .2 0 .3-.2.5-.3.3-.7.6-.7 1v.1.1c.2 1.9.8 3.7 1.5 5.3.7 1.7 1.6 3.2 2.5 4.6 1 1.5 2 2.8 3.1 4.1.5.7 1.1 1.3 1.8 1.9.3.3.7.6 1 .8.4.2.8.5 1.2.6l1.7-1.4" fill="#0d0d0f"/><path d="m-164.3 388.3l-1.7-.2c-.6-.1-1.2-.1-1.8-.1-1.2-.1-2.3-.1-3.5-.1-.6 0-1.2 0-1.7 0-.6 0-1.2 0-1.7.1-.3 0-.6.1-.9.2-.3.1-.6.2-.9.3-.3.1-.6.2-.9.4-.3.1-.6.3-.9.5l-.6.3c-.3.2-.4.5-.3.7.1.3.2.6.3.8.1.3.2.6.2.8l.4 1.7.4 1.7.2.9c0 .3 0 .6-.2.9l1-.8c-.2 0-.4 0-.6-.1-.2 0-.4-.1-.6-.1-.4-.1-.7-.2-1.1-.4-.4-.1-.7-.3-1.1-.4l-1.1-.5-1.1-.4c-.4-.1-.7-.3-1.1-.4-.2-.1-.3-.2-.3-.1 0 .1 0 0 0-.1s0-.3.1-.5c0-.2.1-.4.1-.6-.2.1-.4.2-.6.3-.2.1-.3.3-.5.5-.1.1-.1.2-.1.4s0 .4.1.6c0 .1.2.2.2.2.1.1.1.1.2.1.1.1.2.1.3.2.4.2.7.3 1.1.5l1.1.4 1.1.4c.4.1.7.3 1.1.4.4.1.7.3 1.1.4.2.1.3.2.5.3s.3.2.5.3l1-.8c.3-.2.4-.4.5-.5.1-.2.1-.3.1-.5l-.1-.9c-.1-.6-.2-1.1-.3-1.7-.1-.6-.3-1.1-.5-1.7-.1-.3-.2-.6-.3-.8-.1-.3-.2-.6-.3-.8l-.8 1.1c.2 0 .5 0 .8 0s.5 0 .8.1c.3 0 .5.1.8.2.3.1.5.2.8.3s.5.3.8.4c.3.1.5.2.8.2.5.1 1 .2 1.6.3l3.1.7c.5.1 1 .2 1.5.3l.8.2c.3.1.5.1.8.2l1.4-5.8" fill="#0d0d0f"/></g><path d="m-137.7 407.2c0 22.5-12.2 42.8-17.2 43.5-.1 0-.2-.7-.3-.7s-.2.7-.3.7c-3.5-.5-10.4-10.4-14.3-23.9-1.7-6-2.9-12.7-2.9-19.6 0-9.6 1.9-14.8 5.1-21.1.7-1.4 1.4-2.5 2.2-3.3 2.9-3.1 6.3-3.3 10.1-3.3 4.8 0 9.2.3 12.3 6.6 3.3 6.3 5.3 11.5 5.3 21.1" fill="#1b1918"/><g><path d="m-154.2 445.9c0 0-.2 3.7-.2 9.3 0 2.8 0 6 0 9.5s.1 7.2.2 10.9c.2 7.4.4 14.8.4 20.4 0 1.4 0 2.7 0 3.8s-.1 2.1-.2 2.9c-.3 1.6-.9 2.5-.9 2.5h-.1c0 0-.6-.9-.9-2.5-.2-.8-.2-1.8-.2-2.9 0-1.1 0-2.4 0-3.8 0-5.6.2-13 .4-20.4.1-3.7.1-7.4.2-10.9 0-3.5 0-6.7 0-9.5-.1-5.6-.2-9.3-.2-9.3h1.5" fill="#1b1918"/><path d="m-149.7 442.4l4.8 35.7-7.6-35.2 2.8-.5" fill="#1b1918"/><path d="m-157.7 442.9l-7.6 35.2 4.7-35.7 2.9.5" fill="#1b1918"/></g><path d="m-156 382.8v35.1c.7 5.3-4.2 9.6-10.2 9.6-2.5 0-4.6-1.8-5.2-4.2-1.3-5.1-2.1-10.6-2.1-16.2 0-9.6 2.1-14.8 5.4-21.1.7-1.4 1.5-2.5 2.4-3.3h9.7v.1" opacity=".5" fill="#393434"/><path d="m-154.7 382.8v35.1c-.7 5.3 4.2 9.6 10.2 9.6 2.5 0 4.6-1.8 5.2-4.2 1.3-5.1 2.1-10.6 2.1-16.2 0-9.6-2.1-14.8-5.4-21.1-.7-1.4-1.5-2.5-2.4-3.3h-9.7v.1" opacity=".5" fill="#393434"/><path d="m-143.4 366.4h-24c0 0-1.3 4.9-1.3 9.2 0 4.9 2 9.2 2 9.2s8.4 2.3 11.3 2.3 11.3-2.3 11.3-2.3 2-4.2 2-9.2c.1-4.3-1.3-9.2-1.3-9.2" fill="#1b1918"/><g><circle cx="-164" cy="359.6" r="3.6" fill="#0d0d0f"/><circle cx="-146.8" cy="359.6" r="3.6" fill="#0d0d0f"/></g><path d="m-155.4 352c-3.5 0-5.9 2.1-8.4 5.2-2.2 2.5-3.9 4.4-4.1 6.8 0 3 1.1 3.2 3.5 3.1 2.3-.2 5.6 1.3 9.1 1.3s6.8-1.5 9.1-1.3 3.5 0 3.5-3.1c-.1-2.3-2-4.2-4.1-6.8-2.7-3-5-5.2-8.6-5.2" fill="#393434"/><path d="m-151.5 353.9c0 0 .7-1.4 2.1-3.7 1.4-2.3 3.4-5.6 6-9.4 1.3-1.9 2.8-3.9 4.4-6 1.6-2.1 3.3-4.3 5.2-6.5s3.8-4.4 5.9-6.6c2-2.2 4.2-4.3 6.4-6.5 1.1-1.1 2.3-2.1 3.4-3.1 1.2-1 2.3-2 3.4-3 1.2-.9 2.3-1.9 3.5-2.8s2.3-1.8 3.5-2.6c1.2-.8 2.3-1.6 3.5-2.4s2.3-1.5 3.4-2.2 2.2-1.3 3.3-2c1.1-.6 2.1-1.2 3.1-1.7 1-.6 2-1.1 2.9-1.5.9-.5 1.8-.9 2.6-1.3 1.7-.8 3.2-1.5 4.4-2 2.5-1 3.9-1.6 3.9-1.6s-1.4.6-3.9 1.6c-1.2.5-2.7 1.3-4.4 2-.8.4-1.7.9-2.6 1.4s-1.9 1-2.9 1.6-2 1.1-3.1 1.8c-1 .7-2.1 1.3-3.2 2s-2.2 1.5-3.3 2.3c-1.1.8-2.2 1.6-3.4 2.5-1.1.8-2.3 1.8-3.4 2.7-1.1.9-2.3 1.9-3.4 2.8-1.1 1-2.2 2-3.4 3-1.1 1-2.2 2.1-3.3 3.1-2.2 2.1-4.3 4.3-6.3 6.5s-3.9 4.5-5.7 6.6c-1.8 2.2-3.5 4.4-5 6.5s-3 4.1-4.2 6c-2.5 3.8-4.5 7-5.8 9.4-1.3 2.3-1.9 3.7-1.9 3.7l-1.7-.6" fill="#393434"/><path d="m-160.8 354.7c0 0-.6-1.3-1.9-3.7-1.3-2.3-3.2-5.6-5.8-9.4-1.3-1.9-2.7-3.9-4.2-6s-3.2-4.3-5-6.5-3.7-4.4-5.7-6.6c-2-2.2-4.1-4.4-6.3-6.5-1.1-1.1-2.2-2.1-3.3-3.1s-2.3-2-3.4-3c-1.2-1-2.3-1.9-3.4-2.8-1.2-.9-2.3-1.8-3.4-2.7-1.2-.8-2.3-1.7-3.4-2.5-1.1-.8-2.2-1.5-3.3-2.3-1.1-.7-2.2-1.4-3.2-2s-2.1-1.2-3.1-1.8c-1-.6-2-1.1-2.9-1.6s-1.8-1-2.6-1.4c-1.7-.8-3.1-1.5-4.4-2-2.5-1-3.9-1.6-3.9-1.6s1.4.6 3.9 1.6c1.2.5 2.7 1.2 4.4 2 .8.4 1.7.9 2.6 1.3.9.5 1.9 1 2.9 1.5 1 .6 2.1 1.1 3.1 1.7 1.1.6 2.1 1.3 3.3 2 1.1.7 2.2 1.5 3.4 2.2 1.1.8 2.3 1.6 3.5 2.4s2.3 1.7 3.5 2.6 2.3 1.9 3.5 2.8c1.1 1 2.3 2 3.4 3 1.1 1 2.3 2 3.4 3.1 2.2 2.1 4.4 4.2 6.4 6.5 2.1 2.2 4 4.4 5.9 6.6 1.8 2.2 3.6 4.4 5.2 6.5 1.6 2.1 3 4.1 4.4 6 2.6 3.8 4.6 7 6 9.4 1.4 2.3 2.1 3.7 2.1 3.7l-1.7.6" fill="#393434"/><path d="m-161.1 356.5c-1-1.9-1-3.8 0-4.3s2.6.6 3.5 2.5l-3.5 1.8" fill="#393434"/><path d="m-149.7 356.5c1-1.9 1-3.8 0-4.3s-2.6.6-3.5 2.5l3.5 1.8" fill="#393434"/></g><path d="m-172.8 462.8l.3.3c.2.2.4.4.7.7.5.6 1.2 1.5 1.6 2.5.2.5.4 1 .5 1.5.1.5.2.9.1 1.3 0 .4 0 .7 0 .9 0 .2 0 .3 0 .3s0-.1-.1-.3c0-.2-.1-.5-.2-.8-.1-.3-.3-.7-.5-1.1-.2-.4-.5-.8-.8-1.1-.6-.7-1.3-1.2-1.9-1.6-.3-.2-.5-.3-.7-.4-.2-.1-.2-.1-.2-.1l1.2-2.1" fill="#0d0d0f"/><path d="m-138 462.8l-.3.3c-.2.2-.4.4-.7.7-.5.6-1.2 1.5-1.6 2.5-.2.5-.4 1-.5 1.5-.1.5-.2.9-.1 1.3 0 .4 0 .7 0 .9 0 .2 0 .3 0 .3s0-.1.1-.3c0-.2.1-.5.2-.8.1-.3.3-.7.5-1.1.2-.4.5-.8.8-1.1.6-.7 1.3-1.2 1.9-1.6.3-.2.5-.3.7-.4.2-.1.2-.1.2-.1l-1.2-2.1" fill="#0d0d0f"/></g></switch></svg>