<svg xmlns="http://www.w3.org/2000/svg" width="113.7" height="86.4" viewBox="0 0 113.7 86.4" enable-background="new 0 0 113.7 86.4"><g fill="#2d0e2b"><path d="m47.8 45c-1.4.6-4.7-.2-4.7-.2-1.7 1.3-3.7 1.7-5.6 2.6-.5.2-1 .5-1.5.8-.6.2-1 .4-1.7.4-.8 0-1.7-.4-2.5-.2-1.2.6-2.6 2.2-3.8 2.9-1 .6-2.6 1.5-3.7 1.3-.7-.2-.9-.5-1.6-.2-.6.2-1.2.9-1.6 1.3-.5.4-1 1-1.2 1.5-.2.4-.1 1.5-.2 1.8-.3.4-.4-.2-.5-.6-.2-.8-.1-1.9.2-2.6.3-.6.9-1.2 1.4-1.5.8-.5 1.6-.1 2.5-.5.2-.4.2-1 .7-1.4.2-.2.7-.3 1-.5 1-.4 1.9-.8 2.9-1 1.1-.3 2.3-.5 3.4-1 .6-.2.9-.5 1.3-1 .5-.6 1.1-.9 1.9-1.1 1.9-.5 3.8-1 5.8-1.4 1-.2 2.1-.3 3.1-.7.4-.2.9-.4 1.4-.5.9-.2 1.9.1 2.6.4.1.2 1.5 1 .4 1.4"/><path d="m65.8 45c1.4.6 4.7-.2 4.7-.2 1.7 1.3 3.7 1.7 5.6 2.6.5.2 1 .5 1.5.8.6.2 1 .4 1.7.4.8 0 1.7-.4 2.5-.2 1.2.6 2.6 2.2 3.8 2.9 1 .6 2.6 1.5 3.7 1.3.7-.2.9-.5 1.6-.2.6.2 1.2.9 1.6 1.3.5.4 1 1 1.2 1.5.2.4.1 1.5.2 1.8.3.4.4-.2.5-.6.2-.8.1-1.9-.2-2.6-.3-.6-.9-1.2-1.4-1.5-.8-.5-1.6-.1-2.5-.5-.2-.4-.2-1-.7-1.4-.2-.2-.7-.3-1-.5-1-.4-1.9-.8-2.9-1-1.1-.3-2.3-.5-3.4-1-.6-.2-.9-.5-1.3-1-.5-.6-1.1-.9-1.9-1.1-1.9-.5-3.8-1-5.8-1.4-1-.2-2.1-.3-3.1-.7-.4-.2-.9-.4-1.4-.5-.9-.2-1.9.1-2.6.4-.1.2-1.4 1-.4 1.4"/><path d="m46.2 47.6c-3.4 4.8-6 10.2-7.9 15.8-.2.4-.2.9-.8 1-.4.2-1.3.3-1.4 1-.4 1.1-.8 2.3-1 3.5-.2 1.6-.4 3.4-1.1 4.9-.2.5-.6 1-1 1.3-.3.2-1 .5-1.2.9-.2.3-.3.8-.6 1.1-.3.5-.6 1-1 1.5-.6 1-1 2.2-1 3.3 0 .2.2 1.3-.2 1.1-.2-.1-.2-.5-.3-.7-.1-.2-.2-.5-.2-.8-.4-2.2.8-5 2.8-6 0 .1-.1.2-.1.2-1.1-.6-2-2.2-1.8-3.4.2-1.2.7-2.4 1.3-3.4.6-1 1.2-1.9 1.7-2.9.3-.7 1-1.6.8-2.5-.2-.7-.5-1.2-.2-1.9.2-.4.4-.9.7-1.3 1.4-2.6 3.1-5 5.1-7.3 1.1-1.3 2.4-2.5 3.7-3.5.7-.5 1.4-1 2.1-1.4.3-.2.7-.4 1-.6.1-.1.3-.2.5-.2.1.1.2.2.1.3"/><path d="m67.4 47.6c3.4 4.8 6 10.2 7.9 15.8.2.4.2.9.8 1 .4.2 1.3.3 1.4 1 .4 1.1.8 2.3 1 3.5.2 1.6.4 3.4 1.1 4.9.2.5.6 1 1 1.3.3.2 1 .5 1.2.9.2.3.3.8.6 1.1.3.5.6 1 1 1.5.6 1 1 2.2 1 3.3 0 .2-.2 1.3.2 1.1.2-.1.2-.5.3-.7s.2-.5.2-.8c.4-2.2-.8-5-2.8-6 0 .1.1.2.1.2 1.1-.6 2-2.2 1.8-3.4-.2-1.2-.7-2.4-1.3-3.4-.6-1-1.2-1.9-1.7-2.9-.3-.7-1-1.6-.8-2.5.2-.7.5-1.2.2-1.9-.2-.4-.4-.9-.7-1.3-1.4-2.6-3.1-5-5.1-7.3-1.1-1.3-2.4-2.5-3.7-3.5-.7-.5-1.4-1-2.1-1.4-.3-.2-.7-.4-1-.6-.1-.1-.3-.2-.5-.2-.1.1-.1.2-.1.3"/><path d="m49.4 26.9c-2.7-1.4-7.5-6.1-8.6-9-.3-.8-.2-1.5-.4-2.3-.2-.6-.4-1-.6-1.7-.3-1.5.2-4.7 1.7-5.5-.2 0-1.5-1.2-1.9-1.6-1.4-1.6 1.7-1 2.3.3.5 1.2.2 3.3 0 5-.2 1.3-.2 2.5-.9 3.2l.1-.2c2.2.4 5 4.1 6.2 5.8.3 1 2.9 5.2 2.1 6"/><path d="m64.2 26.9c2.6-1.4 7.4-6.1 8.6-9 .3-.8.2-1.5.4-2.3.2-.6.4-1 .6-1.7.3-1.5-.2-4.7-1.7-5.5.2 0 1.5-1.2 1.9-1.6 1.4-1.6-1.7-1-2.3.3-.5 1.2-.2 3.3 0 5 .2 1.3.2 2.5.9 3.2l.1-.2c-2.2.4-5 4.1-6.2 5.8-.4 1-3.2 5.2-2.3 6"/></g><circle cx="56.8" cy="30.6" r="11.4" fill="#ffd17b"/><path d="m49.8 29.5l-.1.7c0 0-7.2 11.5-20.1 10.8-7.4-.9-16.9-4.7-18.6-5.9-1.1-.8-2.6-2.1-2.2-3.4.3-1 1.6-2 4.6-2.8 7.3-2.2 33.7.4 36 .7.3-.1.4-.1.4-.1" fill="#dee2d9"/><path d="m49.8 28.6l-.1.8c0 0-.1.1-.2.1-2.3-.2-28.7-2.9-36-.7-3 1-4.3 2-4.6 2.8-.2-1.2.9-2.5 4.7-3.8 7.6-2.2 36.2.8 36.2.8" fill="#c3b6b1"/><path d="m49.9 29.5l.1 3-28.6 5c-5.7 0-9-3.6-9-3.6-5.4-1.8-9.3-7.7-9.3-7.7-3-3.4-3.1-6-3-7 0-.2.1-.3.1-.3s4.6-3.5 12.1-2.9c7.5.7 37.6 13.5 37.6 13.5" fill="#dee2d9"/><path d="m49.8 28.6v.9c0 0-30.1-12.8-37.8-13.4-7.4-.6-12 2.9-12 2.9s0-.1 0-.2c0-.3.2-.7.5-.9 1.4-.9 5.5-3 11.7-2.6 7.6.6 37.6 13.3 37.6 13.3" fill="#c3b6b1"/><path d="m63.9 29.5c0 0 .1 0 .2 0 2.3-.2 28.7-2.9 36-.7 3 1 4.3 2 4.6 2.8.5 1.4-1 2.6-2.2 3.4-1.8 1.2-11.2 5-18.6 5.9-12.8.7-20-10.7-20-10.7v-.7" fill="#dee2d9"/><path d="m63.8 28.6c0 0 28.6-3 36.1-.7 3.9 1.2 5 2.6 4.7 3.8-.3-.9-1.6-1.9-4.6-2.8-7.3-2.2-33.7.4-36 .7-.1-.1-.2-.1-.2-.1v-.9" fill="#c3b6b1"/><path d="m63.8 29.5c0 0 30.1-12.8 37.6-13.4 7.5-.6 12.1 2.9 12.1 2.9s.1.1.1.3c.1 1-.1 3.6-3 7 0 0-3.8 5.8-9.4 7.6 0 0-3.3 3.6-9 3.6l-28.6-5 .2-3" fill="#dee2d9"/><path d="m63.8 28.6c0 0 30.1-12.8 37.7-13.3 6.2-.4 10.3 1.7 11.7 2.6.3.2.5.5.5.9 0 .2-.1.2-.1.2s-4.6-3.5-12.1-2.9c-7.6.6-37.8 13.4-37.8 13.4l.1-.9" fill="#c3b6b1"/><g fill="#634f52"><path d="m54.9 7.9c-1.1-.8-2.4-1.3-3.7-1.5-1-.2-1.8-.1-2.8-.2-.5-.1-1-.5-1.4-.8-.7-.6-1.5-1-2.2-1.4-.9-.5-1.7-1-2.6-1.4-.6-.3-1.3-.6-2-1-.9-.3-1.9-.4-2.6-.9-.6-.2-.4-.7.2-.7.7-.1 1.4.2 2.1.4.7.2 1.4.5 2 .9 2.2 1.1 4.5 2.6 6.5 4.2-.1 0-.2 0-.2-.1 1.4-.2 2.8-.2 4.2.2 1 .2 1.9.6 2.7 1.1.3.2.7.4.5.9 0 .3-.4.4-.7.3"/><path d="m58.6 7.9c1.1-.8 2.4-1.3 3.7-1.5 1-.2 1.8-.1 2.8-.2.5-.1 1-.5 1.4-.8.8-.6 1.5-1 2.2-1.4.9-.5 1.7-1 2.6-1.4.6-.3 1.3-.6 2-1 .9-.3 1.8-.4 2.6-.8.6-.3.4-.8-.2-.8-.7-.1-1.4.2-2.1.4-.7.2-1.4.5-2 .9-2.2 1.1-4.5 2.6-6.5 4.2.1 0 .2 0 .2-.1-1.4-.2-2.8-.2-4.2.2-1 .2-1.9.6-2.7 1.1-.3.2-.7.4-.5.9.2.3.5.4.7.3"/></g><path d="m61.6 21.3c3.1 0 5.6-3.2 5.6-6.2s-2.3-5.5-5.4-6.9c-2.5-1-3.3-2.5-5-2.5-1.7 0-2.5 1.4-5 2.5-3.1 1.4-5.4 3.8-5.4 6.9 0 3.1 2.5 6.2 5.6 6.2h9.6" fill="#e6ae6f"/><g fill="#2d0e2b"><path d="m51.8 13.8c0 2.7-1 5.2-2.6 5.2-1.6 0-2.9-1.9-2.9-4.6s1.3-5 2.9-5c1.5.1 2.6 1.6 2.6 4.4"/><path d="m61.9 13.8c0 2.7 1 5.2 2.6 5.2 1.6 0 2.9-1.9 2.9-4.6s-1.3-5-2.9-5c-1.5 0-2.6 1.6-2.6 4.4"/></g><g fill="#44132d"><path d="m65.7 28.7c0 5.1-9 18.8-9 18.8s-8.8-13.6-8.8-18.8 3.9-8 9-8c4.9.1 8.8 2.9 8.8 8"/><path d="m70.9 53.2c0-7.8-6.2-14.1-14.1-14.1s-14 6.2-14 14.1c0 15 4.5 27 10.5 30.3l.1.1c1.1 1 1.5 2.8 3.4 2.8 1.9 0 2.3-1.9 3.4-2.8l.1-.1c6.1-3.3 10.6-15.3 10.6-30.3"/></g><g fill="#e6ae6f"><path d="m69.5 47c-3.8-1.2-8.1-1.8-12.6-1.8s-8.8.7-12.6 1.8c0 0 0 0 0-.1 2.3-4.6 7-7.9 12.6-7.9 5.5 0 10.3 3.3 12.6 8"/><path d="m67.4 74c-.2.7-.5 1.4-.9 2-2.8 1.1-6.1 1.7-9.7 1.7-3.6 0-7-.7-9.7-1.7-.2-.6-.6-1.3-.9-2 2.9 1.3 6.6 2.2 10.6 2.2 3.9-.2 7.6-.9 10.6-2.2"/><path d="m69.3 67.4c-.2.8-.3 1.5-.6 2.3-3.2 1.7-7.4 2.8-11.9 2.8-4.6 0-8.8-1-11.9-2.8-.2-.8-.4-1.5-.6-2.3 3.5 1.5 7.8 2.5 12.6 2.5 4.6 0 9-.9 12.4-2.5"/><path d="m70.5 60.2c-.2 1.4-.3 2.6-.5 3.9-3.9 1.3-8.4 2-13.2 2s-9.3-.7-13.2-2c-.2-1.3-.3-2.6-.5-3.9 4 1.4 8.7 2.2 13.7 2.2s9.7-.8 13.7-2.2"/><path d="m70.9 53.1c0 .7 0 1.4 0 2.2 0 .2 0 .4 0 .7-4.2 1.3-9 2.1-14 2.1s-9.8-.8-14-2.1c0-.2 0-.4 0-.7 0-.7 0-1.4 0-2.2 0-.6 0-1.1.1-1.7 4.3-1 9-1.6 14-1.6s9.7.6 14 1.6c-.2.6-.1 1.1-.1 1.7"/></g></svg>