<?xml version="1.0" encoding="utf-8"?>
<!-- Generator: Adobe Illustrator 19.2.0, SVG Export Plug-In . SVG Version: 6.00 Build 0)  -->
<svg version="1.1" id="Layer_1" xmlns="http://www.w3.org/2000/svg" xmlns:xlink="http://www.w3.org/1999/xlink" x="0px" y="0px"
	 width="113.7px" height="86.4px" viewBox="0 0 113.7 86.4" style="enable-background:new 0 0 113.7 86.4;" xml:space="preserve">
<style type="text/css">
	.st0{fill:#2D0E2B;}
	.st1{fill:#FFD17B;enable-background:new    ;}
	.st2{opacity:0.6;fill:#DEE2D9;enable-background:new    ;}
	.st3{fill:#C3B6B1;}
	.st4{fill:#634F52;}
	.st5{fill:#E6AE6F;}
	.st6{fill:#44132D;}
</style>
<g>
	<g>
		<path class="st0" d="M47.8,45c-1.4,0.6-4.7-0.2-4.7-0.2c-1.7,1.3-3.7,1.7-5.6,2.6c-0.5,0.2-1,0.5-1.5,0.8c-0.6,0.2-1,0.4-1.7,0.4
			c-0.8,0-1.7-0.4-2.5-0.2c-1.2,0.6-2.6,2.2-3.8,2.9c-1,0.6-2.6,1.5-3.7,1.3c-0.7-0.2-0.9-0.5-1.6-0.2c-0.6,0.2-1.2,0.9-1.6,1.3
			c-0.5,0.4-1,1-1.2,1.5c-0.2,0.4-0.1,1.5-0.2,1.8c-0.3,0.4-0.4-0.2-0.5-0.6c-0.2-0.8-0.1-1.9,0.2-2.6c0.3-0.6,0.9-1.2,1.4-1.5
			c0.8-0.5,1.6-0.1,2.5-0.5c0.2-0.4,0.2-1,0.7-1.4c0.2-0.2,0.7-0.3,1-0.5c1-0.4,1.9-0.8,2.9-1c1.1-0.3,2.3-0.5,3.4-1
			c0.6-0.2,0.9-0.5,1.3-1c0.5-0.6,1.1-0.9,1.9-1.1c1.9-0.5,3.8-1,5.8-1.4c1-0.2,2.1-0.3,3.1-0.7c0.4-0.2,0.9-0.4,1.4-0.5
			c0.9-0.2,1.9,0.1,2.6,0.4C47.5,43.8,48.9,44.6,47.8,45"/>
		<path class="st0" d="M65.8,45c1.4,0.6,4.7-0.2,4.7-0.2c1.7,1.3,3.7,1.7,5.6,2.6c0.5,0.2,1,0.5,1.5,0.8c0.6,0.2,1,0.4,1.7,0.4
			c0.8,0,1.7-0.4,2.5-0.2c1.2,0.6,2.6,2.2,3.8,2.9c1,0.6,2.6,1.5,3.7,1.3c0.7-0.2,0.9-0.5,1.6-0.2c0.6,0.2,1.2,0.9,1.6,1.3
			c0.5,0.4,1,1,1.2,1.5c0.2,0.4,0.1,1.5,0.2,1.8c0.3,0.4,0.4-0.2,0.5-0.6c0.2-0.8,0.1-1.9-0.2-2.6c-0.3-0.6-0.9-1.2-1.4-1.5
			c-0.8-0.5-1.6-0.1-2.5-0.5c-0.2-0.4-0.2-1-0.7-1.4c-0.2-0.2-0.7-0.3-1-0.5c-1-0.4-1.9-0.8-2.9-1c-1.1-0.3-2.3-0.5-3.4-1
			c-0.6-0.2-0.9-0.5-1.3-1c-0.5-0.6-1.1-0.9-1.9-1.1c-1.9-0.5-3.8-1-5.8-1.4c-1-0.2-2.1-0.3-3.1-0.7c-0.4-0.2-0.9-0.4-1.4-0.5
			c-0.9-0.2-1.9,0.1-2.6,0.4C66.1,43.8,64.8,44.6,65.8,45"/>
		<path class="st0" d="M46.2,47.6c-3.4,4.8-6,10.2-7.9,15.8c-0.2,0.4-0.2,0.9-0.8,1c-0.4,0.2-1.3,0.3-1.4,1c-0.4,1.1-0.8,2.3-1,3.5
			c-0.2,1.6-0.4,3.4-1.1,4.9c-0.2,0.5-0.6,1-1,1.3c-0.3,0.2-1,0.5-1.2,0.9c-0.2,0.3-0.3,0.8-0.6,1.1c-0.3,0.5-0.6,1-1,1.5
			c-0.6,1-1,2.2-1,3.3c0,0.2,0.2,1.3-0.2,1.1c-0.2-0.1-0.2-0.5-0.3-0.7c-0.1-0.2-0.2-0.5-0.2-0.8c-0.4-2.2,0.8-5,2.8-6
			c0,0.1-0.1,0.2-0.1,0.2c-1.1-0.6-2-2.2-1.8-3.4c0.2-1.2,0.7-2.4,1.3-3.4c0.6-1,1.2-1.9,1.7-2.9c0.3-0.7,1-1.6,0.8-2.5
			c-0.2-0.7-0.5-1.2-0.2-1.9c0.2-0.4,0.4-0.9,0.7-1.3c1.4-2.6,3.1-5,5.1-7.3c1.1-1.3,2.4-2.5,3.7-3.5c0.7-0.5,1.4-1,2.1-1.4
			c0.3-0.2,0.7-0.4,1-0.6c0.1-0.1,0.3-0.2,0.5-0.2C46.2,47.4,46.3,47.5,46.2,47.6"/>
		<path class="st0" d="M67.4,47.6c3.4,4.8,6,10.2,7.9,15.8c0.2,0.4,0.2,0.9,0.8,1c0.4,0.2,1.3,0.3,1.4,1c0.4,1.1,0.8,2.3,1,3.5
			c0.2,1.6,0.4,3.4,1.1,4.9c0.2,0.5,0.6,1,1,1.3c0.3,0.2,1,0.5,1.2,0.9c0.2,0.3,0.3,0.8,0.6,1.1c0.3,0.5,0.6,1,1,1.5
			c0.6,1,1,2.2,1,3.3c0,0.2-0.2,1.3,0.2,1.1c0.2-0.1,0.2-0.5,0.3-0.7s0.2-0.5,0.2-0.8c0.4-2.2-0.8-5-2.8-6c0,0.1,0.1,0.2,0.1,0.2
			c1.1-0.6,2-2.2,1.8-3.4c-0.2-1.2-0.7-2.4-1.3-3.4c-0.6-1-1.2-1.9-1.7-2.9c-0.3-0.7-1-1.6-0.8-2.5c0.2-0.7,0.5-1.2,0.2-1.9
			c-0.2-0.4-0.4-0.9-0.7-1.3c-1.4-2.6-3.1-5-5.1-7.3c-1.1-1.3-2.4-2.5-3.7-3.5c-0.7-0.5-1.4-1-2.1-1.4c-0.3-0.2-0.7-0.4-1-0.6
			c-0.1-0.1-0.3-0.2-0.5-0.2C67.4,47.4,67.4,47.5,67.4,47.6"/>
		<path class="st0" d="M49.4,26.9c-2.7-1.4-7.5-6.1-8.6-9c-0.3-0.8-0.2-1.5-0.4-2.3c-0.2-0.6-0.4-1-0.6-1.7
			c-0.3-1.5,0.2-4.7,1.7-5.5c-0.2,0-1.5-1.2-1.9-1.6c-1.4-1.6,1.7-1,2.3,0.3c0.5,1.2,0.2,3.3,0,5c-0.2,1.3-0.2,2.5-0.9,3.2l0.1-0.2
			c2.2,0.4,5,4.1,6.2,5.8C47.6,21.9,50.2,26.1,49.4,26.9"/>
		<path class="st0" d="M64.2,26.9c2.6-1.4,7.4-6.1,8.6-9c0.3-0.8,0.2-1.5,0.4-2.3c0.2-0.6,0.4-1,0.6-1.7c0.3-1.5-0.2-4.7-1.7-5.5
			c0.2,0,1.5-1.2,1.9-1.6c1.4-1.6-1.7-1-2.3,0.3c-0.5,1.2-0.2,3.3,0,5c0.2,1.3,0.2,2.5,0.9,3.2l0.1-0.2c-2.2,0.4-5,4.1-6.2,5.8
			C66.1,21.9,63.3,26.1,64.2,26.9"/>
	</g>
	<circle class="st1" cx="56.8" cy="30.6" r="11.4"/>
	<path class="st2" d="M49.8,29.5l-0.1,0.7c0,0-7.2,11.5-20.1,10.8c-7.4-0.9-16.9-4.7-18.6-5.9c-1.1-0.8-2.6-2.1-2.2-3.4
		c0.3-1,1.6-2,4.6-2.8c7.3-2.2,33.7,0.4,36,0.7C49.7,29.5,49.8,29.5,49.8,29.5"/>
	<path class="st3" d="M49.8,28.6l-0.1,0.8c0,0-0.1,0.1-0.2,0.1c-2.3-0.2-28.7-2.9-36-0.7c-3,1-4.3,2-4.6,2.8
		c-0.2-1.2,0.9-2.5,4.7-3.8C21.2,25.6,49.8,28.6,49.8,28.6"/>
	<path class="st2" d="M49.9,29.5l0.1,3l-28.6,5c-5.7,0-9-3.6-9-3.6c-5.4-1.8-9.3-7.7-9.3-7.7c-3-3.4-3.1-6-3-7
		c0-0.2,0.1-0.3,0.1-0.3s4.6-3.5,12.1-2.9C19.8,16.7,49.9,29.5,49.9,29.5"/>
	<path class="st3" d="M49.8,28.6v0.9c0,0-30.1-12.8-37.8-13.4C4.6,15.5,0,19,0,19s0-0.1,0-0.2c0-0.3,0.2-0.7,0.5-0.9
		c1.4-0.9,5.5-3,11.7-2.6C19.8,15.9,49.8,28.6,49.8,28.6"/>
	<path class="st2" d="M63.9,29.5c0,0,0.1,0,0.2,0c2.3-0.2,28.7-2.9,36-0.7c3,1,4.3,2,4.6,2.8c0.5,1.4-1,2.6-2.2,3.4
		c-1.8,1.2-11.2,5-18.6,5.9c-12.8,0.7-20-10.7-20-10.7L63.9,29.5"/>
	<path class="st3" d="M63.8,28.6c0,0,28.6-3,36.1-0.7c3.9,1.2,5,2.6,4.7,3.8c-0.3-0.9-1.6-1.9-4.6-2.8c-7.3-2.2-33.7,0.4-36,0.7
		c-0.1-0.1-0.2-0.1-0.2-0.1V28.6"/>
	<path class="st2" d="M63.8,29.5c0,0,30.1-12.8,37.6-13.4c7.5-0.6,12.1,2.9,12.1,2.9s0.1,0.1,0.1,0.3c0.1,1-0.1,3.6-3,7
		c0,0-3.8,5.8-9.4,7.6c0,0-3.3,3.6-9,3.6l-28.6-5L63.8,29.5"/>
	<path class="st3" d="M63.8,28.6c0,0,30.1-12.8,37.7-13.3c6.2-0.4,10.3,1.7,11.7,2.6c0.3,0.2,0.5,0.5,0.5,0.9c0,0.2-0.1,0.2-0.1,0.2
		s-4.6-3.5-12.1-2.9c-7.6,0.6-37.8,13.4-37.8,13.4L63.8,28.6"/>
	<g>
		<path class="st4" d="M54.9,7.9c-1.1-0.8-2.4-1.3-3.7-1.5c-1-0.2-1.8-0.1-2.8-0.2c-0.5-0.1-1-0.5-1.4-0.8c-0.7-0.6-1.5-1-2.2-1.4
			c-0.9-0.5-1.7-1-2.6-1.4c-0.6-0.3-1.3-0.6-2-1c-0.9-0.3-1.9-0.4-2.6-0.9C37,0.5,37.2,0,37.8,0c0.7-0.1,1.4,0.2,2.1,0.4
			c0.7,0.2,1.4,0.5,2,0.9c2.2,1.1,4.5,2.6,6.5,4.2c-0.1,0-0.2,0-0.2-0.1c1.4-0.2,2.8-0.2,4.2,0.2c1,0.2,1.9,0.6,2.7,1.1
			c0.3,0.2,0.7,0.4,0.5,0.9C55.6,7.9,55.2,8,54.9,7.9"/>
		<path class="st4" d="M58.6,7.9c1.1-0.8,2.4-1.3,3.7-1.5c1-0.2,1.8-0.1,2.8-0.2c0.5-0.1,1-0.5,1.4-0.8c0.8-0.6,1.5-1,2.2-1.4
			c0.9-0.5,1.7-1,2.6-1.4c0.6-0.3,1.3-0.6,2-1c0.9-0.3,1.8-0.4,2.6-0.8C76.5,0.5,76.3,0,75.7,0c-0.7-0.1-1.4,0.2-2.1,0.4
			c-0.7,0.2-1.4,0.5-2,0.9c-2.2,1.1-4.5,2.6-6.5,4.2c0.1,0,0.2,0,0.2-0.1c-1.4-0.2-2.8-0.2-4.2,0.2c-1,0.2-1.9,0.6-2.7,1.1
			c-0.3,0.2-0.7,0.4-0.5,0.9C58.1,7.9,58.4,8,58.6,7.9"/>
	</g>
	<path class="st5" d="M61.6,21.3c3.1,0,5.6-3.2,5.6-6.2s-2.3-5.5-5.4-6.9c-2.5-1-3.3-2.5-5-2.5c-1.7,0-2.5,1.4-5,2.5
		c-3.1,1.4-5.4,3.8-5.4,6.9c0,3.1,2.5,6.2,5.6,6.2L61.6,21.3"/>
	<g>
		<path class="st0" d="M51.8,13.8c0,2.7-1,5.2-2.6,5.2c-1.6,0-2.9-1.9-2.9-4.6s1.3-5,2.9-5C50.7,9.5,51.8,11,51.8,13.8"/>
		<path class="st0" d="M61.9,13.8c0,2.7,1,5.2,2.6,5.2c1.6,0,2.9-1.9,2.9-4.6s-1.3-5-2.9-5C63,9.4,61.9,11,61.9,13.8"/>
	</g>
	<g>
		<path class="st6" d="M65.7,28.7c0,5.1-9,18.8-9,18.8s-8.8-13.6-8.8-18.8s3.9-8,9-8C61.8,20.8,65.7,23.6,65.7,28.7"/>
		<path class="st6" d="M70.9,53.2c0-7.8-6.2-14.1-14.1-14.1s-14,6.2-14,14.1c0,15,4.5,27,10.5,30.3l0.1,0.1c1.1,1,1.5,2.8,3.4,2.8
			c1.9,0,2.3-1.9,3.4-2.8l0.1-0.1C66.4,80.2,70.9,68.2,70.9,53.2"/>
	</g>
	<g>
		<path class="st5" d="M69.5,47c-3.8-1.2-8.1-1.8-12.6-1.8s-8.8,0.7-12.6,1.8c0,0,0,0,0-0.1c2.3-4.6,7-7.9,12.6-7.9
			C62.4,39,67.2,42.3,69.5,47"/>
		<path class="st5" d="M67.4,74c-0.2,0.7-0.5,1.4-0.9,2c-2.8,1.1-6.1,1.7-9.7,1.7c-3.6,0-7-0.7-9.7-1.7c-0.2-0.6-0.6-1.3-0.9-2
			c2.9,1.3,6.6,2.2,10.6,2.2C60.7,76,64.4,75.3,67.4,74"/>
		<path class="st5" d="M69.3,67.4c-0.2,0.8-0.3,1.5-0.6,2.3c-3.2,1.7-7.4,2.8-11.9,2.8c-4.6,0-8.8-1-11.9-2.8
			c-0.2-0.8-0.4-1.5-0.6-2.3c3.5,1.5,7.8,2.5,12.6,2.5C61.5,69.9,65.9,69,69.3,67.4"/>
		<path class="st5" d="M70.5,60.2c-0.2,1.4-0.3,2.6-0.5,3.9c-3.9,1.3-8.4,2-13.2,2s-9.3-0.7-13.2-2c-0.2-1.3-0.3-2.6-0.5-3.9
			c4,1.4,8.7,2.2,13.7,2.2S66.5,61.6,70.5,60.2"/>
		<path class="st5" d="M70.9,53.1c0,0.7,0,1.4,0,2.2c0,0.2,0,0.4,0,0.7c-4.2,1.3-9,2.1-14,2.1s-9.8-0.8-14-2.1c0-0.2,0-0.4,0-0.7
			c0-0.7,0-1.4,0-2.2c0-0.6,0-1.1,0.1-1.7c4.3-1,9-1.6,14-1.6s9.7,0.6,14,1.6C70.8,52,70.9,52.5,70.9,53.1"/>
	</g>
</g>
</svg>
