<?xml version="1.0" encoding="utf-8"?>
<!-- Generator: Adobe Illustrator 19.2.0, SVG Export Plug-In . SVG Version: 6.00 Build 0)  -->
<svg version="1.1" id="Layer_1" xmlns="http://www.w3.org/2000/svg" xmlns:xlink="http://www.w3.org/1999/xlink" x="0px" y="0px"
	 width="142.1px" height="108px" viewBox="0 0 142.1 108" style="enable-background:new 0 0 142.1 108;" xml:space="preserve">
<style type="text/css">
	.st0{fill:#2D0E2B;}
	.st1{opacity:0.9;fill:#FFD17B;enable-background:new    ;}
	.st2{opacity:0.75;fill:#DEE2D9;enable-background:new    ;}
	.st3{fill:#C3B6B1;}
	.st4{fill:#634F52;}
	.st5{fill:#E6AE6F;}
	.st6{fill:#44132D;}
</style>
<g>
	<g>
		<g>
			<g>
				<path class="st0" d="M59.8,56.2c-1.8,0.8-5.9-0.3-5.9-0.3c-2.1,1.6-4.6,2.1-7,3.3c-0.6,0.3-1.3,0.6-1.9,1
					c-0.8,0.3-1.3,0.5-2.1,0.5c-1,0-2.1-0.5-3.1-0.2c-1.5,0.8-3.2,2.7-4.8,3.6c-1.2,0.8-3.2,1.9-4.6,1.6c-0.9-0.2-1.1-0.6-2-0.2
					c-0.8,0.3-1.5,1.1-2,1.6c-0.6,0.5-1.2,1.2-1.5,1.9c-0.2,0.5-0.1,1.9-0.3,2.3c-0.4,0.5-0.5-0.3-0.6-0.8c-0.2-1-0.1-2.4,0.3-3.3
					c0.4-0.8,1.1-1.5,1.7-1.9c1-0.6,2-0.1,3.1-0.6c0.3-0.5,0.2-1.3,0.9-1.8c0.3-0.3,0.9-0.4,1.2-0.6c1.2-0.5,2.4-1,3.6-1.3
					c1.4-0.4,2.9-0.6,4.2-1.2c0.8-0.3,1.1-0.6,1.6-1.3c0.6-0.8,1.4-1.1,2.4-1.4c2.4-0.6,4.8-1.2,7.3-1.8c1.3-0.3,2.6-0.4,3.9-0.9
					c0.5-0.2,1.1-0.5,1.7-0.6c1.1-0.2,2.4,0.1,3.3,0.5C59.4,54.7,61.1,55.7,59.8,56.2C59.5,56.3,59.9,56.2,59.8,56.2z"/>
			</g>
		</g>
		<g>
			<g>
				<path class="st0" d="M82.2,56.2c1.8,0.8,5.9-0.3,5.9-0.3c2.1,1.6,4.6,2.1,7,3.3c0.6,0.3,1.3,0.6,1.9,1c0.8,0.3,1.3,0.5,2.1,0.5
					c1,0,2.1-0.5,3.1-0.2c1.5,0.8,3.2,2.7,4.8,3.6c1.2,0.8,3.2,1.9,4.6,1.6c0.9-0.2,1.1-0.6,2-0.2c0.8,0.3,1.5,1.1,2,1.6
					c0.6,0.5,1.2,1.2,1.5,1.9c0.2,0.5,0.1,1.9,0.3,2.3c0.4,0.5,0.5-0.3,0.6-0.8c0.2-1,0.1-2.4-0.3-3.3c-0.4-0.8-1.1-1.5-1.7-1.9
					c-1-0.6-2-0.1-3.1-0.6c-0.3-0.5-0.2-1.3-0.9-1.8c-0.3-0.3-0.9-0.4-1.2-0.6c-1.2-0.5-2.4-1-3.6-1.3c-1.4-0.4-2.9-0.6-4.2-1.2
					c-0.8-0.3-1.1-0.6-1.6-1.3c-0.6-0.8-1.4-1.1-2.4-1.4c-2.4-0.6-4.8-1.2-7.3-1.8c-1.3-0.3-2.6-0.4-3.9-0.9
					c-0.5-0.2-1.1-0.5-1.7-0.6c-1.1-0.2-2.4,0.1-3.3,0.5C82.6,54.7,81,55.7,82.2,56.2C82.5,56.3,82.1,56.2,82.2,56.2z"/>
			</g>
		</g>
	</g>
	<g>
		<g>
			<path class="st0" d="M57.8,59.5c-4.2,6-7.5,12.8-9.9,19.7c-0.2,0.5-0.3,1.1-1,1.3c-0.5,0.3-1.6,0.4-1.8,1.2l0,0
				c-0.5,1.4-1,2.9-1.2,4.4c-0.3,2-0.5,4.2-1.4,6.1c-0.3,0.6-0.8,1.2-1.3,1.6c-0.4,0.3-1.2,0.6-1.5,1.1c-0.3,0.4-0.4,1-0.8,1.4
				c-0.4,0.6-0.8,1.3-1.2,1.9c-0.8,1.3-1.2,2.7-1.3,4.1c0,0.2,0.2,1.6-0.2,1.4c-0.2-0.1-0.3-0.6-0.4-0.9c-0.1-0.3-0.2-0.6-0.3-1
				c-0.5-2.8,1-6.3,3.5-7.5c0,0.1-0.1,0.2-0.1,0.3c-1.4-0.8-2.5-2.7-2.3-4.3c0.2-1.5,0.9-3,1.6-4.3c0.8-1.2,1.5-2.4,2.1-3.6
				c0.4-0.9,1.2-2,1-3.1c-0.2-0.9-0.6-1.5-0.2-2.4c0.2-0.5,0.5-1.1,0.9-1.6c1.8-3.2,3.9-6.3,6.4-9.1c1.4-1.6,3-3.1,4.6-4.4
				c0.9-0.6,1.7-1.3,2.6-1.8c0.4-0.3,0.9-0.5,1.3-0.8c0.1-0.1,0.4-0.3,0.6-0.2C57.8,59.3,57.9,59.4,57.8,59.5z"/>
		</g>
		<g>
			<path class="st0" d="M84.3,59.5c4.2,6,7.5,12.8,9.9,19.7c0.2,0.5,0.3,1.1,1,1.3c0.5,0.3,1.6,0.4,1.8,1.2l0,0
				c0.5,1.4,1,2.9,1.2,4.4c0.3,2,0.5,4.2,1.4,6.1c0.3,0.6,0.8,1.2,1.3,1.6c0.4,0.3,1.2,0.6,1.5,1.1c0.3,0.4,0.4,1,0.8,1.4
				c0.4,0.6,0.8,1.3,1.2,1.9c0.8,1.3,1.2,2.7,1.3,4.1c0,0.2-0.2,1.6,0.2,1.4c0.2-0.1,0.3-0.6,0.4-0.9c0.1-0.3,0.2-0.6,0.3-1
				c0.5-2.8-1-6.3-3.5-7.5c0,0.1,0.1,0.2,0.1,0.3c1.4-0.8,2.5-2.7,2.3-4.3c-0.2-1.5-0.9-3-1.6-4.3c-0.8-1.2-1.5-2.4-2.1-3.6
				c-0.4-0.9-1.2-2-1-3.1c0.2-0.9,0.6-1.5,0.2-2.4c-0.2-0.5-0.5-1.1-0.9-1.6c-1.8-3.2-3.9-6.3-6.4-9.1c-1.4-1.6-3-3.1-4.6-4.4
				c-0.9-0.6-1.7-1.3-2.6-1.8c-0.4-0.3-0.9-0.5-1.3-0.8c-0.1-0.1-0.4-0.3-0.6-0.2C84.2,59.3,84.2,59.4,84.3,59.5z"/>
		</g>
	</g>
	<g>
		<g>
			<g>
				<path class="st0" d="M61.8,33.6C58.4,31.9,52.4,26,51,22.4c-0.4-1-0.2-1.9-0.5-2.9c-0.2-0.8-0.5-1.3-0.8-2.1
					c-0.4-1.9,0.3-5.9,2.1-6.9c-0.2,0-1.9-1.5-2.4-2c-1.7-2,2.1-1.2,2.9,0.4c0.6,1.5,0.2,4.1,0,6.3c-0.2,1.6-0.2,3.1-1.1,4L51.3,19
					c2.7,0.5,6.3,5.1,7.7,7.3C59.5,27.4,62.8,32.6,61.8,33.6z"/>
			</g>
		</g>
		<g>
			<g>
				<path class="st0" d="M80.3,33.6c3.3-1.7,9.3-7.6,10.7-11.2c0.4-1,0.2-1.9,0.5-2.9c0.2-0.8,0.5-1.3,0.8-2.1
					c0.4-1.9-0.3-5.9-2.1-6.9c0.2,0,1.9-1.5,2.4-2c1.7-2-2.1-1.2-2.9,0.4c-0.6,1.5-0.2,4.1,0,6.3c0.2,1.6,0.2,3.1,1.1,4l0.1-0.2
					c-2.7,0.5-6.3,5.1-7.7,7.3C82.6,27.4,79.1,32.6,80.3,33.6z"/>
			</g>
		</g>
	</g>
	<circle class="st1" cx="71" cy="38.3" r="14.3"/>
	<g>
		<g>
			<g>
				<path class="st2" d="M62.2,36.9l-0.1,0.9c0,0-9,14.4-25.1,13.5c-9.2-1.1-21.1-5.9-23.3-7.4c-1.4-1-3.3-2.6-2.7-4.3
					c0.4-1.2,2-2.5,5.8-3.5c9.1-2.8,42.1,0.5,45,0.9C62.1,36.9,62.2,36.9,62.2,36.9"/>
				<path class="st3" d="M62.3,35.8l-0.1,1c0,0-0.1,0.1-0.2,0.1c-2.9-0.3-35.9-3.6-45-0.9c-3.8,1.2-5.4,2.5-5.8,3.5
					c-0.2-1.5,1.1-3.1,5.9-4.7C26.5,32,62.3,35.8,62.3,35.8"/>
			</g>
			<g>
				<path class="st2" d="M62.4,36.9l0.1,3.8L26.8,47c-7.1,0-11.2-4.5-11.2-4.5C8.8,40.2,4,32.9,4,32.9c-3.8-4.2-3.9-7.5-3.8-8.7
					c0-0.3,0.1-0.4,0.1-0.4s5.7-4.4,15.1-3.6C24.7,20.9,62.4,36.9,62.4,36.9"/>
				<path class="st3" d="M62.3,35.8v1.1c0,0-37.6-16-47.2-16.7C5.8,19.4,0,23.8,0,23.8s0-0.1,0-0.3c0-0.4,0.2-0.9,0.6-1.1
					c1.7-1.1,6.9-3.8,14.6-3.2C24.7,19.9,62.3,35.8,62.3,35.8"/>
			</g>
		</g>
		<g>
			<g>
				<path class="st2" d="M79.9,36.9c0,0,0.1,0,0.3,0c2.9-0.3,35.9-3.6,45-0.9c3.8,1.2,5.4,2.5,5.8,3.5c0.6,1.7-1.3,3.3-2.7,4.3
					c-2.3,1.5-14,6.3-23.3,7.4C89,52.1,80,37.8,80,37.8L79.9,36.9"/>
				<path class="st3" d="M79.8,35.8c0,0,35.8-3.8,45.1-0.9c4.9,1.5,6.2,3.2,5.9,4.7c-0.4-1.1-2-2.4-5.8-3.5
					c-9.1-2.8-42.1,0.5-45,0.9c-0.1-0.1-0.2-0.1-0.2-0.1V35.8"/>
			</g>
			<g>
				<path class="st2" d="M79.7,36.9c0,0,37.6-16,47-16.7c9.4-0.8,15.1,3.6,15.1,3.6s0.1,0.1,0.1,0.4c0.1,1.2-0.1,4.5-3.8,8.7
					c0,0-4.7,7.3-11.7,9.5c0,0-4.1,4.5-11.2,4.5l-35.7-6.3L79.7,36.9"/>
				<path class="st3" d="M79.8,35.8c0,0,37.6-16,47.1-16.6c7.7-0.5,12.9,2.1,14.6,3.2c0.4,0.2,0.6,0.6,0.6,1.1
					c0,0.2-0.1,0.3-0.1,0.3s-5.7-4.4-15.1-3.6c-9.5,0.8-47.2,16.7-47.2,16.7L79.8,35.8"/>
			</g>
		</g>
	</g>
	<g>
		<g>
			<path class="st4" d="M68.6,9.8c-1.4-1-3-1.6-4.6-1.9c-1.2-0.3-2.3-0.1-3.5-0.2c-0.6-0.1-1.2-0.6-1.8-1C57.8,6,56.8,5.5,56,4.9
				c-1.1-0.6-2.1-1.3-3.2-1.8c-0.8-0.4-1.6-0.8-2.5-1.2c-1.1-0.4-2.4-0.5-3.3-1.1C46.3,0.6,46.5,0,47.3,0c0.9-0.1,1.8,0.3,2.6,0.5
				c0.9,0.3,1.7,0.6,2.5,1.1C55.2,3,58,4.8,60.5,6.9c-0.1,0-0.2,0-0.3-0.1C62,6.5,63.7,6.6,65.4,7c1.2,0.3,2.4,0.8,3.4,1.4
				c0.4,0.2,0.9,0.5,0.6,1.1C69.5,9.9,69,10,68.6,9.8z"/>
		</g>
		<g>
			<path class="st4" d="M73.3,9.8c1.4-1,3-1.6,4.6-1.9c1.2-0.3,2.3-0.1,3.5-0.2c0.6-0.1,1.2-0.6,1.8-1C84.2,6,85.1,5.5,86,4.9
				c1.1-0.6,2.1-1.3,3.2-1.8c0.8-0.4,1.6-0.8,2.5-1.2C92.8,1.5,94,1.4,95,0.9C95.7,0.6,95.4,0,94.7,0c-0.9-0.1-1.8,0.3-2.6,0.5
				c-0.9,0.3-1.7,0.6-2.5,1.1C86.8,3,84,4.8,81.5,6.9c0.1,0,0.2,0,0.3-0.1C80,6.5,78.3,6.6,76.6,7c-1.2,0.3-2.4,0.8-3.4,1.4
				c-0.4,0.2-0.9,0.5-0.6,1.1C72.6,9.9,73,10,73.3,9.8z"/>
		</g>
		<path class="st5" d="M77,26.6c3.9,0,7-4,7-7.8c0-3.8-2.9-6.9-6.8-8.6c-3.1-1.3-4.1-3.1-6.2-3.1c-2.1,0-3.1,1.7-6.2,3.1
			C60.9,11.9,58,15,58,18.8c0,3.9,3.1,7.8,7,7.8C65,26.6,77,26.6,77,26.6z"/>
		<path class="st0" d="M64.7,17.2c0,3.4-1.3,6.5-3.3,6.5c-2,0-3.6-2.4-3.6-5.8s1.6-6.2,3.6-6.2C63.4,11.8,64.7,13.7,64.7,17.2z"/>
		<path class="st0" d="M77.4,17.2c0,3.4,1.3,6.5,3.3,6.5c2,0,3.6-2.4,3.6-5.8s-1.6-6.2-3.6-6.2C78.7,11.7,77.4,13.7,77.4,17.2z"/>
	</g>
	<path class="st6" d="M82.1,35.9c0,6.4-11.2,23.5-11.2,23.5s-11-17-11-23.5s4.9-10,11.2-10C77.3,26,82.1,29.5,82.1,35.9z"/>
	<g>
		<path class="st6" d="M88.6,66.5c0-9.7-7.8-17.6-17.6-17.6s-17.5,7.8-17.5,17.6c0,18.8,5.6,33.7,13.1,37.9l0.1,0.1
			c1.4,1.2,1.9,3.5,4.3,3.5c2.4,0,2.9-2.4,4.3-3.5l0.1-0.1C83,100.2,88.6,85.3,88.6,66.5z"/>
		<path class="st5" d="M86.9,58.8c-4.7-1.5-10.1-2.3-15.8-2.3c-5.7,0-11,0.9-15.8,2.3c0,0,0,0,0-0.1c2.9-5.8,8.8-9.9,15.8-9.9
			C78,48.8,84,52.9,86.9,58.8C86.8,58.7,86.8,58.8,86.9,58.8z"/>
		<path class="st5" d="M84.2,92.5c-0.3,0.9-0.6,1.7-1.1,2.5c-3.5,1.4-7.6,2.1-12.1,2.1c-4.5,0-8.7-0.9-12.1-2.1
			c-0.3-0.8-0.8-1.6-1.1-2.5c3.6,1.6,8.3,2.7,13.2,2.7C75.9,95,80.5,94.1,84.2,92.5z"/>
		<path class="st5" d="M86.6,84.3c-0.2,1-0.4,1.9-0.8,2.9c-4,2.1-9.2,3.5-14.9,3.5c-5.8,0-11-1.3-14.9-3.5c-0.2-1-0.5-1.9-0.8-2.9
			c4.4,1.9,9.8,3.1,15.7,3.1C76.9,87.4,82.4,86.2,86.6,84.3z"/>
		<path class="st5" d="M88.1,75.3c-0.2,1.7-0.4,3.3-0.6,4.9C82.6,81.8,77,82.7,71,82.7c-6,0-11.6-0.9-16.5-2.5
			c-0.2-1.6-0.4-3.2-0.6-4.9C58.9,77,64.8,78,71,78C77.2,78,83.1,77,88.1,75.3z"/>
		<path class="st5" d="M88.6,66.4c0,0.9,0,1.8,0,2.7c0,0.3,0,0.5,0,0.9c-5.3,1.6-11.2,2.6-17.5,2.6c-6.3,0-12.2-1-17.5-2.6
			c0-0.3,0-0.5,0-0.9c0-0.9,0-1.8,0-2.7c0-0.8,0-1.4,0.1-2.1c5.4-1.3,11.3-2,17.5-2c6.2,0,12.1,0.8,17.5,2
			C88.5,65,88.6,65.6,88.6,66.4z"/>
	</g>
</g>
</svg>
