<svg xmlns="http://www.w3.org/2000/svg" width="142.1" height="108" viewBox="0 0 142.1 108" enable-background="new 0 0 142.1 108"><g fill="#2d0e2b"><path d="m59.8 56.2c-1.8.8-5.9-.3-5.9-.3-2.1 1.6-4.6 2.1-7 3.3-.6.3-1.3.6-1.9 1-.8.3-1.3.5-2.1.5-1 0-2.1-.5-3.1-.2-1.5.8-3.2 2.7-4.8 3.6-1.2.8-3.2 1.9-4.6 1.6-.9-.2-1.1-.6-2-.2-.8.3-1.5 1.1-2 1.6-.6.5-1.2 1.2-1.5 1.9-.2.5-.1 1.9-.3 2.3-.4.5-.5-.3-.6-.8-.2-1-.1-2.4.3-3.3.4-.8 1.1-1.5 1.7-1.9 1-.6 2-.1 3.1-.6.3-.5.2-1.3.9-1.8.3-.3.9-.4 1.2-.6 1.2-.5 2.4-1 3.6-1.3 1.4-.4 2.9-.6 4.2-1.2.8-.3 1.1-.6 1.6-1.3.6-.8 1.4-1.1 2.4-1.4 2.4-.6 4.8-1.2 7.3-1.8 1.3-.3 2.6-.4 3.9-.9.5-.2 1.1-.5 1.7-.6 1.1-.2 2.4.1 3.3.5.2.4 1.9 1.4.6 1.9"/><path d="m82.2 56.2c1.8.8 5.9-.3 5.9-.3 2.1 1.6 4.6 2.1 7 3.3.6.3 1.3.6 1.9 1 .8.3 1.3.5 2.1.5 1 0 2.1-.5 3.1-.2 1.5.8 3.2 2.7 4.8 3.6 1.2.8 3.2 1.9 4.6 1.6.9-.2 1.1-.6 2-.2.8.3 1.5 1.1 2 1.6.6.5 1.2 1.2 1.5 1.9.2.5.1 1.9.3 2.3.4.5.5-.3.6-.8.2-1 .1-2.4-.3-3.3-.4-.8-1.1-1.5-1.7-1.9-1-.6-2-.1-3.1-.6-.3-.5-.2-1.3-.9-1.8-.3-.3-.9-.4-1.2-.6-1.2-.5-2.4-1-3.6-1.3-1.4-.4-2.9-.6-4.2-1.2-.8-.3-1.1-.6-1.6-1.3-.6-.8-1.4-1.1-2.4-1.4-2.4-.6-4.8-1.2-7.3-1.8-1.3-.3-2.6-.4-3.9-.9-.5-.2-1.1-.5-1.7-.6-1.1-.2-2.4.1-3.3.5-.2.4-1.8 1.4-.6 1.9"/><path d="m57.8 59.5c-4.2 6-7.5 12.8-9.9 19.7-.2.5-.3 1.1-1 1.3-.5.3-1.6.4-1.8 1.2-.5 1.4-1 2.9-1.2 4.4-.3 2-.5 4.2-1.4 6.1-.3.6-.8 1.2-1.3 1.6-.4.3-1.2.6-1.5 1.1-.3.4-.4 1-.8 1.4-.4.6-.8 1.3-1.2 1.9-.8 1.3-1.2 2.7-1.3 4.1 0 .2.2 1.6-.2 1.4-.2-.1-.3-.6-.4-.9-.1-.3-.2-.6-.3-1-.5-2.8 1-6.3 3.5-7.5 0 .1-.1.2-.1.3-1.4-.8-2.5-2.7-2.3-4.3.2-1.5.9-3 1.6-4.3.8-1.2 1.5-2.4 2.1-3.6.4-.9 1.2-2 1-3.1-.2-.9-.6-1.5-.2-2.4.2-.5.5-1.1.9-1.6 1.8-3.2 3.9-6.3 6.4-9.1 1.4-1.6 3-3.1 4.6-4.4.9-.6 1.7-1.3 2.6-1.8.4-.3.9-.5 1.3-.8.1-.1.4-.3.6-.2.3.3.4.4.3.5"/><path d="m84.3 59.5c4.2 6 7.5 12.8 9.9 19.7.2.5.3 1.1 1 1.3.5.3 1.6.4 1.8 1.2.5 1.4 1 2.9 1.2 4.4.3 2 .5 4.2 1.4 6.1.3.6.8 1.2 1.3 1.6.4.3 1.2.6 1.5 1.1.3.4.4 1 .8 1.4.4.6.8 1.3 1.2 1.9.8 1.3 1.2 2.7 1.3 4.1 0 .2-.2 1.6.2 1.4.2-.1.3-.6.4-.9s.2-.6.3-1c.5-2.8-1-6.3-3.5-7.5 0 .1.1.2.1.3 1.4-.8 2.5-2.7 2.3-4.3-.2-1.5-.9-3-1.6-4.3-.8-1.2-1.5-2.4-2.1-3.6-.4-.9-1.2-2-1-3.1.2-.9.6-1.5.2-2.4-.2-.5-.5-1.1-.9-1.6-1.8-3.2-3.9-6.3-6.4-9.1-1.4-1.6-3-3.1-4.6-4.4-.9-.6-1.7-1.3-2.6-1.8-.4-.3-.9-.5-1.3-.8-.1-.1-.4-.3-.6-.2-.4.3-.4.4-.3.5"/><path d="m61.8 33.6c-3.4-1.7-9.4-7.6-10.8-11.2-.4-1-.2-1.9-.5-2.9-.2-.8-.5-1.3-.8-2.1-.4-1.9.3-5.9 2.1-6.9-.2 0-1.9-1.5-2.4-2-1.7-2 2.1-1.2 2.9.4.6 1.5.2 4.1 0 6.3-.2 1.6-.2 3.1-1.1 4l.1-.2c2.7.5 6.3 5.1 7.7 7.3.5 1.1 3.8 6.3 2.8 7.3"/><path d="m80.3 33.6c3.3-1.7 9.3-7.6 10.7-11.2.4-1 .2-1.9.5-2.9.2-.8.5-1.3.8-2.1.4-1.9-.3-5.9-2.1-6.9.2 0 1.9-1.5 2.4-2 1.7-2-2.1-1.2-2.9.4-.6 1.5-.2 4.1 0 6.3.2 1.6.2 3.1 1.1 4l.1-.2c-2.7.5-6.3 5.1-7.7 7.3-.6 1.1-4.1 6.3-2.9 7.3"/></g><circle cx="71" cy="38.3" r="14.3" opacity=".9" fill="#ffd17b"/><path d="m62.2 36.9l-.1.9c0 0-9 14.4-25.1 13.5-9.2-1.1-21.1-5.9-23.3-7.4-1.4-1-3.3-2.6-2.7-4.3.4-1.2 2-2.5 5.8-3.5 9.1-2.8 42.1.5 45 .9.3-.1.4-.1.4-.1" opacity=".75" fill="#dee2d9"/><path d="m62.3 35.8l-.1 1c0 0-.1.1-.2.1-2.9-.3-35.9-3.6-45-.9-3.8 1.2-5.4 2.5-5.8 3.5-.2-1.5 1.1-3.1 5.9-4.7 9.4-2.8 45.2 1 45.2 1" fill="#c3b6b1"/><path d="m62.4 36.9l.1 3.8-35.7 6.3c-7.1 0-11.2-4.5-11.2-4.5-6.8-2.3-11.6-9.6-11.6-9.6-3.8-4.2-3.9-7.5-3.8-8.7 0-.3.1-.4.1-.4s5.7-4.4 15.1-3.6c9.3.7 47 16.7 47 16.7" opacity=".75" fill="#dee2d9"/><path d="m62.3 35.8v1.1c0 0-37.6-16-47.2-16.7-9.3-.8-15.1 3.6-15.1 3.6s0-.1 0-.3c0-.4.2-.9.6-1.1 1.7-1.1 6.9-3.8 14.6-3.2 9.5.7 47.1 16.6 47.1 16.6" fill="#c3b6b1"/><path d="m79.9 36.9c0 0 .1 0 .3 0 2.9-.3 35.9-3.6 45-.9 3.8 1.2 5.4 2.5 5.8 3.5.6 1.7-1.3 3.3-2.7 4.3-2.3 1.5-14 6.3-23.3 7.4-16 .9-25-13.4-25-13.4l-.1-.9" opacity=".75" fill="#dee2d9"/><path d="m79.8 35.8c0 0 35.8-3.8 45.1-.9 4.9 1.5 6.2 3.2 5.9 4.7-.4-1.1-2-2.4-5.8-3.5-9.1-2.8-42.1.5-45 .9-.1-.1-.2-.1-.2-.1v-1.1" fill="#c3b6b1"/><path d="m79.7 36.9c0 0 37.6-16 47-16.7 9.4-.8 15.1 3.6 15.1 3.6s.1.1.1.4c.1 1.2-.1 4.5-3.8 8.7 0 0-4.7 7.3-11.7 9.5 0 0-4.1 4.5-11.2 4.5l-35.7-6.3.2-3.7" opacity=".75" fill="#dee2d9"/><path d="m79.8 35.8c0 0 37.6-16 47.1-16.6 7.7-.5 12.9 2.1 14.6 3.2.4.2.6.6.6 1.1 0 .2-.1.3-.1.3s-5.7-4.4-15.1-3.6c-9.5.8-47.2 16.7-47.2 16.7l.1-1.1" fill="#c3b6b1"/><g fill="#634f52"><path d="m68.6 9.8c-1.4-1-3-1.6-4.6-1.9-1.2-.3-2.3-.1-3.5-.2-.6-.1-1.2-.6-1.8-1-.9-.7-1.9-1.2-2.7-1.8-1.1-.6-2.1-1.3-3.2-1.8-.8-.4-1.6-.8-2.5-1.2-1.1-.4-2.4-.5-3.3-1.1-.7-.2-.5-.8.3-.8.9-.1 1.8.3 2.6.5.9.3 1.7.6 2.5 1.1 2.8 1.4 5.6 3.2 8.1 5.3-.1 0-.2 0-.3-.1 1.8-.3 3.5-.2 5.2.2 1.2.3 2.4.8 3.4 1.4.4.2.9.5.6 1.1.1.4-.4.5-.8.3"/><path d="m73.3 9.8c1.4-1 3-1.6 4.6-1.9 1.2-.3 2.3-.1 3.5-.2.6-.1 1.2-.6 1.8-1 1-.7 1.9-1.2 2.8-1.8 1.1-.6 2.1-1.3 3.2-1.8.8-.4 1.6-.8 2.5-1.2 1.1-.4 2.3-.5 3.3-1 .7-.3.4-.9-.3-.9-.9-.1-1.8.3-2.6.5-.9.3-1.7.6-2.5 1.1-2.8 1.4-5.6 3.2-8.1 5.3.1 0 .2 0 .3-.1-1.8-.3-3.5-.2-5.2.2-1.2.3-2.4.8-3.4 1.4-.4.2-.9.5-.6 1.1 0 .4.4.5.7.3"/></g><path d="m77 26.6c3.9 0 7-4 7-7.8s-2.9-6.9-6.8-8.6c-3.1-1.3-4.1-3.1-6.2-3.1s-3.1 1.7-6.2 3.1c-3.9 1.7-6.8 4.8-6.8 8.6 0 3.9 3.1 7.8 7 7.8 0 0 12 0 12 0" fill="#e6ae6f"/><g fill="#2d0e2b"><path d="m64.7 17.2c0 3.4-1.3 6.5-3.3 6.5s-3.6-2.4-3.6-5.8 1.6-6.2 3.6-6.2c2 .1 3.3 2 3.3 5.5"/><path d="m77.4 17.2c0 3.4 1.3 6.5 3.3 6.5s3.6-2.4 3.6-5.8-1.6-6.2-3.6-6.2c-2 0-3.3 2-3.3 5.5"/></g><g fill="#44132d"><path d="m82.1 35.9c0 6.4-11.2 23.5-11.2 23.5s-11-17-11-23.5 4.9-10 11.2-10c6.2.1 11 3.6 11 10"/><path d="m88.6 66.5c0-9.7-7.8-17.6-17.6-17.6s-17.5 7.8-17.5 17.6c0 18.8 5.6 33.7 13.1 37.9l.1.1c1.4 1.2 1.9 3.5 4.3 3.5s2.9-2.4 4.3-3.5l.1-.1c7.6-4.2 13.2-19.1 13.2-37.9"/></g><g fill="#e6ae6f"><path d="m86.9 58.8c-4.7-1.5-10.1-2.3-15.8-2.3-5.7 0-11 .9-15.8 2.3 0 0 0 0 0-.1 2.9-5.8 8.8-9.9 15.8-9.9 6.9 0 12.9 4.1 15.8 10"/><path d="m84.2 92.5c-.3.9-.6 1.7-1.1 2.5-3.5 1.4-7.6 2.1-12.1 2.1s-8.7-.9-12.1-2.1c-.3-.8-.8-1.6-1.1-2.5 3.6 1.6 8.3 2.7 13.2 2.7 4.9-.2 9.5-1.1 13.2-2.7"/><path d="m86.6 84.3c-.2 1-.4 1.9-.8 2.9-4 2.1-9.2 3.5-14.9 3.5-5.8 0-11-1.3-14.9-3.5-.2-1-.5-1.9-.8-2.9 4.4 1.9 9.8 3.1 15.7 3.1 6 0 11.5-1.2 15.7-3.1"/><path d="m88.1 75.3c-.2 1.7-.4 3.3-.6 4.9-4.9 1.6-10.5 2.5-16.5 2.5s-11.6-.9-16.5-2.5c-.2-1.6-.4-3.2-.6-4.9 5 1.7 10.9 2.7 17.1 2.7s12.1-1 17.1-2.7"/><path d="m88.6 66.4c0 .9 0 1.8 0 2.7 0 .3 0 .5 0 .9-5.3 1.6-11.2 2.6-17.5 2.6s-12.2-1-17.5-2.6c0-.3 0-.5 0-.9 0-.9 0-1.8 0-2.7 0-.8 0-1.4.1-2.1 5.4-1.3 11.3-2 17.5-2s12.1.8 17.5 2c-.2.7-.1 1.3-.1 2.1"/></g></svg>