<?xml version="1.0" encoding="utf-8"?>
<svg version="1.1" xmlns="http://www.w3.org/2000/svg" width="86.2" height="93.6" viewBox="0 0 86.2 93.6" enable-background="new 0 0 86.2 93.6">
 <g>
  <g>
   <ellipse cx="38" cy="5.9" rx="1.6" ry="1.8" fill="#100f0d"/>
   <g>
    <path d="M35.8,8.2c-0.2-0.4-0.5-0.7-0.8-1c-0.3-0.3-0.6-0.6-1-0.7c-0.8-0.2-1.7-0.1-2.5,0.1
				c-0.9,0.2-1.8,0.5-2.7,0.7c-0.9,0.1-1.7-0.2-2.1-1c-0.1-0.2-0.1-0.6-0.1-0.7c0-0.1,0-0.1-0.1-0.2c-0.2-0.4-0.1-0.8,0-1.3
				c0.2-0.9,0.4-1.8,0.8-2.6c0.2-0.4,0.4-0.8,0.7-1.1c0.2-0.2,0.8-0.5,0.9-0.1c0.3,0.6,0,1.2-0.2,1.7c-0.2,0.8-0.5,1.6-0.8,2.3
				c-0.2,0.5-0.3,1.1-0.8,1.4c0,0,0.2,0.6,0.5,0.8c0.3,0.2,0.7,0.2,1,0.2c0.9-0.1,1.7-0.4,2.5-0.6c0.8-0.2,1.7-0.3,2.5-0.2
				c0.6,0.1,1.2,0.4,1.6,0.9c0.3,0.3,0.6,0.7,0.8,1.1c0.1,0.2,0.2,0.4,0,0.5C36.1,8.4,35.9,8.3,35.8,8.2z" fill="#193307"/>
   </g>
  </g>
  <g>
   <ellipse cx="48.2" cy="5.9" rx="1.6" ry="1.8" fill="#100f0d"/>
   <g>
    <g>
     <path d="M50,8.3c-0.2-0.1-0.1-0.4,0-0.5c0.2-0.4,0.5-0.8,0.8-1.1c0.4-0.5,1-0.8,1.6-0.9c0.9-0.1,1.7,0,2.5,0.2
					c0.8,0.2,1.7,0.5,2.5,0.6c0.3,0,0.7,0,1-0.2C58.8,6.2,59,5.6,59,5.6c-0.5-0.3-0.6-0.9-0.8-1.4c-0.3-0.8-0.5-1.6-0.8-2.3
					c-0.2-0.6-0.5-1.2-0.2-1.7c0.2-0.4,0.8,0,0.9,0.1c0.3,0.3,0.5,0.8,0.7,1.1c0.4,0.8,0.6,1.7,0.8,2.6c0.1,0.4,0.2,0.9,0,1.3
					c0,0.1-0.1,0.1-0.1,0.2c0,0-0.1,0.5-0.1,0.7c-0.4,0.9-1.2,1.1-2.1,1c-0.9-0.1-1.8-0.4-2.7-0.7c-0.8-0.2-1.7-0.3-2.5-0.1
					c-0.4,0.1-0.7,0.4-1,0.7c-0.3,0.3-0.6,0.6-0.8,1C50.3,8.3,50.1,8.4,50,8.3z" fill="#193307"/>
    </g>
    <path d="M49.7,7c-0.3-0.1-0.9-0.5-1.3-1.3C48,5.1,48,4.5,47.9,4.2l-4.8-0.6l-4.8,0.6c0,0.3-0.1,0.9-0.4,1.6
				c-0.4,0.8-1.1,1.2-1.3,1.3c-3,2.2-2.4,6.1-2.4,6.1h9h9C52.2,13.2,52.8,9.2,49.7,7z" fill="#193307"/>
   </g>
  </g>
  <path d="M48.8,7.2c-0.2-0.1-0.8-0.5-1.1-1.1c0,0,0,0,0,0c-0.5-0.8-1.3-1.4-2.2-1.5l-2.3-0.3l-2.3,0.3
		c-0.9,0.1-1.7,0.7-2.2,1.5c0,0,0,0,0,0c-0.4,0.7-0.9,1-1.1,1.1c-2.6,1.9-2.1,5.2-2.1,5.2h7.7h7.7C50.8,12.5,51.3,9.1,48.8,7.2z" fill="#195109"/>
  <path d="M24.4,21.1c-1-1.9-2.2-3.7-3.5-5.4c-0.6-0.8-1.3-1.5-2.1-2c-0.4-0.3-7.4-3.4-7.4-3.4c-0.2-0.4-2.6-4.1-3.7-5.7
		c0-0.1,0-0.2-0.1-0.3c0-0.2,0-0.3-0.1-0.5c0-0.4,0-0.8,0.1-1.1c0.1-0.3,0.2-0.6,0.5-0.8c0.3-0.2,0.6-0.2,0.9-0.3V1.3
		C8.6,1.1,8.2,1,7.7,1.1C7.3,1.3,6.8,1.6,6.6,2C6,2.8,5.8,4.2,6.5,5l0.1,0.2C6.2,5.7,5.8,6.3,6,7C6,7.3,9.1,11,9.7,11.3
		c0,0.1,0.1,0.2,0.2,0.3c0.1,0,2.7,1.4,3.6,1.9c-0.4,0-0.7,0-1,0.1c-0.5,0-0.9,0.1-0.9,0.1l0,0.2c0,0,2.1,0.5,2.8,0.7
		c0.2,0.1,0.4,0.1,0.6,0.2c0,0,0,0,0,0.1c-0.6,0.1-2.5,0.5-2.5,0.5l0,0.2c0,0,2.1,0.7,2.7,1c0.3,0.1,0.6,0.3,0.9,0.4
		c0.1,0,0.2,0.1,0.2,0.1c0.2,0.2,3.4,3.3,4.8,4.6c0.7,0.6,3.8,2.9,4.7,3.4L26,25C25.7,23.7,25,22.4,24.4,21.1z" fill="#100f0d"/>
  <path d="M18.9,33.3c-0.5-0.1-0.9-0.2-1.4,0c-0.2,0.1-0.3,0.2-0.5,0.3c-0.1,0-0.3,0.1-0.4,0.1c-2.2,1.4-4.2,3.1-6.1,4.9
		c-1.3,1.2-2.7,2.5-3.7,4c-0.5,0.8-1,1.6-1.5,2.4c-0.3,0.5-0.5,1-0.6,1.5c-0.1,0.4,0,0.9,0,1.4c0,2.4-0.4,4.7-1,7
		c-0.3,1.1-0.6,2.2-1,3.3c-0.2,0.5-0.4,1-0.8,1.4c-0.1,0.1-0.2,0.3-0.4,0.5c-0.1-0.2-0.2-0.3-0.3-0.5C1,59,0.9,58.4,0.9,57.7
		c0-1.3,0.4-2.6,1-3.8c-1.2,0.8-1.7,2.3-1.9,3.6c-0.1,1.3,0.2,2.9,1.1,3.8c0.2,0.1,0.3,0.3,0.5,0.5C2,62.2,2.3,62,2.6,61.8
		c0.6-0.4,1-1.1,1.3-1.8c0.3-0.8,0.5-1.6,0.6-2.4c0.1-0.7,0.3-1.4,0.4-2.1c0.6-2.8,1-5.7,1.1-8.6c0,0,0,0,0,0.1c0,0,0.7-1,0.8-1.1
		c0.3-0.4,9.4-9.4,10.4-10.4c1.4,0.9,4.4,0.2,5.1-0.9v-0.2C21.3,33.8,20.1,33.5,18.9,33.3z" fill="#100f0d"/>
  <path d="M32.2,91.5c-1.8,1.3-4.5,1.4-6.3,0.1c-0.4-0.3-0.7-0.7-0.9-1.2c-0.1-0.2-0.8-1-1-1.2c-0.8-0.9-1.5-1.8-2.1-2.8
		c-0.7-1.1-1.2-2.3-1.7-3.5c0.7,0.6,1.4,1.2,2.2,1.6c-0.7-0.6-2.9-3.7-3.1-4.6c0.8,0.8,1.7,1.5,2.7,2.1c-0.7-0.6-2.8-3.8-3-4.1
		C19,77.5,19,77.3,19,77c0.9,1,1.8,1.8,3,2.4c-1-0.9-3.1-6-3.1-6.4c0-0.2,0-0.4,0-0.6c0.1-0.4,0.5-0.7,0.7-1
		c0.9,1.3,1.9,2.4,3.2,3.1c-0.9-0.7-1.5-1.6-1.9-2.6c-0.5-1-1.4-7.1-1.5-9.1c-0.1-2-0.2-4-0.2-6c0-0.8,0-1.7,0.1-2.5
		c0-0.6,0.5-2.1,0.7-2.3c0.2-0.3,0.5-0.7,0.7-1c0.5-0.7,0.9-1.3,1.3-2.1l-1.7-2.6c-1.1,0.1-2.2,0.5-3.1,1c-0.9,0.5-1.8,1.1-2.4,2
		c-0.9,1.1-1.2,2.6-1.4,3.9c-0.4,2.3-0.4,4.7-0.3,7c0.1,2.4,0.4,4.7,0.8,7.1c0.2,1.3,0.4,2.7,0.7,4c0.1,0.4,0.4,0.6,0.7,0.8
		c0.2,0.1,0.4,0.2,0.5,0.4c0.1,0.2,0.3,2.3,0.4,3.1c0.2,2.3,0.6,4.6,1.2,6.8c0.6,2.3,1.5,4.5,2.8,6.4c0.6,0.9,1.4,1.7,2.2,2.5
		c0.4,0.4,0.7,0.6,1.3,0.7c0.2,0,1.2,0.2,1.5,0.3c1,0.5,2.1,0.9,3.2,1c1.1,0.1,2.2-0.2,3.1-0.9C31.7,92.4,32.2,91.5,32.2,91.5z" fill="#100f0d"/>
  <path d="M43.1,26.9H25l-1.8,3.2l0,36.5l3.2,7.1c0.6,1.3,1.4,2.6,2.3,3.7c1.1,1.3,2.4,2.5,3.8,3.5l4.5,3l1.3,0.9
		c1,0.7,2.2,1.1,3.5,1.1h1.4V26.9z" fill="#100f0d"/>
  <path d="M42.5,39.6l-0.9,32.5c0,1-0.8,1.9-1.9,2c-4.4,0.5-15.6,0.3-19.4-14.4c-5.4-20.5,4.3-32.2,4.3-32.2l10.5,5
		c1.9,0.9,3.5,2.2,4.8,3.7l2.2,2.6C42.4,39.1,42.5,39.3,42.5,39.6z" fill="#982810"/>
  <path d="M37.4,71.9c-5.2,0-12.1-2.2-14.8-12.7c-2.6-9.9-1.4-17.6,0-22.2c0.6-1.9,1.3-3.6,2-4.8
		c0.5-0.9,1.6-1.3,2.5-0.8l6.7,3.2c1.8,0.9,3.4,2.1,4.7,3.6l1.2,1.4c0.3,0.4,0.5,0.8,0.4,1.3l-0.8,29.3
		C39.3,71.1,38.5,71.9,37.4,71.9C37.4,71.9,37.4,71.9,37.4,71.9z" fill="#a3461e"/>
  <path d="M37,83.9l-4.5-3c-1.4-1-2.7-2.1-3.8-3.5c1.8,0.5,4.3,1,7.2,1c1.3,0,2.4-0.2,3.4-0.4c0,0.6,0,1.3-0.2,2.1
		C38.8,81.4,38.2,82.9,37,83.9z" fill="#c4a57b"/>
  <path d="M60.2,25l0.1,0.2c0.9-0.5,4.1-2.9,4.7-3.4c1.5-1.3,4.7-4.4,4.8-4.6c0.1,0,0.1-0.1,0.2-0.1
		c0.3-0.2,0.6-0.3,0.9-0.4c0.6-0.3,2.7-1,2.7-1l0-0.2c0,0-1.9-0.4-2.5-0.5c0,0,0,0,0-0.1c0.2-0.1,0.4-0.1,0.6-0.2
		c0.7-0.2,2.8-0.7,2.8-0.7l0-0.2c0,0-0.4,0-0.9-0.1c-0.3,0-0.6,0-1-0.1c0.9-0.5,3.5-1.8,3.6-1.9c0.1-0.1,0.1-0.1,0.2-0.3
		c0.6-0.3,3.6-4,3.7-4.4c0.1-0.6-0.2-1.3-0.6-1.7L79.8,5c0.7-0.9,0.4-2.2-0.1-3c-0.3-0.4-0.7-0.7-1.1-0.9c-0.5-0.2-0.9,0-1.4,0.1
		v0.2c0.3,0.1,0.6,0.1,0.9,0.3c0.3,0.2,0.4,0.5,0.5,0.8c0.1,0.4,0.1,0.7,0.1,1.1c0,0.2,0,0.4-0.1,0.5c0,0.1,0,0.2-0.1,0.3
		c-1.1,1.6-3.4,5.3-3.7,5.7c0,0-7,3.1-7.4,3.4c-0.8,0.6-1.5,1.3-2.1,2c-1.3,1.7-2.5,3.5-3.5,5.4C61.2,22.4,60.6,23.7,60.2,25z" fill="#100f0d"/>
  <path d="M63.8,34.3v0.2c0.7,1.1,3.7,1.8,5.1,0.9c1,1,10.1,10,10.4,10.4c0.1,0.1,0.8,1.1,0.8,1.1c0,0,0,0,0-0.1
		c0.1,2.9,0.5,5.8,1.1,8.6c0.2,0.7,0.3,1.4,0.4,2.1c0.2,0.8,0.3,1.6,0.6,2.4c0.3,0.7,0.7,1.3,1.3,1.8c0.3,0.2,0.6,0.4,0.9,0.1
		c0.2-0.1,0.3-0.4,0.5-0.5c0.9-1,1.2-2.6,1.1-3.8c-0.1-1.4-0.7-2.8-1.9-3.6c0.6,1.2,1,2.5,1,3.8c0,0.6-0.1,1.3-0.4,1.8
		c-0.1,0.2-0.2,0.4-0.3,0.5c-0.2-0.2-0.3-0.4-0.4-0.5c-0.3-0.4-0.5-0.9-0.8-1.4c-0.4-1-0.7-2.1-1-3.3c-0.6-2.3-1-4.6-1-7
		c0-0.5,0.1-1,0-1.4c-0.1-0.5-0.4-1-0.6-1.5c-0.4-0.9-0.9-1.6-1.5-2.4c-1-1.5-2.4-2.8-3.7-4c-1.9-1.7-3.9-3.4-6.1-4.9
		c-0.1,0-0.3-0.1-0.4-0.1c-0.2-0.1-0.3-0.2-0.5-0.3c-0.4-0.2-0.9-0.1-1.4,0C66.1,33.5,64.9,33.8,63.8,34.3z" fill="#100f0d"/>
  <path d="M54.9,92.7c0.9,0.6,2,0.9,3.1,0.9c1.1-0.1,2.2-0.5,3.2-1c0.3-0.1,1.2-0.3,1.5-0.3c0.5-0.1,0.9-0.4,1.3-0.7
		c0.8-0.8,1.6-1.6,2.2-2.5c1.3-1.9,2.2-4.1,2.8-6.4c0.6-2.2,1-4.5,1.2-6.8c0.1-0.9,0.2-2.9,0.4-3.1c0.1-0.2,0.3-0.3,0.5-0.4
		c0.3-0.2,0.6-0.4,0.7-0.8c0.3-1.3,0.5-2.7,0.7-4c0.4-2.3,0.7-4.7,0.8-7.1c0.1-2.3,0.1-4.7-0.3-7c-0.2-1.3-0.6-2.8-1.4-3.9
		c-0.6-0.9-1.5-1.5-2.4-2c-1-0.5-2-0.9-3.1-1L64.4,49c0.3,0.7,0.8,1.4,1.3,2.1c0.2,0.3,0.5,0.7,0.7,1c0.2,0.2,0.7,1.7,0.7,2.3
		c0.1,0.8,0.1,1.7,0.1,2.5c0,2-0.1,4-0.2,6c-0.1,2-1.1,8.1-1.5,9.1c-0.5,1-1.1,1.9-1.9,2.6c1.3-0.7,2.4-1.8,3.2-3.1
		c0.2,0.3,0.6,0.6,0.7,1c0,0.2,0,0.4,0,0.6c0,0.4-2.1,5.5-3.1,6.4c1.2-0.6,2.1-1.5,3-2.4c0,0.3,0,0.5-0.2,0.8
		c-0.1,0.2-2.2,3.5-3,4.1c1-0.5,1.9-1.3,2.7-2.1c-0.2,0.9-2.4,4-3.1,4.6c0.8-0.4,1.5-1,2.2-1.6c-0.4,1.2-1,2.4-1.7,3.5
		c-0.6,1-1.3,2-2.1,2.8c-0.2,0.2-0.9,1-1,1.2c-0.2,0.5-0.4,0.9-0.9,1.2c-1.8,1.3-4.5,1.2-6.3-0.1C54.1,91.5,54.5,92.4,54.9,92.7z" fill="#100f0d"/>
  <path d="M43.1,26.9h18.1l1.8,3.2l0,36.5l-3.2,7.1c-0.6,1.3-1.4,2.6-2.3,3.7c-1.1,1.3-2.4,2.5-3.8,3.5l-4.5,3l-1.3,0.9
		c-1,0.7-2.2,1.1-3.5,1.1h-1.4V26.9z" fill="#100f0d"/>
  <path d="M47.2,80.2C47,79.4,47,78.6,47,78c1,0.2,2.2,0.3,3.4,0.4c2.9,0.1,5.4-0.4,7.2-1c-1.1,1.3-2.4,2.5-3.8,3.5
		l-4.5,3C48,82.9,47.5,81.4,47.2,80.2z" fill="#c4a57b"/>
  <path d="M43.1,10.8c-18.9,1.8-18.1,16-18.1,16c3.5,1.7,6.7,3.2,9.5,4.5c1.1,0.5,2.2,0.9,3.4,0.7l4.5-0.9
		c0.5-0.1,0.9-0.1,1.4,0l4.5,0.9c1.2,0.2,2.3-0.2,3.4-0.7c2.8-1.3,5.9-2.8,9.5-4.5C61.2,26.9,62,12.6,43.1,10.8z" fill="#193307"/>
  <path d="M58.3,21.3c-1.4-3.5-4.9-7.9-13.5-9.1c-1.1-0.2-2.3-0.2-3.4,0c-8.5,1.3-12,5.6-13.5,9.1
		c-1,2.5,0.1,5.5,2.6,6.6c1.8,0.8,3.4,1.6,4.9,2.3c1,0.5,2,0.8,3,0.6l3-0.6c1.1-0.2,2.2-0.2,3.3,0l3,0.6c1.1,0.2,2.1-0.1,3-0.6
		c1.5-0.7,3.1-1.5,4.9-2.3C58.2,26.8,59.3,23.9,58.3,21.3z" fill="#195109"/>
  <path d="M46.7,32.4l-2.5-0.5c-0.7-0.1-1.4-0.1-2.1,0l-2.5,0.5c-0.7,0.1-1,1-0.6,1.6l3.4,4c0.4,0.4,1,0.4,1.4,0l3.4-4
		C47.7,33.4,47.4,32.6,46.7,32.4z" fill="#3d552d"/>
  <path d="M45.5,33.1l-1.3-0.2c-0.7-0.1-1.4-0.1-2.2,0l-1.3,0.2c-0.5,0.1-0.7,0.7-0.4,1.1l2.2,2.6c0.3,0.3,0.8,0.3,1.1,0
		l2.2-2.6C46.2,33.8,46,33.2,45.5,33.1z" fill="#3a602f"/>
  <path d="M43.8,39.6l0.9,32.5c0,1,0.8,1.9,1.9,2c4.4,0.5,15.6,0.3,19.4-14.4c5.4-20.5-4.3-32.2-4.3-32.2l-10.5,5
		c-1.9,0.9-3.5,2.2-4.8,3.7L44,38.9C43.8,39.1,43.8,39.3,43.8,39.6z" fill="#982810"/>
  <path d="M48.8,71.9C48.8,71.9,48.8,71.9,48.8,71.9c-1,0-1.8-0.8-1.9-1.8l-0.8-29.3c0-0.5,0.1-0.9,0.4-1.3l1.2-1.4
		c1.3-1.5,2.9-2.7,4.7-3.6l6.7-3.2c0.9-0.4,2-0.1,2.5,0.8c0.6,1.2,1.3,2.8,2,4.8c1.5,4.7,2.7,12.3,0,22.2
		C60.9,69.7,54,71.9,48.8,71.9C48.8,71.9,48.8,71.9,48.8,71.9z" fill="#a3461e"/>
 </g>
</svg>
