<svg xmlns="http://www.w3.org/2000/svg" width="46.4" height="43.2" viewBox="0 0 46.4 43.2" enable-background="new 0 0 46.4 43.2"><g fill="#2f343a"><path d="m20.9 3.9c.3.5-.4.3-.9.6s-.6 1.1-.9.6-.2-1.1.4-1.5 1.1-.2 1.4.3"/><path d="m25.5 3.9c-.3.5.4.3.9.6s.6 1.1.9.6.2-1.1-.4-1.5-1.1-.2-1.4.3"/></g><g fill="#0f1720"><path d="m25.6 8c.7 0 1.3.1 1.4-.6 0 0 .2-1.1.3-1.3.3-2.1-2-2.7-2-2.7-.3 0-.5-.1-.7-.3l-.2-.2c-.2-.2-.5-.4-.8-.4h-1c-.3 0-.6.1-.8.4l-.2.2c-.2.2-.4.3-.7.3 0 0-2.3.6-2 2.7 0 .2.3 1.3.3 1.3.1.7.7.6 1.4.6h5"/><path d="m22.1 3.8c-.7-.3-1.4-.6-2.1-.6-.9 0-2 .5-2.9.7-.6.1-1.3.1-2-.1-.8-.2-.6-1 .1-.7.1.1.1.2.2.3.2.1.5.2.8.3 1 .1 1.7-.4 2.6-.7.8-.2 1.7-.1 2.5.1.2.1.7.2.9.3.1.1.3.4.3.4-.2 0-.3 0-.4 0"/><path d="m24.1 3.8c-.1 0-.2.1-.3.1 0 0 .2-.3.3-.4.2-.2.6-.3.9-.3.8-.2 1.7-.4 2.5-.1.8.1 1.5.7 2.5.6.3 0 .5-.1.8-.3.1-.1.1-.2.2-.3.7-.3.9.5.1.7-.6.1-1.4.2-2 .1-.9-.2-1.9-.7-2.9-.7-.7 0-1.4.3-2.1.6"/><path d="m0 21.6c.5.5 1 .2 1.6 0 .5-.2 1-.2 1.4-.3.8-.2 1.5 0 2.4.1.8.1 1.4.2 2-.1.7-.3 1.3-1 1.8-1.5.6-.5 1.2-1.2 1.8-1.7.4-.4 1.1-1.3 1.6-1.4.7 0 1.6.8 2.4.9 1.5.4 1.7-1.6.2-1.8-.8-.1-1.9-.2-2.7-.1-.6.1-1.3.9-1.8 1.3-.8.6-1.6 1.3-2.3 1.9-.4.4-1.9 1.2-1.9 1.8-1-.2-2.2-.6-3.1-.1-.6.3-1.3.7-2 .8-.2 0-.5 0-.7.1-.2 0-.2.2-.3.3-.1-.2-.4-.5-.4-.2"/><path d="m4.1 42.1c0 .4.7-.1.8-.2.3-.3.5-.9.7-1.2.2-.4.5-1 .8-1.3.7-.8 1.9-1 2.5-1.9.1-.4.1-.2.2-.6 0-.1 0-.3 0-.4 0-.2 0-.4 0-.6 0-.5.1-1 .1-1.6.1-1 .1-2 .2-3 0-.7 0-1.4 0-2.1 0-.6-.1-.9.3-1.2.5-.4 1.2-.5 1.8-.8.8-.4 1.2-1.6.1-1.8-.6-.1-1 .3-1.4.6-.5.4-1.1.7-1.6 1.1-.2.1-.3.2-.4.3-.2.4-.1 1.3-.1 1.8-.1 1.4-.2 2.9-.3 4.3-.1.9-.1 2 0 2.9 0 .4.1.4 0 .7-.2.3-.7.5-1 .7-.4.2-1 .5-1.2.9-.1.2-.2.6-.3.9-.2.3-.3.7-.6 1-.2.2-.6.3-.7.6-.2.4.1.5.1.9"/><path d="m16 12.4c.7 0 1.7.1 1.5-1.1-.2-.8-1.1-.8-1.7-.9-.7-.2-1.7-.4-2.4-.1 0-.6-.2-1.2-.2-1.8 0-.7 0-1.5 0-2.2 0-.6.3-1.2.2-1.7-.1-1-1.3-1.7-2.1-2.4-.6-.6-1.3-.8-1.9-1.2-.2-.2-1.7-1.7-1.3-.6.2.4.9.8 1.3 1.2.8.8 2 1.3 2.8 2.1-1.2 1.2-.6 4-.2 5.4.5 2 1.8 3.3 4 3.3"/><path d="m46.4 21.6c0-.3-.3 0-.4 0-.1 0-.1-.2-.3-.3-.2 0-.5 0-.7-.1-.7 0-1.4-.4-2-.8-.9-.5-2.1 0-3.1.1 0-.6-1.4-1.4-1.9-1.8-.8-.7-1.6-1.3-2.3-1.9-.5-.4-1.2-1.2-1.8-1.3-.8-.1-1.9 0-2.7.1-1.5.2-1.3 2.2.2 1.8.7-.2 1.6-1 2.4-.9.5 0 1.2 1 1.6 1.4.6.6 1.2 1.2 1.8 1.7.5.5 1.2 1.2 1.8 1.5.6.3 1.3.2 2 .1.9-.1 1.5-.3 2.4-.1.5.1 1 .2 1.4.3.6.4 1.1.7 1.6.2"/><path d="m42.3 42.1c0-.4.3-.5 0-.9-.2-.3-.5-.3-.7-.6-.3-.3-.4-.6-.6-1-.1-.3-.2-.6-.3-.9-.2-.4-.8-.7-1.2-.9-.3-.2-.8-.4-1-.7-.1-.2-.1-.3 0-.7.1-.9.1-2 0-2.9-.1-1.4-.2-2.9-.3-4.3 0-.5.1-1.4-.1-1.8-.1-.2-.2-.2-.4-.3-.5-.4-1-.8-1.6-1.1-.4-.3-.8-.7-1.4-.6-1.2.2-.7 1.5.1 1.8.6.3 1.3.4 1.8.8.4.3.3.6.3 1.2 0 .7 0 1.4 0 2.1.1 1 .1 2 .2 3 0 .5.1 1 .1 1.6 0 .2 0 .4 0 .6 0 .1 0 .3 0 .4.1.5.1.2.3.6.6.9 1.8 1.1 2.5 1.9.3.3.5.9.8 1.3.2.4.4.9.7 1.2.1.1.8.6.8.2"/><path d="m30.4 12.4c2.2 0 3.5-1.2 4-3.3.4-1.4.9-4.2-.2-5.4.8-.8 2-1.3 2.8-2.1.3-.3 1.1-.8 1.3-1.2.4-1.1-1.1.4-1.3.6-.6.4-1.3.7-1.9 1.2-.8.7-2 1.4-2.1 2.4-.1.5.2 1.1.2 1.7 0 .7 0 1.5 0 2.2 0 .6-.2 1.2-.2 1.8-.7-.3-1.7-.1-2.4.1-.6.1-1.5.1-1.7.9-.2 1.2.8 1.1 1.5 1.1"/></g><path d="m31.3 12.4c.3.9-.3 1.9-1.3 2-1.8.2-4.7.6-6.8.6s-5-.3-6.8-.6c-.9-.1-1.6-1.1-1.3-2 1.1-3.4 4.3-5.9 8.1-5.9 3.8.1 7 2.5 8.1 5.9" fill="#121c26"/><g fill="#e8e7e3"><path d="m15.5 11.6c-.1.3-.2.6-.3.9-.3.9.3 1.8 1.3 2 0 0 0 0 .1 0 1.1.1 1.8-1.2 1-2-.3-.3-.7-.7-1-1-.4-.4-1-.3-1.1.1"/><path d="m19.1 9.3c-.2.2-.3.3-.5.5-.3.3-.3.8 0 1.1.3.3.5.5.8.8.4.4 1 .4 1.4 0s.4-1 0-1.4c-.3-.3-.7-.7-1-1-.2-.2-.5-.2-.7 0"/><path d="m31 11.6c.1.3.2.6.3.9.3.9-.3 1.8-1.3 2 0 0 0 0-.1 0-1.1.1-1.8-1.2-1-2 .3-.3.7-.7 1-1 .4-.4.9-.3 1.1.1"/><path d="m27.3 9.3c.2.2.3.3.5.5.3.3.3.8 0 1.1-.3.3-.5.5-.8.8-.4.4-1 .4-1.4 0s-.4-1 0-1.4c.3-.3.7-.7 1-1 .2-.2.5-.2.7 0"/></g><path d="m35.1 24.3c0 16.3-11.9 18.9-11.9 18.9s-11.9-2.6-11.9-18.9c0-4.4 1.3-7.9 3.5-10.1 2.1-2.2 5.1.8 8.4.8 3.3 0 6.3-3.1 8.4-.8 2.2 2.2 3.5 5.7 3.5 10.1" fill="#903716"/><path d="m22.8 15v28.1c-.7-.2-2.2-.8-4-2-.8-.5-1.6-1.2-2.4-2-1-1.1-2-2.4-2.8-4-.5-1-1-2.1-1.3-3.4-.6-2.1-1-4.5-1-7.4 0-4.4 1.3-7.9 3.5-10.1 1.8-1.8 4-.1 6.5.6 0 0 .1 0 .1 0 .5.1 1 .2 1.4.2" fill="#b34700"/><g fill="#0f1720"><path d="m19.6 31.7c.1.3 0 .6-.3 1-.3.3-.9.4-1.3.3-.7 0-1.7-.5-1.9-1.2-.3-1.2 1.3-1.5 2.1-1.2.5.1 1.2.5 1.4 1.1"/><path d="m20.6 40.5c-.3.4-1 .6-1.6.6-.1 0-.1 0-.2 0-.8-.5-1.6-1.2-2.4-2 .4-1.4 3.8-1.2 4.4.2.2.3.2.7-.2 1.2"/><path d="m20.3 22.3c-.1.6-.4 1.1-1 1.3-.1 0-.2 0-.3 0-.7 0-1.2-.5-1.2-1.2 0-1.3 2.3-2 2.5-.4 0 0 0 .1 0 .3"/><path d="m14.6 34.6c-.1.2-.3.3-.6.4-.1 0-.3.1-.4.1-.5-1-1-2.1-1.3-3.4.1 0 .1-.1.2-.1.2 0 .3 0 .5 0 1.2.1 2.3 2 1.6 3"/><path d="m22.8 15v2.4c-.4 0-.7-.3-1-.7-.2-.3-.3-.6-.4-1 0-.2-.1-.5-.1-.8v-.1c0 0 .1 0 .1 0 .5.1 1 .2 1.4.2"/></g><path d="m35.1 24.3c0 2.9-.4 5.3-1 7.4-.3 1.3-.8 2.4-1.3 3.4-.8 1.6-1.8 2.9-2.8 4-.8.8-1.6 1.5-2.4 2-1.8 1.2-3.3 1.8-4 2v-28.1c.4 0 .9-.1 1.4-.2 0 0 .1 0 .1 0 2.5-.7 4.7-2.4 6.5-.6 2.2 2.2 3.5 5.7 3.5 10.1" fill="#b34700"/><g fill="#0f1720"><path d="m26.8 31.7c-.1.3 0 .6.3 1 .3.3.9.4 1.3.3.7 0 1.7-.5 1.9-1.2.3-1.2-1.3-1.5-2.1-1.2-.5.1-1.2.5-1.4 1.1"/><path d="m25.8 40.5c.3.4 1 .6 1.6.6.1 0 .1 0 .2 0 .8-.5 1.6-1.2 2.4-2-.4-1.4-3.8-1.2-4.4.2-.2.3-.1.7.2 1.2"/><path d="m26.1 22.3c.1.6.4 1.1 1 1.3.1 0 .2 0 .3 0 .7 0 1.2-.5 1.2-1.2 0-1.3-2.3-2-2.5-.4 0 0 0 .1 0 .3"/><path d="m31.8 34.6c.1.2.3.3.6.4.1 0 .3.1.4.1.5-1 1-2.1 1.3-3.4-.1 0-.1-.1-.2-.1-.2 0-.3 0-.5 0-1.2.1-2.3 2-1.6 3"/><path d="m25.1 14.7v.1c0 .3-.1.6-.1.8-.1.4-.2.7-.4 1-.3.4-.6.7-1 .7v-2.3c.4 0 .9-.1 1.4-.2 0 0 .1-.1.1-.1"/></g></svg>