<svg xmlns="http://www.w3.org/2000/svg" width="648.2" height="649.7" viewBox="18 722 648.2 649.7" enable-background="new 18 722 648.2 649.7"><switch><g><g><circle cx="327.6" cy="890.9" r="6.2" fill="#364120"/><circle cx="356.4" cy="890.9" r="6.2" fill="#364120"/></g><g><g><path d="m276.9 802.3c1.2-.3 2.4-.6 2.4-.6.2 0 .3-.2.4-.3.1-.2.1-.4.1-.5 0 0-.4-1.2-.9-2.4-.2-.6-.5-1.2-.8-1.7-.1-.2-.3-.4-.4-.6l-.3-.3c-.1-.1-.3-.2-.6-.2-.2 0-.4.1-.5.3-.1.1-.2.3-.1.5 0 0 .2.9.3 1.9.1.5.1 1 .2 1.4-.3.2-.8.4-1.2.7-.8.5-1.6.9-1.6.9-.2.1-.3.2-.3.4s0 .4.1.5c.2.3.4.3.5.4.2 0 .4 0 .5 0 .2 0 .3 0 .5-.1.5 0 1.1-.2 1.7-.3" fill="#e0eb7b"/><path d="m281.3 806.5c2-.6 4-1.1 4-1.1.4-.1.6-.5.5-.8 0 0-.5-1.8-1.1-3.7-.3-.9-.7-1.8-1-2.5-.2-.4-.3-.7-.5-.9-.1-.1-.1-.2-.2-.3l-.2-.2c-.1-.1-.2-.1-.4-.1s-.4.1-.5.2c-.1.2-.2.4-.1.6 0 0 .4 1.6.7 3.1.1.6.2 1.3.3 1.8.1.3.1.6.1.8-.6.3-1.7.8-2.9 1.3-1.7.8-3.2 1.6-3.2 1.6-.2.1-.3.2-.3.4-.1.2 0 .4.1.5.1.2.3.3.4.4.2 0 .3 0 .4 0h.3c.7-.2 2.1-.7 3.6-1.1" fill="#e0eb7b"/><path d="m285.3 810.9c1.4-.4 2.8-.8 3.9-1 1.1-.3 1.8-.4 1.8-.4.3-.1.6-.4.5-.7 0 0-.1-.7-.2-1.7-.1-.7-.2-1.6-.4-2.5-.1-.4-.1-.8-.2-1.2-.3-1.4-.6-2.8-.9-3.8-.1-.5-.3-1-.4-1.3-.1-.2-.1-.3-.2-.4l-.1-.2c-.1-.1-.2-.2-.4-.3-.2 0-.4 0-.6.2-.2.2-.2.4-.2.6 0 0 .1.6.2 1.5.1.9.3 2.1.4 3.4.1 1.2.2 2.4.2 3.3 0 .4 0 .7.1 1-.9.3-2.7 1-4.6 1.7-2.5 1-4.8 2.1-4.9 2.2-.3.2-.5.5-.3.9.1.1.1.2.2.3.1.1.3.1.3.1.2 0 .3 0 .5 0 .5-.1 1.2-.3 2.2-.6.9-.4 2-.8 3.1-1.1" fill="#e0eb7b"/><path d="m289.1 815.5c1.8-.5 3.6-.9 5-1.1 1.4-.3 2.3-.5 2.3-.5.3-.1.6-.4.5-.7 0 0-.1-.8-.2-2-.1-1.2-.3-2.9-.6-4.6-.1-.4-.1-.8-.2-1.3-.2-1.4-.5-2.8-.8-3.8-.1-.5-.3-.9-.4-1.3-.1-.2-.1-.3-.2-.4l-.1-.2c-.1-.1-.1-.2-.4-.3-.2 0-.4 0-.6.2s-.2.4-.2.6c0 0 .1.8.2 1.9.1 1.1.3 2.7.4 4.1.1 1.5.2 3 .2 4.1 0 .6 0 1 0 1.3-.4.1-.9.3-1.6.5-1.3.4-2.9.9-4.6 1.5-3.3 1.1-6.4 2.5-6.4 2.5-.3.1-.5.5-.4.8.1.2.2.3.3.3.2.1.3.1.3.1.2 0 .3 0 .5 0 .6-.1 1.5-.4 2.7-.7 1.4-.3 2.9-.7 4.3-1" fill="#e0eb7b"/><path d="m292.6 820.2c1.4-.3 2.9-.6 4.2-.8.6-.1 1.3-.2 1.8-.3 1.7-.2 2.8-.4 2.8-.4.3 0 .6-.4.6-.7 0 0 0-.9-.1-2.4-.1-1.5-.2-3.4-.4-5.3-.1-1.3-.3-2.6-.5-3.8-.2-1.2-.4-2.2-.6-3-.1-.4-.2-.7-.3-.9 0-.1-.1-.2-.1-.3l-.1-.2c-.1-.1-.1-.2-.4-.3-.2-.1-.4 0-.6.2-.2.1-.3.4-.2.6 0 0 .1.9.3 2.2.1 1.4.3 3.1.4 4.9.1 1.8.1 3.5.1 4.8 0 .7 0 1.3 0 1.6-.5.1-1.2.3-2.1.5-1.6.4-3.6.9-5.6 1.5s-4 1.2-5.5 1.8c-1.5.5-2.4.9-2.4.9-.2.1-.3.2-.4.4s-.1.4 0 .5c.1.2.2.3.3.3.2.1.2.1.3.1.2 0 .3 0 .5 0 .6-.1 1.8-.4 3.2-.7 1.3-.4 3.1-.8 4.8-1.2" fill="#e0eb7b"/><path d="m294.8 825.2c.4-.1.8-.1 1.2-.2 2.5-.4 5.1-.7 7-.9 1.9-.2 3.2-.3 3.2-.3.3 0 .6-.3.6-.7 0 0 0-1.1 0-2.7 0-1.6-.1-3.8-.3-6-.2-2.3-.5-4.7-.8-6.5-.1-.8-.3-1.4-.4-1.9-.1-.2-.1-.4-.2-.6l-.1-.2-.1-.2c-.1-.1-.1-.1-.3-.2-.2-.1-.5 0-.6.1-.2.1-.3.4-.3.6 0 0 .1 1 .2 2.6.1 1.5.3 3.6.3 5.6.1 2 0 4 0 5.5 0 .7 0 1.3-.1 1.8v.1c-.5.1-1.4.2-2.4.4h-.1c-1.9.3-4.3.8-6.7 1.3-2.4.6-4.7 1.2-6.5 1.7-1.7.5-2.8.9-2.8.9-.2.1-.3.2-.4.3-.1.1-.1.4 0 .5.1.3.3.4.4.4.2.1.2.1.3.1.2 0 .4 0 .6-.1 1.4 0 4.7-.7 8.3-1.4" fill="#e0eb7b"/><path d="m289.3 831.5c.4-.1.8-.1 1.3-.2.2 0 .5-.1.7-.1s.3-.1.5-.1c2-.3 4.6-.7 7.2-1 2.8-.3 5.7-.5 7.9-.6 1.1-.1 2-.1 2.6-.1.6 0 1 0 1 0 .4 0 .6-.3.7-.6 0 0 .1-1.2.1-3 0-1.7.1-4.2 0-6.6-.1-3.3-.5-6.7-.8-8.6-.1-.4-.1-.8-.2-1.1 0-.1-.1-.3-.1-.4l-.1-.2c-.1-.1-.1-.2-.3-.3-.2-.1-.5-.1-.7.1-.2.1-.3.4-.3.6 0 0 0 .3.1.8 0 .5.1 1.2.1 2.1.1 1.7.2 4 .2 6.2s-.1 4.4-.2 6.1c-.1.9-.1 1.7-.2 2.2-.6.1-1.7.1-3 .3-2 .2-4.6.6-7.2 1-.1 0-.3.1-.4.1-5.5.9-10.6 2.4-10.7 2.5-.2.1-.3.2-.4.3-.1.2-.1.4 0 .5.1.2.2.3.3.4.2.1.3.1.3.1.2 0 .4 0 .6 0 .3-.3.6-.3 1-.4" fill="#e0eb7b"/><path d="m293.3 835.9c2.3-.3 5.3-.6 8.5-.9 3.1-.2 6.3-.2 8.7-.2 1.2 0 2.2 0 2.9.1.7 0 1.1 0 1.1 0 .4 0 .7-.2.7-.6 0 0 .6-5 .6-10.3 0-4.2-.4-8.4-.7-10.2 0-.2-.1-.4-.1-.6l-.1-.2-.1-.1c0-.1-.1-.1-.2-.2-.2-.1-.5-.1-.7 0s-.3.4-.3.6c0 0 0 .3 0 .9.1 1.6.2 5.4 0 9-.1 2.4-.3 4.8-.5 6.6-.1.9-.2 1.6-.2 2.1 0 .1 0 .2 0 .2-.7 0-1.8 0-3.3.1-2.4.1-5.4.3-8.5.7-1.9.2-3.8.5-5.5.8-1 .2-1.9.3-2.7.5-2.2.4-3.6.8-3.6.8-.2 0-.3.2-.4.3-.1.2-.1.4 0 .6.1.2.2.3.3.3.2.1.2.1.3.1h.3c.3 0 .8-.1 1.4-.1.4 0 1.2-.1 2.1-.3" fill="#e0eb7b"/><path d="m295.3 840.7c2.5-.2 5.8-.4 9.2-.5 3.4-.1 6.8.1 9.4.3 1.3.1 2.4.2 3.1.2.7.1 1.2.1 1.2.1.4 0 .7-.2.7-.6 0 0 .2-1.3.4-3.3.2-2 .5-4.7.6-7.5.1-2.4.1-4.8 0-6.8-.1-2-.2-3.6-.4-4.4 0-.1 0-.3-.1-.4l-.1-.2c0-.1-.1-.2-.3-.3-.2-.1-.5-.2-.7 0-.2.1-.4.4-.4.6 0 0 0 .3 0 .9 0 .6 0 1.4 0 2.4 0 2-.1 4.6-.3 7.1-.2 2.6-.4 5.1-.7 6.9-.2 1.1-.3 2-.4 2.5-.7 0-2-.1-3.6-.1-2.5-.1-5.9 0-9.2.2s-6.6.6-8.9 1c-.8.1-1.5.2-2.1.3-1.2.2-1.9.4-1.9.4-.2 0-.3.1-.4.3-.1.2-.1.3-.1.5s.2.3.3.4c.2.1.3.1.3.1h.3c.3 0 .8-.1 1.5-.1.8.2 1.7.1 2.6 0" fill="#e0eb7b"/><path d="m297.3 845.6c2.6-.1 6.1-.1 9.7 0 3.5.2 7.2.5 9.9.8 1.3.2 2.5.3 3.3.5.8.1 1.3.2 1.3.2.4.1.7-.2.8-.5 0 0 .3-1.4.8-3.5.4-2.1.9-5 1.2-8 .3-2.7.5-5.5.6-7.8 0-1.1 0-2.1 0-2.9 0-.8 0-1.3-.1-1.7v-.2c0-.1 0-.2-.2-.3-.2-.2-.5-.2-.7-.1-.2.1-.4.3-.4.6 0 0 0 .4-.1 1 0 .6-.1 1.5-.2 2.6s-.2 2.3-.3 3.6c-.2 1.3-.3 2.7-.5 4.1-.4 2.7-1 5.4-1.4 7.4-.2 1-.4 1.8-.5 2.4 0 .1-.1.2-.1.3-.2 0-.4 0-.6-.1-.8-.1-1.9-.2-3.3-.3-2.7-.2-6.2-.4-9.8-.3-1.8 0-3.5.1-5.1.2-1.6.1-3.1.2-4.4.3-2.6.2-4.2.5-4.2.5-.2 0-.4.2-.5.4s-.1.4 0 .6c.1.2.2.2.3.3l.2.1c.2 0 .3 0 .6 0 .6-.1 1.9-.2 3.7-.2" fill="#e0eb7b"/><path d="m309.5 851c3.7.3 7.5.9 10.2 1.4 1.4.3 2.6.5 3.4.6.8.2 1.3.3 1.3.3.3.1.7-.1.8-.5 0 0 .4-1.4 1-3.6.6-2.2 1.3-5.2 1.9-8.3.6-3.1 1-6.3 1.2-8.7.1-1.1.2-2.1.2-2.8 0-.4 0-.7 0-.9 0-.3 0-.4 0-.6v-.1l-.1-.2c-.2-.2-.4-.3-.7-.3-.3.1-.5.3-.5.6 0 0-.2 1.5-.5 3.8-.3 2.2-.9 5.2-1.5 8-.7 2.9-1.4 5.7-2 7.7-.4 1.3-.7 2.3-.9 2.9-.8-.1-2.2-.3-4.1-.6-2.8-.4-6.5-.7-10.1-.9-3.7-.1-7.3-.1-10 0-2.7.1-4.4.3-4.5.3-.2 0-.4.1-.5.3-.1.2-.1.4 0 .6.1.2.2.3.3.3l.3.1c.2 0 .4 0 .6.1.8 0 2.2 0 4.1 0 2.7 0 6.4.1 10.1.5" fill="#e0eb7b"/><path d="m304.5 860.4c2.7.3 6.3.9 10 1.7 3.7.8 7.3 1.8 10.1 2.7 1.4.4 2.5.8 3.3 1.1.8.3 1.3.4 1.3.4.3.1.7 0 .9-.4 0 0 .6-1.4 1.4-3.5.8-2.1 1.8-5.1 2.7-8.1.9-3 1.7-6.1 2.2-8.5s.8-4 .8-4c.1-.4-.1-.7-.5-.8-.4-.1-.7.1-.8.5 0 0-.4 1.5-1 3.7-.6 2.1-1.5 5-2.4 7.8-.9 2.7-2.1 5.5-2.9 7.4-.4 1-.8 1.8-1 2.4-.1.1-.1.3-.2.4-.7-.2-2.1-.6-4-1-2.8-.7-6.3-1.5-10-2-3.6-.6-7.2-1-9.9-1.2-2.7-.2-4.4-.3-4.5-.3-.4 0-.7.3-.7.6 0 .4.3.7.6.7 0 0 .4 0 1.2.1.9 0 2 .1 3.4.3" fill="#e0eb7b"/><path d="m339.4 850.4c0-.3-.3-.5-.6-.6-.3-.1-.7.2-.8.5 0 0-.1.3-.3.9-.2.6-.4 1.4-.7 2.4-.7 2-1.6 4.5-2.5 7-1 2.5-2.1 4.9-2.9 6.7-.4.9-.8 1.6-1 2.1-.1.1-.1.2-.1.3-.7-.2-2-.6-3.6-1.2-2.5-.8-5.9-1.7-9.2-2.5-3.4-.8-6.7-1.4-9.2-1.8-2.5-.4-4.2-.5-4.2-.6-.3 0-.6.1-.7.4-.1.3-.1.6.2.8.1.1.2.1.2.1.2.1.3.1.6.2 1.8.4 7.5 1.5 13.2 3.1 3.4.9 6.7 2 9.2 2.9 1.2.4 2.3.8 3 1.1.7.3 1.1.4 1.1.4.3.1.7 0 .9-.3 0 0 2.3-4.9 4.2-10.3 1-2.7 1.8-5.5 2.4-7.6.3-1.1.5-2 .7-2.7.1-.4.1-.7.2-.9v-.3c-.1.1-.1 0-.1-.1" fill="#e0eb7b"/><path d="m340.1 860.5c-.3-.1-.7.1-.8.4 0 0-.4 1.1-1.1 2.6-.3.8-.7 1.7-1.1 2.6-.4 1-.9 2-1.4 3-.9 2-1.9 4-2.7 5.4-.4.7-.7 1.3-.9 1.7 0 .1 0 .1-.1.1-1.5-.6-6-2.3-10.5-3.6-1.4-.4-2.8-.8-4-1.2-1.3-.3-2.5-.6-3.6-.9-2.1-.5-3.5-.8-3.5-.8-.3-.1-.6.1-.8.4-.1.3-.1.6.2.8.1.1.2.1.3.2.3.1.8.3 1.5.6 2.1.7 6.1 1.9 9.9 3.3 2.8 1 5.5 2.1 7.5 3s3.4 1.5 3.4 1.5c.3.1.7 0 .9-.3 0 0 .5-1 1.2-2.5.7-1.5 1.7-3.6 2.6-5.8.9-2.2 1.7-4.4 2.4-6.2.3-.9.6-1.7.7-2.3.1-.3.2-.6.2-.8.1-.2.1-.4.1-.5.2-.3 0-.7-.4-.7" fill="#e0eb7b"/><path d="m311.9 856.4c3.8.6 7.5 1.4 10.3 2.1 1.4.3 2.6.6 3.4.9.8.2 1.3.4 1.3.4.3.1.7-.1.8-.4 0 0 .1-.4.4-1 .3-.7.6-1.6.9-2.7.7-2.2 1.7-5.2 2.4-8.3.8-3.1 1.4-6.3 1.8-8.8.2-1.2.4-2.3.4-3.1 0-.3.1-.6.1-.8v-.3c0-.1 0-.1 0-.3v-.2c-.1-.3-.4-.4-.7-.4-.3 0-.5.3-.6.6 0 0-.1.4-.2 1.1-.1.7-.3 1.6-.5 2.7-.5 2.3-1.2 5.2-2 8.1-.4 1.4-.9 2.9-1.3 4.2-.4 1.3-.9 2.5-1.3 3.6-.5 1.3-.9 2.3-1.1 2.9-.8-.2-2.2-.5-4.1-.8-1.4-.3-3-.6-4.8-.8-1.8-.3-3.6-.5-5.5-.7-3.7-.4-7.4-.6-10.1-.6-1.4 0-2.5 0-3.3 0-.8 0-1.2 0-1.2 0-.2 0-.4.1-.6.3-.1.2-.1.4 0 .7.1.2.2.2.3.3l.2.1h.2c.2 0 .6 0 1.2.1.8 0 1.9.1 3.3.2 2.9 0 6.6.3 10.3.9" fill="#e0eb7b"/></g><path d="m271.7 797.5c.1 0 2.1.4 5 1.6 3 1.2 6.9 3.5 11.4 6.6s9.3 7.1 14.1 11.8c4.7 4.8 9.3 10.4 13.3 16.3 4 6 7.3 12.3 10 18.4 2.7 6.1 4.6 12.1 6 17.2.7 2.6 1.3 4.9 1.7 7s.9 3.9 1.1 5.5c.5 3 .7 4.8.7 4.8l-1.2.2c0 0-.4-1.7-1-4.7-.3-1.5-.7-3.3-1.2-5.4-.4-2.1-1.1-4.4-1.8-6.9-1.4-5-3.4-10.9-6-16.9s-6-12.3-9.9-18.1c-3.9-5.9-8.4-11.3-13-16.1-4.6-4.7-9.4-8.7-13.7-11.8s-8.2-5.2-10.9-6.9c-2.9-1.5-4.5-2.5-4.6-2.6" fill="#e0eb7b"/></g><g><g><path d="m407.1 802.3c-1.2-.3-2.4-.6-2.4-.6-.2 0-.3-.2-.4-.3-.1-.2-.1-.4-.1-.5 0 0 .4-1.2.9-2.4.2-.6.5-1.2.8-1.7.1-.2.3-.4.4-.6l.3-.3c.1-.1.3-.2.6-.2.2 0 .4.1.5.3.1.1.2.3.1.5 0 0-.2.9-.3 1.9-.1.5-.1 1-.2 1.4.3.2.8.4 1.2.7.8.5 1.6.9 1.6.9.2.1.3.2.3.4s0 .4-.1.5c-.2.3-.4.3-.5.4-.2 0-.4 0-.5 0-.2 0-.3 0-.5-.1-.5 0-1.1-.2-1.7-.3" fill="#e0eb7b"/><path d="m402.7 806.5c-2-.6-4-1.1-4-1.1-.4-.1-.6-.5-.5-.8 0 0 .5-1.8 1.1-3.7.3-.9.7-1.8 1-2.5.2-.4.3-.7.5-.9.1-.1.1-.2.2-.3l.2-.2c.1-.1.2-.1.4-.1s.4.1.5.2c.1.2.2.4.1.6 0 0-.4 1.6-.7 3.1-.1.6-.2 1.3-.3 1.8-.1.3-.1.6-.1.8.6.3 1.7.8 2.9 1.3 1.7.8 3.2 1.6 3.2 1.6.2.1.3.2.3.4.1.2 0 .4-.1.5-.1.2-.3.3-.4.4-.2 0-.3 0-.4 0h-.3c-.7-.2-2.1-.7-3.6-1.1" fill="#e0eb7b"/><path d="m398.7 810.9c-1.4-.4-2.8-.8-3.9-1-1.1-.3-1.8-.4-1.8-.4-.3-.1-.6-.4-.5-.7 0 0 .1-.7.2-1.7.1-.7.2-1.6.4-2.5.1-.4.1-.8.2-1.2.3-1.4.6-2.8.9-3.8.1-.5.3-1 .4-1.3.1-.2.1-.3.2-.4l.1-.2c.1-.1.2-.2.4-.3.2 0 .4 0 .6.2.2.2.2.4.2.6 0 0-.1.6-.2 1.5s-.3 2.1-.4 3.4c-.1 1.2-.2 2.4-.2 3.3 0 .4 0 .7-.1 1 .9.3 2.7 1 4.6 1.7 2.5 1 4.8 2.1 4.9 2.2.3.2.5.5.3.9-.1.1-.1.2-.2.3-.1.1-.3.1-.3.1-.2 0-.3 0-.5 0-.5-.1-1.2-.3-2.2-.6-.9-.4-2-.8-3.1-1.1" fill="#e0eb7b"/><path d="m394.9 815.5c-1.8-.5-3.6-.9-5-1.1-1.4-.3-2.3-.5-2.3-.5-.3-.1-.6-.4-.5-.7 0 0 .1-.8.2-2 .1-1.2.3-2.9.6-4.6.1-.4.1-.8.2-1.3.2-1.4.5-2.8.8-3.8.1-.5.3-.9.4-1.3.1-.2.1-.3.2-.4l.1-.2c.1-.1.1-.2.4-.3.2 0 .4 0 .6.2.2.2.2.4.2.6 0 0-.1.8-.2 1.9-.1 1.1-.3 2.7-.4 4.1-.1 1.5-.2 3-.2 4.1 0 .6 0 1 0 1.3.4.1.9.3 1.6.5 1.3.4 2.9.9 4.6 1.5 3.3 1.1 6.4 2.5 6.4 2.5.3.1.5.5.4.8-.1.2-.2.3-.3.3-.2.1-.3.1-.3.1-.2 0-.3 0-.5 0-.6-.1-1.5-.4-2.7-.7-1.4-.3-2.9-.7-4.3-1" fill="#e0eb7b"/><path d="m391.4 820.2c-1.4-.3-2.9-.6-4.2-.8-.6-.1-1.3-.2-1.8-.3-1.7-.2-2.8-.4-2.8-.4-.3 0-.6-.4-.6-.7 0 0 0-.9.1-2.4s.2-3.4.4-5.3c.1-1.3.3-2.6.5-3.8s.4-2.2.6-3c.1-.4.2-.7.3-.9 0-.1.1-.2.1-.3l.1-.2c.1-.1.1-.2.4-.3.2-.1.4 0 .6.2.2.1.3.4.2.6 0 0-.1.9-.3 2.2-.1 1.4-.3 3.1-.4 4.9-.1 1.8-.1 3.5-.1 4.8 0 .7 0 1.3 0 1.6.5.1 1.2.3 2.1.5 1.6.4 3.6.9 5.6 1.5s4 1.2 5.5 1.8c1.5.5 2.4.9 2.4.9.2.1.3.2.4.4.1.2.1.4 0 .5-.1.2-.2.3-.3.3-.2.1-.2.1-.3.1-.2 0-.3 0-.5 0-.6-.1-1.8-.4-3.2-.7-1.3-.4-3.1-.8-4.8-1.2" fill="#e0eb7b"/><path d="m389.2 825.2c-.4-.1-.8-.1-1.2-.2-2.5-.4-5.1-.7-7-.9-1.9-.2-3.2-.3-3.2-.3-.3 0-.6-.3-.6-.7 0 0 0-1.1 0-2.7 0-1.6.1-3.8.3-6 .2-2.3.5-4.7.8-6.5.1-.8.3-1.4.4-1.9.1-.2.1-.4.2-.6l.1-.2.1-.2c.1-.1.1-.1.3-.2.2-.1.5 0 .6.1.2.1.3.4.3.6 0 0-.1 1-.2 2.6-.1 1.5-.3 3.6-.3 5.6-.1 2 0 4 0 5.5 0 .7 0 1.3.1 1.8v.1c.5.1 1.4.2 2.4.4h.1c1.9.3 4.3.8 6.7 1.3 2.4.6 4.7 1.2 6.5 1.7 1.7.5 2.8.9 2.8.9.2.1.3.2.4.3.1.2.1.4 0 .5-.1.3-.3.4-.4.4-.2.1-.2.1-.3.1-.2 0-.4 0-.6-.1-1.4 0-4.7-.7-8.3-1.4" fill="#e0eb7b"/><path d="m394.7 831.5c-.4-.1-.8-.1-1.3-.2-.2 0-.5-.1-.7-.1s-.3-.1-.5-.1c-2-.3-4.6-.7-7.2-1-2.8-.3-5.7-.5-7.9-.6-1.1-.1-2-.1-2.6-.1-.6 0-1 0-1 0-.4 0-.6-.3-.7-.6 0 0-.1-1.2-.1-3 0-1.7-.1-4.2 0-6.6.1-3.3.5-6.7.8-8.6.1-.4.1-.8.2-1.1 0-.1.1-.3.1-.4l.1-.2c.1-.1.1-.2.3-.3.2-.1.5-.1.7.1.2.1.3.4.3.6 0 0 0 .3-.1.8 0 .5-.1 1.2-.1 2.1-.1 1.7-.2 4-.2 6.2s.1 4.4.2 6.1c.1.9.1 1.7.2 2.2.6.1 1.7.1 3 .3 2 .2 4.6.6 7.2 1 .1 0 .3.1.4.1 5.5.9 10.6 2.4 10.7 2.5.2.1.3.2.4.3.1.2.1.4 0 .5-.1.2-.2.3-.3.4-.2.1-.3.1-.3.1-.2 0-.4 0-.6 0-.3-.3-.6-.3-1-.4" fill="#e0eb7b"/><path d="m390.7 835.9c-2.3-.3-5.3-.6-8.5-.9-3.1-.2-6.3-.2-8.7-.2-1.2 0-2.2 0-2.9.1-.7 0-1.1 0-1.1 0-.4 0-.7-.2-.7-.6 0 0-.6-5-.6-10.3 0-4.2.4-8.4.7-10.2 0-.2.1-.4.1-.6l.1-.2.1-.1c0-.1.1-.1.2-.2.2-.1.5-.1.7 0 .2.1.3.4.3.6 0 0 0 .3 0 .9-.1 1.6-.2 5.4 0 9 .1 2.4.3 4.8.5 6.6.1.9.2 1.6.2 2.1 0 .1 0 .2 0 .2.7 0 1.8 0 3.3.1 2.4.1 5.4.3 8.5.7 1.9.2 3.8.5 5.5.8 1 .2 1.9.3 2.7.5 2.2.4 3.6.8 3.6.8.2 0 .3.2.4.3.1.2.1.4 0 .6-.1.2-.2.3-.3.3-.2.1-.2.1-.3.1h-.3c-.3 0-.8-.1-1.4-.1-.4 0-1.2-.1-2.1-.3" fill="#e0eb7b"/><path d="m388.7 840.7c-2.5-.2-5.8-.4-9.2-.5-3.4-.1-6.8.1-9.4.3-1.3.1-2.4.2-3.1.2-.7.1-1.2.1-1.2.1-.4 0-.7-.2-.7-.6 0 0-.2-1.3-.4-3.3-.2-2-.5-4.7-.6-7.5-.1-2.4-.1-4.8 0-6.8.1-2 .2-3.6.4-4.4 0-.1 0-.3.1-.4l.1-.2c0-.1.1-.2.3-.3s.5-.2.7 0c.2.1.4.4.4.6 0 0 0 .3 0 .9 0 .6 0 1.4 0 2.4 0 2 .1 4.6.3 7.1.2 2.6.4 5.1.7 6.9.2 1.1.3 2 .4 2.5.7 0 2-.1 3.6-.1 2.5-.1 5.9 0 9.2.2s6.6.6 8.9 1c.8.1 1.5.2 2.1.3 1.2.2 1.9.4 1.9.4.2 0 .3.1.4.3s.1.3.1.5-.2.3-.3.4c-.2.1-.3.1-.3.1h-.3c-.3 0-.8-.1-1.5-.1-.8.2-1.7.1-2.6 0" fill="#e0eb7b"/><path d="m386.7 845.6c-2.6-.1-6.1-.1-9.7 0-3.5.2-7.2.5-9.9.8-1.3.2-2.5.3-3.3.5-.8.1-1.3.2-1.3.2-.4.1-.7-.2-.8-.5 0 0-.3-1.4-.8-3.5-.4-2.1-.9-5-1.2-8-.3-2.7-.5-5.5-.6-7.8 0-1.1 0-2.1 0-2.9 0-.8 0-1.3.1-1.7v-.2c0-.1 0-.2.2-.3.2-.2.5-.2.7-.1.2.1.4.3.4.6 0 0 0 .4.1 1 0 .6.1 1.5.2 2.6.1 1.1.2 2.3.3 3.6.2 1.3.3 2.7.5 4.1.4 2.7 1 5.4 1.4 7.4.2 1 .4 1.8.5 2.4 0 .1.1.2.1.3.2 0 .4 0 .6-.1.8-.1 1.9-.2 3.3-.3 2.7-.2 6.2-.4 9.8-.3 1.8 0 3.5.1 5.1.2 1.6.1 3.1.2 4.4.3 2.6.2 4.2.5 4.2.5.2 0 .4.2.5.4.1.2.1.4 0 .6-.1.2-.2.2-.3.3l-.2.1c-.2 0-.3 0-.6 0-.6-.1-1.9-.2-3.7-.2" fill="#e0eb7b"/><path d="m374.5 851c-3.7.3-7.5.9-10.2 1.4-1.4.3-2.6.5-3.4.6-.8.2-1.3.3-1.3.3-.3.1-.7-.1-.8-.5 0 0-.4-1.4-1-3.6-.6-2.2-1.3-5.2-1.9-8.3-.6-3.1-1-6.3-1.2-8.7-.1-1.1-.2-2.1-.2-2.8 0-.4 0-.7 0-.9 0-.3 0-.4 0-.6v-.1l.1-.2c.2-.2.4-.3.7-.3.3.1.5.3.5.6 0 0 .2 1.5.5 3.8.3 2.2.9 5.2 1.5 8 .7 2.9 1.4 5.7 2 7.7.4 1.3.7 2.3.9 2.9.8-.1 2.2-.3 4.1-.6 2.8-.4 6.5-.7 10.1-.9 3.7-.1 7.3-.1 10 0 2.7.1 4.4.3 4.5.3.2 0 .4.1.5.3.1.2.1.4 0 .6-.1.2-.2.3-.3.3l-.3.1c-.2 0-.4 0-.6.1-.8 0-2.2 0-4.1 0-2.7 0-6.4.1-10.1.5" fill="#e0eb7b"/><path d="m379.5 860.4c-2.7.3-6.3.9-10 1.7-3.7.8-7.3 1.8-10.1 2.7-1.4.4-2.5.8-3.3 1.1s-1.3.4-1.3.4c-.3.1-.7 0-.9-.4 0 0-.6-1.4-1.4-3.5s-1.8-5.1-2.7-8.1-1.7-6.1-2.2-8.5-.8-4-.8-4c-.1-.4.1-.7.5-.8s.7.1.8.5c0 0 .4 1.5 1 3.7.6 2.1 1.5 5 2.4 7.8.9 2.7 2.1 5.5 2.9 7.4.4 1 .8 1.8 1 2.4.1.1.1.3.2.4.7-.2 2.1-.6 4-1 2.8-.7 6.3-1.5 10-2 3.6-.6 7.2-1 9.9-1.2s4.4-.3 4.5-.3c.4 0 .7.3.7.6s-.3.7-.6.7c0 0-.4 0-1.2.1-.9 0-2 .1-3.4.3" fill="#e0eb7b"/><path d="m344.6 850.4c0-.3.3-.5.6-.6.3-.1.7.2.8.5 0 0 .1.3.3.9.2.6.4 1.4.7 2.4.7 2 1.6 4.5 2.5 7 1 2.5 2.1 4.9 2.9 6.7.4.9.8 1.6 1 2.1.1.1.1.2.1.3.7-.2 2-.6 3.6-1.2 2.5-.8 5.9-1.7 9.2-2.5 3.4-.8 6.7-1.4 9.2-1.8 2.5-.4 4.2-.5 4.2-.6.3 0 .6.1.7.4.1.3.1.6-.2.8-.1.1-.2.1-.2.1-.2.1-.3.1-.6.2-1.8.4-7.5 1.5-13.2 3.1-3.4.9-6.7 2-9.2 2.9-1.2.4-2.3.8-3 1.1s-1.1.4-1.1.4c-.3.1-.7 0-.9-.3 0 0-2.3-4.9-4.2-10.3-1-2.7-1.8-5.5-2.4-7.6-.3-1.1-.5-2-.7-2.7-.1-.4-.1-.7-.2-.9v-.3c.1.1.1 0 .1-.1" fill="#e0eb7b"/><path d="m343.9 860.5c.3-.1.7.1.8.4 0 0 .4 1.1 1.1 2.6.3.8.7 1.7 1.1 2.6.4 1 .9 2 1.4 3 .9 2 1.9 4 2.7 5.4.4.7.7 1.3.9 1.7 0 .1 0 .1.1.1 1.5-.6 6-2.3 10.5-3.6 1.4-.4 2.8-.8 4-1.2 1.3-.3 2.5-.6 3.6-.9 2.1-.5 3.5-.8 3.5-.8.3-.1.6.1.8.4.1.3.1.6-.2.8-.1.1-.2.1-.3.2-.3.1-.8.3-1.5.6-2.1.7-6.1 1.9-9.9 3.3-2.8 1-5.5 2.1-7.5 3s-3.4 1.5-3.4 1.5c-.3.1-.7 0-.9-.3 0 0-.5-1-1.2-2.5-.7-1.5-1.7-3.6-2.6-5.8-.9-2.2-1.7-4.4-2.4-6.2-.3-.9-.6-1.7-.7-2.3-.1-.3-.2-.6-.2-.8-.1-.2-.1-.4-.1-.5-.2-.3 0-.7.4-.7" fill="#e0eb7b"/><path d="m372.1 856.4c-3.8.6-7.5 1.4-10.3 2.1-1.4.3-2.6.6-3.4.9-.8.2-1.3.4-1.3.4-.3.1-.7-.1-.8-.4 0 0-.1-.4-.4-1-.3-.7-.6-1.6-.9-2.7-.7-2.2-1.7-5.2-2.4-8.3-.8-3.1-1.4-6.3-1.8-8.8-.2-1.2-.4-2.3-.4-3.1 0-.3-.1-.6-.1-.8v-.3c0-.1 0-.1 0-.3v-.2c.1-.3.4-.4.7-.4s.5.3.6.6c0 0 .1.4.2 1.1.1.7.3 1.6.5 2.7.5 2.3 1.2 5.2 2 8.1.4 1.4.9 2.9 1.3 4.2.4 1.3.9 2.5 1.3 3.6.5 1.3.9 2.3 1.1 2.9.8-.2 2.2-.5 4.1-.8 1.4-.3 3-.6 4.8-.8 1.8-.3 3.6-.5 5.5-.7 3.7-.4 7.4-.6 10.1-.6 1.4 0 2.5 0 3.3 0 .8 0 1.2 0 1.2 0 .2 0 .4.1.6.3.1.2.1.4 0 .7-.1.2-.2.2-.3.3l-.2.1h-.2c-.2 0-.6 0-1.2.1-.8 0-1.9.1-3.3.2-2.9 0-6.6.3-10.3.9" fill="#e0eb7b"/></g><path d="m412.3 797.5c-.1 0-2.1.4-5 1.6-3 1.2-6.9 3.5-11.4 6.6s-9.3 7.1-14.1 11.8c-4.7 4.8-9.3 10.4-13.3 16.3-4 6-7.3 12.3-10 18.4-2.7 6.1-4.6 12.1-6 17.2-.7 2.6-1.3 4.9-1.7 7s-.9 3.9-1.1 5.5c-.5 3-.7 4.8-.7 4.8l1.2.2c0 0 .4-1.7 1-4.7.3-1.5.7-3.3 1.2-5.4.4-2.1 1.1-4.4 1.8-6.9 1.4-5 3.4-10.9 6-16.9s6-12.3 9.9-18.1c3.9-5.9 8.4-11.3 13-16.1 4.6-4.7 9.4-8.7 13.7-11.8 4.3-3.1 8.2-5.2 10.9-6.9 2.9-1.5 4.5-2.5 4.6-2.6" fill="#e0eb7b"/></g><path d="m377.7 930.9c0 26.5-16 112.4-35.7 112.4-19.7 0-35.7-85.9-35.7-112.4 0-8.8 1.7-17 4.8-24.1 1.4-3.2 3-6.2 4.9-8.9 6.5-9.3 15.7-15.1 26-15.1 19.7 0 35.7 21.5 35.7 48.1" fill="#fff"/><g><path d="m322.4 909.3c-16-15.9-90.2-86.7-106-111.6-9.4-14.8-42-37.5-79.4-52.7-25.2-10.3-52.6-17.1-76.5-15.8-8 .4-15.6 1.7-22.7 4.2 0 0-1.2 2.9-2.8 7.4-2.1 6.1-4.9 15.1-6.2 23.8-.3 2-.5 3.9-.6 5.8.2 2.7.7 5.2 1.5 7.4 5.9 15.6 22 31.2 26 45.5.3 1.1.6 2.3.7 3.3 1 6.8-.1 11.3-1.3 15.1-.3.9-.6 1.9-.9 2.7-.1.3-.2.7-.3 1 0 .1 0 .1-.1.1-.9 2.8-1.3 5.5-.1 8.9 1.5 4.2 3.5 9.1 4.8 14 1.4 5.5 2 11.2 0 16.4-1.2 3.1-2 6.3-2.6 9.6-1.4 7.3-1.2 14.6 1 19.3 3.2 6.8 11.8 20.5 9.1 27.8-1.7 4.6 43.3 33 116.6 33.8h.1c39.5-.6 87.1-9.7 139.7-35.9v-30.1" opacity=".5" fill="#9ce3bc"/><path d="m243 824.4c.2.1.4.2.5.3-.1 0-.1-.1-.2-.1-.1-.1-.2-.2-.3-.2" fill="#bf31a1"/><g><path d="m322.4 909.3c-16-15.9-90.2-86.7-106-111.6-9.4-14.8-42-37.5-79.4-52.7-25.2-10.3-52.6-17.1-76.5-15.8-.1 0-.1 0-.2 0-3.3.2-6.5.5-9.6 1-.5.1-1.1.1-1.6.3-.8.1-1.6.3-2.4.5-.7.1-1.3.3-2 .4-.3.1-.5.1-.8.2-.6.1-1.3.3-1.9.5-.2 0-.4.1-.5.1-.8.2-1.5.5-2.3.7-.5.1-.9.3-1.4.4 0 0-1.2 2.9-2.8 7.4-2.1 6.1-4.9 15.1-6.2 23.8-.3 2-.5 3.9-.6 5.8-.3 4.8.1 9.3 1.4 13 5.7 15.1 21 30.3 24.8 44.2.3 1.1.5 2.2.7 3.3.8 6 .1 10.2-.9 13.6-.1.3-.2.7-.3 1 0 .1 0 .1-.1.1-1.4 4.3-2.9 7.5-1.2 12.3 1.5 4.1 3.4 8.8 4.6 13.7 1.4 5.3 1.9 10.8 0 15.9-1.1 3-2 6.1-2.5 9.3-1.3 7.1-1.1 14.2 1 18.8 3.1 6.6 11.2 19.9 8.7 27-1.6 4.6 44.2 33.9 118.3 32.9h.1c39.5-.6 87.1-9.7 139.7-35.9l-.1-30.2" opacity=".75" fill="#9ce3bc"/><path d="m242.8 968.2c-3.3 1.9-6.6 3.8-9.8 5.7-108.5 23.1-180-21.8-178-27.7 2.6-7.4-5.7-21.1-8.9-28-2.2-4.8-2.3-12.1-1-19.4.6-3.3 1.5-6.5 2.6-9.6 1.9-5.3 1.4-11 0-16.5-1.2-5-3.2-9.9-4.7-14.1-1.7-4.9-.1-8.3 1.3-12.9 1.2-3.7 2.2-8.3 1.3-15.2-.1-1.1-.4-2.2-.7-3.4-3.9-14.4-19.5-30.1-25.3-45.8-2-5.3-1.9-12.3-.8-19.4 1.3-9.1 4.1-18.4 6.3-24.7 1.6-4.7 2.9-7.7 2.9-7.7 2.5-1.2 5.3-1.9 8.1-2.4 11.1-1.7 23.1 1.6 24.3 1.9.1 0 .1 0 .1 0-.1 0-.1 0-.2 0-7.4.4-14.5 1.6-21.1 3.7-.1 0-.2 0-.2.1-.4.1-.8.3-1.2.4 0 0-1.2 2.9-2.8 7.4-1.5 4.4-3.4 10.3-4.8 16.6-.4 1.6-.7 3.3-1 5-.1.7-.2 1.5-.4 2.2-.1.8-.2 1.5-.3 2.3-.1 1.2-.2 2.4-.3 3.5-.3 4.8.1 9.3 1.4 13 1.2 3.2 2.8 6.3 4.6 9.5.9 1.5 1.8 3 2.8 4.6 6.6 10.4 14.8 20.6 17.4 30.2.3 1.1.5 2.2.7 3.3.9 6.7-.1 11-1.3 14.6-.8 2.5-1.6 4.5-1.9 6.7-.2 1.5-.1 3 .4 4.8.1.3.2.6.3.9 1.5 4.1 3.4 8.8 4.6 13.7 1.4 5.3 1.9 10.8 0 15.9-1.1 3-2 6.1-2.5 9.3-.7 3.6-.9 7.1-.8 10.4.1 1.7.3 3.3.6 4.8.3 1.3.7 2.5 1.2 3.6 3.1 6.6 11.2 19.9 8.7 27-1 2.7 14.8 14.2 43.3 22.8 2.4.7 4.8 1.4 7.4 2.1 31 8.3 75.1 12.7 127.7.8" fill="#e0eb7b"/><path d="m322.4 939.6c-20.1 10-39.5 17.5-57.9 23-7.4 2.2-14.6 4.1-21.7 5.7-3.3 1.9-6.6 3.8-9.8 5.7 6.7-1.4 13.6-3.1 20.6-5.1 21.7-6.1 44.7-15 68.8-27.5v-1.8" fill="#e0eb7b"/><path d="m28.1 770.4c.1-1.2.2-2.3.3-3.5-.1 1.2-.2 2.4-.3 3.5" fill="#e0eb7b"/><path d="m244.8 824.7c-.1 0-.1-.1-.2-.1l-.1-.1c.1 0 .2.1.3.2" fill="#bf31a1"/></g><path d="m322.4 928.1c-1.5 0-4.4 0-8.5 0-3 0-6.7 0-11 0-2.1 0-4.4 0-6.7.1-2.4.1-4.9.2-7.5.3-5.2.3-10.8.4-16.8.8-6 .5-12.2.9-18.7 1.5s-13.2 1.4-20 2.2c-3.4.3-6.8.9-10.2 1.4-3.4.5-6.9 1-10.3 1.5-6.8 1.2-13.7 2.5-20.4 3.7-3.3.7-6.7 1.5-10 2.2-1.6.4-3.3.7-4.9 1.1-1.6.4-3.2.8-4.8 1.2-3.2.8-6.3 1.6-9.3 2.3-3.1.8-6 1.7-8.9 2.4-5.8 1.5-11.2 3.3-16.2 4.9-4.9 1.7-9.5 3.2-13.5 4.7s-7.4 2.9-10.3 4c-2.8 1.2-5 2.2-6.5 2.9-.2.1-.3.1-.4.2 2.4.7 4.8 1.4 7.4 2.1.5-.2 1-.4 1.5-.6 2.8-1.1 6.2-2.5 10.1-3.9 2-.7 4.1-1.5 6.3-2.2 2.2-.8 4.6-1.6 7-2.4 4.9-1.5 10.2-3.3 16-4.8 2.8-.8 5.8-1.7 8.8-2.4 3-.8 6.1-1.5 9.2-2.3 1.6-.4 3.1-.8 4.7-1.2 1.6-.4 3.2-.7 4.8-1.1 3.3-.7 6.5-1.4 9.9-2.2 6.7-1.3 13.4-2.6 20.2-3.8 3.4-.5 6.8-1.1 10.2-1.6 3.4-.5 6.8-1.2 10.1-1.5 6.8-.8 13.4-1.8 19.8-2.5 6.4-.6 12.7-1.2 18.6-1.7 5.9-.5 11.5-.7 16.7-1.1 5.2-.3 9.9-.7 14.1-.7 4.2-.1 7.9-.2 10.9-.3 4.1-.1 7-.2 8.4-.3v-2.9h.2" opacity=".75" fill="#9ce3bc"/><path d="m322.4 913.1c-1.2-.9-2.6-2-4.2-3.2-6.5-4.6-16-10.8-28.4-16.5-6.2-2.8-13.1-5.6-20.5-7.9-7.4-2.3-15.5-4.3-23.9-5.6-8.4-1.3-17.2-2-26.2-2-4.4 0-8.9.1-13.4.4-2.3.1-4.5.3-6.8.5s-4.5.4-6.8.6h-.1c-.9-.6-2.3-1.3-3.9-2.3-1.8-1-4.1-2.2-6.6-3.6-1.3-.6-2.7-1.3-4.1-2-.7-.4-1.5-.7-2.2-1.1-.8-.4-1.6-.7-2.4-1.1-3.2-1.5-6.8-2.9-10.6-4.4-1.9-.7-3.9-1.4-5.9-2.1-2-.7-4.1-1.3-6.2-2-2.1-.6-4.3-1.2-6.5-1.9-2.2-.6-4.5-1.1-6.7-1.7-4.6-1-9.2-2-13.9-2.8-2.3-.4-4.7-.8-7-1.1-2.3-.4-4.7-.6-7-.9-4.6-.5-9.2-.9-13.7-1.2-4.4-.3-8.7-.4-12.8-.5-4.1-.1-7.9 0-11.5.1-7.1.2-13.1.6-17.2 1.1-.6.1-1.2.1-1.7.2-.2 1.5-.1 3 .4 4.8.6-.1 1.2-.1 1.9-.2 4-.5 9.9-1 16.9-1.3 3.5-.2 7.3-.3 11.3-.3s8.2.1 12.6.3 8.9.5 13.5 1c2.3.2 4.6.5 6.9.8s4.6.6 6.9 1c4.6.7 9.2 1.6 13.7 2.5 2.2.5 4.5 1 6.7 1.6 2.2.6 4.3 1.2 6.5 1.7 2.1.6 4.2 1.2 6.2 1.9s4 1.3 5.9 2c3.8 1.4 7.3 2.7 10.5 4.1.8.3 1.6.7 2.4 1 .8.4 1.5.7 2.2 1 1.5.7 2.8 1.3 4.1 1.9 2.5 1.3 4.8 2.4 6.5 3.4.4.2.8.5 1.2.7-16.6 1.9-33 4.9-48.3 8.2-16.5 3.6-31.8 7.4-44.9 10.6-13.1 3.2-24 5.8-31.6 7.1-3.8.7-6.8 1.1-8.8 1.3-.3 0-.5 0-.7.1.1 1.7.3 3.3.6 4.8.2 0 .4 0 .6 0 2.1-.3 5.3-.7 9.2-1.4 7.8-1.4 18.8-4 31.9-7.3s28.3-7.2 44.7-10.8 34-6.9 51.8-8.8c2.2-.3 4.4-.5 6.7-.6 2.2-.2 4.4-.4 6.6-.5 4.4-.3 8.8-.4 13.3-.5 8.7-.1 17.3.5 25.5 1.8 8.2 1.3 16.1 3.1 23.4 5.4 7.3 2.3 14 4.9 20.1 7.6 12.1 5.5 21.6 11.5 27.9 16 2.7 1.9 4.8 3.5 6.3 4.8v-4.7h-.4" opacity=".75" fill="#9ce3bc"/><path d="m227.8 812.6c-.3-.1-.6-.2-.9-.2-2.7-.8-6-1.7-9.8-2.7-3.8-.9-8.2-1.9-12.9-3-4.7-1.2-9.9-2-15.3-3-2.7-.5-5.5-1-8.4-1.5-2.9-.4-5.8-.8-8.8-1.3-3-.4-6-.9-9.1-1.3-3.1-.3-6.2-.7-9.4-1s-6.3-.7-9.6-1c-3.2-.2-6.4-.5-9.7-.7-6.4-.6-12.9-.7-19.3-1.1-3.2-.2-6.3-.2-9.5-.3-3.1-.1-6.2-.2-9.2-.2-6.1 0-11.9-.1-17.5.1-2.8.1-5.5.1-8.1.2-2.6.1-5.1.2-7.6.3-4.8.2-9.3.5-13.2.7-3.9.3-7.3.5-10.2.8-.9.1-1.7.1-2.4.2-1-1.5-1.9-3-2.8-4.6 1.3-.1 3-.2 4.9-.4 2.8-.2 6.3-.4 10.3-.6 4-.1 8.4-.4 13.3-.5 2.4-.1 5-.1 7.6-.2 2.6 0 5.4 0 8.1-.1 5.6-.1 11.5.1 17.6.1 3 .1 6.1.2 9.3.3 3.1.1 6.3.2 9.5.4 6.4.4 12.9.7 19.4 1.3 3.2.3 6.5.6 9.7.9 3.2.3 6.4.7 9.6 1.1 3.2.4 6.3.8 9.4 1.2 3.1.5 6.2.9 9.2 1.4s6 .9 8.9 1.4c2.9.6 5.7 1.1 8.4 1.6 5.5 1.1 10.7 2 15.4 3.3 4.7 1.1 9.1 2.2 12.9 3.1 2.7.8 5.2 1.5 7.4 2.2 1 .9 1.9 2 2.8 3.1" opacity=".75" fill="#9ce3bc"/><path d="m322.4 901.4h-.1v7.9c-11.7-11.6-54.1-52.3-82.5-83.2-2.1-2.2-4.1-4.5-6-6.6-.5-.5-.9-1-1.4-1.6-.9-1-1.7-2-2.5-2.9-.7-.8-1.4-1.6-2.1-2.4-.9-1.1-1.8-2.2-2.7-3.2-3.8-4.5-6.8-8.5-8.8-11.7-2.6-4-6.9-8.7-12.6-13.6-3.3-2.9-7.1-5.9-11.3-8.9-14.8-10.6-34.4-21.6-55.5-30.2-25.2-10.3-52.6-17.1-76.5-15.8 0 0 0 0-.1 0-1.2-.3-13.2-3.6-24.3-1.9 8.6-2.3 19.9-4.8 26-5.1 25.1-1.4 53.8 5.7 80.2 16.2 39.2 15.6 73.3 39 83.2 54.2 15 23.2 73.8 85.2 97 108.8" fill="#bf31a1"/><path d="m244.6 824.5c-.1-.1.2 0 .2.1-.1 0-.1 0-.2-.1" fill="#bf31a1"/><path d="m203.7 784.1c-1.3-.7-2.8-1.4-4.3-2.1-3.4-1.5-7.3-3.3-11.6-5-1.1-.4-2.2-.9-3.3-1.3-1.1-.4-2.3-.8-3.5-1.2-2.3-.8-4.8-1.7-7.3-2.5s-5.1-1.6-7.8-2.3c-2.7-.7-5.4-1.5-8.2-2.1-2.8-.7-5.7-1.4-8.6-1.9-1.5-.3-2.9-.6-4.4-.9-1.5-.3-3-.5-4.4-.8-1.5-.3-3-.5-4.5-.8-1.5-.2-3-.4-4.5-.7-3-.5-6.1-.8-9.2-1.2-3.1-.4-6.1-.6-9.2-.9-3.1-.2-6.1-.5-9.1-.7-6.1-.3-12-.6-17.8-.6-5.8-.1-11.4 0-16.7.1-5.3.2-10.3.4-14.9.7-9.2.6-16.9 1.4-22.2 2.1-1.2.1-2.2.3-3.1.4.3-1.7.6-3.3 1-5 .5-.1 1-.1 1.6-.2 5.4-.6 13.2-1.4 22.5-1.9 4.7-.3 9.7-.5 15.1-.6 5.4-.1 11-.1 16.9 0 5.8.1 11.9.4 18 .8 3.1.2 6.1.5 9.2.7 3.1.4 6.2.6 9.3 1 3.1.4 6.2.8 9.3 1.3 1.5.2 3.1.5 4.6.7 1.5.3 3 .6 4.5.8 1.5.3 3 .5 4.5.8s3 .6 4.4.9c3 .6 5.8 1.3 8.7 2 2.9.7 5.6 1.5 8.3 2.3 2.7.7 5.3 1.6 7.9 2.4 2.6.8 5 1.7 7.4 2.6 1.2.4 2.4.9 3.5 1.3 1.1.4 2.2.9 3.3 1.3 1.1.4 2.2.9 3.3 1.3 4.2 3.3 8 6.3 11.3 9.2" opacity=".75" fill="#9ce3bc"/><g><path d="m231.8 853c-.1-9.8-9.5-19.6-21-19.4-11.5.2-20.6 10.2-20.6 20.1.1 9.8 9.5 19.6 21 19.4 11.5-.2 20.7-10.4 20.6-20.1m-37.5.5c-.1-9.2 7.2-16.7 16.4-16.8 9.2-.1 16.7 7.2 16.8 16.4.1 9.2-7.2 16.7-16.4 16.8-9.1.1-16.6-7.2-16.8-16.4" fill="#364120"/><path d="m227.5 853c-.1-9.2-7.7-16.5-16.8-16.4-9.2.1-16.5 7.7-16.4 16.8.1 9.2 7.7 16.5 16.8 16.4 9.3-.1 16.6-7.6 16.4-16.8m-28.3.4c-.1-8.3 11.6-15.3 11.6-15.3s11.9 6.6 12 14.9-11.6 15.3-11.6 15.3-11.9-6.6-12-14.9" fill="#e0eb7b"/><path d="m232.4 817.9c-.2 0-.4 0-.7.1-.4 0-1 .1-1.6.2-.6.1-1.3.2-2 .4-.7.2-1.5.4-2.3.6-.8.3-1.6.6-2.4 1-.8.4-1.6.9-2.3 1.4-.7.5-1.5 1.1-2.1 1.8-.7.6-1.2 1.4-1.8 2.1-.5.7-1 1.5-1.3 2.3-.8 1.6-1.2 3.1-1.5 4.5-.3 1.3-.4 2.5-.5 3.3 0 .4 0 .7 0 .9 0 .2 0 .2 0 .2l-6.4-.1c0 0 0-.2 0-.5 0-.3.1-.7.2-1.2.2-1 .5-2.5 1-4.2.6-1.7 1.4-3.6 2.6-5.5 1.2-1.9 2.7-3.7 4.6-5.2.9-.8 1.9-1.4 2.9-2 1-.6 2-1 3.1-1.4 1-.4 2-.7 3-.9 1-.2 1.9-.4 2.7-.5.8-.1 1.6-.2 2.3-.2.8.9 1.6 1.9 2.5 2.9" fill="#364120"/></g></g><g><path d="m323.8 949.4l3.5-23.6-8.9 1.8c-30.8 6.2-59.3 15.9-85 27.5-3.5 1.6-6.9 3.2-10.3 4.8-24 11.6-45.3 24.8-63.4 37.8-36.2 26-69.5 56.6-72 62.7-2.2 5.3-.1 18.4 6.2 39.1l1.4 4.5 4.7.3c.3 0 .6 0 .9.1 19.6 1.8 28.2 26.8 28.3 27.1l1.7 5.2 5.5-.6c3-.3 5.9-.4 8.6-.1 24.8 2.3 32.4 28 32.7 29.1l1.3 4.6 4.8.3c.6 0 1.2.1 1.8.1 13.6 1.2 23 5.6 28.7 13.2 11.7 15.8 5.9 43.3 1.6 63.4-.7 3.3-1.4 6.5-1.9 9.3-2.1 11.4-12.6 25.9-28.8 39.9-14.8 12.7-32.4 23-44.9 26.2-20 5.1-27.5 18.6-30.2 26.2-2.5 7.1-3 12.4.7 17.5.1.2.3.4.4.6.9 1.4 3 4.8 8.2 5.3 5.4.5 15-2 53.6-14.1 40.7-12.7 84.4-81.2 133.3-211.3 19.2-51 18-186 17.5-196.9m-12.2 146.1c-.2 1.7-.4 3.4-.7 5-.1.9-.2 1.8-.4 2.7-.2 1.6-.5 3.1-.7 4.6-.1.8-.3 1.6-.4 2.4-.2 1.5-.5 3-.8 4.5 0 .2-.1.5-.1.7-.2 1-.4 1.9-.5 2.8-.1.8-.3 1.6-.5 2.4-.4 2.2-.9 4.4-1.4 6.5-.2.8-.4 1.7-.6 2.5-.6 2.4-1.2 4.8-1.9 7-.2.7-.4 1.3-.6 2-.6 1.9-1.2 3.8-1.9 5.5-19.1 51.2-74.7 193.6-130.5 211-1.5.5-2.9.9-4.3 1.4-3.5 1.1-6.8 2.1-9.8 3.1-4.6 1.4-8.7 2.6-12.2 3.7-1.2.4-2.3.7-3.4 1-.7.2-1.3.4-1.9.5-.6.2-1.1.3-1.7.5-5.2 1.5-8.9 2.4-11.7 3-.4.1-.8.2-1.2.2-1.5.3-2.7.4-3.6.5-.3 0-.5 0-.7 0s-.5 0-.7-.1c-.1 0-.2 0-.2 0-.1 0-.2 0-.2 0-.1 0-.1 0-.2-.1-.6-.2-.9-.4-1.3-.8-.1-.1-.2-.2-.2-.3-.4-.5-.7-1.2-1.3-1.9-3.2-4.4-1.3-30.1 26.1-37.1s73.3-42.8 78.7-71.4c2-10.5 5.9-25.5 7-40.5.1-.8.1-1.6.1-2.4 0-.8.1-1.7.1-2.5 0-.7 0-1.5 0-2.2 0-.3 0-.6 0-.8 0-.6 0-1.3 0-1.9 0-.5 0-1.1-.1-1.6 0-.2 0-.5 0-.7 0-.5-.1-1-.1-1.5s-.1-1-.1-1.5-.1-1.1-.2-1.6c-.1-.4-.1-.8-.2-1.2-.1-.7-.2-1.4-.3-2 0-.2-.1-.5-.1-.7s-.1-.4-.1-.6c-.1-.4-.2-.7-.2-1.1-.1-.4-.2-.7-.3-1.1-.1-.6-.3-1.2-.5-1.8-.2-.6-.4-1.2-.6-1.8-.4-1.2-.8-2.3-1.3-3.5-.2-.4-.3-.7-.5-1.1s-.3-.7-.5-1.1c-.2-.3-.4-.7-.5-1-.1-.1-.1-.2-.2-.3-.2-.3-.3-.5-.5-.8v-.1c-.1-.2-.2-.3-.3-.5 0 0 0-.1-.1-.1-.1-.2-.3-.4-.4-.7-.3-.4-.6-.9-.9-1.3-.7-.9-1.4-1.8-2.2-2.6-.2-.2-.4-.4-.5-.6-.2-.2-.4-.4-.5-.6-.2-.2-.4-.4-.6-.6-.3-.3-.6-.5-.9-.8-.5-.5-1.1-.9-1.7-1.4-.4-.3-.8-.6-1.2-.9-.3-.2-.5-.4-.8-.6-.4-.3-.7-.5-1.1-.7-.5-.3-.9-.6-1.4-.8-.4-.2-.8-.4-1.2-.6-.7-.4-1.4-.7-2.2-1.1-.4-.2-.9-.4-1.3-.6-1.1-.5-2.2-.9-3.4-1.3-.4-.1-.8-.3-1.2-.4-.4-.1-.9-.3-1.3-.4-.4-.1-.9-.2-1.3-.3-1.1-.3-2.1-.5-3.3-.7-.6-.1-1.1-.2-1.7-.3-.4-.1-.9-.1-1.3-.2-.2 0-.4-.1-.6-.1-.5-.1-1.1-.1-1.6-.2-.6-.1-1.2-.1-1.8-.2-.6-.1-1.3-.1-2-.2 0 0 0 0 0-.1 0 0 0 0 0-.1 0-.1-.1-.2-.1-.4 0-.1 0-.1-.1-.2-.1-.2-.1-.4-.2-.6-.1-.2-.1-.4-.2-.6s-.1-.4-.2-.6c-.1-.2-.2-.5-.3-.7-.1-.3-.3-.7-.4-1-.1-.2-.1-.4-.2-.5-.2-.4-.3-.8-.5-1.2-.5-1-1-2.1-1.6-3.3-.4-.7-.8-1.4-1.2-2.1-.3-.5-.6-1-.9-1.5-.4-.6-.8-1.2-1.2-1.8-.2-.3-.4-.6-.6-.9-.3-.4-.5-.8-.8-1.2-.6-.8-1.2-1.5-1.8-2.3-.4-.4-.8-.9-1.2-1.3-.4-.4-.8-.9-1.2-1.3-.4-.4-.9-.9-1.3-1.3-.5-.4-.9-.8-1.4-1.3-.4-.3-.8-.7-1.2-1l-.8-.6c-.3-.2-.5-.4-.8-.6-.5-.4-1.1-.8-1.6-1.1-.6-.4-1.3-.8-1.9-1.2-.7-.4-1.3-.7-2.1-1.1-.5-.3-1.1-.5-1.6-.8-.2-.1-.4-.2-.5-.2-.2-.1-.5-.2-.8-.3-.2-.1-.5-.2-.8-.3-.4-.1-.8-.3-1.1-.4-.6-.2-1.1-.4-1.7-.5-.3-.1-.5-.2-.8-.2-.5-.1-1.1-.3-1.6-.4-.3-.1-.5-.1-.8-.2-.5-.1-1.1-.2-1.6-.3s-1.1-.2-1.7-.2c-1.7-.2-3.5-.4-5.4-.4-1.3 0-2.6 0-3.9.1-.8 0-1.6.1-2.4.2 0 0-.1-.3-.3-.7-.1-.3-.3-.7-.5-1.2 0-.1-.1-.2-.1-.3 0-.1-.1-.2-.1-.3-.1-.2-.2-.4-.3-.7-.1-.3-.2-.6-.4-.9-.2-.4-.3-.7-.5-1.1-.1-.3-.2-.6-.4-.8-.1-.3-.3-.5-.4-.8 0 0 0-.1-.1-.1-.1-.2-.2-.4-.3-.6-.8-1.6-1.8-3.3-2.9-5-.2-.3-.3-.5-.5-.8-.8-1.2-1.7-2.5-2.7-3.7-.2-.3-.5-.6-.7-.8s-.4-.5-.6-.7c-1.1-1.3-2.4-2.7-3.7-3.9-.3-.3-.6-.5-.9-.8l-.1-.1c-.4-.3-.7-.6-1.1-.9-.3-.2-.5-.4-.8-.7-.1-.1-.3-.2-.4-.3-.3-.2-.5-.4-.8-.6s-.5-.4-.8-.6c-.5-.3-.9-.6-1.4-.9-.1-.1-.2-.1-.3-.2-.3-.2-.6-.3-.9-.5-.3-.2-.6-.3-.9-.5-.3-.1-.6-.3-.9-.5-.3-.1-.6-.3-.9-.4-.2-.1-.5-.2-.7-.3-.7-.3-1.4-.6-2.2-.8-.3-.1-.5-.2-.8-.2-.3-.1-.5-.2-.8-.2-.2 0-.3-.1-.5-.1-.5-.1-1.1-.2-1.6-.3-.3-.1-.5-.1-.8-.1-.4-.1-.7-.1-1.1-.2-.4 0-.8-.1-1.1-.1-.4 0-.8-.1-1.2-.1 0 0-8.7-28.9-6.4-34.6 0-.1.1-.2.2-.3 0-.1.1-.2.2-.2.1-.1.2-.2.3-.4.1-.1.2-.2.3-.4.1-.2.3-.3.4-.5.1-.1.2-.3.3-.4.6-.7 1.4-1.5 2.3-2.4.2-.2.4-.4.6-.6.8-.8 1.7-1.7 2.6-2.6.5-.5 1-.9 1.5-1.4 2.7-2.5 5.9-5.5 9.7-8.8.4-.3.8-.7 1.1-1 1.9-1.7 4-3.5 6.2-5.3.5-.4 1.1-.9 1.6-1.3.5-.5 1.1-.9 1.6-1.4.4-.3.7-.6 1.1-.9 1.8-1.5 3.6-3 5.6-4.6.8-.6 1.5-1.2 2.3-1.9.7-.6 1.4-1.1 2.1-1.7 2.1-1.7 4.4-3.5 6.7-5.2 1.1-.9 2.3-1.7 3.4-2.6 1.1-.9 2.3-1.8 3.5-2.7.8-.6 1.7-1.3 2.5-1.9 2.8-2.1 5.6-4.1 8.5-6.3.9-.7 1.8-1.3 2.8-2 .1 0 .1-.1.2-.1.3-.2.6-.4.9-.7 1.3-.9 2.6-1.9 3.9-2.8 2.6-1.8 5.3-3.7 8.1-5.6l.1-.1c1.1-.8 2.3-1.6 3.5-2.3 2.3-1.5 4.6-3.1 6.9-4.6.8-.5 1.6-1 2.4-1.5 2.1-1.4 4.2-2.7 6.4-4.1 1.1-.7 2.2-1.3 3.2-2 2.2-1.3 4.4-2.7 6.6-4 1.3-.8 2.5-1.5 3.8-2.2 1.5-.9 3.1-1.8 4.6-2.7 1-.6 2.1-1.2 3.1-1.8 1.3-.8 2.6-1.5 3.9-2.2 1.6-.9 3.2-1.8 4.8-2.6 1.5-.8 2.9-1.6 4.4-2.4 5.2-2.8 10.5-5.4 15.8-8 3.8-1.8 7.6-3.6 11.4-5.3 2.6-1.2 5.3-2.3 7.9-3.4 1.2-.5 2.4-1 3.6-1.5 3.8-1.6 7.7-3.1 11.6-4.5 1.7-.6 3.4-1.2 5.1-1.8 1.7-.6 3.4-1.2 5.2-1.7 4.4-1.4 8.7-2.8 13.1-4 .8-.2 1.6-.4 2.4-.7 1.4-.4 2.9-.8 4.3-1.1 1-.2 1.9-.5 2.9-.7.2 0 .4-.1.6-.1 1.2-.3 2.5-.6 3.7-.8 1.4-.3 2.7-.6 4.1-.9l-1.1 12.5c0 0 0 .3 0 .8 0 .1 0 .3 0 .4 0 .1 0 .3 0 .4 0 .4 0 .8 0 1.2 0 3.5 0 10.2 0 19 0 .5 0 1.1 0 1.6 0 .8 0 1.7 0 2.6 0 .5 0 1 0 1.5 0 .7 0 1.4 0 2.2 0 1.3 0 2.5 0 3.8 0 1.2 0 2.4-.1 3.7 0 .7 0 1.5 0 2.2 0 1.5 0 3.1-.1 4.6 0 .8 0 1.6-.1 2.4-.1 4.8-.3 9.9-.4 15.1-.1 1.5-.1 3-.1 4.5 0 1-.1 2-.1 3s-.1 2-.1 3c-.1 2-.2 4.1-.3 6.1 0 1-.1 2.1-.1 3.1-.2 4.1-.4 8.3-.6 12.4-.1 1.6-.2 3.2-.3 4.8s-.2 3.2-.3 4.8c-.1.9-.1 1.7-.2 2.6-.1 1.4-.2 2.7-.3 4.1-.1 1.1-.1 2.2-.2 3.3-.2 2.1-.3 4.2-.5 6.3-.3 3.6-.6 7.2-.9 10.8-.2 1.8-.3 3.6-.5 5.4-1.1 6.2-1.8 11.9-2.5 17.4" fill="#e0eb7b"/><path d="m301.3 1144c-19.3 51.3-74.9 193.7-130.7 211.1-1.5.5-2.9.9-4.3 1.4-3.5 1.1-6.8 2.1-9.8 3.1-40.9 12.6-37.6 10.3-40.5 6.3-3.2-4.4-1.3-30.1 26.1-37.1s73.3-42.8 78.7-71.4c4.1-22 16.7-63.4-5.7-83.2-1.5-1.3-3.1-2.5-4.9-3.6-6.3-3.9-14.8-6.5-25.8-7.3 0 0-10.1-36.5-46.2-34.1-.8 0-1.6.1-2.4.2 0 0-.3-.8-.8-2.2-2.9-7-13.3-28.4-34.4-29.6 0 0-8.7-28.9-6.4-34.6 2.3-5.7 115.5-110.7 226.1-132.8l-1.1 12.5c0 0 0 1 0 2.9 0 3.5 0 10.2 0 19 0 3.6-.1 7.5-.1 11.8-1 47.2-4.3 131.7-17.8 167.6" opacity=".75" fill="#9ce3bc"/><path d="m260.2 1060.4c6-7.7 4.5-20.7-4.6-27.7-9.1-7-22.2-5.4-28.4 2.4-6 7.7-4.5 20.7 4.6 27.7s22.4 5.4 28.4-2.4m-29.7-22.9c5.6-7.2 16-8.6 23.3-3 7.3 5.6 8.6 16 3 23.3-5.6 7.2-16 8.6-23.3 3-7.2-5.6-8.6-15.9-3-23.3" fill="#364120"/><path d="m243.7 1064.3c9.2 0 16.6-7.5 16.6-16.6 0-9.2-7.5-16.6-16.6-16.6-9.2 0-16.6 7.5-16.6 16.6-.1 9.2 7.4 16.6 16.6 16.6m-.1-28.4c8.3 0 15.1 11.7 15.1 11.7s-6.7 11.8-15 11.8c-8.3 0-15.1-11.7-15.1-11.7s6.8-11.7 15-11.8" fill="#e0eb7b"/><path d="m320.3 944.6c0 0-.4.3-1.3.8-.3.2-.6.4-1 .7 0 .1 0 .2-.1.3-.7 3.6-1.9 7.8-3.2 12.8-.7 2.5-1.3 5.1-2.1 7.8-.8 2.7-1.7 5.6-2.6 8.6-1.7 6-4 12.4-6.3 19.2-1.1 3.4-2.5 6.8-3.8 10.4-1.3 3.5-2.6 7.2-4.1 10.8-2.9 7.3-5.9 14.8-9.1 22.3-3.2 7.6-6.7 15.2-10.1 22.8-1.7 3.8-3.6 7.5-5.3 11.3-1.8 3.7-3.5 7.5-5.4 11.2-1.8 3.7-3.6 7.3-5.4 10.9-1.9 3.6-3.7 7.1-5.5 10.6-3.6 7-7.3 13.6-10.7 19.9-3.5 6.3-6.8 12.2-10 17.6s-6.1 10.4-8.8 14.7c-2.7 4.3-5 8.2-7 11.2-1.4 2.2-2.7 4.1-3.6 5.6-1.5-1.3-3.1-2.5-4.9-3.6 1-1.4 2.1-3.2 3.5-5.2 2.1-3 4.4-6.8 7.1-11 2.8-4.2 5.7-9.2 9-14.4 3.2-5.3 6.6-11.2 10.2-17.3 3.5-6.2 7.3-12.7 11-19.6 1.9-3.4 3.7-6.9 5.7-10.4 1.8-3.6 3.7-7.2 5.6-10.8 1.9-3.6 3.7-7.3 5.6-11 1.8-3.7 3.7-7.4 5.5-11.2 3.5-7.5 7.2-15 10.4-22.5 3.4-7.5 6.5-14.9 9.5-22.1 1.5-3.6 2.8-7.2 4.2-10.7 1.3-3.5 2.8-6.9 3.9-10.3 2.4-6.7 4.8-13 6.6-19 1-3 1.9-5.8 2.7-8.5.9-2.7 1.5-5.3 2.3-7.7 1.2-4.3 2.3-8.1 3.1-11.3-1.4.9-3.1 2.1-5.1 3.5-2.9 2.1-6.5 4.6-10.5 7.5-2 1.5-4.1 3.1-6.4 4.7-2.2 1.7-4.6 3.5-7 5.4-4.9 3.7-10 8-15.5 12.4-2.7 2.2-5.5 4.6-8.3 7-2.8 2.4-5.7 4.8-8.6 7.4-5.7 5.1-11.7 10.4-17.5 16-2.9 2.8-5.9 5.6-8.9 8.4-2.9 2.9-5.8 5.8-8.7 8.7l-4.3 4.4-2 2.1-2.1 2.3c-2.8 3-5.6 6-8.3 8.9-5.6 5.8-10.7 11.9-15.8 17.7-5.1 5.7-9.7 11.6-14.1 17.1-2.2 2.8-4.4 5.4-6.4 8-2 2.7-3.9 5.3-5.7 7.7-3.6 5-7.1 9.4-9.9 13.6-2.8 4.1-5.2 7.8-7.2 10.7-2.6 3.9-4.5 6.7-5.5 8.1-.5.8-.8 1.2-.8 1.2l-3.2-2c0 0 .3-.4.8-1.2 1-1.5 2.9-4.3 5.5-8.3 2-3 4.4-6.7 7.2-10.8 2.9-4.2 6.3-8.7 9.9-13.7 1.8-2.5 3.7-5.1 5.7-7.8 2.1-2.6 4.2-5.3 6.4-8.1 4.5-5.5 9-11.5 14.2-17.3 5.1-5.8 10.2-12 15.8-17.9 2.8-3 5.5-6 8.3-9l2.1-2.3 2.2-2.2 4.4-4.4c2.9-2.9 5.8-5.9 8.7-8.8 3-2.8 5.9-5.7 8.9-8.5 5.8-5.7 11.8-11 17.6-16.2 2.8-2.6 5.8-5 8.6-7.5 2.8-2.4 5.6-4.8 8.3-7.1 5.5-4.5 10.7-8.8 15.6-12.6 2.4-1.9 4.8-3.8 7-5.5 2.3-1.7 4.4-3.3 6.4-4.8 4-3 7.6-5.5 10.6-7.6s5.3-3.7 7-4.8c1.6-1.1 2.5-1.6 2.5-1.6.8-3.6 1.3-5.6 1.3-5.6l.7.1.7.1c0 0-.4 1.9-1.2 5.4-.1.5-.2 1.1-.4 1.7l.2.3 1.2 2.3" opacity=".75" fill="#9ce3bc"/><path d="m323.9 954.3c0 0-1.9 8.1-5.1 22-2.8 12-6.6 28.3-11.2 47.6-9.9 41.8-23.3 97.5-37.3 153l-1.3 5.2-1.4 5.2-1.4 5.2-1.6 5.1-1.6 5.1c-.6 1.7-1.2 3.4-1.8 5.1-.6 1.7-1.2 3.4-1.8 5-.6 1.7-1.3 3.3-1.9 5-5.1 13.2-11 25.9-17.3 37.8-12.6 23.9-26.9 44.7-40.1 61.8-13.1 16.9-25.1 30.1-33.9 39.1-3.5 1.1-6.8 2.1-9.8 3.1 1.8-1.7 3.9-3.8 6.2-6.1 8.7-8.9 20.9-21.9 34-38.8 13.2-16.8 27.4-37.4 40-60.9 6.3-11.8 12.2-24.3 17.3-37.3.6-1.6 1.3-3.3 1.9-4.9.6-1.6 1.2-3.3 1.8-5 .6-1.7 1.2-3.3 1.8-5l1.6-5.1 1.6-5.1 1.4-5.1 1.4-5.1 1.3-5.2c14.3-55.4 28-111 38.1-152.7 6.4-26.2 11.3-47 14.1-58.7 1.7-7 2.6-10.8 2.6-10.8l2.4.5" opacity=".75" fill="#9ce3bc"/></g><g><path d="m361.8 909.3v30.1c52.6 26.2 100.2 35.3 139.7 35.9h.1c73.3-.8 118.3-29.2 116.6-33.8-2.7-7.3 5.9-21 9.1-27.8 2.2-4.7 2.4-12 1-19.3-.6-3.3-1.4-6.5-2.6-9.6-2-5.2-1.4-10.9 0-16.4 1.3-4.9 3.3-9.8 4.8-14 1.2-3.4.8-6.1-.1-8.9-.1 0-.1 0-.1-.1-.1-.3-.2-.7-.3-1-.3-.8-.6-1.8-.9-2.7-1.2-3.8-2.3-8.3-1.3-15.1.1-1 .4-2.2.7-3.3 4-14.3 20.1-29.9 26-45.5.8-2.2 1.3-4.7 1.5-7.4-.1-1.9-.3-3.8-.6-5.8-1.3-8.7-4.1-17.7-6.2-23.8-1.6-4.5-2.8-7.4-2.8-7.4-7.1-2.5-14.7-3.8-22.7-4.2-23.9-1.3-51.3 5.5-76.5 15.8-37.4 15.2-70 37.9-79.4 52.7-15.8 24.9-90 95.7-106 111.6" opacity=".5" fill="#9ce3bc"/><path d="m441.2 824.4c-.1 0-.2.1-.3.2-.1 0-.1.1-.2.1.1-.1.3-.2.5-.3" fill="#bf31a1"/><g><path d="m361.7 909.3v30.2c52.6 26.2 100.2 35.3 139.7 35.9h.1c74.1 1 119.9-28.3 118.3-32.9-2.5-7.1 5.6-20.4 8.7-27 2.1-4.6 2.3-11.7 1-18.8-.5-3.2-1.4-6.3-2.5-9.3-1.9-5.1-1.4-10.6 0-15.9 1.2-4.9 3.1-9.6 4.6-13.7 1.7-4.8.2-8-1.2-12.3-.1 0-.1 0-.1-.1-.1-.3-.2-.7-.3-1-1-3.4-1.7-7.6-.9-13.6.2-1.1.4-2.2.7-3.3 3.8-13.9 19.1-29.1 24.8-44.2 1.3-3.7 1.7-8.2 1.4-13-.1-1.9-.3-3.8-.6-5.8-1.3-8.7-4.1-17.7-6.2-23.8-1.6-4.5-2.8-7.4-2.8-7.4-.5-.1-.9-.3-1.4-.4-.8-.2-1.5-.5-2.3-.7-.1 0-.3-.1-.5-.1-.6-.2-1.3-.4-1.9-.5-.3-.1-.5-.1-.8-.2-.7-.1-1.3-.3-2-.4-.8-.2-1.6-.4-2.4-.5-.5-.2-1.1-.2-1.6-.3-3.1-.5-6.3-.8-9.6-1-.1 0-.1 0-.2 0-23.9-1.3-51.3 5.5-76.5 15.8-37.4 15.2-70 37.9-79.4 52.7-15.8 24.9-90 95.7-106.1 111.6" opacity=".75" fill="#9ce3bc"/><path d="m441.4 968.2c52.6 11.9 96.7 7.5 127.7-.8 2.6-.7 5-1.4 7.4-2.1 28.5-8.6 44.3-20.1 43.3-22.8-2.5-7.1 5.6-20.4 8.7-27 .5-1.1.9-2.3 1.2-3.6.3-1.5.5-3.1.6-4.8.1-3.3-.1-6.8-.8-10.4-.5-3.2-1.4-6.3-2.5-9.3-1.9-5.1-1.4-10.6 0-15.9 1.2-4.9 3.1-9.6 4.6-13.7.1-.3.2-.6.3-.9.5-1.8.6-3.3.4-4.8-.3-2.2-1.1-4.2-1.9-6.7-1.2-3.6-2.2-7.9-1.3-14.6.2-1.1.4-2.2.7-3.3 2.6-9.6 10.8-19.8 17.4-30.2 1-1.6 1.9-3.1 2.8-4.6 1.8-3.2 3.4-6.3 4.6-9.5 1.3-3.7 1.7-8.2 1.4-13-.1-1.1-.2-2.3-.3-3.5-.1-.8-.2-1.5-.3-2.3-.2-.7-.3-1.5-.4-2.2-.3-1.7-.6-3.4-1-5-1.4-6.3-3.3-12.2-4.8-16.6-1.6-4.5-2.8-7.4-2.8-7.4-.4-.1-.8-.3-1.2-.4 0-.1-.1-.1-.2-.1-6.6-2.1-13.7-3.3-21.1-3.7-.1 0-.1 0-.2 0 0 0 0 0 .1 0 1.2-.3 13.2-3.6 24.3-1.9 2.8.5 5.6 1.2 8.1 2.4 0 0 1.3 3 2.9 7.7 2.2 6.3 5 15.6 6.3 24.7 1.1 7.1 1.2 14.1-.8 19.4-5.8 15.7-21.4 31.4-25.3 45.8-.3 1.2-.6 2.3-.7 3.4-.9 6.9.1 11.5 1.3 15.2 1.4 4.6 3 8 1.3 12.9-1.5 4.2-3.5 9.1-4.7 14.1-1.4 5.5-1.9 11.2 0 16.5 1.1 3.1 2 6.3 2.6 9.6 1.3 7.3 1.2 14.6-1 19.4-3.2 6.9-11.5 20.6-8.9 28 2 5.9-69.5 50.8-178 27.7-3.2-1.9-6.5-3.8-9.8-5.7" fill="#e0eb7b"/><path d="m361.8 939.6v1.8c24.1 12.5 47.1 21.4 68.8 27.5 7 2 13.9 3.7 20.6 5.1-3.2-1.9-6.5-3.8-9.8-5.7-7.1-1.6-14.3-3.5-21.7-5.7-18.4-5.5-37.8-13-57.9-23" fill="#e0eb7b"/><path d="m656.1 770.4c-.1-1.1-.2-2.3-.3-3.5.1 1.2.2 2.3.3 3.5" fill="#e0eb7b"/><path d="m439.4 824.7c.1-.1.2-.2.3-.2l-.1.1c-.1 0-.1.1-.2.1" fill="#bf31a1"/></g><path d="m362 928.1v2.9c1.4.1 4.3.2 8.4.3 3 .1 6.7.2 10.9.3 4.2 0 8.9.4 14.1.7 5.2.4 10.8.6 16.7 1.1s12.2 1.1 18.6 1.7c6.4.7 13 1.7 19.8 2.5 3.3.3 6.7 1 10.1 1.5 3.4.5 6.8 1.1 10.2 1.6 6.8 1.2 13.5 2.5 20.2 3.8 3.4.8 6.6 1.5 9.9 2.2 1.6.4 3.2.7 4.8 1.1s3.1.8 4.7 1.2c3.1.8 6.2 1.5 9.2 2.3 3 .7 6 1.6 8.8 2.4 5.8 1.5 11.1 3.3 16 4.8 2.4.8 4.8 1.6 7 2.4 2.2.7 4.3 1.5 6.3 2.2 3.9 1.4 7.3 2.8 10.1 3.9.5.2 1 .4 1.5.6 2.6-.7 5-1.4 7.4-2.1-.1-.1-.2-.1-.4-.2-1.5-.7-3.7-1.7-6.5-2.9-2.9-1.1-6.3-2.5-10.3-4s-8.6-3-13.5-4.7c-5-1.6-10.4-3.4-16.2-4.9-2.9-.7-5.8-1.6-8.9-2.4-3-.7-6.1-1.5-9.3-2.3-1.6-.4-3.2-.8-4.8-1.2-1.6-.4-3.3-.7-4.9-1.1-3.3-.7-6.7-1.5-10-2.2-6.7-1.2-13.6-2.5-20.4-3.7-3.4-.5-6.9-1-10.3-1.5-3.4-.5-6.8-1.1-10.2-1.4-6.8-.8-13.5-1.6-20-2.2s-12.7-1-18.7-1.5c-6-.4-11.6-.5-16.8-.8-2.6-.1-5.1-.2-7.5-.3-2.3-.1-4.6-.1-6.7-.1-4.3 0-8 0-11 0-4.1 0-7 0-8.5 0h.2" opacity=".75" fill="#9ce3bc"/><path d="m361.4 913.1v4.7c1.5-1.3 3.6-2.9 6.3-4.8 6.3-4.5 15.8-10.5 27.9-16 6.1-2.7 12.8-5.3 20.1-7.6 7.3-2.3 15.2-4.1 23.4-5.4 8.2-1.3 16.8-1.9 25.5-1.8 4.5.1 8.9.2 13.3.5 2.2.1 4.4.3 6.6.5 2.3.1 4.5.3 6.7.6 17.8 1.9 35.4 5.2 51.8 8.8 16.4 3.6 31.6 7.5 44.7 10.8 13.1 3.3 24.1 5.9 31.9 7.3 3.9.7 7.1 1.1 9.2 1.4.2 0 .4 0 .6 0 .3-1.5.5-3.1.6-4.8-.2-.1-.4-.1-.7-.1-2-.2-5-.6-8.8-1.3-7.6-1.3-18.5-3.9-31.6-7.1-13.1-3.2-28.4-7-44.9-10.6-15.3-3.3-31.7-6.3-48.3-8.2.4-.2.8-.5 1.2-.7 1.7-1 4-2.1 6.5-3.4 1.3-.6 2.6-1.2 4.1-1.9.7-.3 1.4-.6 2.2-1 .8-.3 1.6-.7 2.4-1 3.2-1.4 6.7-2.7 10.5-4.1 1.9-.7 3.9-1.3 5.9-2s4.1-1.3 6.2-1.9c2.2-.5 4.3-1.1 6.5-1.7 2.2-.6 4.5-1.1 6.7-1.6 4.5-.9 9.1-1.8 13.7-2.5 2.3-.4 4.6-.7 6.9-1 2.3-.3 4.6-.6 6.9-.8 4.6-.5 9.1-.8 13.5-1 4.4-.2 8.6-.3 12.6-.3s7.8.1 11.3.3c7 .3 12.9.8 16.9 1.3.7.1 1.3.1 1.9.2.5-1.8.6-3.3.4-4.8-.5-.1-1.1-.1-1.7-.2-4.1-.5-10.1-.9-17.2-1.1-3.6-.1-7.4-.2-11.5-.1-4.1.1-8.4.2-12.8.5-4.5.3-9.1.7-13.7 1.2-2.3.3-4.7.5-7 .9-2.3.3-4.7.7-7 1.1-4.7.8-9.3 1.8-13.9 2.8-2.2.6-4.5 1.1-6.7 1.7-2.2.7-4.4 1.3-6.5 1.9-2.1.7-4.2 1.3-6.2 2-2 .7-4 1.4-5.9 2.1-3.8 1.5-7.4 2.9-10.6 4.4-.8.4-1.6.7-2.4 1.1-.7.4-1.5.7-2.2 1.1-1.4.7-2.8 1.4-4.1 2-2.5 1.4-4.8 2.6-6.6 3.6-1.6 1-3 1.7-3.9 2.3h-.1c-2.3-.2-4.5-.4-6.8-.6-2.3-.2-4.5-.4-6.8-.5-4.5-.3-9-.4-13.4-.4-9 0-17.8.7-26.2 2s-16.5 3.3-23.9 5.6c-7.4 2.3-14.3 5.1-20.5 7.9-12.4 5.7-21.9 11.9-28.4 16.5-1.6 1.2-3 2.3-4.2 3.2h-.4" opacity=".75" fill="#9ce3bc"/><path d="m456.4 812.6c.9-1.1 1.8-2.2 2.8-3.1 2.2-.7 4.7-1.4 7.4-2.2 3.8-.9 8.2-2 12.9-3.1 4.7-1.3 9.9-2.2 15.4-3.3 2.7-.5 5.5-1 8.4-1.6 2.9-.5 5.9-.9 8.9-1.4s6.1-.9 9.2-1.4c3.1-.4 6.2-.8 9.4-1.2 3.2-.4 6.4-.8 9.6-1.1 3.2-.3 6.5-.6 9.7-.9 6.5-.6 13-.9 19.4-1.3 3.2-.2 6.4-.3 9.5-.4 3.2-.1 6.3-.2 9.3-.3 6.1 0 12-.2 17.6-.1 2.7.1 5.5.1 8.1.1 2.6.1 5.2.1 7.6.2 4.9.1 9.3.4 13.3.5 4 .2 7.5.4 10.3.6 1.9.2 3.6.3 4.9.4-.9 1.6-1.8 3.1-2.8 4.6-.7-.1-1.5-.1-2.4-.2-2.9-.3-6.3-.5-10.2-.8-3.9-.2-8.4-.5-13.2-.7-2.5-.1-5-.2-7.6-.3-2.6-.1-5.3-.1-8.1-.2-5.6-.2-11.4-.1-17.5-.1-3 0-6.1.1-9.2.2-3.2.1-6.3.1-9.5.3-6.4.4-12.9.5-19.3 1.1-3.3.2-6.5.5-9.7.7-3.3.3-6.4.7-9.6 1-3.2.3-6.3.7-9.4 1-3.1.4-6.1.9-9.1 1.3-3 .5-5.9.9-8.8 1.3-2.9.5-5.7 1-8.4 1.5-5.4 1-10.6 1.8-15.3 3-4.7 1.1-9.1 2.1-12.9 3-3.8 1-7.1 1.9-9.8 2.7-.3 0-.6.1-.9.2" opacity=".75" fill="#9ce3bc"/><path d="m361.8 901.4h.1v7.9c11.7-11.6 54.1-52.3 82.5-83.2 2.1-2.2 4.1-4.5 6-6.6.5-.5.9-1 1.4-1.6.9-1 1.7-2 2.5-2.9.7-.8 1.4-1.6 2.1-2.4.9-1.1 1.8-2.2 2.7-3.2 3.8-4.5 6.8-8.5 8.8-11.7 2.6-4 6.9-8.7 12.6-13.6 3.3-2.9 7.1-5.9 11.3-8.9 14.8-10.6 34.4-21.6 55.5-30.2 25.2-10.3 52.6-17.1 76.5-15.8 0 0 0 0 .1 0 1.2-.3 13.2-3.6 24.3-1.9-8.6-2.3-19.9-4.8-26-5.1-25.1-1.4-53.8 5.7-80.2 16.2-39.2 15.6-73.3 39-83.2 54.2-15 23.2-73.8 85.2-97 108.8" fill="#bf31a1"/><path d="m439.6 824.5c-.1.1-.1.1-.2.1 0-.1.3-.2.3-.2l-.1.1" fill="#bf31a1"/><path d="m480.5 784.1c3.3-2.9 7.1-5.9 11.3-9.2 1.1-.4 2.2-.9 3.3-1.3 1.1-.4 2.2-.9 3.3-1.3 1.1-.4 2.3-.9 3.5-1.3 2.4-.9 4.8-1.8 7.4-2.6 2.6-.8 5.2-1.7 7.9-2.4 2.7-.8 5.4-1.6 8.3-2.3s5.7-1.4 8.7-2c1.4-.3 2.9-.6 4.4-.9s3-.5 4.5-.8c1.5-.2 3-.5 4.5-.8 1.5-.2 3.1-.5 4.6-.7 3.1-.5 6.2-.9 9.3-1.3 3.1-.4 6.2-.6 9.3-1 3.1-.2 6.1-.5 9.2-.7 6.1-.4 12.2-.7 18-.8 5.9-.1 11.5-.1 16.9 0 5.4.1 10.4.3 15.1.6 9.3.5 17.1 1.3 22.5 1.9.6.1 1.1.1 1.6.2.4 1.7.7 3.3 1 5-.9-.1-1.9-.3-3.1-.4-5.3-.7-13-1.5-22.2-2.1-4.6-.3-9.6-.5-14.9-.7-5.3-.1-10.9-.2-16.7-.1-5.8 0-11.7.3-17.8.6-3 .2-6 .5-9.1.7-3.1.3-6.1.5-9.2.9s-6.2.7-9.2 1.2c-1.5.3-3 .5-4.5.7-1.5.3-3 .5-4.5.8-1.4.3-2.9.5-4.4.8s-2.9.6-4.4.9c-2.9.5-5.8 1.2-8.6 1.9-2.8.6-5.5 1.4-8.2 2.1-2.7.7-5.3 1.5-7.8 2.3-2.5.8-5 1.7-7.3 2.5-1.2.4-2.4.8-3.5 1.2-1.1.4-2.2.9-3.3 1.3-4.3 1.7-8.2 3.5-11.6 5-1.5.7-3 1.4-4.3 2.1" opacity=".75" fill="#9ce3bc"/><g><path d="m452.4 853c-.1 9.8 9.1 19.9 20.6 20.1 11.5.2 20.9-9.6 21-19.4.1-9.9-9.1-19.9-20.6-20.1-11.5-.2-20.9 9.6-21 19.4m37.4.5c-.1 9.2-7.7 16.5-16.8 16.4-9.2-.1-16.5-7.7-16.4-16.8.1-9.2 7.6-16.6 16.8-16.4 9.2.1 16.5 7.6 16.4 16.8" fill="#364120"/><path d="m456.6 853c-.1 9.2 7.1 16.8 16.4 16.8 9.2.1 16.7-7.3 16.8-16.4.1-9.2-7.3-16.7-16.4-16.8-9.1-.2-16.7 7.2-16.8 16.4m28.4.4c-.2 8.3-12 14.9-12 14.9s-11.6-7-11.6-15.3 12-14.9 12-14.9 11.6 7 11.6 15.3" fill="#e0eb7b"/><path d="m451.7 817.9c.2 0 .4 0 .7.1.4 0 1 .1 1.6.2.6.1 1.3.2 2 .4.7.2 1.5.4 2.3.6.8.3 1.6.6 2.4 1 .8.4 1.6.9 2.3 1.4.7.5 1.5 1.1 2.1 1.8.7.6 1.2 1.4 1.8 2.1.5.7 1 1.5 1.3 2.3.8 1.6 1.2 3.1 1.5 4.5.3 1.3.4 2.5.5 3.3 0 .4 0 .7 0 .9 0 .2 0 .2 0 .2l6.4-.1c0 0 0-.2 0-.5 0-.3-.1-.7-.2-1.2-.2-1-.5-2.5-1-4.2-.6-1.7-1.4-3.6-2.6-5.5-1.2-1.9-2.7-3.7-4.6-5.2-.9-.8-1.9-1.4-2.9-2-1-.6-2-1-3.1-1.4-1-.4-2-.7-3-.9-1-.2-1.9-.4-2.7-.5-.8-.1-1.6-.2-2.3-.2-.7.9-1.6 1.9-2.5 2.9" fill="#364120"/></g></g><g><path d="m360.4 949.4c-.5 10.9-1.7 145.9 17.5 196.9 48.9 130.1 92.6 198.6 133.3 211.3 38.6 12.1 48.2 14.6 53.6 14.1 5.2-.5 7.3-3.9 8.2-5.3.1-.2.3-.4.4-.6 3.7-5.1 3.2-10.4.7-17.5-2.7-7.6-10.2-21.1-30.2-26.2-12.5-3.2-30.1-13.5-44.9-26.2-16.2-14-26.7-28.5-28.8-39.9-.5-2.8-1.2-6-1.9-9.3-4.3-20.1-10.1-47.6 1.6-63.4 5.7-7.6 15.1-12 28.7-13.2.6 0 1.2-.1 1.8-.1l4.8-.3 1.3-4.6c.3-1.1 7.9-26.8 32.7-29.1 2.7-.3 5.6-.2 8.6.1l5.5.6 1.7-5.2c.1-.3 8.7-25.3 28.3-27.1.3-.1.6-.1.9-.1l4.7-.3 1.4-4.5c6.3-20.7 8.4-33.8 6.2-39.1-2.5-6.1-35.8-36.7-72-62.7-18.1-13-39.4-26.2-63.4-37.8-3.4-1.6-6.8-3.2-10.3-4.8-25.7-11.6-54.2-21.3-85-27.5l-8.9-1.8 3.5 23.6m12.2 146.1c-.7-5.5-1.4-11.2-2.5-17.4-.2-1.8-.3-3.6-.5-5.4-.3-3.6-.6-7.2-.9-10.8-.2-2.1-.3-4.2-.5-6.3-.1-1.1-.1-2.2-.2-3.3-.1-1.4-.2-2.7-.3-4.1-.1-.9-.1-1.7-.2-2.6-.1-1.6-.2-3.2-.3-4.8s-.2-3.2-.3-4.8c-.2-4.1-.4-8.3-.6-12.4 0-1-.1-2.1-.1-3.1-.1-2-.2-4.1-.3-6.1 0-1-.1-2-.1-3s-.1-2-.1-3c0-1.5 0-3-.1-4.5-.1-5.2-.3-10.3-.4-15.1-.1-.8-.1-1.6-.1-2.4-.1-1.5-.1-3.1-.1-4.6 0-.7 0-1.5 0-2.2-.1-1.3-.1-2.5-.1-3.7 0-1.3 0-2.5 0-3.8 0-.8 0-1.5 0-2.2 0-.5 0-1 0-1.5 0-.9 0-1.8 0-2.6 0-.5 0-1.1 0-1.6 0-8.8 0-15.5 0-19 0-.4 0-.8 0-1.2 0-.1 0-.3 0-.4 0-.1 0-.3 0-.4 0-.5 0-.8 0-.8l-1.1-12.5c1.4.3 2.7.6 4.1.9 1.2.2 2.5.5 3.7.8.2 0 .4.1.6.1 1 .2 1.9.5 2.9.7 1.4.3 2.9.7 4.3 1.1.8.3 1.6.5 2.4.7 4.4 1.2 8.7 2.6 13.1 4 1.8.5 3.5 1.1 5.2 1.7 1.7.6 3.4 1.2 5.1 1.8 3.9 1.4 7.8 2.9 11.6 4.5 1.2.5 2.4 1 3.6 1.5 2.6 1.1 5.3 2.2 7.9 3.4 3.8 1.7 7.6 3.5 11.4 5.3 5.3 2.6 10.6 5.2 15.8 8 1.5.8 2.9 1.6 4.4 2.4 1.6.8 3.2 1.7 4.8 2.6 1.3.7 2.6 1.4 3.9 2.2 1 .6 2.1 1.2 3.1 1.8 1.5.9 3.1 1.8 4.6 2.7 1.3.7 2.5 1.4 3.8 2.2 2.2 1.3 4.4 2.7 6.6 4 1 .7 2.1 1.3 3.2 2 2.2 1.4 4.3 2.7 6.4 4.1.8.5 1.6 1 2.4 1.5 2.3 1.5 4.6 3.1 6.9 4.6 1.2.7 2.4 1.5 3.5 2.3l.1.1c2.8 1.9 5.5 3.8 8.1 5.6 1.3.9 2.6 1.9 3.9 2.8.3.3.6.5.9.7.1 0 .1.1.2.1 1 .7 1.9 1.3 2.8 2 2.9 2.2 5.7 4.2 8.5 6.3.8.6 1.7 1.3 2.5 1.9 1.2.9 2.4 1.8 3.5 2.7 1.1.9 2.3 1.7 3.4 2.6 2.3 1.7 4.6 3.5 6.7 5.2.7.6 1.4 1.1 2.1 1.7.8.7 1.5 1.3 2.3 1.9 2 1.6 3.8 3.1 5.6 4.6.4.3.7.6 1.1.9.5.5 1.1.9 1.6 1.4.5.4 1.1.9 1.6 1.3 2.2 1.8 4.3 3.6 6.2 5.3.3.3.7.7 1.1 1 3.8 3.3 7 6.3 9.7 8.8.5.5 1 .9 1.5 1.4.9.9 1.8 1.8 2.6 2.6.2.2.4.4.6.6.9.9 1.7 1.7 2.3 2.4.1.1.2.3.3.4.1.2.3.3.4.5.1.2.2.3.3.4.1.2.2.3.3.4.1 0 .2.1.2.2.1.1.2.2.2.3 2.3 5.7-6.4 34.6-6.4 34.6-.4 0-.8.1-1.2.1-.3 0-.7.1-1.1.1-.4.1-.7.1-1.1.2-.3 0-.5 0-.8.1-.5.1-1.1.2-1.6.3-.2 0-.3.1-.5.1-.3 0-.5.1-.8.2-.3 0-.5.1-.8.2-.8.2-1.5.5-2.2.8-.2.1-.5.2-.7.3-.3.1-.6.3-.9.4-.3.2-.6.4-.9.5-.3.2-.6.3-.9.5-.3.2-.6.3-.9.5-.1.1-.2.1-.3.2-.5.3-.9.6-1.4.9-.3.2-.5.4-.8.6s-.5.4-.8.6c-.1.1-.3.2-.4.3-.3.3-.5.5-.8.7-.4.3-.7.6-1.1.9l-.1.1c-.3.3-.6.5-.9.8-1.3 1.2-2.6 2.6-3.7 3.9-.2.2-.4.5-.6.7-.2.2-.5.5-.7.8-1 1.2-1.9 2.5-2.7 3.7-.2.3-.3.5-.5.8-1.1 1.7-2.1 3.4-2.9 5-.1.2-.2.4-.3.6-.1 0-.1.1-.1.1-.1.3-.3.5-.4.8-.2.2-.3.5-.4.8-.2.4-.3.7-.5 1.1-.2.3-.3.6-.4.9-.1.3-.2.5-.3.7 0 .1-.1.2-.1.3s-.1.2-.1.3c-.2.5-.4.9-.5 1.2-.2.4-.3.7-.3.7-.8-.1-1.6-.2-2.4-.2-1.3-.1-2.6-.1-3.9-.1-1.9 0-3.7.2-5.4.4-.6 0-1.2.1-1.7.2s-1.1.2-1.6.3c-.3.1-.5.1-.8.2-.5.1-1.1.3-1.6.4-.3 0-.5.1-.8.2-.6.1-1.1.3-1.7.5-.3.1-.7.3-1.1.4-.3.1-.6.2-.8.3-.3.1-.6.2-.8.3-.1 0-.3.1-.5.2-.5.3-1.1.5-1.6.8-.8.4-1.4.7-2.1 1.1-.6.4-1.3.8-1.9 1.2-.5.3-1.1.7-1.6 1.1-.3.2-.5.4-.8.6l-.8.6c-.4.3-.8.7-1.2 1-.5.5-.9.9-1.4 1.3-.4.4-.9.9-1.3 1.3-.4.4-.8.9-1.2 1.3-.4.4-.8.9-1.2 1.3-.6.8-1.2 1.5-1.8 2.3-.3.4-.5.8-.8 1.2-.2.3-.4.6-.6.9-.4.6-.8 1.2-1.2 1.8-.3.5-.6 1-.9 1.5-.4.7-.8 1.4-1.2 2.1-.6 1.2-1.1 2.3-1.6 3.3-.2.4-.3.8-.5 1.2-.1.1-.1.3-.2.5-.1.3-.3.7-.4 1-.1.2-.2.5-.3.7-.1.2-.1.4-.2.6s-.1.4-.2.6-.1.4-.2.6c-.1.1-.1.1-.1.2 0 .2-.1.3-.1.4s0 .1 0 .1c0 .1 0 .1 0 .1-.7.1-1.4.1-2 .2-.6.1-1.2.1-1.8.2-.5.1-1.1.1-1.6.2-.2 0-.4.1-.6.1-.4.1-.9.1-1.3.2-.6.1-1.1.2-1.7.3-1.2.2-2.2.4-3.3.7-.4.1-.9.2-1.3.3-.4.1-.9.3-1.3.4-.4.1-.8.3-1.2.4-1.2.4-2.3.8-3.4 1.3-.4.2-.9.4-1.3.6-.8.4-1.5.7-2.2 1.1-.4.2-.8.4-1.2.6-.5.2-.9.5-1.4.8-.4.2-.7.4-1.1.7-.3.2-.5.4-.8.6-.4.3-.8.6-1.2.9-.6.5-1.2.9-1.7 1.4-.3.3-.6.5-.9.8-.2.2-.4.4-.6.6-.1.2-.3.4-.5.6-.1.2-.3.4-.5.6-.8.8-1.5 1.7-2.2 2.6-.3.4-.6.9-.9 1.3-.1.3-.3.5-.4.7-.1 0-.1.1-.1.1-.1.2-.2.3-.3.5v.1c-.2.3-.3.5-.5.8-.1.1-.1.2-.2.3-.1.3-.3.7-.5 1-.2.4-.3.7-.5 1.1s-.3.7-.5 1.1c-.5 1.2-.9 2.3-1.3 3.5-.2.6-.4 1.2-.6 1.8-.2.6-.4 1.2-.5 1.8-.1.4-.2.7-.3 1.1 0 .4-.1.7-.2 1.1 0 .2-.1.4-.1.6 0 .2-.1.5-.1.7-.1.6-.2 1.3-.3 2-.1.4-.1.8-.2 1.2-.1.5-.2 1.1-.2 1.6s-.1 1-.1 1.5-.1 1-.1 1.5c0 .2 0 .5 0 .7-.1.5-.1 1.1-.1 1.6 0 .6 0 1.3 0 1.9 0 .2 0 .5 0 .8 0 .7 0 1.5 0 2.2 0 .8.1 1.7.1 2.5s0 1.6.1 2.4c1.1 15 5 30 7 40.5 5.4 28.6 51.3 64.4 78.7 71.4 27.4 7 29.3 32.7 26.1 37.1-.6.7-.9 1.4-1.3 1.9 0 .1-.1.2-.2.3-.4.4-.7.6-1.3.8-.1.1-.1.1-.2.1 0 0-.1 0-.2 0 0 0-.1 0-.2 0-.2.1-.5.1-.7.1-.2 0-.4 0-.7 0-.9-.1-2.1-.2-3.6-.5-.4 0-.8-.1-1.2-.2-2.8-.6-6.5-1.5-11.7-3-.6-.2-1.1-.3-1.7-.5-.6-.1-1.2-.3-1.9-.5-1.1-.3-2.2-.6-3.4-1-3.5-1.1-7.6-2.3-12.2-3.7-3-1-6.3-2-9.8-3.1-1.4-.5-2.8-.9-4.3-1.4-55.8-17.4-111.4-159.8-130.5-211-.7-1.7-1.3-3.6-1.9-5.5-.2-.7-.4-1.3-.6-2-.7-2.2-1.3-4.6-1.9-7-.2-.8-.4-1.7-.6-2.5-.5-2.1-1-4.3-1.4-6.5-.2-.8-.4-1.6-.5-2.4-.1-.9-.3-1.8-.5-2.8 0-.2-.1-.5-.1-.7-.3-1.5-.6-3-.8-4.5-.1-.8-.3-1.6-.4-2.4-.2-1.5-.5-3-.7-4.6-.2-.9-.3-1.8-.4-2.7-.3-1.6-.5-3.3-.7-5" fill="#e0eb7b"/><path d="m382.9 1144c-13.5-35.9-16.8-120.4-17.8-167.6 0-4.3-.1-8.2-.1-11.8 0-8.8 0-15.5 0-19 0-1.9 0-2.9 0-2.9l-1.1-12.5c110.6 22.1 223.8 127.1 226.1 132.8 2.3 5.7-6.4 34.6-6.4 34.6-21.1 1.2-31.5 22.6-34.4 29.6-.5 1.4-.8 2.2-.8 2.2-.8-.1-1.6-.2-2.4-.2-36.1-2.4-46.2 34.1-46.2 34.1-11 .8-19.5 3.4-25.8 7.3-1.8 1.1-3.4 2.3-4.9 3.6-22.4 19.8-9.8 61.2-5.7 83.2 5.4 28.6 51.3 64.4 78.7 71.4 27.4 7 29.3 32.7 26.1 37.1-2.9 4 .4 6.3-40.5-6.3-3-1-6.3-2-9.8-3.1-1.4-.5-2.8-.9-4.3-1.4-55.8-17.4-111.4-159.8-130.7-211.1" opacity=".75" fill="#9ce3bc"/><path d="m424 1060.4c6 7.7 19.2 9.4 28.4 2.4s10.6-20 4.6-27.7c-6.1-7.8-19.2-9.4-28.4-2.4-9.1 7-10.6 20-4.6 27.7m29.6-22.9c5.6 7.3 4.3 17.7-3 23.3-7.3 5.6-17.7 4.3-23.3-3-5.6-7.3-4.4-17.7 3-23.3 7.3-5.6 17.7-4.2 23.3 3" fill="#364120"/><path d="m440.4 1064.3c9.2 0 16.7-7.3 16.6-16.6 0-9.2-7.5-16.6-16.6-16.6-9.2 0-16.6 7.5-16.6 16.6 0 9.1 7.5 16.6 16.6 16.6m.1-28.4c8.3.1 15 11.8 15 11.8s-6.8 11.7-15.1 11.7c-8.3 0-15-11.8-15-11.8s6.8-11.7 15.1-11.7" fill="#e0eb7b"/><path d="m363.9 944.6l1.2-2.3.2-.3c-.2-.6-.3-1.2-.4-1.7-.8-3.5-1.2-5.4-1.2-5.4l.7-.1.7-.1c0 0 .5 2 1.3 5.6 0 0 .9.5 2.5 1.6 1.7 1.1 4 2.7 7 4.8s6.6 4.6 10.6 7.6c2 1.5 4.1 3.1 6.4 4.8 2.2 1.7 4.6 3.6 7 5.5 4.9 3.8 10.1 8.1 15.6 12.6 2.7 2.3 5.5 4.7 8.3 7.1 2.8 2.5 5.8 4.9 8.6 7.5 5.8 5.2 11.8 10.5 17.6 16.2 3 2.8 5.9 5.7 8.9 8.5 2.9 2.9 5.8 5.9 8.7 8.8l4.4 4.4 2.2 2.2 2.1 2.3c2.8 3 5.5 6 8.3 9 5.6 5.9 10.7 12.1 15.8 17.9 5.2 5.8 9.7 11.8 14.2 17.3 2.2 2.8 4.3 5.5 6.4 8.1 2 2.7 3.9 5.3 5.7 7.8 3.6 5 7 9.5 9.9 13.7 2.8 4.1 5.2 7.8 7.2 10.8 2.6 4 4.5 6.8 5.5 8.3.5.8.8 1.2.8 1.2l-3.2 2c0 0-.3-.4-.8-1.2-1-1.4-2.9-4.2-5.5-8.1-2-2.9-4.4-6.6-7.2-10.7-2.8-4.2-6.3-8.6-9.9-13.6-1.8-2.4-3.7-5-5.7-7.7-2-2.6-4.2-5.2-6.4-8-4.4-5.5-9-11.4-14.1-17.1-5.1-5.8-10.2-11.9-15.8-17.7-2.7-2.9-5.5-5.9-8.3-8.9l-2.1-2.3-2-2.1-4.3-4.4c-2.9-2.9-5.8-5.8-8.7-8.7-3-2.8-6-5.6-8.9-8.4-5.8-5.6-11.8-10.9-17.5-16-2.9-2.6-5.8-5-8.6-7.4-2.8-2.4-5.6-4.8-8.3-7-5.5-4.4-10.6-8.7-15.5-12.4-2.4-1.9-4.8-3.7-7-5.4-2.3-1.6-4.4-3.2-6.4-4.7-4-2.9-7.6-5.4-10.5-7.5-2-1.4-3.7-2.6-5.1-3.5.8 3.2 1.9 7 3.1 11.3.8 2.4 1.4 5 2.3 7.7.8 2.7 1.7 5.5 2.7 8.5 1.8 6 4.2 12.3 6.6 19 1.1 3.4 2.6 6.8 3.9 10.3 1.4 3.5 2.7 7.1 4.2 10.7 3 7.2 6.1 14.6 9.5 22.1 3.2 7.5 6.9 15 10.4 22.5 1.8 3.8 3.7 7.5 5.5 11.2 1.9 3.7 3.7 7.4 5.6 11 1.9 3.6 3.8 7.2 5.6 10.8 2 3.5 3.8 7 5.7 10.4 3.7 6.9 7.5 13.4 11 19.6 3.6 6.1 7 12 10.2 17.3 3.3 5.2 6.2 10.2 9 14.4 2.7 4.2 5 8 7.1 11 1.4 2 2.5 3.8 3.5 5.2-1.8 1.1-3.4 2.3-4.9 3.6-.9-1.5-2.2-3.4-3.6-5.6-2-3-4.3-6.9-7-11.2-2.7-4.3-5.6-9.3-8.8-14.7-3.2-5.4-6.5-11.3-10-17.6-3.4-6.3-7.1-12.9-10.7-19.9-1.8-3.5-3.6-7-5.5-10.6-1.8-3.6-3.6-7.2-5.4-10.9-1.9-3.7-3.6-7.5-5.4-11.2-1.7-3.8-3.6-7.5-5.3-11.3-3.4-7.6-6.9-15.2-10.1-22.8-3.2-7.5-6.2-15-9.1-22.3-1.5-3.6-2.8-7.3-4.1-10.8-1.3-3.6-2.7-7-3.8-10.4-2.3-6.8-4.6-13.2-6.3-19.2-.9-3-1.8-5.9-2.6-8.6-.8-2.7-1.4-5.3-2.1-7.8-1.3-5-2.5-9.2-3.2-12.8-.1-.1-.1-.2-.1-.3-.4-.3-.7-.5-1-.7-.9-.5-1.3-.8-1.3-.8" opacity=".75" fill="#9ce3bc"/><path d="m360.3 954.3l2.4-.5c0 0 .9 3.8 2.6 10.8 2.8 11.7 7.7 32.5 14.1 58.7 10.1 41.7 23.8 97.3 38.1 152.7l1.3 5.2 1.4 5.1 1.4 5.1 1.6 5.1 1.6 5.1c.6 1.7 1.2 3.3 1.8 5 .6 1.7 1.2 3.4 1.8 5 .6 1.6 1.3 3.3 1.9 4.9 5.1 13 11 25.5 17.3 37.3 12.6 23.5 26.8 44.1 40 60.9 13.1 16.9 25.3 29.9 34 38.8 2.3 2.3 4.4 4.4 6.2 6.1-3-1-6.3-2-9.8-3.1-8.8-9-20.8-22.2-33.9-39.1-13.2-17.1-27.5-37.9-40.1-61.8-6.3-11.9-12.2-24.6-17.3-37.8-.6-1.7-1.3-3.3-1.9-5-.6-1.6-1.2-3.3-1.8-5-.6-1.7-1.2-3.4-1.8-5.1l-1.6-5.1-1.6-5.1-1.4-5.2-1.4-5.2-1.3-5.2c-14-55.5-27.4-111.2-37.3-153-4.6-19.3-8.4-35.6-11.2-47.6-3.2-13.9-5.1-22-5.1-22" opacity=".75" fill="#9ce3bc"/></g><path d="m342 1035.6c-3.1 0-11.2-8.6-19.6-41-6.2-23.8-9.9-50.5-9.9-62.6 0-7.5 1.5-14.9 4.2-21.3 1.1-2.6 2.4-5 3.9-7.3l.3-.4c5.6-8.1 13.1-12.5 21.1-12.5 16.3 0 29.6 18.6 29.6 41.5 0 12-3.7 38.7-9.9 62.6-8.5 32.4-16.6 41-19.7 41" fill="#fff"/><path d="m342 902c-8.8-11.6-24-6.2-24.7-5.9 0 2.6 0 5.7 1.8 9.9 16.1-.6 23 13.3 23 13.3s6.9-13.9 23-13.3c1.8-4.2 1.8-7.3 1.8-9.9-.9-.3-16.1-5.7-24.9 5.9" fill="#bf31a1"/></g></switch></svg>