<svg xmlns="http://www.w3.org/2000/svg" width="156.8" height="115.2" viewBox="0 0 156.8 115.2" enable-background="new 0 0 156.8 115.2"><path d="m70.5 48.6c0 0-5.4 10.7-29.6 15.8-6.9.5-11.5-.2-12.8-2.4-1.2-.5-2.8-1.5-2.6-2.8 0-.1 0-.1 0-.2.3-.8 1.4-1.9 4-3.3 6.5-3.4 38.9-7 41-7.1" opacity=".6" fill="#6b523c"/><path d="m70.5 48.6c-2.2.2-34.6 3.8-41 7.1-2.6 1.4-3.7 2.5-4 3.3 0 0 0 0 0 .1-.4-1.1.4-2.5 3.8-4.3 6.5-3.4 41.3-6.9 41.3-6.9s0 .7-.1.7" fill="#eccd0a"/><path d="m86.3 48.6c0 0 5.4 10.7 29.6 15.8 6.9.5 11.6-.2 12.8-2.4 1.2-.5 2.8-1.5 2.6-2.8 0-.1 0-.1 0-.2-.3-.8-1.4-1.9-4-3.3-6.5-3.4-38.8-7-41-7.1" opacity=".6" fill="#6b523c"/><path d="m86.3 48.6c2.2.2 34.6 3.8 41 7.1 2.6 1.4 3.7 2.5 4 3.3 0 0 0 0 0 .1.4-1.1-.4-2.5-3.8-4.3-6.5-3.4-41.3-6.9-41.3-6.9s0 .7.1.7" fill="#eccd0a"/><path d="m87.9 77c0 2.6-.2 5.1-.6 7.4-.4 2.4-1 4.6-1.7 6.5-1.2 3.1-2.9 5.4-4.8 6.4l-.1.1c-.8.6-2.3 1.9-2.3 1.9s-1.6-1.2-2.3-1.9l-.1-.1c-1.8-1-3.5-3.3-4.7-6.4-.7-1.9-1.3-4.1-1.7-6.5-.4-2.2-.6-4.7-.6-7.4 0-5.3 4.1-9.5 9.4-9.5 5.2 0 9.5 4.3 9.5 9.5" fill="#383331"/><g fill="#917e07"><path d="m75.8 60.1c-.2-.3-.7-.3-1.1-.3-1-.1-2.1-.1-3.1-.1-1.3.1-6.8 1.2-8.4 1.6-1.2.4-3 .6-3.9 1.6-1.6 1.6-9.5 11.1-9.6 11.4-.2.3-.2.6-.2 1 0 .1-.2.4-.1.3-1.4 1.2-2.5 2.4-2.4 4.3 0 .5.1 1.2.5 1.6.7.6 2 .2 2.7-.3-.6.3-1.6.4-2.1-.2 0-1.2.5-2.2 1.1-3.2.3-.5.6-.9 1-1.3.4-.3.9-.5 1.2-.8.9-.9 8.7-11.9 8.5-11.8 2.9 0 5.8-.4 8.7-.9 2.5-.4 5-.9 7.3-2.1-.1-.3 0-.6-.1-.8"/><path d="m72.9 68.2c-1.7-.9-3.6-.7-5.5-.7-1.8.1-3.6.2-5.3.7-.2.1-1 .1-1.1.3-.1.1 0 1.1 0 1.3-.1 1.5-.4 2.9-.6 4.3-.7 3.7-1.8 7.5-2 11.2-.1.8.4 1.9 0 2.6-.5.7-1 1.5-1.5 2.2-.4.6-.9 1.2-1.3 1.7-1 1.3-2 2.6-2.9 3.9-.8 1-1.6 2.1-2.4 3.1-1.2 1.6-2.7 3.3-3.7 5.1-.2.3-.2.7-.4 1.1-.1.3 0 .2-.2.4-.2.2-.5.2-.8.4-.9.5-1.7 1-2.4 1.7-1.1 1-2 2.3-2.3 3.8-.2 1.3 0 2.7 1.2 3.5 1.2.9 2.8.4 3.3-1-.3.5-.6.8-1.2 1-.3.1-.8 0-1.1-.2-.2-.2-.2-.4-.2-.8-.1-1-.4-1.9 0-2.8.6-1.9 2.6-4.1 4.3-5.1.5-.3.8-.4 1.2-.8.3-.4.6-.8.9-1.2.4-.6.8-1.1 1.2-1.7.9-1.3 1.8-2.6 2.7-3.9 1.3-1.9 2.6-3.7 3.8-5.6 1-1.4 1.9-2.8 3-4.1.2-.2.3-.6.5-.8.5-.5 1-.7 1.4-1.3.7-1.2.7-3 .9-4.3.5-3.8.7-7.9.5-11.7 1.9.8 4.1 1.1 6.1 1.2 1.5 0 2.8-.1 3.8-1.2.3-.3.6-.7.7-1.1.3-.8-.1-.9-.6-1.2m-30.5 46.2c0 0 0-.1 0 0m3.8-9.2c0 0 0 0 0 0m12.6-18c0 0 0-.1 0 0"/><path d="m81 60.1c.2-.3.7-.3 1.1-.3 1-.1 2.1-.1 3.1-.1 1.3.1 6.8 1.2 8.4 1.6 1.2.4 3 .6 3.9 1.6 1.6 1.6 9.5 11.1 9.6 11.4.2.3.2.6.2 1 0 .1.2.4.1.3 1.3 1.1 2.5 2.3 2.4 4.2 0 .5-.1 1.2-.5 1.6-.7.6-2 .2-2.7-.3.6.3 1.6.4 2.1-.2 0-1.2-.5-2.2-1.1-3.2-.3-.5-.6-.9-1-1.3-.4-.3-.9-.5-1.2-.8-.9-.9-8.7-11.9-8.5-11.8-2.9 0-5.8-.4-8.7-.9-2.5-.4-5-.9-7.3-2.1.1-.2.1-.5.1-.7"/><path d="m83.9 68.2c-.5.3-.8.5-.7 1.1.1.4.4.8.7 1.1 1.1 1.1 2.4 1.2 3.8 1.2 2.1 0 4.2-.3 6.1-1.2-.2 3.8.1 7.9.5 11.7.2 1.3.2 3.1.9 4.3.4.6.9.8 1.4 1.3.2.2.3.6.5.8 1.1 1.3 2 2.7 3 4.1 1.3 1.9 2.6 3.7 3.8 5.6.9 1.3 1.8 2.6 2.7 3.9.4.6.8 1.1 1.2 1.7.3.4.5.8.9 1.2.4.4.8.5 1.2.8 1.7 1.1 3.7 3.2 4.3 5.1.3 1 .1 1.9 0 2.8 0 .4 0 .6-.2.8-.2.2-.8.2-1.1.2-.5-.1-.9-.5-1.2-1 .5 1.4 2.1 1.9 3.3 1 1.1-.8 1.4-2.2 1.2-3.5-.3-1.5-1.2-2.8-2.3-3.8-.7-.7-1.5-1.2-2.4-1.7-.2-.1-.6-.2-.8-.4-.2-.2-.1-.1-.2-.4-.1-.3-.2-.7-.4-1.1-1-1.8-2.5-3.5-3.7-5.1-.8-1-1.6-2.1-2.4-3.1-1-1.3-2-2.6-2.9-3.9-.4-.6-.9-1.1-1.3-1.7-.5-.7-1-1.4-1.5-2.2-.4-.7.1-1.7 0-2.6-.3-3.8-1.4-7.5-2-11.2-.3-1.4-.5-2.9-.6-4.3 0-.2.1-1.2 0-1.3-.1-.2-.9-.2-1.1-.3-1.7-.4-3.5-.6-5.3-.7-1.8 0-3.7-.1-5.4.8m30.5 46.2c.1-.1 0 0 0 0m-3.8-9.2c0 0 0 0 0 0m-12.6-18c0-.1 0 0 0 0"/><path d="m73.3 37.3c-4.1-.6-9.3-3.5-9.2-8.2 0-1.4-.1-2.8-.2-4.2-.1-1.8-.5-4.1.6-5.6.1.1.1.2.2.3-1.4-.6-2.7-1.3-4-2-1.3-.7-2.7-1.4-3.7-2.4.1 0 .1.1.2.1-1.4-1-4-1.5-4.7-3.4-.2-.5-.1-1.2.2-1.7.5-.9 1.6-.9 2.4-.4-.6-.2-1.9-.1-1.7.9 0 0 0-.1 0-.1.1.3.6.7.8.9.5.6 1.1 1.2 1.8 1.6 1.2.8 2.6 1 3.8 1.9 1 .7 2.1 1.5 3.1 2.3.7.5 1.8 1.1 2.2 1.8.5.8.4 2.3.5 3.2.1 2.4 0 4.8.1 7.3 0 0 0-.1 0-.1.5.9 1.5 1.2 2.2 1.8.9.6 1.6 1.4 2.4 2.2.8.7 1.6 1.5 2.3 2.3.2.2 1 .9 1 1.2 0-.1-.2.2-.3.3"/><path d="m83.5 37.3c4.1-.6 9.3-3.5 9.2-8.2 0-1.4.1-2.8.2-4.2.1-1.8.5-4.1-.6-5.6-.1.1-.1.2-.2.3 1.4-.6 2.7-1.3 4-2 1.3-.7 2.7-1.4 3.7-2.4-.1 0-.1.1-.2.1 1.4-1 4-1.5 4.7-3.4.2-.5.1-1.2-.2-1.7-.5-.9-1.6-.9-2.4-.4.6-.2 1.9-.1 1.7.9 0 0 0-.1 0-.1-.1.3-.6.7-.8.9-.5.6-1.1 1.2-1.8 1.6-1.2.8-2.6 1-3.8 1.9-1 .7-2.1 1.5-3.1 2.3-.7.5-1.8 1.1-2.2 1.8-.5.8-.4 2.3-.5 3.2-.1 2.4 0 4.8-.1 7.3 0 0 0-.1 0-.1-.5.9-1.5 1.2-2.2 1.8-.9.6-1.6 1.4-2.4 2.2-.8.7-1.6 1.5-2.3 2.3-.2.2-1 .9-1 1.2 0-.1.2.2.3.3"/></g><path d="m75.6 22c-1.2-.4-5.2-2.8-6.1-3.4-.1-.1-.5-.3-.6-.4 0-.1.1-.4-.1-.6.8-.1 1-.9 1-.9.1 0 .2-.1.4-.1.2 0 5.5 4.4 5.7 4.7.2.3.2.8-.3.7" fill="#383331"/><path d="m69.9 16.7c0 0-.2.7-1 .9-.1-.2-7-6.7-8-10.9-.5-1.7-.9-4.4.2-5.9.4-.5 1.2-1.1 1.7-.5.6.7.4 1.7.3 2.5-.7 4.4 1.6 8.6 4.5 11.8.4.5.9.9 1.3 1.3.3.3.6.7 1 .8" fill="#eccd0a"/><path d="m81.1 22c1.2-.4 5.2-2.8 6.1-3.4.1-.1.5-.3.6-.4 0-.1-.1-.4.1-.6-.8-.1-1-.9-1-.9-.1 0-.2-.1-.4-.1-.2 0-5.5 4.4-5.7 4.7-.2.3-.2.8.3.7" fill="#383331"/><g fill="#eccd0a"><path d="m86.8 16.7c0 0 .2.7 1 .9.1-.2 7-6.7 8-10.9.4-1.7.8-4.4-.3-5.9-.4-.5-1.2-1.1-1.7-.5-.6.7-.4 1.7-.3 2.5.7 4.4-1.6 8.6-4.5 11.8-.4.5-.9.9-1.3 1.3-.2.3-.5.7-.9.8"/><path d="m83.6 21c0 .5-.6.2-1.5.5-.9.3-2.2.5-3.6.5s-2.7-.2-3.6-.5c-.9-.3-1.5 0-1.5-.5s1.3-1.7 2.3-2c.9-.3 4.8-.3 5.8 0s2.1 1.5 2.1 2"/></g><path d="m82.7 20.3c-2.1-.5-6.5-.5-8.6 0-1.8.4-4.9 3.1-4.9 6.1 0 4.1 2.2 5.3 4.9 5.3 1.8 0 6.7 0 8.6 0 2.7 0 4.9-1.2 4.9-5.3 0-3-3.1-5.7-4.9-6.1" fill="#383331"/><g fill="#140f00"><path d="m82.3 26.3c-.5 1.8.4 3 1.9 3.5s3.1-.7 3.7-2.6c.5-1.8 0-4.4-1.5-4.8s-3.6 2.1-4.1 3.9"/><path d="m74.5 26.3c.5 1.8-.4 3-1.9 3.5-1.5.4-3.1-.7-3.7-2.6s0-4.4 1.5-4.8c1.5-.4 3.6 2.1 4.1 3.9"/></g><path d="m85.3 34.3c0-2.5-3.1-2.9-6.9-2.9s-6.9.3-6.9 2.9 3.1 4.5 6.9 4.5 6.9-2 6.9-4.5" fill="#eccd0a"/><g fill="#383331"><path d="m87.6 43.1c0-3.5-.3-6.2-2.1-8.1-1.8-1.9-4.3-2.9-7.1-2.9-2.8 0-5.3 1-7.1 2.9-1.8 1.9-2.1 4.6-2.1 8.1s.3 8.1 2.1 11.8c1.8 3.8 4.3 6.6 7.1 6.6 2.8 0 5.3-2.9 7.1-6.6 1.8-3.7 2.1-8.3 2.1-11.8"/><circle cx="78.4" cy="64.3" r="5.3"/></g><g fill="#eccd0a"><path d="m87.3 84.5c-.4 2.4-1 4.6-1.7 6.5-2.1.6-4.5 1-7.1 1-2.6 0-5-.4-7.2-1-.7-1.9-1.3-4.1-1.7-6.5 2.5 1 5.6 1.6 8.9 1.6 3.2-.1 6.3-.6 8.8-1.6"/><path d="m85.6 69.9c0 1.8-3.2.3-7.2.3-4 0-7.2 1.5-7.2-.3 0-1.1 1.1-2.8 2.9-4.1.4-.3 1-.3 1.4.1 1.2 1.2 3 2.4 3 2.4s1.8-1.2 3-2.4c.4-.4 1-.4 1.4-.1 1.6 1.2 2.7 3 2.7 4.1"/><path d="m76 75.7c-2.5-.2-4.7-.8-6.6-1.6-.3 1-.5 2-.5 2.9 0 1.3.1 2.5.1 3.7 1.2.5 2.6 1 4.1 1.3.9.2 1.8-.4 2-1.4l.9-4.9"/><path d="m87.4 74.1c-1.9.9-4.2 1.4-6.7 1.6l.8 5c.2.9 1 1.6 2 1.4 1.6-.3 3-.7 4.2-1.3.1-1.2.1-2.5.1-3.8.1-1-.1-2-.4-2.9"/></g><path d="m69.3 44.9c-9.9 6.7-45.2 14.2-45.2 14.2-5.2 1-9.7-1.8-9.7-1.8-5.2 0-9.8-5.6-9.8-5.6-4.4-1.7-4.4-8.4-4.4-9.3 0-.1.1-.2.2-.3 0 0 0-.1.1-.1.1-.1.2-.3.3-.5 0 0 0 0 0-.1.1-.1.1-.2.2-.3.2-.3.5-.7.9-1.1.2-.2.3-.3.5-.5.2-.2.3-.3.5-.5 1.4-1 3.5-2 6.6-2.2 5-.3 31.4 5.9 49.4 8.4.4.1.8.1 1.3 0 3.1-.2 8.3-1.8 8.3-1.8.2.4.5 1 .8 1.5" opacity=".6" fill="#6b523c"/><g fill="#eccd0a"><path d="m71.2 46.5c-.7.6-1.3-.5-1.9-1.6-.3-.5-.6-1.1-.9-1.4 0 0-5.2 1.6-8.3 1.8-.5 0-.9 0-1.3 0-18-2.5-44.4-8.7-49.4-8.4-3.1.2-5.2 1.1-6.6 2.2-.2.2-.4.3-.5.5-.2.2-.3.3-.5.5-.4.4-.6.8-.9 1.1-.1.1-.2.2-.2.3 0 0 0 0 0 .1-.1.2-.2.3-.3.5 0 0 0 .1-.1.1-.1.1-.1.2-.2.3-.4-1.2 1-2.9 2.7-4.4 1.4-1 3.5-2 6.6-2.2 5-.3 31.4 6 49.4 8.6 2.8.4 7.2-2.5 10-2.8.2-.5.4-.9.6-.9 2.6.3 3 4.7 1.8 5.7"/><path d="m1.7 40.1c-.3.4-.6.8-.9 1.1.3-.3.6-.7.9-1.1"/></g><path d="m87.6 44.9c9.9 6.7 45.2 14.2 45.2 14.2 5.2 1 9.7-1.8 9.7-1.8 5.2 0 9.8-5.6 9.8-5.6 4.4-1.7 4.4-8.4 4.4-9.3 0 0 0 0 0-.1 0 0 0-.1-.1-.1-.3-.5-1.1-1.9-2.6-3.2-1.4-1-3.5-2-6.6-2.2-5-.3-31.4 5.9-49.4 8.4-3.1.4-8.4-2.3-11-1.8-1.1 0 .3 1.3.6 1.5" opacity=".6" fill="#7d6046"/><g fill="#eccd0a"><path d="m87.5 40.8c.2 0 .4.4.6.9 2.8.3 7.2 3.2 10 2.8 18-2.6 44.4-8.9 49.4-8.6 3.1.2 5.2 1.1 6.6 2.2 1.7 1.4 3.1 3.2 2.7 4.4-.3-.5-1.2-2.1-2.7-3.4-1.4-1-3.5-2-6.6-2.2-5-.3-31.4 5.9-49.4 8.4-2.6.4-9.6-1.8-9.6-1.8-.3.3-.6.9-.9 1.4-.6 1.1-1.3 2.2-1.9 1.6-1.3-1-.9-5.4 1.8-5.7"/><path d="m76.9 45.9h-2.3c-.6 0-1.2.5-1.2 1.2v1.9c0 .3.3.4.5.2l3.1-2.7c.3-.3.2-.6-.1-.6"/><path d="m73.9 50.2h3.4c.4 0 .6.5.2.7l-3.4 1.5c-.3.1-.6-.1-.6-.3v-1.5c0-.2.2-.4.4-.4"/><path d="m77.2 58.1c-1.1-.4-2.1-1.3-3-2.4-.5-.6-.7-1.3-.7-2 0-.2.1-.3.3-.3h2.8c.5 0 1 .4 1 1v3.4c0 .2-.2.4-.4.3"/><path d="m79.9 45.9h2.3c.6 0 1.2.5 1.2 1.2v1.9c0 .3-.3.4-.5.2l-3.1-2.7c-.3-.3-.2-.6.1-.6"/><path d="m82.9 50.2h-3.4c-.4 0-.6.5-.2.7l3.4 1.5c.3.1.6-.1.6-.3v-1.5c0-.2-.2-.4-.4-.4"/><path d="m79.6 58.1c1.1-.4 2.1-1.3 3-2.4.5-.6.7-1.3.7-2 0-.2-.1-.3-.3-.3h-2.8c-.5 0-1 .4-1 1v3.4c0 .2.2.4.4.3"/><path d="m74.8 37.3c-.1-.1-.2 0-.3.1l-1.7 2.5c-.1.3-.6.5-.8.2l-.4-.3c-.2-.2-.3-.5-.1-.7 0 0 1.9-2.7 2.7-3.5.5-.5 1.2-.8 1.7-.4.7.4 1.4 1.3 1.5 2.9 0 .2-.2.3-.4.2l-2.2-1"/><path d="m82 37.3c.1-.1.2 0 .3.1l1.7 2.5c.1.3.6.5.8.2l.4-.3c.2-.2.3-.5.1-.7 0 0-1.9-2.7-2.7-3.5-.5-.5-1.2-.8-1.7-.4-.7.4-1.4 1.3-1.5 2.9 0 .2.2.3.4.2l2.2-1"/></g></svg>