<?xml version="1.0" encoding="utf-8"?>
<!-- Generator: Adobe Illustrator 19.2.0, SVG Export Plug-In . SVG Version: 6.00 Build 0)  -->
<svg version="1.1" id="insect" xmlns="http://www.w3.org/2000/svg" xmlns:xlink="http://www.w3.org/1999/xlink" x="0px" y="0px"
	 width="219.2px" height="360px" viewBox="0 0 219.2 360" style="enable-background:new 0 0 219.2 360;" xml:space="preserve">
<style type="text/css">
	.st0{fill:#2F2D28;}
	.st1{fill:#829D5E;}
	.st2{fill:#4A8F5B;}
	.st3{fill:#9C5D60;}
	.st4{fill:#B6965A;}
</style>
<g>
	<path class="st0" d="M156.6,176.9c-1.4-2.3-4.1-5.5-4.1-5.5s-25.3-1.6-43,10.5c-17.7-12.1-43-10.5-43-10.5s-2.7,3.2-4.1,5.5
		c-2.9,4.9-3.8,32.5-2.5,60.4c3.5,71.1,48,73.7,48,73.7h3.2c0,0,44.5-2.6,48-73.7C160.4,209.5,159.5,181.8,156.6,176.9z"/>
	<g>
		<g>
			<path class="st0" d="M171,69.9C171.1,70.4,170.9,69.3,171,69.9L171,69.9z"/>
			<path class="st0" d="M171,69.9c-0.4-2-1.2-3.9-2.2-5.7c0.7,1.9,1.3,4.1,1.1,6.2c-0.4-1.7-1.2-3.3-2-4.7c0.7,1.9,1.3,4.1,1.1,6.2
				c-0.4-1.7-1.2-3.3-2-4.7c0.7,1.9,1.3,4.1,1.1,6.2c-0.4-1.7-1.2-3.3-2-4.7c0.7,1.9,1.3,4.1,1.1,6.2c-0.4-1.7-1.2-3.3-2-4.7
				c0.7,1.9,1.3,4.1,1.1,6.2c-0.4-1.7-1.2-3.3-2-4.7c0.7,1.9,1.3,4.1,1.1,6.2c-0.4-1.7-1.2-3.3-2-4.7c0.3,0.8,0.5,1.7,0.7,2.6
				c0.3,1.3,0.6,2.9,0.3,4.2c-0.2,0.6-0.7,1-1.1,1.4c-0.6,0.6-1.1,1.2-1.7,1.7c-1.1,1.1-8.3,7.3-10.9,9.1c-0.6,0.4-1.2,0.9-1.8,1.3
				c-0.4,0.3-0.5,0.2-1,0c-0.4-0.1-0.8-0.3-1.3-0.3c-0.6-0.1-10.5-2.1-14.9-2.9c-1.7-0.3-3.3-0.6-5-0.8c-0.3,0-1.8-0.4-1.4,0.4
				c0.2,0.4,1.2,0.5,1.6,0.7c2.8,1,5.7,1.9,8.5,2.8c2.1,0.7,8.2,2.5,9.1,2.8c1.5,0.5,3.3,1.1,4.9,0.5c0.3-0.1,0.6-0.4,0.8-0.6
				c0.6-0.5,1.3-1,1.9-1.5c0.6-0.5,1.3-1,1.9-1.5c1.9-1.5,3.7-3.2,5.5-4.8c2.2-2,4.3-4.2,6.2-6.5c1.9-2.3,3.7-4.7,4.8-7.5
				C170.9,72.8,171.4,71.3,171,69.9z"/>
		</g>
		<g>
			<path class="st0" d="M48.7,69.9C48.6,70.4,48.8,69.3,48.7,69.9L48.7,69.9z"/>
			<path class="st0" d="M48.7,69.9c0.4-2,1.2-3.9,2.2-5.7c-0.7,1.9-1.3,4.1-1.1,6.2c0.4-1.7,1.2-3.3,2-4.7c-0.7,1.9-1.3,4.1-1.1,6.2
				c0.4-1.7,1.2-3.3,2-4.7c-0.7,1.9-1.3,4.1-1.1,6.2c0.4-1.7,1.2-3.3,2-4.7c-0.7,1.9-1.3,4.1-1.1,6.2c0.4-1.7,1.2-3.3,2-4.7
				c-0.7,1.9-1.3,4.1-1.1,6.2c0.4-1.7,1.2-3.3,2-4.7c-0.7,1.9-1.3,4.1-1.1,6.2c0.4-1.7,1.2-3.3,2-4.7c-0.3,0.8-0.5,1.7-0.7,2.6
				c-0.3,1.3-0.6,2.9-0.3,4.2c0.2,0.6,0.7,1,1.1,1.4c0.6,0.6,1.1,1.2,1.7,1.7c1.1,1.1,8.3,7.3,10.9,9.1c0.6,0.4,1.2,0.9,1.8,1.3
				c0.4,0.3,0.5,0.2,1,0c0.4-0.1,0.8-0.3,1.3-0.3c0.6-0.1,10.5-2.1,14.9-2.9c1.7-0.3,3.3-0.6,5-0.8c0.3,0,1.8-0.4,1.4,0.4
				c-0.2,0.4-1.2,0.5-1.6,0.7c-2.8,1-5.7,1.9-8.5,2.8c-2.1,0.7-8.2,2.5-9.1,2.8c-1.5,0.5-3.3,1.1-4.9,0.5c-0.3-0.1-0.6-0.4-0.8-0.6
				c-0.6-0.5-1.3-1-1.9-1.5c-0.6-0.5-1.3-1-1.9-1.5c-1.9-1.5-3.7-3.2-5.5-4.8c-2.2-2-4.3-4.2-6.2-6.5c-1.9-2.3-3.7-4.7-4.8-7.5
				C48.8,72.8,48.3,71.3,48.7,69.9z"/>
		</g>
	</g>
	<g>
		<g>
			<path class="st0" d="M89,74.9c-0.5,0.5-1,0.9-1.5,1.2c-5.1-17.6-14.2-21.2-27-49.6c-1-2.2-2-4.7-3-7.6C59.9,12.7,65,7.7,65,7.7
				c-3.1,0.1-6.5,2.1-9.3,4.4C54.9,8.5,54.4,4.5,54.2,0c-1,1-8,5.2-6.1,17.2c0.7,4.9,19.9,51.5,30.6,61.9c-3.7,0.2-4.2,0.2-4.2,0.2
				C78.3,89.1,89.8,91,89.8,91l5.8-2C95.7,82,89,74.9,89,74.9z"/>
		</g>
		<g>
			<path class="st0" d="M130.7,74.9c0.5,0.5,1,0.9,1.5,1.2c5.1-17.6,14.2-21.2,27-49.6c1-2.2,2-4.7,3-7.6
				c-2.4-6.2-7.4-11.1-7.4-11.1c3.1,0.1,6.5,2.1,9.3,4.4c0.8-3.6,1.3-7.6,1.5-12.1c1,1,8,5.2,6.1,17.2c-0.7,4.9-19.9,51.5-30.6,61.9
				c3.7,0.2,4.2,0.2,4.2,0.2c-3.8,9.9-15.3,11.8-15.3,11.8l-5.8-2C124.1,82,130.7,74.9,130.7,74.9z"/>
		</g>
	</g>
	<g>
		<path class="st0" d="M97.3,100.9c0,5-4.4,9.9-8.8,9.9s-7.2-2.5-7.2-9.9c0-5,5.2-9.9,9.6-9.9S97.3,96,97.3,100.9z"/>
		<path class="st0" d="M121.9,100.9c0,5,4.4,9.9,8.8,9.9c4.4,0,7.2-2.5,7.2-9.9c0-5-5.2-9.9-9.6-9.9C123.9,91,121.9,96,121.9,100.9z
			"/>
	</g>
	<path class="st1" d="M136.5,108.8c0,0-8.5-0.6-8.5-8c0-3.9,1.4-6.4,2.8-7.9c1.1-1.2,0.9-3-0.4-4l-4.2-3c-1.1-0.8-2.5-1-3.8-0.5
		c-2.7,1.1-7.8,2.8-12.8,2.8c-4.9,0-10-1.8-12.8-2.8c-1.3-0.5-2.7-0.3-3.8,0.5l-4.2,3c-1.3,0.9-1.5,2.8-0.4,4c1.4,1.5,2.8,4,2.8,7.9
		c0,7.4-8.5,8-8.5,8c-6.6,3.4-3.9,6.4-3.9,6.4l30.8,0.1l30.8-0.1C140.4,115.2,143,112.2,136.5,108.8z"/>
	<g>
		<g>
			<path class="st0" d="M219.2,260.2c-0.3-2.8-2.4-5.2-4.7-6.6c-0.3-0.2-0.6-0.3-0.9-0.5c-0.5-0.3-0.6-0.1-0.8-0.7
				c-0.2-0.6-0.3-1.3-0.4-1.9c-0.4-1.5-1.1-2.9-1.8-4.3c-2.8-5.3-7.1-9.9-11.7-13.7c-2.3-2-4.8-3.8-7.3-5.5
				c-2.4-1.6-4.8-3.4-7.4-4.6c-1.7-0.8-3.5-1.4-5.3-1.6c-0.4,0-0.7,0.1-0.9-0.3c-0.1-0.2-0.1-0.8-0.1-1c-0.1-0.7-0.2-1.4-0.4-2.1
				c-0.1-0.6-0.3-1.1-0.4-1.7c-2.1-7.9-7.5-30-9.2-35.7c-0.2-0.9-1-1.5-1.8-1.7c-9.4-1.8-16.5,0.6-16.8,1.1
				c-0.2,0.4-0.1,5.4,0.1,5.8c0.3,0.5,12,0.8,12.2,1.2c0.1,0.3,0.4,3.3,0.6,4.4c0.7,4.7,1.7,9.3,2.8,13.9c1.1,4.8,2.5,9.5,4.1,14.1
				c0.2,0.6,0.5,1.2,1,1.7c1,1.1,2.5,1.8,3.9,2.1c0.5,0.1,0.9,0.3,1.2,0.7c0.6,0.7,1.3,1.4,2.1,2c2.3,1.9,4.8,3.3,7.4,4.8
				c2.7,1.6,5.3,3.2,7.8,5c5,3.5,9.8,7.3,13.7,12c0.9,1.1,1.8,2.4,2.5,3.6c0.6,1.1,1,2.3,1.6,3.4c0.8,1.5,2,2.8,3,4.2
				c0.6,0.9,1.4,1.9,1.5,3c0.1,1.1-0.4,2.1-0.9,2.9c-0.4,0.7-1.9,2.2-1.7,2.8c0.2,1.1,2.4-0.1,3-0.4
				C217.8,265.6,219.5,263.1,219.2,260.2C219.1,259.7,219.2,260.7,219.2,260.2z M161.7,182.9C161.7,182.9,161.7,182.9,161.7,182.9
				L161.7,182.9z"/>
			<path class="st0" d="M213.9,89.1c0.2-0.6,0.8-1.1,1.2-1.5c0.5-0.6,1-1.2,1.2-2c0.6-1.8,0-4.1-1-5.7c-0.9-1.5-2.2-2.7-3.9-3.3
				c-0.9-0.3-1.8-0.5-2.8-0.5c-0.6,0-2-0.1-2,0.8c0,0.3,1.3,1,1.7,1.3c0.7,0.6,1.4,1.3,2,2.1c1.1,1.8,0.8,3.7,0.2,5.7
				c-0.4,1.4-0.8,2.7-0.6,4.2c0.1,1.4-1.1,8.3-1.8,10.2c-0.7,2-1.7,3.9-2.8,5.7c-2.3,3.7-5.2,6.9-8.3,9.8c-1.5,1.5-5.8,5-6.2,5.5
				c-0.2,0.3-1.8,1.2-2.1,1.2c-1,0.2-1.9,0.3-2.9,0.6c-0.7,0.2-1.4,0.4-2,0.8c-0.5,0.3-0.6,0.8-0.7,1.3c-1,3.1-1.3,6.4-1.7,9.6
				c-0.2,2.1-0.5,4.2-1.1,6.3c-0.6,2.1-4.6,9.6-5.8,11.4c-0.3,0.4-0.5,0.8-0.8,1.2c-0.2,0.3-0.6,1.1-0.9,1.2
				c-0.3,0.1-0.9-0.3-1.2-0.4c-0.5-0.1-1.1-0.2-1.7-0.2c-1.7-0.1-3.4-0.2-5.2-0.2c-2.5,0-17.2,1.1-17.2,1.5c-0.3,1.9-1,6.5-1,6.8
				c0,0.5,18.5,7.4,19.9,7.6c1.3,0.2,2.5,0.4,3.7-0.4c1.1-0.8,2-2,2.6-3.2c0.3-0.4,0.4-1.1,0.8-1.3c0.4-0.3,1-0.4,1.4-0.6
				c1.5-0.5,3.3-0.1,4.6,0.5c0.6,0.3,1.2,0.8,1.8,1.1c0.9,0.4,0.6-0.6,0.5-1.1c-0.6-1.7-1.7-3.2-3-4.4c0.5-0.6,1-1.1,1.5-1.7
				c0.2-0.3,0.4-0.5,0.7-0.8c0.1-0.1,0.2-0.4,0.4-0.5c0.3-0.2,0.1-0.2,0.5-0.2c1.2,0.1,2.3,1,3.2,1.5c0.3,0.2,0.6,0.4,0.8,0
				c0.2-0.3-0.3-1.1-0.4-1.4c-0.2-0.6-0.5-1.1-0.9-1.6c-0.2-0.2-0.3-0.5-0.5-0.7c-0.1-0.1-0.3-0.3-0.3-0.4c-0.1-0.3-0.1-0.2,0.1-0.5
				c0.4-0.6,0.8-1.1,1.2-1.7c0.2-0.3,1-1.8,1.3-1.9c0.4-0.1,1.2,0.5,1.5,0.7c0.4,0.2,0.7,0.6,1.1,0.7c1.3,0.5,0.1-1.9-0.1-2.2
				c-0.1-0.3-0.3-0.6-0.5-0.9c-0.1-0.2-0.4-0.5-0.5-0.7c-0.1-0.5,0.8-1.5,1.1-2c0.4-0.7,0.8-1.3,1.2-2c0.1-0.1,0.3-0.5,0.3-0.5
				c0.1,0,0.2,0.1,0.3,0.1c0.3,0.1,0.6,0.3,0.9,0.5c0.4,0.2,1.9,1.5,1.7,0.2c-0.1-0.5-0.4-1.1-0.6-1.6c-0.2-0.4-0.9-1.3-0.9-1.7
				c0-0.3,0.3-0.6,0.4-0.8c0.2-0.4,0.4-0.7,0.6-1.1c0.4-0.7,0.7-1.4,1-2.2c0-0.1,0.1-0.3,0.2-0.4c0.2-0.2,0.1-0.1,0.3,0
				c0.2,0,0.5,0.2,0.7,0.3c0.5,0.3,0.9,0.7,1.4,0.9c1.3,0.6,0.4-1.4,0.2-1.8c-0.2-0.5-0.5-1.1-0.9-1.5c-0.1-0.2-0.5-0.5-0.6-0.8
				c-0.1-0.3,0.1-0.7,0.2-1c0.2-0.7,0.3-1.4,0.5-2.1c0.1-0.4,0.1-0.7,0.2-1.1c0.1-0.6,0.2-0.5,0.7-0.4c0.7,0.1,1.4,0.4,2,0.7
				c0.5,0.3,1,0.7,1.5,0.9c1.4,0.6,0.2-1.8,0-2.2c-0.7-1.4-1.7-2.6-2.8-3.5c-0.6-0.5-1.2-0.8-1.8-1.2c-0.6-0.4-1.2-0.9-1.9-1.3
				c5.1-2.7,9.9-6.2,13.8-10.5c1.9-2.1,3.6-4.4,5-6.9c1.4-2.5,2.6-5.5,2.8-8.3c0.2-2.8-1.2-5.5-1.9-8.1c0,0,0,0.1,0,0.1
				C213.9,89.4,213.9,89.2,213.9,89.1C214,89,213.9,89.1,213.9,89.1z M169.1,159.8C169.1,159.8,169.1,159.8,169.1,159.8L169.1,159.8
				z"/>
			<g>
				<path class="st0" d="M144,245.3c5.1-1.2,11.1-0.3,16.1,1.1c5.3,1.6,12.7,4.4,11.6,11.2c-0.1,0.9-0.4,1.3-0.1,2.1
					c0.2,0.6,1,1.1,1.4,1.6c0.7,0.8,1.2,1.7,1.8,2.6c1.9,3.2,2.8,6.9,3.5,10.5c0.9,4.3,1.4,8.5,1.8,12.9c0.2,2.3,0.3,4.7,0.4,7
					c0.1,3.4,0.6,7.5-1.4,10.5c-0.1-0.5-0.3-0.9-0.4-1.4c6.6,6.2,13.3,13,18.4,20.4c2.5,3.6,4.5,7.5,5.5,11.8
					c0.9,4.2,1.2,10.7-3.9,12.4c0-0.2,0-0.5,0.1-0.7c6.4,6-3.5,17.1-9.6,10.7c2.5-1.1,4.4-2.2,5.4-4.8c0.6-1.6,0.9-3.4,1.2-5.2
					c0.3-1.7-0.7-2.6-1.2-4.3c-0.5-1.9-0.3-3.9-0.6-5.8c-0.2-1.6-0.6-3.3-1-4.9c-1.3-4.5-3.1-8.8-5.5-12.7
					c-2.6-4.2-5.7-8.1-9.1-11.7c-1.1-1.2-2-2.1-2.9-3.4c-0.9-1.3-2.7-1.9-3.7-3.3c-2-3-1.6-7.9-1.6-11.4c0-2,0.1-4.1,0.1-6.1
					c0.2-7.7-0.2-15.6-3.7-22.8c0.2,0.2-3.9,1.8-6.3,0c-2.4-1.7-4.7-3.6-6.9-5.5C151.9,254.9,143,246.9,144,245.3z"/>
			</g>
		</g>
		<g>
			<path class="st0" d="M0,260.2c-0.3,2.9,1.4,5.4,3.9,6.7c0.6,0.3,2.8,1.5,3,0.4c0.1-0.7-1.4-2.2-1.7-2.8c-0.5-0.9-1-1.9-0.9-2.9
				c0.1-1.1,0.8-2.1,1.5-3c1-1.4,2.2-2.7,3-4.2c0.6-1.1,1-2.3,1.6-3.4c0.7-1.3,1.6-2.5,2.5-3.6c3.9-4.7,8.7-8.5,13.7-12
				c2.5-1.8,5.1-3.4,7.8-5c2.5-1.5,5.1-2.9,7.4-4.8c0.8-0.6,1.5-1.3,2.1-2c0.3-0.4,0.8-0.6,1.2-0.7c1.4-0.3,2.9-1,3.9-2.1
				c0.5-0.5,0.7-1.1,1-1.7c1.6-4.6,3.1-9.3,4.1-14.1c1-4.6,2.1-9.2,2.8-13.9c0.2-1.1,0.4-4.1,0.6-4.4c0.2-0.4,11.9-0.7,12.2-1.2
				c0.2-0.4,0.3-5.4,0.1-5.8c-0.2-0.5-7.3-2.8-16.8-1.1c-0.9,0.2-1.6,0.8-1.8,1.7c-1.6,5.8-7.1,27.8-9.2,35.7
				c-0.2,0.6-0.3,1.1-0.4,1.7c-0.2,0.7-0.3,1.4-0.4,2.1c0,0.2,0,0.8-0.1,1c-0.2,0.3-0.4,0.2-0.9,0.3c-1.8,0.2-3.7,0.8-5.3,1.6
				c-2.6,1.2-5.1,3-7.4,4.6c-2.5,1.7-4.9,3.6-7.3,5.5c-4.6,3.8-8.9,8.4-11.7,13.7c-0.7,1.4-1.4,2.8-1.8,4.3
				c-0.2,0.6-0.2,1.3-0.4,1.9c-0.2,0.5-0.2,0.4-0.8,0.7c-0.3,0.1-0.6,0.3-0.9,0.5C2.4,255,0.3,257.4,0,260.2
				C0,260.7,0.1,259.7,0,260.2z M58,182.9C58,182.9,58,182.9,58,182.9L58,182.9z"/>
			<path class="st0" d="M5.8,89.1c0.1,0.1,0.1,0.3,0,0.4c0,0,0-0.1,0-0.1c-0.7,2.7-2.1,5.3-1.9,8.1c0.2,2.9,1.4,5.8,2.8,8.3
				c1.3,2.5,3.1,4.8,5,6.9c4,4.2,8.7,7.8,13.8,10.5c-0.7,0.4-1.2,0.9-1.9,1.3c-0.6,0.4-1.2,0.8-1.8,1.2c-1.2,1-2.2,2.2-2.8,3.5
				c-0.2,0.4-1.4,2.8,0,2.2c0.5-0.2,1-0.7,1.5-0.9c0.6-0.3,1.3-0.6,2-0.7c0.6-0.1,0.6-0.2,0.7,0.4c0.1,0.4,0.1,0.7,0.2,1.1
				c0.1,0.7,0.3,1.4,0.5,2.1c0.1,0.3,0.3,0.7,0.2,1c-0.1,0.2-0.4,0.6-0.6,0.8c-0.3,0.5-0.6,1-0.9,1.5c-0.2,0.4-1.1,2.4,0.2,1.8
				c0.5-0.2,0.9-0.6,1.4-0.9c0.2-0.1,0.5-0.3,0.7-0.3c0.3-0.1,0.2-0.1,0.3,0c0.1,0.1,0.1,0.3,0.2,0.4c0.3,0.7,0.6,1.5,1,2.2
				c0.2,0.4,0.4,0.7,0.6,1.1c0.1,0.2,0.4,0.6,0.4,0.8c0.1,0.4-0.7,1.3-0.9,1.7c-0.2,0.5-0.6,1.1-0.6,1.6c-0.2,1.3,1.3,0,1.7-0.2
				c0.3-0.2,0.6-0.4,0.9-0.5c0.1,0,0.2-0.1,0.3-0.1c0.1,0,0.3,0.5,0.3,0.5c0.4,0.7,0.8,1.3,1.2,2c0.3,0.5,1.2,1.5,1.1,2
				c0,0.2-0.4,0.5-0.5,0.7c-0.2,0.3-0.3,0.6-0.5,0.9c-0.2,0.4-1.3,2.7-0.1,2.2c0.4-0.1,0.7-0.5,1.1-0.7c0.3-0.2,1.1-0.8,1.5-0.7
				c0.3,0,1.1,1.5,1.3,1.9c0.4,0.6,0.8,1.2,1.2,1.7c0.2,0.3,0.2,0.3,0.1,0.5c-0.1,0.1-0.2,0.3-0.3,0.4c-0.2,0.2-0.3,0.5-0.5,0.7
				c-0.3,0.5-0.6,1.1-0.9,1.6c-0.1,0.3-0.6,1.1-0.4,1.4c0.2,0.4,0.5,0.2,0.8,0c0.9-0.6,2-1.5,3.2-1.5c0.3,0,0.2,0,0.5,0.2
				c0.1,0.1,0.3,0.4,0.4,0.5c0.2,0.3,0.4,0.5,0.7,0.8c0.5,0.6,1,1.2,1.5,1.7c-1.3,1.2-2.4,2.7-3,4.4c-0.2,0.4-0.5,1.5,0.5,1.1
				c0.6-0.3,1.2-0.8,1.8-1.1c1.4-0.6,3.2-1,4.6-0.5c0.4,0.1,1.1,0.3,1.4,0.6c0.4,0.3,0.6,0.9,0.8,1.3c0.7,1.2,1.5,2.4,2.6,3.2
				c1.2,0.8,2.4,0.6,3.7,0.4c1.4-0.2,19.9-7.1,19.9-7.6c0-0.3-0.7-4.9-1-6.8c-0.1-0.4-14.8-1.5-17.2-1.5c-1.7,0-3.5,0.1-5.2,0.2
				c-0.6,0-1.1,0.1-1.7,0.2c-0.4,0.1-1,0.5-1.2,0.4c-0.3-0.2-0.7-0.9-0.9-1.2c-0.3-0.4-0.6-0.8-0.8-1.2c-1.2-1.7-5.2-9.3-5.8-11.4
				c-0.6-2-0.9-4.2-1.1-6.3c-0.3-3.3-0.6-6.5-1.7-9.6c-0.2-0.5-0.3-1-0.7-1.3c-0.6-0.4-1.4-0.6-2-0.8c-0.9-0.2-1.9-0.4-2.9-0.6
				c-0.3,0-1.9-1-2.1-1.2c-0.4-0.5-4.6-4-6.2-5.5c-3.1-3-6-6.2-8.3-9.8c-1.1-1.8-2.1-3.7-2.8-5.7c-0.7-2-1.9-8.8-1.8-10.2
				c0.1-1.5-0.2-2.8-0.6-4.2c-0.6-1.9-0.9-3.9,0.2-5.7c0.5-0.8,1.2-1.5,2-2.1c0.4-0.3,1.7-1,1.7-1.3c0-0.9-1.4-0.8-2-0.8
				c-0.9,0-1.9,0.2-2.8,0.5c-1.6,0.6-3,1.8-3.9,3.3c-0.9,1.6-1.5,3.8-1,5.7c0.2,0.8,0.7,1.4,1.2,2C5,88,5.6,88.5,5.8,89.1
				C5.8,89.1,5.7,89,5.8,89.1z M50.7,159.8C50.7,159.8,50.7,159.8,50.7,159.8L50.7,159.8z"/>
			<g>
				<path class="st0" d="M75.1,245.3C70,244.1,64,245,59,246.5c-5.3,1.6-12.7,4.4-11.6,11.2c0.1,0.9,0.4,1.3,0.1,2.1
					c-0.2,0.6-1,1.1-1.4,1.6c-0.7,0.8-1.2,1.7-1.8,2.6c-1.9,3.2-2.8,6.9-3.5,10.5c-0.9,4.3-1.4,8.5-1.8,12.9c-0.2,2.3-0.3,4.7-0.4,7
					c-0.1,3.4-0.6,7.5,1.4,10.5c0.1-0.5,0.3-0.9,0.4-1.4c-6.6,6.2-13.3,13-18.4,20.4c-2.5,3.6-4.5,7.5-5.5,11.8
					c-0.9,4.2-1.2,10.7,3.9,12.4c0-0.2,0-0.5-0.1-0.7c-6.4,6,3.5,17.1,9.6,10.7c-2.5-1.1-4.4-2.2-5.4-4.8c-0.6-1.6-0.9-3.4-1.2-5.2
					c-0.3-1.7,0.7-2.6,1.2-4.3c0.5-1.9,0.3-3.9,0.6-5.8c0.2-1.6,0.6-3.3,1-4.9c1.3-4.5,3.1-8.8,5.5-12.7c2.6-4.2,5.7-8.1,9.1-11.7
					c1.1-1.2,2-2.1,2.9-3.4c0.9-1.3,2.7-1.9,3.7-3.3c2-3,1.6-7.9,1.6-11.4c0-2-0.1-4.1-0.1-6.1c-0.2-7.7,0.2-15.6,3.7-22.8
					c-0.2,0.2,3.9,1.8,6.3,0c2.4-1.7,4.7-3.6,6.9-5.5C67.3,254.9,76.2,246.9,75.1,245.3z"/>
			</g>
		</g>
	</g>
	<g>
		<g>
			<path class="st1" d="M109,182c0,0,0,119.9,0,123c0,3.2-1.7,7.7-1.7,7.7s-44.6-2.9-48.1-74.6c-1.4-28.1-0.4-56.2,2.4-61.1
				c1.4-2.4,4.2-5.5,4.2-5.5S91,169.8,109,182z"/>
			<path class="st2" d="M104,305.1c0,1.1-1.1,1.9-2.2,1.6c-3.9-1.3-9.3-3.7-14.7-8.4c-13.8-11.9-21.8-32.7-23.1-60.4
				c-1.5-31.1,0.1-55,1.9-58.6c0.5-0.9,1.5-2.2,2.3-3.2c0.2,0,0.4,0,0.6,0c6.6,0,22.6,0.9,35.3,8.5L104,305.1
				C104,305.1,104,305.1,104,305.1z"/>
			<path class="st3" d="M99.2,292.6c0,2.6-2.9,4.2-5.1,2.7c-1.3-0.9-2.7-1.9-4-3c-12.8-11-20.2-30.7-21.5-57
				c-1.5-30.4,0.1-52.4,1.4-56.2c0.1-0.2,0.2-0.4,0.4-0.6c6.3,0.1,18.5,1.2,28.8,6.5V292.6z"/>
			<path class="st4" d="M96,280.3c0,2.5-3.3,3.4-4.5,1.2c-5.9-10.3-15.6-29.9-16.5-47.3c-1.2-25.7-0.3-44.5,0.6-51.6
				c5.6,0.4,13.3,1.5,20.4,4.6V280.3z"/>
		</g>
		<g>
			<path class="st1" d="M110,182c0,0,0,119.9,0,123c0,3.2,1.7,7.7,1.7,7.7s44.6-2.9,48.1-74.6c1.4-28.1,0.4-56.2-2.4-61.1
				c-1.4-2.4-4.2-5.5-4.2-5.5S128,169.8,110,182z"/>
			<path class="st2" d="M115.1,305.1c0,1.1,1.1,1.9,2.2,1.6c3.9-1.3,9.3-3.7,14.7-8.4c13.8-11.9,21.8-32.7,23.1-60.4
				c1.5-31.1-0.1-55-1.9-58.6c-0.5-0.9-1.5-2.2-2.3-3.2c-0.2,0-0.4,0-0.6,0c-6.6,0-22.6,0.9-35.3,8.5L115.1,305.1
				C115.1,305.1,115.1,305.1,115.1,305.1z"/>
			<path class="st3" d="M119.9,292.6c0,2.6,2.9,4.2,5.1,2.7c1.3-0.9,2.7-1.9,4-3c12.8-11,20.2-30.7,21.5-57
				c1.5-30.4-0.1-52.4-1.4-56.2c-0.1-0.2-0.2-0.4-0.4-0.6c-6.3,0.1-18.5,1.2-28.8,6.5V292.6z"/>
			<path class="st4" d="M123,280.3c0,2.5,3.3,3.4,4.5,1.2c5.9-10.3,15.6-29.9,16.5-47.3c1.2-25.7,0.3-44.5-0.6-51.6
				c-5.6,0.4-13.3,1.5-20.4,4.6V280.3z"/>
		</g>
	</g>
	<path class="st2" d="M161.1,122.2c-5.5-8.9-16.3-8.7-16.8-8.7c-8-2.6-20-5.6-34.8-5.6c-8.4,0-20.7,0.9-34.8,5.6
		c-0.5,0-11.3-0.1-16.8,8.7c-4.3,7-3.5,16.4,2.4,23c-0.8,1.8-2.7,6.8-1.6,13c1.4,7.7,5.6,12.1,7.1,13.2c5.8,0.8,12.7,2,19.2,3.4
		c9.1,2.1,17.3,5.3,24.6,7.9c7.3-2.6,15.6-5.8,24.6-7.9c6.5-1.5,13.4-2.6,19.1-3.4c1.4-1.1,5.7-5.6,7.1-13.2
		c1.1-6.2-0.8-11.1-1.6-13C164.6,138.6,165.5,129.2,161.1,122.2z"/>
	<path class="st1" d="M109.5,177c-7.7-2.7-15.6-4.9-23.5-6.7c-5.7-1.3-11.6-2.4-17.4-3.3c-1.7-1.7-4.4-4.9-5.3-9.6
		c-0.8-4.5,0.4-8.3,1.3-10.2l1.3-2.8l-2-2.3c-4.4-5-5.2-12.1-1.9-17.4c3.9-6.3,11.7-6.5,12.6-6.5l0.8,0l0.8-0.3
		c10.8-3.5,22-5.3,33.3-5.3s22.5,1.8,33.3,5.3l0.8,0.3l0.8,0c0.9,0,8.7,0.2,12.6,6.5c3.3,5.2,2.5,12.4-1.9,17.4l-2,2.3l1.3,2.8
		c0.8,1.8,2.1,5.6,1.3,10.2c-0.9,4.7-3.5,7.9-5.3,9.6c-5.8,0.9-11.7,2-17.4,3.3C125.1,172.1,117.2,174.3,109.5,177z"/>
</g>
</svg>
