<svg xmlns="http://www.w3.org/2000/svg" width="219.2" height="360" viewBox="0 0 219.2 360" enable-background="new 0 0 219.2 360">
 <g fill="#2f2d28">
  <path d="m156.6 176.9c-1.4-2.3-4.1-5.5-4.1-5.5s-25.3-1.6-43 10.5c-17.7-12.1-43-10.5-43-10.5s-2.7 3.2-4.1 5.5c-2.9 4.9-3.8 32.5-2.5 60.4 3.5 71.1 48 73.7 48 73.7h3.2c0 0 44.5-2.6 48-73.7 1.3-27.8.4-55.5-2.5-60.4"/>
  <path d="m171 69.9c.1.5-.1-.6 0 0"/>
  <path d="m171 69.9c-.4-2-1.2-3.9-2.2-5.7.7 1.9 1.3 4.1 1.1 6.2-.4-1.7-1.2-3.3-2-4.7.7 1.9 1.3 4.1 1.1 6.2-.4-1.7-1.2-3.3-2-4.7.7 1.9 1.3 4.1 1.1 6.2-.4-1.7-1.2-3.3-2-4.7.7 1.9 1.3 4.1 1.1 6.2-.4-1.7-1.2-3.3-2-4.7.7 1.9 1.3 4.1 1.1 6.2-.4-1.7-1.2-3.3-2-4.7.7 1.9 1.3 4.1 1.1 6.2-.4-1.7-1.2-3.3-2-4.7.3.8.5 1.7.7 2.6.3 1.3.6 2.9.3 4.2-.2.6-.7 1-1.1 1.4-.6.6-1.1 1.2-1.7 1.7-1.1 1.1-8.3 7.3-10.9 9.1-.6.4-1.2.9-1.8 1.3-.4.3-.5.2-1 0-.4-.1-.8-.3-1.3-.3-.6-.1-10.5-2.1-14.9-2.9-1.7-.3-3.3-.6-5-.8-.3 0-1.8-.4-1.4.4.2.4 1.2.5 1.6.7 2.8 1 5.7 1.9 8.5 2.8 2.1.7 8.2 2.5 9.1 2.8 1.5.5 3.3 1.1 4.9.5.3-.1.6-.4.8-.6.6-.5 1.3-1 1.9-1.5.6-.5 1.3-1 1.9-1.5 1.9-1.5 3.7-3.2 5.5-4.8 2.2-2 4.3-4.2 6.2-6.5 1.9-2.3 3.7-4.7 4.8-7.5.4-1.5.9-3 .5-4.4"/>
  <path d="m48.7 69.9c-.1.5.1-.6 0 0"/>
  <path d="m48.7 69.9c.4-2 1.2-3.9 2.2-5.7-.7 1.9-1.3 4.1-1.1 6.2.4-1.7 1.2-3.3 2-4.7-.7 1.9-1.3 4.1-1.1 6.2.4-1.7 1.2-3.3 2-4.7-.7 1.9-1.3 4.1-1.1 6.2.4-1.7 1.2-3.3 2-4.7-.7 1.9-1.3 4.1-1.1 6.2.4-1.7 1.2-3.3 2-4.7-.7 1.9-1.3 4.1-1.1 6.2.4-1.7 1.2-3.3 2-4.7-.7 1.9-1.3 4.1-1.1 6.2.4-1.7 1.2-3.3 2-4.7-.3.8-.5 1.7-.7 2.6-.3 1.3-.6 2.9-.3 4.2.2.6.7 1 1.1 1.4.6.6 1.1 1.2 1.7 1.7 1.1 1.1 8.3 7.3 10.9 9.1.6.4 1.2.9 1.8 1.3.4.3.5.2 1 0 .4-.1.8-.3 1.3-.3.6-.1 10.5-2.1 14.9-2.9 1.7-.3 3.3-.6 5-.8.3 0 1.8-.4 1.4.4-.2.4-1.2.5-1.6.7-2.8 1-5.7 1.9-8.5 2.8-2.1.7-8.2 2.5-9.1 2.8-1.5.5-3.3 1.1-4.9.5-.3-.1-.6-.4-.8-.6-.6-.5-1.3-1-1.9-1.5-.6-.5-1.3-1-1.9-1.5-1.9-1.5-3.7-3.2-5.5-4.8-2.2-2-4.3-4.2-6.2-6.5-1.9-2.3-3.7-4.7-4.8-7.5-.4-1.5-.9-3-.5-4.4"/>
  <path d="m89 74.9c-.5.5-1 .9-1.5 1.2-5.1-17.6-14.2-21.2-27-49.6-1-2.2-2-4.7-3-7.6 2.4-6.2 7.5-11.2 7.5-11.2-3.1.1-6.5 2.1-9.3 4.4-.8-3.6-1.3-7.6-1.5-12.1-1 1-8 5.2-6.1 17.2.7 4.9 19.9 51.5 30.6 61.9-3.7.2-4.2.2-4.2.2 3.8 9.8 15.3 11.7 15.3 11.7l5.8-2c.1-7-6.6-14.1-6.6-14.1"/>
  <path d="m130.7 74.9c.5.5 1 .9 1.5 1.2 5.1-17.6 14.2-21.2 27-49.6 1-2.2 2-4.7 3-7.6-2.4-6.2-7.4-11.1-7.4-11.1 3.1.1 6.5 2.1 9.3 4.4.8-3.6 1.3-7.6 1.5-12.1 1 1 8 5.2 6.1 17.2-.7 4.9-19.9 51.5-30.6 61.9 3.7.2 4.2.2 4.2.2-3.8 9.9-15.3 11.8-15.3 11.8l-5.8-2c-.1-7.2 6.5-14.3 6.5-14.3"/>
  <path d="m97.3 100.9c0 5-4.4 9.9-8.8 9.9s-7.2-2.5-7.2-9.9c0-5 5.2-9.9 9.6-9.9s6.4 5 6.4 9.9"/>
  <path d="m121.9 100.9c0 5 4.4 9.9 8.8 9.9 4.4 0 7.2-2.5 7.2-9.9 0-5-5.2-9.9-9.6-9.9-4.4 0-6.4 5-6.4 9.9"/>
 </g>
 <path d="m136.5 108.8c0 0-8.5-.6-8.5-8 0-3.9 1.4-6.4 2.8-7.9 1.1-1.2.9-3-.4-4l-4.2-3c-1.1-.8-2.5-1-3.8-.5-2.7 1.1-7.8 2.8-12.8 2.8-4.9 0-10-1.8-12.8-2.8-1.3-.5-2.7-.3-3.8.5l-4.2 3c-1.3.9-1.5 2.8-.4 4 1.4 1.5 2.8 4 2.8 7.9 0 7.4-8.5 8-8.5 8-6.6 3.4-3.9 6.4-3.9 6.4l30.8.1 30.8-.1c0 0 2.6-3-3.9-6.4" fill="#829d5e"/>
 <g fill="#2f2d28">
  <path d="m219.2 260.2c-.3-2.8-2.4-5.2-4.7-6.6-.3-.2-.6-.3-.9-.5-.5-.3-.6-.1-.8-.7-.2-.6-.3-1.3-.4-1.9-.4-1.5-1.1-2.9-1.8-4.3-2.8-5.3-7.1-9.9-11.7-13.7-2.3-2-4.8-3.8-7.3-5.5-2.4-1.6-4.8-3.4-7.4-4.6-1.7-.8-3.5-1.4-5.3-1.6-.4 0-.7.1-.9-.3-.1-.2-.1-.8-.1-1-.1-.7-.2-1.4-.4-2.1-.1-.6-.3-1.1-.4-1.7-2.1-7.9-7.5-30-9.2-35.7-.2-.9-1-1.5-1.8-1.7-9.4-1.8-16.5.6-16.8 1.1-.2.4-.1 5.4.1 5.8.3.5 12 .8 12.2 1.2.1.3.4 3.3.6 4.4.7 4.7 1.7 9.3 2.8 13.9 1.1 4.8 2.5 9.5 4.1 14.1.2.6.5 1.2 1 1.7 1 1.1 2.5 1.8 3.9 2.1.5.1.9.3 1.2.7.6.7 1.3 1.4 2.1 2 2.3 1.9 4.8 3.3 7.4 4.8 2.7 1.6 5.3 3.2 7.8 5 5 3.5 9.8 7.3 13.7 12 .9 1.1 1.8 2.4 2.5 3.6.6 1.1 1 2.3 1.6 3.4.8 1.5 2 2.8 3 4.2.6.9 1.4 1.9 1.5 3 .1 1.1-.4 2.1-.9 2.9-.4.7-1.9 2.2-1.7 2.8.2 1.1 2.4-.1 3-.4 2.6-1 4.3-3.5 4-6.4m-57.5-77.3c0 0 0 0 0 0"/>
  <path d="m213.9 89.1c.2-.6.8-1.1 1.2-1.5.5-.6 1-1.2 1.2-2 .6-1.8 0-4.1-1-5.7-.9-1.5-2.2-2.7-3.9-3.3-.9-.3-1.8-.5-2.8-.5-.6 0-2-.1-2 .8 0 .3 1.3 1 1.7 1.3.7.6 1.4 1.3 2 2.1 1.1 1.8.8 3.7.2 5.7-.4 1.4-.8 2.7-.6 4.2.1 1.4-1.1 8.3-1.8 10.2-.7 2-1.7 3.9-2.8 5.7-2.3 3.7-5.2 6.9-8.3 9.8-1.5 1.5-5.8 5-6.2 5.5-.2.3-1.8 1.2-2.1 1.2-1 .2-1.9.3-2.9.6-.7.2-1.4.4-2 .8-.5.3-.6.8-.7 1.3-1 3.1-1.3 6.4-1.7 9.6-.2 2.1-.5 4.2-1.1 6.3-.6 2.1-4.6 9.6-5.8 11.4-.3.4-.5.8-.8 1.2-.2.3-.6 1.1-.9 1.2-.3.1-.9-.3-1.2-.4-.5-.1-1.1-.2-1.7-.2-1.7-.1-3.4-.2-5.2-.2-2.5 0-17.2 1.1-17.2 1.5-.3 1.9-1 6.5-1 6.8 0 .5 18.5 7.4 19.9 7.6 1.3.2 2.5.4 3.7-.4 1.1-.8 2-2 2.6-3.2.3-.4.4-1.1.8-1.3.4-.3 1-.4 1.4-.6 1.5-.5 3.3-.1 4.6.5.6.3 1.2.8 1.8 1.1.9.4.6-.6.5-1.1-.6-1.7-1.7-3.2-3-4.4.5-.6 1-1.1 1.5-1.7.2-.3.4-.5.7-.8.1-.1.2-.4.4-.5.3-.2.1-.2.5-.2 1.2.1 2.3 1 3.2 1.5.3.2.6.4.8 0 .2-.3-.3-1.1-.4-1.4-.2-.6-.5-1.1-.9-1.6-.2-.2-.3-.5-.5-.7-.1-.1-.3-.3-.3-.4-.1-.3-.1-.2.1-.5.4-.6.8-1.1 1.2-1.7.2-.3 1-1.8 1.3-1.9.4-.1 1.2.5 1.5.7.4.2.7.6 1.1.7 1.3.5.1-1.9-.1-2.2-.1-.3-.3-.6-.5-.9-.1-.2-.4-.5-.5-.7-.1-.5.8-1.5 1.1-2 .4-.7.8-1.3 1.2-2 .1-.1.3-.5.3-.5.1 0 .2.1.3.1.3.1.6.3.9.5.4.2 1.9 1.5 1.7.2-.1-.5-.4-1.1-.6-1.6-.2-.4-.9-1.3-.9-1.7 0-.3.3-.6.4-.8.2-.4.4-.7.6-1.1.4-.7.7-1.4 1-2.2 0-.1.1-.3.2-.4.2-.2.1-.1.3 0 .2 0 .5.2.7.3.5.3.9.7 1.4.9 1.3.6.4-1.4.2-1.8-.2-.5-.5-1.1-.9-1.5-.1-.2-.5-.5-.6-.8-.1-.3.1-.7.2-1 .2-.7.3-1.4.5-2.1.1-.4.1-.7.2-1.1.1-.6.2-.5.7-.4.7.1 1.4.4 2 .7.5.3 1 .7 1.5.9 1.4.6.2-1.8 0-2.2-.7-1.4-1.7-2.6-2.8-3.5-.6-.5-1.2-.8-1.8-1.2-.6-.4-1.2-.9-1.9-1.3 5.1-2.7 9.9-6.2 13.8-10.5 1.9-2.1 3.6-4.4 5-6.9 1.4-2.5 2.6-5.5 2.8-8.3.2-2.8-1.2-5.5-1.9-8.1 0 0 0 .1 0 .1.4.3.4.1.4 0m-44.8 70.7c0 0 0 0 0 0"/>
  <path d="m144 245.3c5.1-1.2 11.1-.3 16.1 1.1 5.3 1.6 12.7 4.4 11.6 11.2-.1.9-.4 1.3-.1 2.1.2.6 1 1.1 1.4 1.6.7.8 1.2 1.7 1.8 2.6 1.9 3.2 2.8 6.9 3.5 10.5.9 4.3 1.4 8.5 1.8 12.9.2 2.3.3 4.7.4 7 .1 3.4.6 7.5-1.4 10.5-.1-.5-.3-.9-.4-1.4 6.6 6.2 13.3 13 18.4 20.4 2.5 3.6 4.5 7.5 5.5 11.8.9 4.2 1.2 10.7-3.9 12.4 0-.2 0-.5.1-.7 6.4 6-3.5 17.1-9.6 10.7 2.5-1.1 4.4-2.2 5.4-4.8.6-1.6.9-3.4 1.2-5.2.3-1.7-.7-2.6-1.2-4.3-.5-1.9-.3-3.9-.6-5.8-.2-1.6-.6-3.3-1-4.9-1.3-4.5-3.1-8.8-5.5-12.7-2.6-4.2-5.7-8.1-9.1-11.7-1.1-1.2-2-2.1-2.9-3.4-.9-1.3-2.7-1.9-3.7-3.3-2-3-1.6-7.9-1.6-11.4 0-2 .1-4.1.1-6.1.2-7.7-.2-15.6-3.7-22.8.2.2-3.9 1.8-6.3 0-2.4-1.7-4.7-3.6-6.9-5.5-1.5-1.2-10.4-9.2-9.4-10.8"/>
  <path d="m0 260.2c-.3 2.9 1.4 5.4 3.9 6.7.6.3 2.8 1.5 3 .4.1-.7-1.4-2.2-1.7-2.8-.5-.9-1-1.9-.9-2.9.1-1.1.8-2.1 1.5-3 1-1.4 2.2-2.7 3-4.2.6-1.1 1-2.3 1.6-3.4.7-1.3 1.6-2.5 2.5-3.6 3.9-4.7 8.7-8.5 13.7-12 2.5-1.8 5.1-3.4 7.8-5 2.5-1.5 5.1-2.9 7.4-4.8.8-.6 1.5-1.3 2.1-2 .3-.4.8-.6 1.2-.7 1.4-.3 2.9-1 3.9-2.1.5-.5.7-1.1 1-1.7 1.6-4.6 3.1-9.3 4.1-14.1 1-4.6 2.1-9.2 2.8-13.9.2-1.1.4-4.1.6-4.4.2-.4 11.9-.7 12.2-1.2.2-.4.3-5.4.1-5.8-.2-.5-7.3-2.8-16.8-1.1-.9.2-1.6.8-1.8 1.7-1.6 5.8-7.1 27.8-9.2 35.7-.2.6-.3 1.1-.4 1.7-.2.7-.3 1.4-.4 2.1 0 .2 0 .8-.1 1-.2.3-.4.2-.9.3-1.8.2-3.7.8-5.3 1.6-2.6 1.2-5.1 3-7.4 4.6-2.5 1.7-4.9 3.6-7.3 5.5-4.6 3.8-8.9 8.4-11.7 13.7-.7 1.4-1.4 2.8-1.8 4.3-.2.6-.2 1.3-.4 1.9-.2.5-.2.4-.8.7-.3.1-.6.3-.9.5-2.2 1.1-4.3 3.5-4.6 6.3m58-77.3c0 0 0 0 0 0"/>
  <path d="m5.8 89.1c.1.1.1.3 0 .4 0 0 0-.1 0-.1-.7 2.7-2.1 5.3-1.9 8.1.2 2.9 1.4 5.8 2.8 8.3 1.3 2.5 3.1 4.8 5 6.9 4 4.2 8.7 7.8 13.8 10.5-.7.4-1.2.9-1.9 1.3-.6.4-1.2.8-1.8 1.2-1.2 1-2.2 2.2-2.8 3.5-.2.4-1.4 2.8 0 2.2.5-.2 1-.7 1.5-.9.6-.3 1.3-.6 2-.7.6-.1.6-.2.7.4.1.4.1.7.2 1.1.1.7.3 1.4.5 2.1.1.3.3.7.2 1-.1.2-.4.6-.6.8-.3.5-.6 1-.9 1.5-.2.4-1.1 2.4.2 1.8.5-.2.9-.6 1.4-.9.2-.1.5-.3.7-.3.3-.1.2-.1.3 0 .1.1.1.3.2.4.3.7.6 1.5 1 2.2.2.4.4.7.6 1.1.1.2.4.6.4.8.1.4-.7 1.3-.9 1.7-.2.5-.6 1.1-.6 1.6-.2 1.3 1.3 0 1.7-.2.3-.2.6-.4.9-.5.1 0 .2-.1.3-.1.1 0 .3.5.3.5.4.7.8 1.3 1.2 2 .3.5 1.2 1.5 1.1 2 0 .2-.4.5-.5.7-.2.3-.3.6-.5.9-.2.4-1.3 2.7-.1 2.2.4-.1.7-.5 1.1-.7.3-.2 1.1-.8 1.5-.7.3 0 1.1 1.5 1.3 1.9.4.6.8 1.2 1.2 1.7.2.3.2.3.1.5-.1.1-.2.3-.3.4-.2.2-.3.5-.5.7-.3.5-.6 1.1-.9 1.6-.1.3-.6 1.1-.4 1.4.2.4.5.2.8 0 .9-.6 2-1.5 3.2-1.5.3 0 .2 0 .5.2.1.1.3.4.4.5.2.3.4.5.7.8.5.6 1 1.2 1.5 1.7-1.3 1.2-2.4 2.7-3 4.4-.2.4-.5 1.5.5 1.1.6-.3 1.2-.8 1.8-1.1 1.4-.6 3.2-1 4.6-.5.4.1 1.1.3 1.4.6.4.3.6.9.8 1.3.7 1.2 1.5 2.4 2.6 3.2 1.2.8 2.4.6 3.7.4 1.4-.2 19.9-7.1 19.9-7.6 0-.3-.7-4.9-1-6.8-.1-.4-14.8-1.5-17.2-1.5-1.7 0-3.5.1-5.2.2-.6 0-1.1.1-1.7.2-.4.1-1 .5-1.2.4-.3-.2-.7-.9-.9-1.2-.3-.4-.6-.8-.8-1.2-1.2-1.7-5.2-9.3-5.8-11.4-.6-2-.9-4.2-1.1-6.3-.3-3.3-.6-6.5-1.7-9.6-.2-.5-.3-1-.7-1.3-.6-.4-1.4-.6-2-.8-.9-.2-1.9-.4-2.9-.6-.3 0-1.9-1-2.1-1.2-.4-.5-4.6-4-6.2-5.5-3.1-3-6-6.2-8.3-9.8-1.1-1.8-2.1-3.7-2.8-5.7-.7-2-1.9-8.8-1.8-10.2.1-1.5-.2-2.8-.6-4.2-.6-1.9-.9-3.9.2-5.7.5-.8 1.2-1.5 2-2.1.4-.3 1.7-1 1.7-1.3 0-.9-1.4-.8-2-.8-.9 0-1.9.2-2.8.5-1.6.6-3 1.8-3.9 3.3-.9 1.6-1.5 3.8-1 5.7.2.8.7 1.4 1.2 2 .8 0 1.4.5 1.6 1.1m44.9 70.7c0 0 0 0 0 0"/>
  <path d="m75.1 245.3c-5.1-1.2-11.1-.3-16.1 1.2-5.3 1.6-12.7 4.4-11.6 11.2.1.9.4 1.3.1 2.1-.2.6-1 1.1-1.4 1.6-.7.8-1.2 1.7-1.8 2.6-1.9 3.2-2.8 6.9-3.5 10.5-.9 4.3-1.4 8.5-1.8 12.9-.2 2.3-.3 4.7-.4 7-.1 3.4-.6 7.5 1.4 10.5.1-.5.3-.9.4-1.4-6.6 6.2-13.3 13-18.4 20.4-2.5 3.6-4.5 7.5-5.5 11.8-.9 4.2-1.2 10.7 3.9 12.4 0-.2 0-.5-.1-.7-6.4 6 3.5 17.1 9.6 10.7-2.5-1.1-4.4-2.2-5.4-4.8-.6-1.6-.9-3.4-1.2-5.2-.3-1.7.7-2.6 1.2-4.3.5-1.9.3-3.9.6-5.8.2-1.6.6-3.3 1-4.9 1.3-4.5 3.1-8.8 5.5-12.7 2.6-4.2 5.7-8.1 9.1-11.7 1.1-1.2 2-2.1 2.9-3.4.9-1.3 2.7-1.9 3.7-3.3 2-3 1.6-7.9 1.6-11.4 0-2-.1-4.1-.1-6.1-.2-7.7.2-15.6 3.7-22.8-.2.2 3.9 1.8 6.3 0 2.4-1.7 4.7-3.6 6.9-5.5 1.6-1.3 10.5-9.3 9.4-10.9"/>
 </g>
 <path d="m109 182c0 0 0 119.9 0 123 0 3.2-1.7 7.7-1.7 7.7s-44.6-2.9-48.1-74.6c-1.4-28.1-.4-56.2 2.4-61.1 1.4-2.4 4.2-5.5 4.2-5.5s25.2-1.7 43.2 10.5" fill="#829d5e"/>
 <path d="m104 305.1c0 1.1-1.1 1.9-2.2 1.6-3.9-1.3-9.3-3.7-14.7-8.4-13.8-11.9-21.8-32.7-23.1-60.4-1.5-31.1.1-55 1.9-58.6.5-.9 1.5-2.2 2.3-3.2.2 0 .4 0 .6 0 6.6 0 22.6.9 35.3 8.5l-.1 120.5c0 0 0 0 0 0" fill="#4a8f5b"/>
 <path d="m99.2 292.6c0 2.6-2.9 4.2-5.1 2.7-1.3-.9-2.7-1.9-4-3-12.8-11-20.2-30.7-21.5-57-1.5-30.4.1-52.4 1.4-56.2.1-.2.2-.4.4-.6 6.3.1 18.5 1.2 28.8 6.5v107.6" fill="#9c5d60"/>
 <path d="m96 280.3c0 2.5-3.3 3.4-4.5 1.2-5.9-10.3-15.6-29.9-16.5-47.3-1.2-25.7-.3-44.5.6-51.6 5.6.4 13.3 1.5 20.4 4.6v93.1" fill="#b6965a"/>
 <path d="m110 182c0 0 0 119.9 0 123 0 3.2 1.7 7.7 1.7 7.7s44.6-2.9 48.1-74.6c1.4-28.1.4-56.2-2.4-61.1-1.4-2.4-4.2-5.5-4.2-5.5s-25.2-1.7-43.2 10.5" fill="#829d5e"/>
 <path d="m115.1 305.1c0 1.1 1.1 1.9 2.2 1.6 3.9-1.3 9.3-3.7 14.7-8.4 13.8-11.9 21.8-32.7 23.1-60.4 1.5-31.1-.1-55-1.9-58.6-.5-.9-1.5-2.2-2.3-3.2-.2 0-.4 0-.6 0-6.6 0-22.6.9-35.3 8.5l.1 120.5c0 0 0 0 0 0" fill="#4a8f5b"/>
 <path d="m119.9 292.6c0 2.6 2.9 4.2 5.1 2.7 1.3-.9 2.7-1.9 4-3 12.8-11 20.2-30.7 21.5-57 1.5-30.4-.1-52.4-1.4-56.2-.1-.2-.2-.4-.4-.6-6.3.1-18.5 1.2-28.8 6.5v107.6" fill="#9c5d60"/>
 <path d="m123 280.3c0 2.5 3.3 3.4 4.5 1.2 5.9-10.3 15.6-29.9 16.5-47.3 1.2-25.7.3-44.5-.6-51.6-5.6.4-13.3 1.5-20.4 4.6v93.1" fill="#b6965a"/>
 <path d="m161.1 122.2c-5.5-8.9-16.3-8.7-16.8-8.7-8-2.6-20-5.6-34.8-5.6-8.4 0-20.7.9-34.8 5.6-.5 0-11.3-.1-16.8 8.7-4.3 7-3.5 16.4 2.4 23-.8 1.8-2.7 6.8-1.6 13 1.4 7.7 5.6 12.1 7.1 13.2 5.8.8 12.7 2 19.2 3.4 9.1 2.1 17.3 5.3 24.6 7.9 7.3-2.6 15.6-5.8 24.6-7.9 6.5-1.5 13.4-2.6 19.1-3.4 1.4-1.1 5.7-5.6 7.1-13.2 1.1-6.2-.8-11.1-1.6-13 5.8-6.6 6.7-16 2.3-23" fill="#4a8f5b"/>
 <path d="m109.5 177c-7.7-2.7-15.6-4.9-23.5-6.7-5.7-1.3-11.6-2.4-17.4-3.3-1.7-1.7-4.4-4.9-5.3-9.6-.8-4.5.4-8.3 1.3-10.2l1.3-2.8-2-2.3c-4.4-5-5.2-12.1-1.9-17.4 3.9-6.3 11.7-6.5 12.6-6.5h.8l.8-.3c10.8-3.5 22-5.3 33.3-5.3s22.5 1.8 33.3 5.3l.8.3h.8c.9 0 8.7.2 12.6 6.5 3.3 5.2 2.5 12.4-1.9 17.4l-2 2.3 1.3 2.8c.8 1.8 2.1 5.6 1.3 10.2-.9 4.7-3.5 7.9-5.3 9.6-5.8.9-11.7 2-17.4 3.3-7.9 1.8-15.8 4-23.5 6.7" fill="#829d5e"/>
</svg>
