<?xml version="1.0" encoding="utf-8"?>
<!-- Generator: Adobe Illustrator 19.1.0, SVG Export Plug-In . SVG Version: 6.00 Build 0)  -->
<svg version="1.1" id="Layer_1" xmlns="http://www.w3.org/2000/svg" xmlns:xlink="http://www.w3.org/1999/xlink" x="0px" y="0px"
	 width="648px" height="649.7px" viewBox="-315 76.3 648 649.7" style="enable-background:new -315 76.3 648 649.7;"
	 xml:space="preserve">
<style type="text/css">
	.st0{fill:none;}
	.st1{fill:#D87B33;enable-background:new    ;}
	.st2{fill:none;stroke:#99BFA3;stroke-miterlimit:10;}
	.st3{fill:#6E7A42;}
	.st4{fill:#31322C;}
	.st5{fill:#91893C;}
	.st6{fill:#46473D;}
	.st7{fill:#414239;}
	.st8{fill:#3F4037;}
	.st9{fill:#3C3D35;}
	.st10{fill:#3A3B33;}
	.st11{fill:#35362F;}
	.st12{fill:#796E57;}
	.st13{fill:#404040;}
	.st14{opacity:0.25;fill:#E2D5CA;}
	.st15{fill:#E2D5CA;}
	.st16{fill:none;stroke:#77675F;stroke-width:2;stroke-miterlimit:10;}
	.st17{fill:none;stroke:#91893C;stroke-miterlimit:10;}
	.st18{fill:none;stroke:#31322C;stroke-miterlimit:10;}
	.st19{fill:none;stroke:#796E57;stroke-miterlimit:10;}
	.st20{opacity:0.5;fill:#E2D5CA;}
	.st21{fill:#CC964B;}
	.st22{fill:none;stroke:#3A3B33;stroke-miterlimit:10;}
</style>
<g>
	
		<image style="overflow:visible;enable-background:new    ;" width="450" height="601" xlink:href="7BEA961F9E7F74D0.png"  transform="matrix(1 0 0 0.9983 -409 570.17)">
	</image>
</g>
<g>
	<path class="st0" d="M799.3,784.3"/>
</g>
<g>
	<g>
		<circle class="st1" cx="-201.5" cy="442" r="16.1"/>
		<circle class="st1" cx="-125.1" cy="442" r="16.1"/>
	</g>
	<path class="st2" d="M-110.1,458.4c6-3.7,3.2-9.2,3.2-9.2c-10.3-2.2-18-6.8-22.6-10.1c-2.7-2-3.8-5.5-2.6-8.7l0.4-0.9
		c0.9-2.3,0.6-4.8-0.8-6.8c-1.5-2.1-4-3.3-6.5-3.3h-5.2c-2.3,0-4.5-0.6-6.5-1.7l-6.7-3.7c-3.6-2-8.1-2-11.7,0l-6.7,3.7
		c-2,1.1-4.2,1.7-6.5,1.7h-5.2c-2.6,0-5,1.2-6.5,3.3c-1.4,1.9-1.7,4.5-0.8,6.8l0.4,0.9c1.2,3.1,0.1,6.7-2.6,8.7
		c-4.5,3.3-12.3,7.9-22.6,10.1c0,0-2.8,5.5,3.2,9.2c0,0-3.8,11-3.8,21.1c0,0,11.2,14.7,57,14.7s57-14.7,57-14.7
		C-106.3,469.4-110.1,458.4-110.1,458.4z"/>
</g>
<path class="st2" d="M-180,1007.6"/>
<g id="_x33_cCiiA.tif">
	
		<image style="overflow:visible;" width="1000" height="862" id="Layer_0_1_" xlink:href="7BEA961F9E7F74D1.png"  transform="matrix(4.489659e-11 -1 1 4.489659e-11 435 1528.2999)">
	</image>
</g>
<g>
	<path class="st3" d="M931,1888.8c-0.6-2.9-1.1-5.8-1.6-8.7l-0.7-4.3l-0.7-4.4l-1.3-8.7l-1.2-8.7c-0.4-2.9-0.7-5.8-1.1-8.7
		c-0.4-2.9-0.7-5.8-1.1-8.7l-1-8.8l-0.2-2.2c-0.1-0.7-0.2-1.4-0.1-2.2c0.1-0.8,0.6-1.6,1-2.4c0.4-0.8,0.6-1.6,0.5-2.3l0.2,0.9
		l-2.7-7.9l-2.8-7.9c-1.9-5.2-3.8-10.5-5.8-15.7c-1-2.6-1.9-5.2-3-7.8l-3-7.8c-1-2.6-2.1-5.2-3.1-7.7c-1.1-2.6-2.1-5.1-3.3-7.7
		c-1-2.3,0-5.1,2.4-6.1c2.3-1,5.1,0,6.1,2.4c0.1,0.2,0.1,0.4,0.2,0.5c0.8,2.7,1.7,5.3,2.6,8c0.9,2.6,1.8,5.3,2.7,7.9l2.8,7.9
		c0.9,2.6,1.9,5.2,2.9,7.8c1.9,5.2,4,10.4,5.9,15.6l3.1,7.8l3.1,7.8l0.1,0.4l0.1,0.5c0.1,0.7,0.5,1.4,1.1,2.1c0.6,0.7,1.3,1.3,1.6,2
		c0.4,0.7,0.4,1.4,0.5,2.1l0.4,2.2l1.4,8.7c0.5,2.9,0.9,5.8,1.3,8.7c0.4,2.9,0.9,5.8,1.3,8.7l1.2,8.7l1.1,8.7l0.5,4.4l0.5,4.4
		c0.3,2.9,0.6,5.8,0.8,8.8c0.3,3.6-2.4,6.8-6,7.1C934.6,1894.4,931.6,1892.1,931,1888.8z"/>
</g>
<g>
	<g>
		<circle class="st4" cx="905.3" cy="1885.9" r="27.5"/>
		<circle class="st4" cx="1035.2" cy="1885.9" r="27.5"/>
	</g>
	<path class="st5" d="M1060.8,1913.7c10.1-6.2,5.5-15.6,5.5-15.6c-17.5-3.8-30.7-11.6-38.4-17.1c-4.6-3.4-6.4-9.4-4.4-14.8l0.6-1.6
		c1.5-3.8,1-8.2-1.4-11.6c-2.6-3.5-6.7-5.6-11.1-5.6h-8.8c-3.9,0-7.7-1-11.1-2.9l-11.4-6.4c-6.2-3.5-13.7-3.5-19.9,0l-11.4,6.4
		c-3.4,1.9-7.2,2.9-11.1,2.9H929c-4.4,0-8.5,2.1-11.1,5.6c-2.4,3.3-2.9,7.7-1.4,11.6l0.6,1.6c2,5.4,0.2,11.4-4.4,14.8
		c-7.7,5.6-20.9,13.4-38.4,17.1c0,0-4.7,9.4,5.5,15.6c0,0-6.5,18.7-6.5,35.9c0,0,19,25,97,25s97-25,97-25
		C1067.3,1932.5,1060.8,1913.7,1060.8,1913.7z"/>
	<g>
		<g>
			<path class="st5" d="M869.9,1839.5c8.5-6.5,20.5-5,29.9-1.6c6.8,2.5,12.8,6.4,18.6,10.7c2,1.5,15.4,11.1,8,12.4
				c-3.2,0.5-9.3-7.9-11.7-9.8c-5.4-4.6-11.4-8.7-18-11.3c-3-1.2-6.1-2.1-9.3-2.5c-4.2-0.5-8.5-0.4-12.5,1
				C873.1,1838.9,870.5,1841.2,869.9,1839.5z"/>
		</g>
		<g>
			<path class="st5" d="M1070.6,1839.5c-8.5-6.5-20.5-5-29.9-1.6c-6.8,2.5-12.8,6.4-18.6,10.7c-2,1.5-15.4,11.1-8,12.4
				c3.2,0.5,9.3-7.9,11.7-9.8c5.4-4.6,11.4-8.7,18-11.3c3-1.2,6.1-2.1,9.3-2.5c4.2-0.5,8.5-0.4,12.5,1
				C1067.4,1838.9,1070,1841.2,1070.6,1839.5z"/>
		</g>
	</g>
</g>
<g>
	<path class="st3" d="M875,1970c-5.3,5.7-10.8,11.3-16.2,16.9c-1.3,1.4-2.7,2.8-4,4.3l-3.9,4.3c-2.6,2.9-5.2,5.8-7.7,8.8l-7.6,8.8
		l-3.8,4.4l-3.8,4.3l-3.8,4.3l-1.9,2.1c-0.6,0.7-1.2,1.4-1.8,2.1c-1.2,1.4-2.4,2.8-3.5,4.1c-0.3,0.3-0.5,0.7-0.9,1
		c-0.3,0.3-0.8,0.5-1.3,0.6c-0.6,0.1-1.3,0.1-2.1,0.1c-0.8-0.1-1.8-0.2-3.2-0.6l-3.5,1.5l0,0c-2.2-0.1-4.4-0.3-6.5-0.5l-6.5-0.6
		c-4.3-0.4-8.7-0.7-13-1c-2.2-0.2-4.3-0.3-6.4-0.4c-2.1-0.1-4.3-0.2-6.4-0.3c-2.1-0.1-4.2-0.1-6.3-0.1c-1,0-2-0.1-3-0.1
		c-0.5,0-1-0.1-1.5-0.1c-0.5,0-0.9-0.1-1.4-0.2l-0.5-0.1c-3.4-0.5-5.7-3.6-5.2-7c0.4-2.6,2.4-4.6,4.9-5.2c1.2-0.3,2.5-0.4,3.7-0.4
		c1.2-0.1,2.4-0.1,3.5,0c2.3,0.1,4.6,0.4,6.8,0.7c2.2,0.3,4.5,0.7,6.7,1.1c2.2,0.4,4.4,0.8,6.6,1.3c4.4,0.9,8.7,1.9,13,3l6.4,1.6
		c2.1,0.6,4.3,1.1,6.4,1.9l0,0l-3.5,1.5c-0.9-1.2-1.3-2.1-1.6-3c-0.1-0.4-0.3-0.9-0.3-1.3c-0.1-0.4-0.1-0.7-0.1-1.1
		c0-0.7,0.2-1.3,0.4-1.8c0.2-0.5,0.6-0.9,0.9-1.3c0.7-0.9,1.3-1.7,2-2.5c0.7-0.8,1.3-1.6,2-2.4c1.4-1.6,2.7-3.1,4.1-4.5
		c1.4-1.5,2.8-2.9,4.3-4.3c2.9-2.8,5.8-5.4,8.9-8c3-2.6,6.1-5.1,9.2-7.5l9.3-7.3l9.3-7.3c6.2-4.9,12.3-9.8,18.7-14.3
		c1.4-1,3.3-0.7,4.3,0.7C876.1,1967.4,876,1969,875,1970L875,1970z"/>
</g>
<g>
	<path class="st3" d="M885.5,2136.5c-5.3,5.7-10.8,11.3-16.2,16.9c-1.3,1.4-2.7,2.8-4,4.3l-3.9,4.3c-2.6,2.9-5.2,5.8-7.7,8.8
		l-7.6,8.8l-3.8,4.4l-3.8,4.3l-3.8,4.3l-1.9,2.1c-0.6,0.7-1.2,1.4-1.8,2.1c-1.2,1.4-2.4,2.8-3.5,4.1c-0.3,0.3-0.5,0.7-0.9,0.9
		c-0.2,0.1-0.5,0.1-0.8,0.2c-0.4,0-0.7,0-1.2-0.1c-0.9-0.1-1.8-0.2-2.6-0.3c-0.8-0.1-1.5,0.1-1.9,0.3l0.2-0.3
		c-0.5,0.4-0.8,0.8-1.1,1.2c-0.2,0.5-0.3,1-0.4,1.5c-0.1,0.5-0.1,1.1-0.3,1.6c-0.1,0.5-0.4,1-0.6,1.4c-0.9,1.9-1.8,3.7-2.8,5.5
		c-2,3.7-4.1,7.3-6.5,10.8c-2.4,3.5-5.2,6.9-8.7,10c-1.7,1.5-3.7,3.1-6,4.3c-1.2,0.6-2.4,1.1-3.8,1.5c-1.4,0.4-2.9,0.5-4.4,0.5
		c-3.4-0.2-5.9-3-5.7-6.4c0.1-2.3,1.6-4.3,3.5-5.2l1.4-0.6c0.5-0.2,0.9-0.4,1.5-0.6c0.5-0.2,1.1-0.5,1.7-0.8c1.2-0.6,2.6-1.3,4-2.3
		c1.4-1,2.7-2.1,4.1-3.3c1.3-1.2,2.7-2.5,4-3.9c2.6-2.7,5.1-5.7,7.4-8.7c1.2-1.5,2.3-3.1,3.4-4.7c0.3-0.4,0.5-0.8,0.9-1.2
		c0.3-0.4,0.8-0.7,1.2-1c0.4-0.3,0.8-0.7,1-1.1c0.2-0.4,0.4-0.9,0.3-1.4l0.2-0.3c0.1-0.6,0-1.2-0.3-2.1c-0.3-0.9-0.6-1.8-1-2.7
		c-0.2-0.5-0.2-0.8-0.3-1.3c0-0.4,0-0.7,0-1c0.1-0.6,0.6-0.9,0.9-1.4c0.7-0.9,1.3-1.7,2-2.5c0.7-0.8,1.3-1.6,2-2.4
		c1.4-1.6,2.7-3.1,4.1-4.5c1.4-1.5,2.8-2.9,4.3-4.3c2.9-2.8,5.8-5.4,8.9-8c3-2.6,6.1-5.1,9.2-7.5l9.3-7.3l9.3-7.3
		c6.2-4.9,12.3-9.8,18.7-14.3c1.4-1,3.3-0.7,4.3,0.7C886.6,2133.9,886.5,2135.5,885.5,2136.5L885.5,2136.5z"/>
</g>
<g>
	<path class="st4" d="M1079.1,2128.1c-0.2,4.3-4.7,7-8.7,5.3c-27.8-12.2-62.5-17.7-100.1-17.7c-37.6,0-72.3,5.5-100.2,17.7
		c-4,1.7-8.4-1-8.7-5.3c-1.5-26.3-1.5-53,1.2-76.4c0.9-7.5,7.3-13.2,14.8-13.2h185.7c7.6,0,14,5.7,14.8,13.2
		C1080.6,2075.2,1080.6,2101.8,1079.1,2128.1z"/>
	<g>
		<path class="st6" d="M1023.2,2300.6c-2.7,3.7-5,17.2-6.7,20.4c-5.2,10-10.8,26.7-14.8,39.4c-3.4,11.1-11.9,19.9-22.9,23.8l-8.6,3
			l-8.6-3c-11-3.9-19.5-12.7-22.9-23.8c-4-12.7-9.6-29.4-14.8-39.4c-1.7-3.3-4.2-17-7-20.9c16.5-4.9,34.1-7.6,52.4-7.6
			C988.2,2292.6,1006.3,2295.4,1023.2,2300.6z"/>
		<path class="st7" d="M1047.2,2271c-6.6,8.2-14.5,24.7-21,35.1c-1.6,2.6-4.8,3.9-7.8,3.1c-15.5-4.3-32-6.6-49-6.6
			c-16.5,0-32.5,2.2-47.6,6.2c-3,0.8-6.1-0.4-7.8-3.1c-6.5-10.5-14.5-27-21.1-35.2c22.9-9.9,49-15.3,76.6-15.3
			C997.6,2255.2,1024,2260.8,1047.2,2271z"/>
		<path class="st8" d="M1061.2,2239.3c-1.4,6.3,0.2,17.1-1.2,22.6c-1.1,4.3-7.1,9.2-11.6,15.1c-1.8,2.3-4.9,3.2-7.7,2
			c-22.1-9-44.9-13.9-71.2-13.9c-25.8,0-48.3,4.8-70.1,13.4c-2.7,1.1-5.8,0.2-7.6-2.1c-4.4-5.7-10.2-10.4-11.3-14.6
			c-1.4-5.6,0.1-16.5-1.3-23.1v0c26.4-13.6,56.2-21,90.5-21C1004.4,2217.8,1034.6,2225.4,1061.2,2239.3z"/>
		<path class="st9" d="M1067.8,2203c-2,12.9-2.6,31.6-3.9,42.1c-0.3,2.1-2.5,3.3-4.4,2.4c-25.9-12.7-56.7-19.6-89.8-19.6
			c-32.7,0-63.1,6.7-88.8,19.1c-1.9,0.9-4.1-0.3-4.4-2.4c-1.3-10.5-1.9-29.1-3.9-41.9c27.7-14.6,60-22.2,97.2-22.2
			C1007.4,2180.5,1040,2188.2,1067.8,2203z"/>
		<path class="st10" d="M1072.9,2165.7c-1.3,11.3-1.4,29.1-2.4,41.2c-0.3,3-3.4,4.7-6.1,3.4c-26.8-13-59.4-19.8-94.6-19.8
			c-34.9,0-67.2,6.7-93.9,19.5c-2.7,1.3-5.8-0.5-6.1-3.5c-1-12.1-1.1-29.8-2.4-41c28.5-15,62.9-22.4,102.5-22.4
			C1009.8,2143.1,1044.3,2150.5,1072.9,2165.7z"/>
		<path class="st11" d="M1076.5,2127.3c-0.8,11.8-0.3,31.4-1.2,44.2c-0.1,2-2.3,3.2-4.1,2.3c-28-13.9-63.1-20.7-101.2-20.7
			c-37.9,0-72.9,6.8-100.8,20.5c-1.8,0.9-3.9-0.3-4.1-2.3c-0.9-12.8-0.4-32.3-1.2-44c29-14.9,64.9-21.5,106.3-21.5
			C1011.6,2105.7,1047.5,2112.4,1076.5,2127.3z"/>
	</g>
</g>
<path class="st12" d="M1074.2,1974.6l3.2-2.4c4.7-3.5,5.3-10.3,1.3-14.6l0,0c-4.9-5.2-11.5-8.5-18.5-9.3l-70.9-16.1
	c-12.5-2.8-25.5-2.8-38.1,0l-70.9,16.1c-7.1,0.8-13.6,4.1-18.5,9.3l0,0c-4,4.3-3.4,11.1,1.3,14.6l3.2,2.4l-4.9,58.2
	c-0.9,10.8,5.6,20.8,15.8,24.4l60.6,31.5c21,7.5,43.9,7.5,65,0l60.6-31.5c10.2-3.6,16.7-13.7,15.8-24.4L1074.2,1974.6z"/>
<path class="st5" d="M-336.1,1604.3c-0.9-7.5-7.3-13.2-14.8-13.2h-92.8h-92.8c-7.6,0-14,5.6-14.8,13.2
	c-9.2,79.8,13.2,197.4,17.9,210.2c5,13.5,34.2,41.3,43.4,59.1c5.2,10,10.8,26.7,14.8,39.4c3.4,11.1,11.9,19.9,22.9,23.8l8.6,3l8.6-3
	c11-3.9,19.5-12.7,22.9-23.8c4-12.7,9.6-29.4,14.8-39.4c9.3-17.8,38.5-45.6,43.4-59.1C-349.3,1801.7-326.9,1684.1-336.1,1604.3z"/>
<path class="st13" d="M-339.8,1527.2l3.2-2.4c4.7-3.5,5.3-10.3,1.3-14.6v0c-4.9-5.2-11.5-8.5-18.5-9.3l-90-10.4l-90,10.4
	c-7.1,0.8-13.6,4.1-18.5,9.3v0c-4,4.3-3.4,11.1,1.3,14.6l3.2,2.4l-4.9,58.2c-0.9,10.8,5.6,20.8,15.8,24.4l60.6,31.5
	c21,7.5,43.9,7.5,65,0l60.6-31.5c10.2-3.6,16.7-13.7,15.8-24.4L-339.8,1527.2z"/>
<g>
	<g>
		<circle class="st1" cx="-508.7" cy="1438.4" r="27.5"/>
		<circle class="st1" cx="-378.8" cy="1438.4" r="27.5"/>
	</g>
	<path class="st5" d="M-353.2,1466.3c10.1-6.2,5.5-15.6,5.5-15.6c-17.5-3.8-30.7-11.6-38.4-17.1c-4.6-3.4-6.4-9.4-4.4-14.8l0.6-1.6
		c1.5-3.8,1-8.2-1.4-11.6c-2.6-3.5-6.7-5.6-11.1-5.6h-8.8c-3.9,0-7.7-1-11.1-2.9l-11.4-6.4c-6.2-3.5-13.7-3.5-19.9,0l-11.4,6.4
		c-3.4,1.9-7.2,2.9-11.1,2.9h-8.8c-4.4,0-8.5,2.1-11.1,5.6c-2.4,3.3-2.9,7.7-1.4,11.6l0.6,1.6c2,5.4,0.2,11.4-4.4,14.8
		c-7.7,5.6-20.9,13.4-38.4,17.1c0,0-4.7,9.4,5.5,15.6c0,0-6.5,18.7-6.5,35.9c0,0,19,25,97,25s97-25,97-25
		C-346.7,1485-353.2,1466.3-353.2,1466.3z"/>
</g>
<path class="st14" d="M-551.5,1572.1c0,0-28.3,166.2-6.4,288.2c21.9,122,43.9,291,76.9,324c0,0,26,20,32-10s5-349,0-375
	S-549.1,1605.5-551.5,1572.1z"/>
<path class="st15" d="M865,2068.7"/>
<g>
	<path class="st14" d="M954,2613c-1.8,8.9-5.3,13.4-9.4,15.3c-5.7-1.9-10.2-5.3-10.2-5.3c-33-33-55-202-76.9-324
		s11.9-291.6,11.9-291.6c0,0.5,0.1,1.1,0.2,1.7c4.6,37,79.5,203.3,84.4,228.9C959,2264,960,2583,954,2613z"/>
	<g>
		<path class="st16" d="M865.9,2012.4c-1.3,11.8-0.2,22-1,34.4c-0.8,12,1.9,21.2,1.4,33.5c-0.4,12.1-0.1,24.3-0.2,36.4
			c-0.1,12.2,0.6,24.4,0.8,36.4c0.2,12.3-3.7,24.7-3.2,36.6c0.6,12.5,0,24.8,0.8,36.6c0.9,12.7,6.3,24.5,7.5,36
			c1.4,13.1,0.3,25.5,1.9,36.5c1.6,10.5,2,22.6,4.4,35.1c2.1,10.9,4.9,22.5,7.5,34.5c2.5,11.1,9.5,21.6,12.4,33.3
			c2.7,11.2,1.2,23.8,4.2,35.3c2.9,11.3,7.8,22.3,10.9,33.6c3.1,11.4,3.1,51.5,6.2,68.4c1.6,8.7,7.3,22.7,10.7,33.7
			c1.8,5.7,3.8,11.1,5.8,16.5c1.4,3.8,6.9,2.9,7.2-1.1c2.3-42,7.1-144.5-0.9-155c-3.6-11.7-5.3-23.9-9-35.4
			c-3.7-11.6-6.7-23.4-10.3-35c-3.6-11.6-9.1-22.7-12.6-34.3c-3.4-11.6-5.1-23.8-8.2-35.6c-3.1-11.7-8.7-22.9-11.4-34.8
			c-2.7-11.8-4.3-23.9-6.5-36c-2-11.9-2.1-24-3.6-35.7c-1.5-11.9-0.3-24.1-1.5-35.9c-1.2-11.9-2-23.8-2.9-35.7
			c-0.8-11.9-5.5-56.5-5.8-68.5C870.2,2034.3,866.1,2024.5,865.9,2012.4"/>
		<path class="st16" d="M865.9,2012.4c1.8,12.1,3.4,22.6,5.3,34.7c1.9,12.1,9.4,20.7,11.4,32.8c2,12.1,0.5,24.9,2.7,37
			c2.2,12.1,6.7,23.8,9.1,35.8c2.4,12.1,6.8,23.7,9.5,35.6c2.7,12,3.6,24.4,6.7,36.3c3.1,11.9,9.1,22.9,12.6,34.7
			c3.5,11.8,1.7,25.2,5.7,36.9c4,11.6,8.6,23.1,13.1,34.6c0,0,9.8,77.2,0.3,102.3"/>
		<path class="st16" d="M865.9,2012.4c3.2,11.8,7.8,21.6,11,33.4c3.3,11.8,9.3,20.3,12.6,32.1c3.3,11.7,6.8,23.4,10.3,35.2
			c3.4,11.7,4.7,24.1,8.3,35.8c3.6,11.7,8.4,23,12.2,34.6c3.7,11.6,7.1,23.4,11,35c3.9,11.5,11.5,21.8,15.6,33.3
			c0,0,2.2,67-4.8,79.2"/>
	</g>
	<path class="st3" d="M944.6,2628.4c-9.7,4.6-22.6-5.3-22.6-5.3c-33-33-55-202-76.9-324c-16.8-93.7,3.5-223,14.3-275.5
		c0.8-4-2.4-7.6-1.6-10.7c2.2-9,11.7-5.4,11.7-5.4S835.6,2177,857.5,2299s43.9,291,76.9,324C934.4,2623,938.9,2626.5,944.6,2628.4z"
		/>
</g>
<g>
	<path class="st14" d="M986.5,2613c1.8,8.9,5.3,13.4,9.4,15.3c5.7-1.9,10.2-5.3,10.2-5.3c33-33,55-202,76.9-324
		s-11.9-291.6-11.9-291.6c0,0.5-0.1,1.1-0.2,1.7c-4.6,37-79.5,203.3-84.4,228.9C981.5,2264,980.5,2583,986.5,2613z"/>
	<g>
		<path class="st16" d="M1074.6,2012.4c1.3,11.8,0.2,22,1,34.4c0.8,12-1.9,21.2-1.4,33.5c0.4,12.1,0.1,24.3,0.2,36.4
			c0.1,12.2-0.6,24.4-0.8,36.4c-0.2,12.3,3.7,24.7,3.2,36.6c-0.6,12.5,0,24.8-0.8,36.6c-0.9,12.7-6.3,24.5-7.5,36
			c-1.4,13.1-0.3,25.5-1.9,36.5c-1.6,10.5-2,22.6-4.4,35.1c-2.1,10.9-4.9,22.5-7.5,34.5c-2.5,11.1-9.5,21.6-12.4,33.3
			c-2.7,11.2-1.2,23.8-4.2,35.3c-2.9,11.3-7.8,22.3-10.9,33.6c-3.1,11.4-3.1,51.5-6.2,68.4c-1.6,8.7-7.3,22.7-10.7,33.7
			c-1.8,5.7-3.8,11.1-5.8,16.5c-1.4,3.8-6.9,2.9-7.2-1.1c-2.3-42-7.1-144.5,0.9-155c3.6-11.7,5.3-23.9,9-35.4
			c3.7-11.6,6.7-23.4,10.3-35c3.6-11.6,9.1-22.7,12.6-34.3c3.4-11.6,5.1-23.8,8.2-35.6c3.1-11.7,8.7-22.9,11.4-34.8
			c2.7-11.8,4.3-23.9,6.5-36c2-11.9,2.1-24,3.6-35.7c1.5-11.9,0.3-24.1,1.5-35.9c1.2-11.9,2-23.8,2.9-35.7
			c0.8-11.9,5.5-56.5,5.8-68.5C1070.3,2034.3,1074.4,2024.5,1074.6,2012.4"/>
		<path class="st16" d="M1074.6,2012.4c-1.8,12.1-3.4,22.6-5.3,34.7c-1.9,12.1-9.4,20.7-11.4,32.8c-2,12.1-0.5,24.9-2.7,37
			c-2.2,12.1-6.7,23.8-9.1,35.8c-2.4,12.1-6.8,23.7-9.5,35.6c-2.7,12-3.6,24.4-6.7,36.3c-3.1,11.9-9.1,22.9-12.6,34.7
			c-3.5,11.8-1.7,25.2-5.7,36.9c-4,11.6-8.6,23.1-13.1,34.6c0,0-9.8,77.2-0.3,102.3"/>
		<path class="st16" d="M1074.6,2012.4c-3.2,11.8-7.8,21.6-11,33.4c-3.3,11.8-9.3,20.3-12.6,32.1c-3.3,11.7-6.8,23.4-10.3,35.2
			c-3.4,11.7-4.7,24.1-8.3,35.8c-3.6,11.7-8.4,23-12.2,34.6c-3.7,11.6-7.1,23.4-11,35c-3.9,11.5-11.5,21.8-15.6,33.3
			c0,0-2.2,67,4.8,79.2"/>
	</g>
	<path class="st3" d="M996,2628.4c9.7,4.6,22.6-5.3,22.6-5.3c33-33,55-202,76.9-324c16.8-93.7-3.5-223-14.3-275.5
		c-0.8-4,2.4-7.6,1.6-10.7c-2.2-9-11.7-5.4-11.7-5.4s33.8,169.6,11.9,291.6s-43.9,291-76.9,324
		C1006.1,2623,1001.6,2626.5,996,2628.4z"/>
</g>
<g>
	<path class="st10" d="M616.1,755.9l-0.5-0.3l-0.3-0.2c-0.1-0.1-0.2-0.1-0.3-0.2c-0.5-0.3-1-0.7-1.4-1.1c-0.8-0.7-1.6-1.4-2.3-2.1
		c-1.4-1.4-2.7-2.9-3.8-4.4c-2.3-3-4-6.2-5.5-9.4c-1.5-3.2-2.8-6.4-4-9.6c-1.2-3.2-2.1-6.4-3-9.7c-1.8-6.5-3.1-13-4.3-19.5
		c-0.6-3.3-1-6.5-1.4-9.8l-0.6-4.9c-0.2-1.7-0.3-3.3-0.5-5l0.8,2.5c-0.7-1.1-0.7-2.5-0.6-3.9c0-0.7,0-1.4-0.1-2.1
		c-0.1-0.6-0.4-1.2-0.7-1.7c-1.2-2.2-2.4-4.4-3.6-6.6c-0.6-1.1-1.2-2.2-1.9-3.3c-0.6-1.1-1.3-2.2-1.9-3.2c-1.3-2.2-2.6-4.3-3.9-6.5
		c-1.3-2.2-2.7-4.3-4-6.4c-1.3-2.2-2.6-4.3-3.8-6.5c-1.2-2.2-2.5-4.4-3.6-6.6l-0.9-1.7c-0.3-0.6-0.6-1.1-0.8-1.7
		c-0.3-1.2-0.4-2.6,0.2-4.4l-0.4-1.3l0,0c0-0.4,0-0.6,0.1-0.9c0-0.3,0.1-0.5,0.1-0.8c0.1-0.5,0.2-1,0.3-1.5c0.3-0.9,0.6-1.9,1.1-2.7
		c0.9-1.7,2.1-3.3,3.5-4.5c0.4-0.3,0.7-0.6,1.1-0.8c0.4-0.3,0.8-0.5,1.2-0.7c0.4-0.2,0.8-0.4,1.2-0.6c0.4-0.2,0.8-0.3,1.2-0.4
		c0.4-0.1,0.8-0.2,1.2-0.3c0.4-0.1,0.8-0.1,1.2-0.2c0.8-0.1,1.7-0.2,2.5-0.2c-0.8,0.3-1.5,0.6-2.2,1c-0.4,0.2-0.7,0.4-1,0.6
		c-0.3,0.2-0.7,0.4-1,0.7c-1.3,0.9-2.3,2-3,3.2c-0.7,1.2-1.1,2.5-1.3,3.8c-0.1,0.7-0.1,1.3,0,2c0,0.3,0.1,0.6,0.1,1
		c0,0.2,0.1,0.3,0.1,0.4c0,0.1,0.1,0.3,0.1,0.3l0,0l-0.4-1.3c1.8,0.4,2.9,1.3,3.8,2.3c0.4,0.5,0.7,1,1,1.6l0.9,1.7
		c1.2,2.2,2.4,4.4,3.5,6.7c1.1,2.2,2.2,4.5,3.3,6.8c1.1,2.3,2.1,4.6,3.2,6.9c1.1,2.3,2.1,4.6,3.2,6.8c0.6,1.1,1.1,2.3,1.6,3.4
		c0.6,1.1,1.1,2.3,1.7,3.4c1.1,2.2,2.3,4.5,3.6,6.7c0.3,0.6,0.6,1.1,1,1.6c0.4,0.5,1,0.9,1.7,1.3c1.3,0.7,2.4,1.6,2.9,2.7l0.6,1.3
		l0.2,1.2c0.2,1.4,0.4,3,0.6,4.6l0.8,4.6c0.5,3.1,1.1,6.2,1.7,9.3c0.6,3.1,1.3,6.1,2,9.2c0.7,3,1.5,6,2.3,9c0.8,3,1.7,5.9,2.7,8.8
		c1,2.9,2.1,5.7,3.2,8.3c1.2,2.7,2.5,5.2,4,7.4c0.7,1.1,1.5,2.1,2.3,3c0.4,0.5,0.8,0.9,1.2,1.3l0.5,0.4c0,0,0.1,0.1,0.2,0.2l0.2,0.2
		l0.5,0.4l0,0c2.9,2.2,3.5,6.3,1.3,9.2C622.8,757,618.9,757.7,616.1,755.9z"/>
</g>
<g>
	<g>
		<circle class="st4" cx="638.4" cy="702.4" r="27.5"/>
		<circle class="st4" cx="768.3" cy="702.4" r="27.5"/>
	</g>
	<path class="st17" d="M783.8,730.3c10.1-6.2,8.5-15.6,8.5-15.6c-17.5-3.8-23.7-11.6-31.4-17.1c-4.6-3.4-6.4-9.4-4.4-14.8l0.6-1.6
		c1.5-3.8,1-8.2-1.4-11.6c-2.6-3.5-6.7-5.6-11.1-5.6h-8.8c-3.9,0-7.7-1-11.1-2.9l-11.4-6.4c-6.2-3.5-13.7-3.5-19.9,0l-11.4,6.4
		c-3.4,1.9-7.2,2.9-11.1,2.9h-8.8c-4.4,0-8.5,2.1-11.1,5.6c-2.4,3.3-2.9,7.7-1.4,11.6l0.6,1.6c2,5.4,0.2,11.4-4.4,14.8
		c-7.7,5.6-13.9,13.4-31.4,17.1c0,0-1.7,9.4,8.5,15.6c0,0-16.5,18.7-16.5,35.9c0,0,19,23,97,23s97-23,97-23
		C800.4,749,783.8,730.3,783.8,730.3z"/>
	<g>
		<g>
			<path class="st5" d="M603,656.1c8.5-6.5,20.5-5,29.9-1.6c6.8,2.5,12.8,6.4,18.6,10.7c2,1.5,15.4,11.1,8,12.4
				c-3.2,0.5-9.3-7.9-11.7-9.8c-5.4-4.6-11.4-8.7-18-11.3c-3-1.2-6.1-2.1-9.3-2.5c-4.2-0.5-8.5-0.4-12.5,1
				C606.2,655.4,603.6,657.7,603,656.1z"/>
		</g>
		<g>
			<path class="st5" d="M803.7,656.1c-8.5-6.5-20.5-5-29.9-1.6c-6.8,2.5-12.8,6.4-18.6,10.7c-2,1.5-15.4,11.1-8,12.4
				c3.2,0.5,9.3-7.9,11.7-9.8c5.4-4.6,11.4-8.7,18-11.3c3-1.2,6.1-2.1,9.3-2.5c4.2-0.5,8.5-0.4,12.5,1
				C800.5,655.4,803.1,657.7,803.7,656.1z"/>
		</g>
	</g>
</g>
<g>
	<path class="st10" d="M608.1,786.6c-5.3,5.7-10.8,11.3-16.2,16.9c-1.3,1.4-2.7,2.8-4,4.3l-3.9,4.3c-2.6,2.9-5.2,5.8-7.7,8.8
		l-7.6,8.8l-3.8,4.4l-3.8,4.3l-3.8,4.3l-1.9,2.1c-0.6,0.7-1.2,1.4-1.8,2.1c-1.2,1.4-2.4,2.8-3.5,4.1c-0.3,0.3-0.5,0.7-0.9,1
		c-0.3,0.3-0.8,0.5-1.3,0.6c-0.6,0.1-1.3,0.1-2.1,0.1c-0.8-0.1-1.8-0.2-3.2-0.6l-3.5,1.5l0,0c-2.2-0.1-4.4-0.3-6.5-0.5l-6.5-0.6
		c-4.3-0.4-8.7-0.7-13-1c-2.2-0.2-4.3-0.3-6.4-0.4c-2.1-0.1-4.3-0.2-6.4-0.3c-2.1-0.1-4.2-0.1-6.3-0.1c-1,0-2-0.1-3-0.1
		c-0.5,0-1-0.1-1.5-0.1c-0.5,0-0.9-0.1-1.4-0.2l-0.5-0.1c-3.4-0.5-5.7-3.6-5.2-7c0.4-2.6,2.4-4.6,4.9-5.2c1.2-0.3,2.5-0.4,3.7-0.4
		c1.2-0.1,2.4-0.1,3.5,0c2.3,0.1,4.6,0.4,6.8,0.7c2.2,0.3,4.5,0.7,6.7,1.1c2.2,0.4,4.4,0.8,6.6,1.3c4.4,0.9,8.7,1.9,13,3l6.4,1.6
		c2.1,0.6,4.3,1.1,6.4,1.9l0,0l-3.5,1.5c-0.9-1.2-1.3-2.1-1.6-3c-0.1-0.4-0.3-0.9-0.3-1.3c-0.1-0.4-0.1-0.7-0.1-1.1
		c0-0.7,0.2-1.3,0.4-1.8c0.2-0.5,0.6-0.9,0.9-1.3c0.7-0.9,1.3-1.7,2-2.5c0.7-0.8,1.3-1.6,2-2.4c1.4-1.6,2.7-3.1,4.1-4.5
		c1.4-1.5,2.8-2.9,4.3-4.3c2.9-2.8,5.8-5.4,8.9-8c3-2.6,6.1-5.1,9.2-7.5l9.3-7.3l9.3-7.3c6.2-4.9,12.3-9.8,18.7-14.3
		c1.4-1,3.3-0.7,4.3,0.7C609.2,783.9,609.1,785.5,608.1,786.6L608.1,786.6z"/>
</g>
<g>
	<path class="st10" d="M618.6,953.1c-5.3,5.7-10.8,11.3-16.2,16.9c-1.3,1.4-2.7,2.8-4,4.3l-3.9,4.3c-2.6,2.9-5.2,5.8-7.7,8.8
		l-7.6,8.8l-3.8,4.4l-3.8,4.3l-3.8,4.3l-1.9,2.1c-0.6,0.7-1.2,1.4-1.8,2.1c-1.2,1.4-2.4,2.8-3.5,4.1c-0.3,0.3-0.5,0.7-0.9,0.9
		c-0.2,0.1-0.5,0.1-0.8,0.2c-0.4,0-0.7,0-1.2-0.1c-0.9-0.1-1.8-0.2-2.6-0.3c-0.8-0.1-1.5,0.1-1.9,0.3l0.2-0.3
		c-0.5,0.4-0.8,0.8-1.1,1.2c-0.2,0.5-0.3,1-0.4,1.5c-0.1,0.5-0.1,1.1-0.3,1.6c-0.1,0.5-0.4,1-0.6,1.4c-0.9,1.9-1.8,3.7-2.8,5.5
		c-2,3.7-4.1,7.3-6.5,10.8c-2.4,3.5-5.2,6.9-8.7,10c-1.7,1.5-3.7,3.1-6,4.3c-1.2,0.6-2.4,1.1-3.8,1.5c-1.4,0.4-2.9,0.5-4.4,0.5
		c-3.4-0.2-5.9-3-5.7-6.4c0.1-2.3,1.6-4.3,3.5-5.2l1.4-0.6c0.5-0.2,0.9-0.4,1.5-0.6c0.5-0.2,1.1-0.5,1.7-0.8c1.2-0.6,2.6-1.3,4-2.3
		c1.4-1,2.7-2.1,4.1-3.3c1.3-1.2,2.7-2.5,4-3.9c2.6-2.7,5.1-5.7,7.4-8.7c1.2-1.5,2.3-3.1,3.4-4.7c0.3-0.4,0.5-0.8,0.9-1.2
		c0.3-0.4,0.8-0.7,1.2-1c0.4-0.3,0.8-0.7,1-1.1c0.2-0.4,0.4-0.9,0.3-1.4l0.2-0.3c0.1-0.6,0-1.2-0.3-2.1c-0.3-0.9-0.6-1.8-1-2.7
		c-0.2-0.5-0.2-0.8-0.3-1.3c0-0.4,0-0.7,0-1c0.1-0.6,0.6-0.9,0.9-1.4c0.7-0.9,1.3-1.7,2-2.5c0.7-0.8,1.3-1.6,2-2.4
		c1.4-1.6,2.7-3.1,4.1-4.5c1.4-1.5,2.8-2.9,4.3-4.3c2.9-2.8,5.8-5.4,8.9-8c3-2.6,6.1-5.1,9.2-7.5l9.3-7.3l9.3-7.3
		c6.2-4.9,12.3-9.8,18.7-14.3c1.4-1,3.3-0.7,4.3,0.7C619.7,950.4,619.6,952,618.6,953.1L618.6,953.1z"/>
</g>
<g>
	<path class="st18" d="M812.2,944.7c-0.2,4.3-4.7,7-8.7,5.3c-27.8-12.2-62.5-17.7-100.1-17.7c-37.6,0-72.3,5.5-100.2,17.7
		c-4,1.7-8.4-1-8.7-5.3c-1.5-26.3-1.5-53,1.2-76.4c0.9-7.5,7.3-13.2,14.8-13.2h185.7c7.6,0,14,5.7,14.8,13.2
		C813.7,891.7,813.7,918.4,812.2,944.7z"/>
	<g>
		<path class="st6" d="M756.3,1117.1c-2.7,3.7-5,17.2-6.7,20.4c-5.2,10-10.8,26.7-14.8,39.4c-3.4,11.1-11.9,19.9-22.9,23.8l-8.6,3
			l-8.6-3c-11-3.8-19.5-12.7-22.9-23.8c-4-12.7-9.6-29.4-14.8-39.4c-1.7-3.3-4.2-17-7-20.9c16.5-4.9,34.1-7.6,52.4-7.6
			C721.3,1109.1,739.4,1111.9,756.3,1117.1z"/>
		<path class="st7" d="M780.3,1087.5c-6.6,8.2-14.5,24.7-21,35.1c-1.6,2.6-4.8,3.9-7.8,3.1c-15.5-4.3-32-6.6-49-6.6
			c-16.5,0-32.5,2.2-47.6,6.2c-3,0.8-6.1-0.4-7.8-3.1c-6.5-10.5-14.5-27-21.1-35.2c22.9-9.9,49-15.3,76.6-15.3
			C730.7,1071.7,757.1,1077.3,780.3,1087.5z"/>
		<path class="st8" d="M794.3,1055.9c-1.4,6.3,0.2,17.1-1.2,22.6c-1.1,4.3-7.1,9.2-11.6,15.1c-1.8,2.3-4.9,3.2-7.7,2
			c-22.1-9-44.9-13.9-71.2-13.9c-25.8,0-48.3,4.8-70.1,13.4c-2.7,1.1-5.8,0.2-7.6-2.1c-4.4-5.7-10.2-10.4-11.3-14.6
			c-1.4-5.6,0.1-16.5-1.3-23.1v0c26.4-13.6,56.2-21,90.5-21C737.5,1034.4,767.6,1042,794.3,1055.9z"/>
		<path class="st9" d="M800.9,1019.6c-2,12.9-2.6,31.6-3.9,42.1c-0.3,2.1-2.5,3.3-4.4,2.4c-25.9-12.7-56.7-19.6-89.8-19.6
			c-32.7,0-63.1,6.7-88.8,19.1c-1.9,0.9-4.1-0.3-4.4-2.4c-1.3-10.5-1.9-29.1-3.9-41.9c27.7-14.6,60-22.2,97.2-22.2
			C740.5,997,773.1,1004.8,800.9,1019.6z"/>
		<path class="st10" d="M806,982.2c-1.3,11.3-1.4,29.1-2.4,41.2c-0.3,3-3.4,4.7-6.1,3.4c-26.8-13-59.4-19.8-94.6-19.8
			c-34.9,0-67.2,6.7-93.9,19.5c-2.7,1.3-5.8-0.5-6.1-3.5c-1-12.1-1.1-29.8-2.4-41c28.5-15,62.9-22.4,102.5-22.4
			C742.9,959.6,777.4,967.1,806,982.2z"/>
		<path class="st11" d="M809.6,943.8c-0.8,11.8-0.3,31.4-1.2,44.2c-0.1,2-2.3,3.2-4.1,2.3c-28-13.9-63.1-20.7-101.2-20.7
			c-37.9,0-72.9,6.8-100.8,20.5c-1.8,0.9-3.9-0.3-4.1-2.3c-0.9-12.8-0.4-32.3-1.2-44c29-14.9,64.9-21.5,106.3-21.5
			C744.7,922.3,780.6,928.9,809.6,943.8z"/>
	</g>
</g>
<path class="st19" d="M807.3,791.1l3.2-2.4c4.7-3.5,5.3-10.3,1.3-14.6l0,0c-4.9-5.2-11.5-8.5-18.5-9.3L736.6,744
	c-21.9-5-44.6-5-66.5,0l-56.7,20.9c-7.1,0.8-13.6,4.1-18.5,9.3l0,0c-4,4.3-3.4,11.1,1.3,14.6l3.2,2.4l-4.9,58.2
	c-0.9,10.8,5.6,20.8,15.8,24.4l60.6,31.5c21,7.5,43.9,7.5,65,0l60.6-31.5c10.2-3.6,16.7-13.7,15.8-24.4L807.3,791.1z"/>
<path class="st15" d="M598.1,885.3"/>
<g>
	<path class="st20" d="M687.1,1429.6c-1.8,8.9-5.3,13.4-9.4,15.3c-5.7-1.9-10.2-5.3-10.2-5.3c-33-33-55-202-76.9-324
		S602.5,824,602.5,824c0,0.5,0.1,1.1,0.2,1.7c4.6,37,79.5,203.3,84.4,228.9C692.1,1080.6,693.1,1399.6,687.1,1429.6z"/>
	<g>
		<path class="st16" d="M598.9,829c-1.3,11.8-0.2,22-1,34.4c-0.8,12,1.9,21.2,1.4,33.5c-0.4,12.1-0.1,24.3-0.2,36.4
			c-0.1,12.2,0.6,24.4,0.8,36.4c0.2,12.3-3.7,24.7-3.2,36.6c0.6,12.5,0,24.8,0.8,36.6c0.9,12.7,6.3,24.5,7.5,36
			c1.4,13.1,0.3,25.5,1.9,36.5c1.6,10.5,2,22.6,4.4,35.1c2.1,10.9,4.9,22.5,7.5,34.5c2.5,11.1,9.5,21.6,12.4,33.3
			c2.7,11.2,1.2,23.8,4.2,35.3c2.9,11.3,7.8,22.3,10.9,33.6c3.1,11.4,3.1,51.5,6.2,68.4c1.6,8.7,7.3,22.7,10.7,33.7
			c1.8,5.7,3.8,11.1,5.8,16.5c1.4,3.8,6.9,2.9,7.2-1.1c2.3-42,7.1-144.5-0.9-155c-3.6-11.7-5.3-23.9-9-35.4
			c-3.7-11.6-6.7-23.4-10.3-35c-3.6-11.6-9.1-22.7-12.6-34.3c-3.4-11.6-5.1-23.8-8.2-35.6c-3.1-11.7-8.7-22.9-11.4-34.8
			c-2.7-11.8-4.3-23.9-6.5-36c-2-11.9-2.1-24-3.6-35.7c-1.5-11.9-0.3-24.1-1.5-35.9c-1.2-11.9-2-23.8-2.9-35.7
			c-0.8-11.9-5.5-56.5-5.8-68.5C603.3,850.9,599.2,841,598.9,829"/>
		<path class="st16" d="M598.9,829c1.8,12.1,3.4,22.6,5.3,34.7c1.9,12.1,9.4,20.7,11.4,32.8c2,12.1,0.5,24.9,2.7,37
			c2.2,12.1,6.7,23.8,9.1,35.8c2.4,12.1,6.8,23.7,9.5,35.6c2.7,12,3.6,24.4,6.7,36.3c3.1,11.9,9.1,22.9,12.6,34.7
			c3.5,11.8,1.7,25.2,5.7,36.9c4,11.6,8.6,23.1,13.1,34.6c0,0,9.8,77.2,0.3,102.3"/>
		<path class="st16" d="M598.9,829c3.2,11.8,7.8,21.6,11,33.4c3.3,11.8,9.3,20.3,12.6,32.1c3.3,11.7,6.8,23.4,10.3,35.2
			c3.4,11.7,4.7,24.1,8.3,35.8c3.6,11.7,8.4,23,12.2,34.6c3.7,11.6,7.1,23.4,11,35c3.9,11.5,11.5,21.8,15.6,33.3
			c0,0,2.2,67-4.8,79.2"/>
	</g>
	<path class="st3" d="M677.6,1444.9c-9.7,4.6-22.6-5.3-22.6-5.3c-33-33-55-202-76.9-324c-16.8-93.7,3.5-223,14.3-275.5
		c0.8-4-2.4-7.6-1.6-10.7c2.2-9,11.7-5.4,11.7-5.4s-33.8,169.6-11.9,291.6s43.9,291,76.9,324C667.5,1439.6,672,1443,677.6,1444.9z"
		/>
</g>
<g>
	<path class="st20" d="M719.6,1429.6c1.8,8.9,5.3,13.4,9.4,15.3c5.7-1.9,10.2-5.3,10.2-5.3c33-33,55-202,76.9-324
		S804.2,824,804.2,824c0,0.5-0.1,1.1-0.2,1.7c-4.6,37-79.5,203.3-84.4,228.9C714.6,1080.6,713.6,1399.6,719.6,1429.6z"/>
	<g>
		<path class="st16" d="M807.7,829c1.3,11.8,0.2,22,1,34.4c0.8,12-1.9,21.2-1.4,33.5c0.4,12.1,0.1,24.3,0.2,36.4
			c0.1,12.2-0.6,24.4-0.8,36.4c-0.2,12.3,3.7,24.7,3.2,36.6c-0.6,12.5,0,24.8-0.8,36.6c-0.9,12.7-6.3,24.5-7.5,36
			c-1.4,13.1-0.3,25.5-1.9,36.5c-1.6,10.5-2,22.6-4.4,35.1c-2.1,10.9-4.9,22.5-7.5,34.5c-2.5,11.1-9.5,21.6-12.4,33.3
			c-2.7,11.2-1.2,23.8-4.2,35.3c-2.9,11.3-7.8,22.3-10.9,33.6c-3.1,11.4-3.1,51.5-6.2,68.4c-1.6,8.7-7.3,22.7-10.7,33.7
			c-1.8,5.7-3.8,11.1-5.8,16.5c-1.4,3.8-6.9,2.9-7.2-1.1c-2.3-42-7.1-144.5,0.9-155c3.6-11.7,5.3-23.9,9-35.4
			c3.7-11.6,6.7-23.4,10.3-35c3.6-11.6,9.1-22.7,12.6-34.3c3.4-11.6,5.1-23.8,8.2-35.6c3.1-11.7,8.7-22.9,11.4-34.8
			c2.7-11.8,4.3-23.9,6.5-36c2-11.9,2.1-24,3.6-35.7c1.5-11.9,0.3-24.1,1.5-35.9c1.2-11.9,2-23.8,2.9-35.7
			c0.8-11.9,5.5-56.5,5.8-68.5C803.3,850.9,807.5,841,807.7,829"/>
		<path class="st16" d="M807.7,829c-1.8,12.1-3.4,22.6-5.3,34.7c-1.9,12.1-9.4,20.7-11.4,32.8c-2,12.1-0.5,24.9-2.7,37
			c-2.2,12.1-6.7,23.8-9.1,35.8c-2.4,12.1-6.8,23.7-9.5,35.6c-2.7,12-3.6,24.4-6.7,36.3c-3.1,11.9-9.1,22.9-12.6,34.7
			c-3.5,11.8-1.7,25.2-5.7,36.9c-4,11.6-8.6,23.1-13.1,34.6c0,0-9.8,77.2-0.3,102.3"/>
		<path class="st16" d="M807.7,829c-3.2,11.8-7.8,21.6-11,33.4c-3.3,11.8-9.3,20.3-12.6,32.1c-3.3,11.7-6.8,23.4-10.3,35.2
			c-3.4,11.7-4.7,24.1-8.3,35.8c-3.6,11.7-8.4,23-12.2,34.6c-3.7,11.6-7.1,23.4-11,35c-3.9,11.5-11.5,21.8-15.6,33.3
			c0,0-2.2,67,4.8,79.2"/>
	</g>
	<path class="st3" d="M729,1444.9c9.7,4.6,22.6-5.3,22.6-5.3c33-33,55-202,76.9-324c16.8-93.7-3.5-223-14.3-275.5
		c-0.8-4,2.4-7.6,1.6-10.7c-2.2-9-11.7-5.4-11.7-5.4s33.8,169.6,11.9,291.6s-43.9,291-76.9,324C739.2,1439.6,734.7,1443,729,1444.9z
		"/>
</g>
<g>
	<g>
		<circle class="st4" cx="257.3" cy="1401.5" r="27.5"/>
		<circle class="st4" cx="387.2" cy="1401.5" r="27.5"/>
	</g>
	<path class="st5" d="M412.7,1429.4c10.1-6.2,5.5-15.6,5.5-15.6c-17.5-3.8-30.7-11.6-38.4-17.1c-4.6-3.4-6.4-9.4-4.4-14.8l0.6-1.6
		c1.5-3.8,1-8.2-1.4-11.6c-2.6-3.5-6.7-5.6-11.1-5.6h-8.8c-3.9,0-7.7-1-11.1-2.9l-11.4-6.4c-6.2-3.5-13.7-3.5-19.9,0l-11.4,6.4
		c-3.4,1.9-7.2,2.9-11.1,2.9H281c-4.4,0-8.5,2.1-11.1,5.6c-2.4,3.3-2.9,7.7-1.4,11.6l0.6,1.6c2,5.4,0.2,11.4-4.4,14.8
		c-7.7,5.6-20.9,13.4-38.4,17.1c0,0-4.7,9.4,5.5,15.6c0,0-6.5,18.7-6.5,35.9c0,0,19,25,97,25s97-25,97-25
		C419.3,1448.1,412.7,1429.4,412.7,1429.4z"/>
	<g>
		<g>
			<path class="st5" d="M221.9,1355.1c8.5-6.5,20.5-5,29.9-1.6c6.8,2.5,12.8,6.4,18.6,10.7c2,1.5,15.4,11.1,8,12.4
				c-3.2,0.5-9.3-7.9-11.7-9.8c-5.4-4.6-11.4-8.7-18-11.3c-3-1.2-6.1-2.1-9.3-2.5c-4.2-0.5-8.5-0.4-12.5,1
				C225.1,1354.5,222.5,1356.8,221.9,1355.1z"/>
		</g>
		<g>
			<path class="st5" d="M422.6,1355.1c-8.5-6.5-20.5-5-29.9-1.6c-6.8,2.5-12.8,6.4-18.6,10.7c-2,1.5-15.4,11.1-8,12.4
				c3.2,0.5,9.3-7.9,11.7-9.8c5.4-4.6,11.4-8.7,18-11.3c3-1.2,6.1-2.1,9.3-2.5c4.2-0.5,8.5-0.4,12.5,1
				C419.4,1354.5,422,1356.8,422.6,1355.1z"/>
		</g>
	</g>
</g>
<g>
	<path class="st4" d="M431.1,1643.8c-0.2,4.3-4.7,7-8.7,5.3c-27.8-12.2-62.5-17.7-100.1-17.7c-37.6,0-72.3,5.5-100.2,17.7
		c-4,1.7-8.4-1-8.7-5.3c-1.5-26.3-1.5-53,1.2-76.4c0.9-7.5,7.3-13.2,14.8-13.2h185.7c7.6,0,14,5.7,14.8,13.2
		C432.6,1590.8,432.6,1617.5,431.1,1643.8z"/>
	<g>
		<path class="st6" d="M375.2,1816.2c-2.7,3.7-5,17.2-6.7,20.4c-5.2,10-10.8,26.7-14.8,39.4c-3.4,11.1-11.9,19.9-22.9,23.8l-8.6,3
			l-8.6-3c-11-3.9-19.5-12.7-22.9-23.8c-4-12.7-9.6-29.4-14.8-39.4c-1.7-3.3-4.2-17-7-20.9c16.5-4.9,34.1-7.6,52.4-7.6
			C340.2,1808.2,358.3,1811,375.2,1816.2z"/>
		<path class="st7" d="M399.2,1786.6c-6.6,8.2-14.5,24.7-21,35.1c-1.6,2.6-4.8,3.9-7.8,3.1c-15.5-4.3-32-6.6-49-6.6
			c-16.5,0-32.5,2.2-47.6,6.2c-3,0.8-6.1-0.4-7.8-3.1c-6.5-10.5-14.5-27-21.1-35.2c22.9-9.9,49-15.3,76.6-15.3
			C349.6,1770.8,376,1776.4,399.2,1786.6z"/>
		<path class="st8" d="M413.2,1755c-1.4,6.3,0.2,17.1-1.2,22.6c-1.1,4.3-7.1,9.2-11.6,15.1c-1.8,2.3-4.9,3.2-7.7,2
			c-22.1-9-44.9-13.9-71.2-13.9c-25.8,0-48.3,4.8-70.1,13.4c-2.7,1.1-5.8,0.2-7.6-2.1c-4.4-5.7-10.2-10.4-11.3-14.6
			c-1.4-5.6,0.1-16.5-1.3-23.1v0c26.4-13.6,56.2-21,90.5-21C356.4,1733.5,386.5,1741,413.2,1755z"/>
		<path class="st9" d="M419.8,1718.7c-2,12.9-2.6,31.6-3.9,42.1c-0.3,2.1-2.5,3.3-4.4,2.4c-25.9-12.7-56.7-19.6-89.8-19.6
			c-32.7,0-63.1,6.7-88.8,19.1c-1.9,0.9-4.1-0.3-4.4-2.4c-1.3-10.5-1.9-29.1-3.9-41.9c27.7-14.6,60-22.2,97.2-22.2
			C359.4,1696.1,392,1703.8,419.8,1718.7z"/>
		<path class="st10" d="M424.9,1681.3c-1.3,11.3-1.4,29.1-2.4,41.2c-0.3,3-3.4,4.7-6.1,3.4c-26.8-13-59.4-19.8-94.6-19.8
			c-34.9,0-67.2,6.7-93.9,19.5c-2.7,1.3-5.8-0.5-6.1-3.5c-1-12.1-1.1-29.8-2.4-41c28.5-15,62.9-22.4,102.5-22.4
			C361.8,1658.7,396.3,1666.2,424.9,1681.3z"/>
		<path class="st11" d="M428.5,1642.9c-0.8,11.8-0.3,31.4-1.2,44.2c-0.1,2-2.3,3.2-4.1,2.3c-28-13.9-63.1-20.7-101.2-20.7
			c-37.9,0-72.9,6.8-100.8,20.5c-1.8,0.9-3.9-0.3-4.1-2.3c-0.9-12.8-0.4-32.3-1.2-44c29-14.9,64.9-21.5,106.3-21.5
			C363.6,1621.4,399.5,1628,428.5,1642.9z"/>
	</g>
</g>
<path class="st12" d="M426.2,1490.2l3.2-2.4c4.7-3.5,5.3-10.3,1.3-14.6v0c-4.9-5.2-11.5-8.5-18.5-9.3l-70.9-16.1
	c-12.5-2.8-25.5-2.8-38.1,0l-70.9,16.1c-7.1,0.8-13.6,4.1-18.5,9.3v0c-4,4.3-3.4,11.1,1.3,14.6l3.2,2.4l-4.9,58.2
	c-0.9,10.8,5.6,20.8,15.8,24.4l60.6,31.5c21,7.5,43.9,7.5,65,0l60.6-31.5c10.2-3.6,16.7-13.7,15.8-24.4L426.2,1490.2z"/>
<g>
	<path class="st14" d="M305.9,2128.7c-1.8,8.9-5.3,13.4-9.4,15.3c-5.7-1.9-10.2-5.3-10.2-5.3c-33-33-55-202-76.9-324
		s11.9-291.6,11.9-291.6c0,0.5,0.1,1.1,0.2,1.7c4.6,37,79.5,203.3,84.4,228.9C310.9,1779.7,311.9,2098.7,305.9,2128.7z"/>
	<g>
		<path class="st16" d="M217.8,1528.1c-1.3,11.8-0.2,22-1,34.4c-0.8,12,1.9,21.2,1.4,33.5c-0.4,12.1-0.1,24.3-0.2,36.4
			c-0.1,12.2,0.6,24.4,0.8,36.4c0.2,12.3-3.7,24.7-3.2,36.6c0.6,12.5,0,24.8,0.8,36.6c0.9,12.7,6.3,24.5,7.5,36
			c1.4,13.1,0.3,25.5,1.9,36.5c1.6,10.5,2,22.6,4.4,35.1c2.1,10.9,4.9,22.5,7.5,34.5c2.5,11.1,9.5,21.6,12.4,33.3
			c2.7,11.2,1.2,23.8,4.2,35.3c2.9,11.3,7.8,22.3,10.9,33.6c3.1,11.4,3.1,51.5,6.2,68.4c1.6,8.7,7.3,22.7,10.7,33.7
			c1.8,5.7,3.8,11.1,5.8,16.5c1.4,3.8,6.9,2.9,7.2-1.1c2.3-42,7.1-144.5-0.9-155c-3.6-11.7-5.3-23.9-9-35.4
			c-3.7-11.6-6.7-23.4-10.3-35c-3.6-11.6-9.1-22.7-12.6-34.3c-3.4-11.6-5.1-23.8-8.2-35.6c-3.1-11.7-8.7-22.9-11.4-34.8
			c-2.7-11.8-4.3-23.9-6.5-36c-2-11.9-2.1-24-3.6-35.7c-1.5-11.9-0.3-24.1-1.5-35.9c-1.2-11.9-2-23.8-2.9-35.7
			c-0.8-11.9-5.5-56.5-5.8-68.5C222.2,1550,218.1,1540.1,217.8,1528.1"/>
		<path class="st16" d="M217.8,1528.1c1.8,12.1,3.4,22.6,5.3,34.7c1.9,12.1,9.4,20.7,11.4,32.8c2,12.1,0.5,24.9,2.7,37
			c2.2,12.1,6.7,23.8,9.1,35.8c2.4,12.1,6.8,23.7,9.5,35.6c2.7,12,3.6,24.4,6.7,36.3c3.1,11.9,9.1,22.9,12.6,34.7
			c3.5,11.8,1.7,25.2,5.7,36.9c4,11.6,8.6,23.1,13.1,34.6c0,0,9.8,77.2,0.3,102.3"/>
		<path class="st16" d="M217.8,1528.1c3.2,11.8,7.8,21.6,11,33.4c3.3,11.8,9.3,20.3,12.6,32.1c3.3,11.7,6.8,23.4,10.3,35.2
			c3.4,11.7,4.7,24.1,8.3,35.8c3.6,11.7,8.4,23,12.2,34.6c3.7,11.6,7.1,23.4,11,35c3.9,11.5,11.5,21.8,15.6,33.3
			c0,0,2.2,67-4.8,79.2"/>
	</g>
	<path class="st5" d="M296.5,2144c-9.7,4.6-22.6-5.3-22.6-5.3c-33-33-55-202-76.9-324c-16.8-93.7,3.5-223,14.3-275.5
		c0.8-4-2.4-7.6-1.6-10.7c2.2-9,11.7-5.4,11.7-5.4s-33.8,169.6-11.9,291.6s43.9,291,76.9,324C286.4,2138.7,290.9,2142.1,296.5,2144z
		"/>
</g>
<g>
	<path class="st14" d="M338.5,2128.7c1.8,8.9,5.3,13.4,9.4,15.3c5.7-1.9,10.2-5.3,10.2-5.3c33-33,55-202,76.9-324
		s-11.9-291.6-11.9-291.6c0,0.5-0.1,1.1-0.2,1.7c-4.6,37-79.5,203.3-84.4,228.9C333.5,1779.7,332.5,2098.7,338.5,2128.7z"/>
	<g>
		<path class="st16" d="M426.6,1528.1c1.3,11.8,0.2,22,1,34.4c0.8,12-1.9,21.2-1.4,33.5c0.4,12.1,0.1,24.3,0.2,36.4
			c0.1,12.2-0.6,24.4-0.8,36.4c-0.2,12.3,3.7,24.7,3.2,36.6c-0.6,12.5,0,24.8-0.8,36.6c-0.9,12.7-6.3,24.5-7.5,36
			c-1.4,13.1-0.3,25.5-1.9,36.5c-1.6,10.5-2,22.6-4.4,35.1c-2.1,10.9-4.9,22.5-7.5,34.5c-2.5,11.1-9.5,21.6-12.4,33.3
			c-2.7,11.2-1.2,23.8-4.2,35.3c-2.9,11.3-7.8,22.3-10.9,33.6c-3.1,11.4-3.1,51.5-6.2,68.4c-1.6,8.7-7.3,22.7-10.7,33.7
			c-1.8,5.7-3.8,11.1-5.8,16.5c-1.4,3.8-6.9,2.9-7.2-1.1c-2.3-42-7.1-144.5,0.9-155c3.6-11.7,5.3-23.9,9-35.4
			c3.7-11.6,6.7-23.4,10.3-35c3.6-11.6,9.1-22.7,12.6-34.3c3.4-11.6,5.1-23.8,8.2-35.6c3.1-11.7,8.7-22.9,11.4-34.8
			c2.7-11.8,4.3-23.9,6.5-36c2-11.9,2.1-24,3.6-35.7c1.5-11.9,0.3-24.1,1.5-35.9c1.2-11.9,2-23.8,2.9-35.7
			c0.8-11.9,5.5-56.5,5.8-68.5C422.2,1550,426.4,1540.1,426.6,1528.1"/>
		<path class="st16" d="M426.6,1528.1c-1.8,12.1-3.4,22.6-5.3,34.7c-1.9,12.1-9.4,20.7-11.4,32.8c-2,12.1-0.5,24.9-2.7,37
			c-2.2,12.1-6.7,23.8-9.1,35.8c-2.4,12.1-6.8,23.7-9.5,35.6c-2.7,12-3.6,24.4-6.7,36.3c-3.1,11.9-9.1,22.9-12.6,34.7
			c-3.5,11.8-1.7,25.2-5.7,36.9c-4,11.6-8.6,23.1-13.1,34.6c0,0-9.8,77.2-0.3,102.3"/>
		<path class="st16" d="M426.6,1528.1c-3.2,11.8-7.8,21.6-11,33.4c-3.3,11.8-9.3,20.3-12.6,32.1c-3.3,11.7-6.8,23.4-10.3,35.2
			c-3.4,11.7-4.7,24.1-8.3,35.8c-3.6,11.7-8.4,23-12.2,34.6c-3.7,11.6-7.1,23.4-11,35c-3.9,11.5-11.5,21.8-15.6,33.3
			c0,0-2.2,67,4.8,79.2"/>
	</g>
	<path class="st5" d="M347.9,2144c9.7,4.6,22.6-5.3,22.6-5.3c33-33,55-202,76.9-324c16.8-93.7-3.5-223-14.3-275.5
		c-0.8-4,2.4-7.6,1.6-10.7c-2.2-9-11.7-5.4-11.7-5.4s33.8,169.6,11.9,291.6s-43.9,291-76.9,324
		C358.1,2138.7,353.6,2142.1,347.9,2144z"/>
</g>
<path class="st4" d="M1739.5,1388.2c-0.9-7.5-7.3-13.2-14.8-13.2h-92.8H1539c-7.6,0-14,5.6-14.8,13.2
	c-9.2,79.8,13.2,197.4,17.9,210.2c5,13.5,34.2,41.3,43.4,59.1c5.2,10,10.8,26.7,14.8,39.4c3.4,11.1,11.9,19.9,22.9,23.8l8.6,3l8.6-3
	c11-3.9,19.5-12.7,22.9-23.8c4-12.7,9.6-29.4,14.8-39.4c9.3-17.8,38.5-45.6,43.4-59.1C1726.3,1585.5,1748.7,1467.9,1739.5,1388.2z"
	/>
<path class="st12" d="M1735.8,1311l3.2-2.4c4.7-3.5,5.3-10.3,1.3-14.6l0,0c-4.9-5.2-11.5-8.5-18.5-9.3l-90-10.4l-90,10.4
	c-7.1,0.8-13.6,4.1-18.5,9.3l0,0c-4,4.3-3.4,11.1,1.3,14.6l3.2,2.4l-4.9,58.2c-0.9,10.8,5.6,20.8,15.8,24.4l60.6,31.5
	c21,7.5,43.9,7.5,65,0l60.6-31.5c10.2-3.6,16.7-13.7,15.8-24.4L1735.8,1311z"/>
<g>
	<g>
		<circle class="st4" cx="1566.8" cy="1222.3" r="27.5"/>
		<circle class="st4" cx="1696.8" cy="1222.3" r="27.5"/>
	</g>
	<path class="st5" d="M1722.3,1250.2c10.1-6.2,5.5-15.6,5.5-15.6c-17.5-3.8-30.7-11.6-38.4-17.1c-4.6-3.4-6.4-9.4-4.4-14.8l0.6-1.6
		c1.5-3.8,1-8.2-1.4-11.6c-2.6-3.5-6.7-5.6-11.1-5.6h-8.8c-3.9,0-7.7-1-11.1-2.9l-11.4-6.4c-6.2-3.5-13.7-3.5-19.9,0l-11.4,6.4
		c-3.4,1.9-7.2,2.9-11.1,2.9h-8.8c-4.4,0-8.5,2.1-11.1,5.6c-2.4,3.3-2.9,7.7-1.4,11.6l0.6,1.6c2,5.4,0.2,11.4-4.4,14.8
		c-7.7,5.6-20.9,13.4-38.4,17.1c0,0-4.7,9.4,5.5,15.6c0,0-6.5,18.7-6.5,35.9c0,0,19,25,97,25c78,0,97-25,97-25
		C1728.9,1268.9,1722.3,1250.2,1722.3,1250.2z"/>
	<g>
		<g>
			<path class="st5" d="M1531.5,1175.9c8.5-6.5,20.5-5,29.9-1.6c6.8,2.5,12.8,6.4,18.6,10.7c2,1.5,15.4,11.1,8,12.4
				c-3.2,0.5-9.3-7.9-11.7-9.8c-5.4-4.6-11.4-8.7-18-11.3c-3-1.2-6.1-2.1-9.3-2.5c-4.2-0.5-8.5-0.4-12.5,1
				C1534.7,1175.3,1532,1177.6,1531.5,1175.9z"/>
		</g>
		<g>
			<path class="st5" d="M1732.2,1175.9c-8.5-6.5-20.5-5-29.9-1.6c-6.8,2.5-12.8,6.4-18.6,10.7c-2,1.5-15.4,11.1-8,12.4
				c3.2,0.5,9.3-7.9,11.7-9.8c5.4-4.6,11.4-8.7,18-11.3c3-1.2,6.1-2.1,9.3-2.5c4.2-0.5,8.5-0.4,12.5,1
				C1728.9,1175.3,1731.6,1177.6,1732.2,1175.9z"/>
		</g>
	</g>
</g>
<path class="st15" d="M1526.5,1405.2"/>
<g>
	<path class="st14" d="M1615.5,1949.5c-1.8,8.9-5.3,13.4-9.4,15.3c-5.7-1.9-10.2-5.3-10.2-5.3c-33-33-55-202-76.9-324
		s11.9-291.6,11.9-291.6c0,0.5,0.1,1.1,0.2,1.7c4.6,37,79.5,203.3,84.4,228.9C1620.5,1600.5,1621.5,1919.5,1615.5,1949.5z"/>
	<g>
		<path class="st16" d="M1527.4,1348.9c-1.3,11.8-0.2,22-1,34.4c-0.8,12,1.9,21.2,1.4,33.5c-0.4,12.1-0.1,24.3-0.2,36.4
			c-0.1,12.2,0.6,24.4,0.8,36.4c0.2,12.3-3.7,24.7-3.2,36.6c0.6,12.5,0,24.8,0.8,36.6c0.9,12.7,6.3,24.5,7.5,36
			c1.4,13.1,0.3,25.5,1.9,36.5c1.6,10.5,2,22.6,4.4,35.1c2.1,10.9,4.9,22.5,7.5,34.5c2.5,11.1,9.5,21.6,12.4,33.3
			c2.7,11.2,1.2,23.8,4.2,35.3c2.9,11.3,7.8,22.3,10.9,33.6c3.1,11.4,3.1,51.5,6.2,68.4c1.6,8.7,7.3,22.7,10.7,33.7
			c1.8,5.7,3.8,11.1,5.8,16.5c1.4,3.8,6.9,2.9,7.2-1.1c2.3-42,7.1-144.5-0.9-155c-3.6-11.7-5.3-23.9-9-35.4
			c-3.7-11.6-6.7-23.4-10.3-35c-3.6-11.6-9.1-22.7-12.6-34.3c-3.4-11.6-5.1-23.8-8.2-35.6c-3.1-11.7-8.7-22.9-11.4-34.8
			c-2.7-11.8-4.3-23.9-6.5-36c-2-11.9-2.1-24-3.6-35.7c-1.5-11.9-0.3-24.1-1.5-35.9c-1.2-11.9-2-23.8-2.9-35.7
			c-0.8-11.9-5.5-56.5-5.8-68.5C1531.8,1370.7,1527.7,1360.9,1527.4,1348.9"/>
		<path class="st16" d="M1527.4,1348.9c1.8,12.1,3.4,22.6,5.3,34.7c1.9,12.1,9.4,20.7,11.4,32.8c2,12.1,0.5,24.9,2.7,37
			c2.2,12.1,6.7,23.8,9.1,35.8c2.4,12.1,6.8,23.7,9.5,35.6c2.7,12,3.6,24.4,6.7,36.3c3.1,11.9,9.1,22.9,12.6,34.7
			c3.5,11.8,1.7,25.2,5.7,36.9c4,11.6,8.6,23.1,13.1,34.6c0,0,9.8,77.2,0.3,102.3"/>
		<path class="st16" d="M1527.4,1348.9c3.2,11.8,7.8,21.6,11,33.4c3.3,11.8,9.3,20.3,12.6,32.1c3.3,11.7,6.8,23.4,10.3,35.2
			c3.4,11.7,4.7,24.1,8.3,35.8c3.6,11.7,8.4,23,12.2,34.6c3.7,11.6,7.1,23.4,11,35c3.9,11.5,11.5,21.8,15.6,33.3
			c0,0,2.2,67-4.8,79.2"/>
	</g>
	<path class="st5" d="M1606.1,1964.8c-9.7,4.6-22.6-5.3-22.6-5.3c-33-33-55-202-76.9-324c-16.8-93.7,3.5-223,14.3-275.5
		c0.8-4-2.4-7.6-1.6-10.7c2.2-9,11.7-5.4,11.7-5.4s-33.8,169.6-11.9,291.6s43.9,291,76.9,324
		C1596,1959.5,1600.4,1962.9,1606.1,1964.8z"/>
</g>
<g>
	<path class="st14" d="M1648.1,1949.5c1.8,8.9,5.3,13.4,9.4,15.3c5.7-1.9,10.2-5.3,10.2-5.3c33-33,55-202,76.9-324
		s-11.9-291.6-11.9-291.6c0,0.5-0.1,1.1-0.2,1.7c-4.6,37-79.5,203.3-84.4,228.9C1643.1,1600.5,1642.1,1919.5,1648.1,1949.5z"/>
	<g>
		<path class="st16" d="M1736.2,1348.9c1.3,11.8,0.2,22,1,34.4c0.8,12-1.9,21.2-1.4,33.5c0.4,12.1,0.1,24.3,0.2,36.4
			c0.1,12.2-0.6,24.4-0.8,36.4c-0.2,12.3,3.7,24.7,3.2,36.6c-0.6,12.5,0,24.8-0.8,36.6c-0.9,12.7-6.3,24.5-7.5,36
			c-1.4,13.1-0.3,25.5-1.9,36.5c-1.6,10.5-2,22.6-4.4,35.1c-2.1,10.9-4.9,22.5-7.5,34.5c-2.5,11.1-9.5,21.6-12.4,33.3
			c-2.7,11.2-1.2,23.8-4.2,35.3c-2.9,11.3-7.8,22.3-10.9,33.6c-3.1,11.4-3.1,51.5-6.2,68.4c-1.6,8.7-7.3,22.7-10.7,33.7
			c-1.8,5.7-3.8,11.1-5.8,16.5c-1.4,3.8-6.9,2.9-7.2-1.1c-2.3-42-7.1-144.5,0.9-155c3.6-11.7,5.3-23.9,9-35.4
			c3.7-11.6,6.7-23.4,10.3-35c3.6-11.6,9.1-22.7,12.6-34.3c3.4-11.6,5.1-23.8,8.2-35.6c3.1-11.7,8.7-22.9,11.4-34.8
			c2.7-11.8,4.3-23.9,6.5-36c2-11.9,2.1-24,3.6-35.7c1.5-11.9,0.3-24.1,1.5-35.9c1.2-11.9,2-23.8,2.9-35.7
			c0.8-11.9,5.5-56.5,5.8-68.5C1731.8,1370.7,1735.9,1360.9,1736.2,1348.9"/>
		<path class="st16" d="M1736.2,1348.9c-1.8,12.1-3.4,22.6-5.3,34.7c-1.9,12.1-9.4,20.7-11.4,32.8c-2,12.1-0.5,24.9-2.7,37
			c-2.2,12.1-6.7,23.8-9.1,35.8c-2.4,12.1-6.8,23.7-9.5,35.6c-2.7,12-3.6,24.4-6.7,36.3c-3.1,11.9-9.1,22.9-12.6,34.7
			c-3.5,11.8-1.7,25.2-5.7,36.9c-4,11.6-8.6,23.1-13.1,34.6c0,0-9.8,77.2-0.3,102.3"/>
		<path class="st16" d="M1736.2,1348.9c-3.2,11.8-7.8,21.6-11,33.4c-3.3,11.8-9.3,20.3-12.6,32.1c-3.3,11.7-6.8,23.4-10.3,35.2
			c-3.4,11.7-4.7,24.1-8.3,35.8c-3.6,11.7-8.4,23-12.2,34.6c-3.7,11.6-7.1,23.4-11,35c-3.9,11.5-11.5,21.8-15.6,33.3
			c0,0-2.2,67,4.8,79.2"/>
	</g>
	<path class="st5" d="M1657.5,1964.8c9.7,4.6,22.6-5.3,22.6-5.3c33-33,55-202,76.9-324c16.8-93.7-3.5-223-14.3-275.5
		c-0.8-4,2.4-7.6,1.6-10.7c-2.2-9-11.7-5.4-11.7-5.4s33.8,169.6,11.9,291.6s-43.9,291-76.9,324
		C1667.7,1959.5,1663.2,1962.9,1657.5,1964.8z"/>
</g>
<path class="st21" d="M694,784.8c0,0,4,57-14,54c-18-3-22.1-50-22.1-50S679.2,784.8,694,784.8z"/>
<path class="st4" d="M694,784.8c0,0,3.8,53-13,50.2s-20.5-46.5-20.5-46.5S680.2,784.8,694,784.8z"/>
<path class="st4" d="M708,784.5c0,0-4.2,48,5.5,57.8c6.9,6.9,21,14.7,28.5,18.5c3.5,1.8,5.1,5.8,3.8,9.5c-2.8,7.9-12.1,21-42.1,31.7
	c-30-10.7-39.3-23.8-42.1-31.7c-1.3-3.7,0.4-7.7,3.8-9.5c7.5-3.9,21.6-11.6,28.5-18.5c9.8-9.8,5.5-57.8,5.5-57.8H708z"/>
<path class="st22" d="M650.5,791.5l9.8,27.8c0,0-12.5,27-12.5,53.8l-83.5,0.2l19.5-87.5L650.5,791.5z"/>
<ellipse class="st22" cx="703.2" cy="805.3" rx="129.2" ry="25.2"/>
</svg>
