<svg xmlns="http://www.w3.org/2000/svg" width="648" height="649.7" viewBox="-315 76.3 648 649.7" enable-background="new -315 76.3 648 649.7"><g fill="#d87b33"><circle cx="-201.5" cy="442" r="16.1"/><circle cx="-125.1" cy="442" r="16.1"/></g><path d="m-110.1 458.4c6-3.7 3.2-9.2 3.2-9.2-10.3-2.2-18-6.8-22.6-10.1-2.7-2-3.8-5.5-2.6-8.7l.4-.9c.9-2.3.6-4.8-.8-6.8-1.5-2.1-4-3.3-6.5-3.3h-5.2c-2.3 0-4.5-.6-6.5-1.7l-6.7-3.7c-3.6-2-8.1-2-11.7 0l-6.7 3.7c-2 1.1-4.2 1.7-6.5 1.7h-5.2c-2.6 0-5 1.2-6.5 3.3-1.4 1.9-1.7 4.5-.8 6.8l.4.9c1.2 3.1.1 6.7-2.6 8.7-4.5 3.3-12.3 7.9-22.6 10.1 0 0-2.8 5.5 3.2 9.2 0 0-3.8 11-3.8 21.1 0 0 11.2 14.7 57 14.7s57-14.7 57-14.7c-.1-10.1-3.9-21.1-3.9-21.1z" fill="none" stroke="#99bfa3" stroke-miterlimit="10"/></svg>