<?xml version="1.0" encoding="utf-8"?>
<!-- Generator: Adobe Illustrator 19.1.0, SVG Export Plug-In . SVG Version: 6.00 Build 0)  -->
<svg version="1.1" id="Layer_1" xmlns="http://www.w3.org/2000/svg" xmlns:xlink="http://www.w3.org/1999/xlink" x="0px" y="0px"
	 width="158.1px" height="288px" viewBox="-315 726 158.1 288" style="enable-background:new -315 726 158.1 288;"
	 xml:space="preserve">
<style type="text/css">
	.st0{fill:#E2D5CA;}
	.st1{fill:#3A3B33;}
	.st2{fill:none;}
	.st3{fill:#31322C;}
	.st4{fill:#91893C;}
	.st5{fill:#6E7A42;}
	.st6{fill:#6F7060;}
	.st7{fill:#646658;}
	.st8{fill:#5A5C4F;}
	.st9{fill:#4F5246;}
	.st10{fill:#46473D;}
	.st11{fill:#3C3D35;}
	.st12{fill:#6D6330;}
	.st13{fill:#CC964B;}
	.st14{opacity:0.5;fill:#E2D5CA;enable-background:new    ;}
	.st15{fill:none;stroke:#77675F;stroke-width:0.6983;stroke-miterlimit:10;}
</style>
<path class="st0" d="M283.1,961.6"/>
<g>
	<g>
		<g>
			<path class="st1" d="M-266.6,776l-0.2-0.1l-0.1-0.1c0,0-0.1,0-0.1-0.1c-0.2-0.1-0.3-0.2-0.5-0.4c-0.3-0.2-0.6-0.5-0.8-0.7
				c-0.5-0.5-0.9-1-1.3-1.5c-0.8-1-1.4-2.2-1.9-3.3s-1-2.2-1.4-3.4c-0.4-1.1-0.7-2.2-1-3.4c-0.6-2.3-1.1-4.5-1.5-6.8
				c-0.2-1.2-0.3-2.3-0.5-3.4l-0.2-1.7c-0.1-0.6-0.1-1.2-0.2-1.7l0.3,0.9c-0.2-0.4-0.2-0.9-0.2-1.4c0-0.2,0-0.5,0-0.7
				c0-0.2-0.1-0.4-0.2-0.6c-0.4-0.8-0.8-1.5-1.3-2.3c-0.2-0.4-0.4-0.8-0.7-1.2c-0.2-0.4-0.5-0.8-0.7-1.1c-0.5-0.8-0.9-1.5-1.4-2.3
				c-0.5-0.8-0.9-1.5-1.4-2.2c-0.5-0.8-0.9-1.5-1.3-2.3c-0.4-0.8-0.9-1.5-1.3-2.3l-0.3-0.6c-0.1-0.2-0.2-0.4-0.3-0.6
				c-0.1-0.4-0.1-0.9,0.1-1.5l-0.1-0.5l0,0c0-0.1,0-0.2,0-0.3c0-0.1,0-0.2,0-0.3c0-0.2,0.1-0.3,0.1-0.5c0.1-0.3,0.2-0.7,0.4-0.9
				c0.3-0.6,0.7-1.2,1.2-1.6c0.1-0.1,0.2-0.2,0.4-0.3c0.1-0.1,0.3-0.2,0.4-0.2c0.1-0.1,0.3-0.1,0.4-0.2c0.1-0.1,0.3-0.1,0.4-0.1
				s0.3-0.1,0.4-0.1c0.1,0,0.3,0,0.4-0.1c0.3,0,0.6-0.1,0.9-0.1c-0.3,0.1-0.5,0.2-0.8,0.3c-0.1,0.1-0.2,0.1-0.3,0.2
				s-0.2,0.1-0.3,0.2c-0.5,0.3-0.8,0.7-1,1.1c-0.2,0.4-0.4,0.9-0.5,1.3c0,0.2,0,0.5,0,0.7c0,0.1,0,0.2,0,0.3c0,0.1,0,0.1,0,0.1
				s0,0.1,0,0.1l0,0l-0.1-0.5c0.6,0.1,1,0.5,1.3,0.8c0.1,0.2,0.2,0.3,0.3,0.6l0.3,0.6c0.4,0.8,0.8,1.5,1.2,2.3
				c0.4,0.8,0.8,1.6,1.2,2.4c0.4,0.8,0.7,1.6,1.1,2.4c0.4,0.8,0.7,1.6,1.1,2.4c0.2,0.4,0.4,0.8,0.6,1.2c0.2,0.4,0.4,0.8,0.6,1.2
				c0.4,0.8,0.8,1.6,1.3,2.3c0.1,0.2,0.2,0.4,0.3,0.6c0.1,0.2,0.3,0.3,0.6,0.5c0.5,0.2,0.8,0.6,1,0.9l0.2,0.5l0.1,0.4
				c0.1,0.5,0.1,1,0.2,1.6l0.3,1.6c0.2,1.1,0.4,2.2,0.6,3.2c0.2,1.1,0.5,2.1,0.7,3.2c0.2,1,0.5,2.1,0.8,3.1s0.6,2.1,0.9,3.1
				c0.3,1,0.7,2,1.1,2.9c0.4,0.9,0.9,1.8,1.4,2.6c0.2,0.4,0.5,0.7,0.8,1c0.1,0.2,0.3,0.3,0.4,0.5l0.2,0.1c0,0,0,0,0.1,0.1l0.1,0.1
				l0.2,0.1l0,0c1,0.8,1.2,2.2,0.5,3.2C-264.2,776.4-265.6,776.6-266.6,776z"/>
		</g>
		<path class="st1" d="M-265.5,843.4c-0.3-0.5-1-0.6-1.5-0.2c-2.2,1.6-4.4,3.3-6.5,5l-3.2,2.5l-3.2,2.5c-1.1,0.8-2.2,1.7-3.2,2.6
			c-1.1,0.9-2.1,1.8-3.1,2.8c-0.5,0.5-1,1-1.5,1.5c-0.5,0.5-0.9,1-1.4,1.6c-0.2,0.3-0.5,0.6-0.7,0.8s-0.5,0.6-0.7,0.9
			c-0.1,0.2-0.3,0.3-0.3,0.5c0,0.1,0,0.2,0,0.3c0,0.2,0,0.3,0.1,0.5c0.1,0.3,0.2,0.6,0.3,0.9c0.1,0.3,0.1,0.5,0.1,0.7l-0.1,0.1
			c0,0.2,0,0.3-0.1,0.5s-0.2,0.3-0.3,0.4c-0.1,0.1-0.3,0.2-0.4,0.3c-0.1,0.1-0.2,0.3-0.3,0.4c-0.4,0.6-0.8,1.1-1.2,1.6
			c-0.8,1-1.7,2.1-2.6,3c-0.5,0.5-0.9,0.9-1.4,1.4c-0.5,0.4-0.9,0.8-1.4,1.2c-0.5,0.3-1,0.6-1.4,0.8c-0.2,0.1-0.4,0.2-0.6,0.3
			c-0.2,0.1-0.3,0.1-0.5,0.2l-0.5,0.2c-0.7,0.3-1.2,1-1.2,1.8c0,0,0,0,0,0c0,0,0,0,0,0c-0.4,0.5-0.8,1.1-1.2,1.8
			c-0.2,0.3-0.3,0.7-0.4,1c-0.1,0.2-0.1,0.3-0.2,0.5c-0.1,0.1-0.1,0.3-0.1,0.4c-0.1,0.3-0.1,0.5-0.1,0.6c0,0.2,0,0.2,0,0.2
			s0.1-0.1,0.2-0.2c0.1-0.1,0.2-0.3,0.4-0.5c0.1-0.1,0.2-0.2,0.3-0.3c0.1-0.1,0.2-0.2,0.3-0.3c0.2-0.2,0.5-0.4,0.8-0.6
			c0.5-0.3,1-0.6,1.4-0.7c0.2,0.1,0.4,0.1,0.7,0.1c0.5,0,1,0,1.5-0.2c0.5-0.1,0.9-0.3,1.3-0.5c0.8-0.4,1.5-1,2.1-1.5
			c1.2-1.1,2.2-2.3,3-3.5c0.8-1.2,1.6-2.5,2.3-3.8c0.3-0.6,0.7-1.3,1-1.9c0.1-0.1,0.2-0.3,0.2-0.5c0.1-0.2,0.1-0.4,0.1-0.6
			c0-0.2,0.1-0.3,0.1-0.5c0.1-0.1,0.2-0.3,0.4-0.4l-0.1,0.1c0.1-0.1,0.4-0.1,0.7-0.1c0.3,0,0.6,0.1,0.9,0.1c0.2,0,0.3,0,0.4,0
			c0.1,0,0.2,0,0.3-0.1c0.1-0.1,0.2-0.2,0.3-0.3c0.4-0.5,0.8-0.9,1.2-1.4c0.2-0.2,0.4-0.5,0.6-0.7l0.7-0.7l1.3-1.5l1.3-1.5l1.3-1.5
			l2.7-3.1c0.9-1,1.8-2.1,2.7-3.1l1.4-1.5c0.5-0.5,0.9-1,1.4-1.5c1.9-2,3.8-3.9,5.7-5.9C-265.3,844.5-265.3,843.9-265.5,843.4z"/>
		<path class="st1" d="M-269.3,785.4c-0.3-0.5-1-0.6-1.5-0.2c-2.2,1.6-4.4,3.3-6.5,5l-3.2,2.5l-3.2,2.5c-1.1,0.8-2.2,1.7-3.2,2.6
			c-1.1,0.9-2.1,1.8-3.1,2.8c-0.5,0.5-1,1-1.5,1.5c-0.5,0.5-0.9,1-1.4,1.6c-0.2,0.3-0.5,0.6-0.7,0.8c-0.2,0.3-0.5,0.6-0.7,0.9
			c-0.1,0.1-0.2,0.3-0.3,0.5c-0.1,0.2-0.1,0.4-0.1,0.6c0,0.1,0,0.2,0,0.4c0,0.1,0.1,0.3,0.1,0.4c-0.2,0-0.3-0.1-0.4-0.1l-2.2-0.6
			c-1.5-0.4-3-0.7-4.5-1c-0.8-0.2-1.5-0.3-2.3-0.5c-0.8-0.1-1.6-0.3-2.3-0.4c-0.8-0.1-1.6-0.2-2.4-0.2c-0.4,0-0.8,0-1.2,0
			c-0.4,0-0.9,0-1.3,0.1c-0.2,0.1-0.4,0.1-0.6,0.3c-0.3-0.1-0.5-0.3-0.8-0.5c-0.3-0.2-0.5-0.4-0.8-0.6c-0.1-0.1-0.2-0.2-0.3-0.3
			c-0.1-0.1-0.2-0.2-0.3-0.3c-0.2-0.2-0.3-0.4-0.4-0.5c-0.1-0.1-0.2-0.2-0.2-0.2s0,0.1,0.1,0.2c0,0.2,0.1,0.4,0.2,0.6
			c0,0.1,0.1,0.3,0.1,0.4c0.1,0.2,0.1,0.3,0.2,0.5c0.1,0.3,0.3,0.7,0.4,1c0.2,0.5,0.5,0.9,0.8,1.3c0,1.1,0.7,2,1.8,2.2l0.2,0
			c0.2,0,0.3,0.1,0.5,0.1s0.3,0,0.5,0c0.3,0,0.7,0,1,0c0.7,0,1.5,0,2.2,0c0.7,0,1.5,0.1,2.2,0.1c0.7,0,1.5,0.1,2.2,0.1
			c1.5,0.1,3,0.2,4.5,0.3l2.3,0.2c0.7,0.1,1.5,0.1,2.3,0.2l1.2-0.5c0.5,0.1,0.8,0.2,1.1,0.2c0.3,0,0.5,0,0.7,0
			c0.2,0,0.3-0.1,0.5-0.2c0.1-0.1,0.2-0.2,0.3-0.3c0.4-0.5,0.8-0.9,1.2-1.4c0.2-0.2,0.4-0.5,0.6-0.7l0.7-0.7l1.3-1.5l1.3-1.5
			l1.3-1.5l2.7-3.1c0.9-1,1.8-2.1,2.7-3.1l1.4-1.5c0.5-0.5,0.9-1,1.4-1.5c1.9-2,3.8-3.9,5.7-5.9C-269,786.3-269,785.8-269.3,785.4z"
			/>
		<g>
			<path class="st1" d="M-208.4,775.6c-0.8-1-0.6-2.4,0.5-3.2l0,0l0.2-0.1l0.1-0.1c0,0,0.1-0.1,0.1-0.1l0.2-0.1
				c0.1-0.1,0.3-0.3,0.4-0.5c0.3-0.3,0.6-0.7,0.8-1c0.5-0.8,1-1.6,1.4-2.6c0.4-0.9,0.8-1.9,1.1-2.9c0.3-1,0.7-2,0.9-3.1
				s0.6-2.1,0.8-3.1c0.2-1.1,0.5-2.1,0.7-3.2c0.2-1.1,0.4-2.2,0.6-3.2l0.3-1.6c0.1-0.6,0.1-1.1,0.2-1.6l0.1-0.4l0.2-0.5
				c0.2-0.4,0.6-0.7,1-0.9c0.2-0.1,0.5-0.3,0.6-0.5c0.1-0.2,0.2-0.3,0.3-0.6c0.5-0.8,0.9-1.6,1.3-2.3c0.2-0.4,0.4-0.8,0.6-1.2
				c0.2-0.4,0.3-0.8,0.6-1.2c0.4-0.8,0.7-1.6,1.1-2.4c0.4-0.8,0.7-1.6,1.1-2.4c0.4-0.8,0.8-1.6,1.2-2.4c0.4-0.8,0.8-1.6,1.2-2.3
				l0.3-0.6c0.1-0.2,0.2-0.4,0.3-0.6c0.3-0.3,0.7-0.7,1.3-0.8l-0.1,0.5l0,0c0,0,0-0.1,0-0.1s0-0.1,0-0.1c0-0.1,0-0.2,0-0.3
				c0-0.2,0-0.5,0-0.7c-0.1-0.5-0.2-0.9-0.5-1.3c-0.2-0.4-0.6-0.8-1-1.1c-0.1-0.1-0.2-0.2-0.3-0.2s-0.2-0.1-0.3-0.2
				c-0.2-0.1-0.5-0.2-0.8-0.3c0.3,0,0.6,0,0.9,0.1c0.1,0,0.3,0,0.4,0.1s0.3,0.1,0.4,0.1s0.3,0.1,0.4,0.1s0.3,0.1,0.4,0.2
				s0.3,0.1,0.4,0.2c0.1,0.1,0.2,0.2,0.4,0.3c0.5,0.4,0.9,1,1.2,1.6c0.2,0.3,0.3,0.6,0.4,0.9c0,0.2,0.1,0.3,0.1,0.5
				c0,0.1,0,0.2,0,0.3c0,0.1,0,0.2,0,0.3l0,0l-0.1,0.5c0.2,0.6,0.2,1.1,0.1,1.5c-0.1,0.2-0.2,0.4-0.3,0.6l-0.3,0.6
				c-0.4,0.8-0.8,1.5-1.3,2.3c-0.4,0.8-0.9,1.5-1.3,2.3c-0.5,0.7-0.9,1.5-1.4,2.2c-0.5,0.8-0.9,1.5-1.4,2.3
				c-0.2,0.3-0.5,0.7-0.7,1.1c-0.2,0.4-0.5,0.8-0.7,1.2c-0.4,0.8-0.8,1.5-1.3,2.3c-0.1,0.2-0.2,0.4-0.2,0.6c0,0.2,0,0.5,0,0.7
				c0,0.5,0,1-0.2,1.4l0.3-0.9c-0.1,0.6-0.1,1.2-0.2,1.7l-0.2,1.7c-0.1,1.2-0.3,2.3-0.5,3.4c-0.4,2.3-0.9,4.5-1.5,6.8
				c-0.3,1.2-0.6,2.3-1,3.4c-0.4,1.1-0.9,2.2-1.4,3.4s-1.1,2.2-1.9,3.3c-0.4,0.5-0.8,1-1.3,1.5c-0.2,0.2-0.5,0.5-0.8,0.7
				c-0.1,0.1-0.3,0.3-0.5,0.4c0,0-0.1,0-0.1,0.1l-0.1,0.1l-0.2,0.1C-206.4,776.6-207.7,776.4-208.4,775.6z"/>
		</g>
		<path class="st1" d="M-206.4,843.4c0.3-0.5,1-0.6,1.5-0.2c2.2,1.6,4.4,3.3,6.5,5l3.2,2.5l3.2,2.5c1.1,0.8,2.2,1.7,3.2,2.6
			c1.1,0.9,2.1,1.8,3.1,2.8c0.5,0.5,1,1,1.5,1.5c0.5,0.5,0.9,1,1.4,1.6c0.2,0.3,0.5,0.6,0.7,0.8c0.2,0.3,0.5,0.6,0.7,0.9
			c0.1,0.2,0.3,0.3,0.3,0.5c0,0.1,0,0.2,0,0.3c0,0.2,0,0.3-0.1,0.5c-0.1,0.3-0.2,0.6-0.3,0.9c-0.1,0.3-0.1,0.5-0.1,0.7l0.1,0.1
			c0,0.2,0,0.3,0.1,0.5s0.2,0.3,0.3,0.4s0.3,0.2,0.4,0.3c0.1,0.1,0.2,0.3,0.3,0.4c0.4,0.6,0.8,1.1,1.2,1.6c0.8,1,1.7,2.1,2.6,3
			c0.5,0.5,0.9,0.9,1.4,1.4c0.5,0.4,0.9,0.8,1.4,1.2c0.5,0.3,1,0.6,1.4,0.8c0.2,0.1,0.4,0.2,0.6,0.3c0.2,0.1,0.3,0.1,0.5,0.2
			l0.5,0.2c0.7,0.3,1.2,1,1.2,1.8c0,0,0,0,0,0c0,0,0,0,0,0c0.4,0.5,0.8,1.1,1.2,1.8c0.2,0.3,0.3,0.7,0.4,1c0.1,0.2,0.1,0.3,0.2,0.5
			c0.1,0.1,0.1,0.3,0.1,0.4c0.1,0.3,0.1,0.5,0.1,0.6c0,0.2,0,0.2,0,0.2s-0.1-0.1-0.2-0.2c-0.1-0.1-0.2-0.3-0.4-0.5
			c-0.1-0.1-0.2-0.2-0.3-0.3c-0.1-0.1-0.2-0.2-0.3-0.3c-0.2-0.2-0.5-0.4-0.8-0.6c-0.5-0.3-1-0.6-1.4-0.7c-0.2,0.1-0.4,0.1-0.7,0.1
			c-0.5,0-1,0-1.5-0.2c-0.5-0.1-0.9-0.3-1.3-0.5c-0.8-0.4-1.5-1-2.1-1.5c-1.2-1.1-2.2-2.3-3-3.5c-0.8-1.2-1.6-2.5-2.3-3.8
			c-0.3-0.6-0.7-1.3-1-1.9c-0.1-0.1-0.2-0.3-0.2-0.5c-0.1-0.2-0.1-0.4-0.1-0.6c0-0.2-0.1-0.3-0.1-0.5c-0.1-0.1-0.2-0.3-0.4-0.4
			l0.1,0.1c-0.1-0.1-0.4-0.1-0.7-0.1s-0.6,0.1-0.9,0.1c-0.2,0-0.3,0-0.4,0c-0.1,0-0.2,0-0.3-0.1c-0.1-0.1-0.2-0.2-0.3-0.3
			c-0.4-0.5-0.8-0.9-1.2-1.4c-0.2-0.2-0.4-0.5-0.6-0.7l-0.7-0.7l-1.3-1.5l-1.3-1.5l-1.3-1.5l-2.7-3.1c-0.9-1-1.8-2.1-2.7-3.1
			l-1.4-1.5c-0.5-0.5-0.9-1-1.4-1.5c-1.9-2-3.8-3.9-5.7-5.9C-206.6,844.5-206.6,843.9-206.4,843.4z"/>
		<path class="st1" d="M-202.7,785.4c0.3-0.5,1-0.6,1.5-0.2c2.2,1.6,4.4,3.3,6.5,5l3.2,2.5l3.2,2.5c1.1,0.8,2.2,1.7,3.2,2.6
			c1.1,0.9,2.1,1.8,3.1,2.8c0.5,0.5,1,1,1.5,1.5c0.5,0.5,0.9,1,1.4,1.6c0.2,0.3,0.5,0.6,0.7,0.8c0.2,0.3,0.5,0.6,0.7,0.9
			c0.1,0.1,0.2,0.3,0.3,0.5c0.1,0.2,0.1,0.4,0.1,0.6c0,0.1,0,0.2,0,0.4c0,0.1-0.1,0.3-0.1,0.4c0.2,0,0.3-0.1,0.4-0.1l2.2-0.6
			c1.5-0.4,3-0.7,4.5-1c0.8-0.2,1.5-0.3,2.3-0.5s1.6-0.3,2.3-0.4c0.8-0.1,1.6-0.2,2.4-0.2c0.4,0,0.8,0,1.2,0c0.4,0,0.9,0,1.3,0.1
			c0.2,0.1,0.4,0.1,0.6,0.3c0.3-0.1,0.5-0.3,0.8-0.5c0.3-0.2,0.5-0.4,0.8-0.6c0.1-0.1,0.2-0.2,0.3-0.3c0.1-0.1,0.2-0.2,0.3-0.3
			c0.2-0.2,0.3-0.4,0.4-0.5c0.1-0.1,0.2-0.2,0.2-0.2s0,0.1-0.1,0.2c0,0.2-0.1,0.4-0.2,0.6c0,0.1-0.1,0.3-0.1,0.4
			c-0.1,0.2-0.1,0.3-0.2,0.5c-0.1,0.3-0.3,0.7-0.4,1c-0.2,0.5-0.5,0.9-0.8,1.3c0,1.1-0.7,2-1.8,2.2l-0.2,0c-0.2,0-0.3,0.1-0.5,0.1
			c-0.2,0-0.3,0-0.5,0c-0.3,0-0.7,0-1,0c-0.7,0-1.5,0-2.2,0c-0.7,0-1.5,0.1-2.2,0.1c-0.7,0-1.5,0.1-2.2,0.1c-1.5,0.1-3,0.2-4.5,0.3
			l-2.3,0.2c-0.7,0.1-1.5,0.1-2.3,0.2l-1.2-0.5c-0.5,0.1-0.8,0.2-1.1,0.2c-0.3,0-0.5,0-0.7,0c-0.2,0-0.3-0.1-0.5-0.2
			c-0.1-0.1-0.2-0.2-0.3-0.3c-0.4-0.5-0.8-0.9-1.2-1.4c-0.2-0.2-0.4-0.5-0.6-0.7l-0.7-0.7l-1.3-1.5l-1.3-1.5l-1.3-1.5l-2.7-3.1
			c-0.9-1-1.8-2.1-2.7-3.1l-1.4-1.5c-0.5-0.5-0.9-1-1.4-1.5c-1.9-2-3.8-3.9-5.7-5.9C-202.9,786.3-203,785.8-202.7,785.4z"/>
	</g>
	<g>
		<path class="st2" d="M-236,782.9"/>
	</g>
	<g>
		<g>
			<path class="st3" d="M-258.6,746.5c5.3,0,9.6,3.6,9.6,8.9c0,5.3-4.3,9.6-9.6,9.6s-9.6-4.3-9.6-9.6
				C-268.2,750.1-263.9,746.5-258.6,746.5z"/>
			<path class="st3" d="M-213.3,746.5c5.3,0,9.6,3.6,9.6,8.9c0,5.3-4.3,9.6-9.6,9.6s-9.6-4.3-9.6-9.6
				C-222.9,750.1-218.6,746.5-213.3,746.5z"/>
		</g>
		<path class="st4" d="M-202.1,776.6c0,0-2.8,3.4-12.2,5.8c-5.1,1.3-12.1,2.3-21.6,2.3c-9.5,0-16.6-1-21.6-2.3
			c-9.4-2.4-12.2-5.8-12.2-5.8c0-0.7,0.1-1.3,0.2-2c0.8-4.4,4.1-7.7,5.2-9.1c0,0,0,0,0,0c0.2-0.3,0.4-0.4,0.4-0.4
			c-3.6-2.2-3-5.4-3-5.4c6.1-1.3,8.3-4,11-6c1.6-1.2,2.2-2.6,1.5-4.5l-0.2-0.6c-0.5-1.4-0.3-2.9,0.5-4c0.9-1.2,2.3-2,3.9-2h3.1
			c1.4,0,2.7-0.3,3.9-1l4-2.2c2.2-1.2,4.8-1.2,6.9,0l4,2.2c1.2,0.7,2.5,1,3.9,1h3.1c1.5,0,3,0.7,3.9,2c0.8,1.2,1,2.7,0.5,4l-0.2,0.6
			c-0.7,1.9-0.1,3.3,1.5,4.5c2.7,1.9,4.9,4.6,11,6c0,0,0.6,3.3-3,5.4c0,0,0,0,0.1,0.1c0.1,0.1,0.2,0.2,0.3,0.4
			c1,1.2,3.4,3.3,4.6,6.9C-202.4,773.8-202.1,775.2-202.1,776.6z"/>
		<g>
			<g>
				<path class="st4" d="M-271,739.9c3-2.3,7.2-1.7,10.4-0.6c2.4,0.9,4.5,2.2,6.5,3.7c0.7,0.5,5.4,3.9,2.8,4.3
					c-1.1,0.2-3.2-2.8-4.1-3.4c-1.9-1.6-4-3-6.3-3.9c-1-0.4-2.1-0.7-3.2-0.9c-1.5-0.2-3-0.1-4.4,0.3
					C-269.9,739.7-270.8,740.5-271,739.9z"/>
			</g>
			<g>
				<path class="st4" d="M-200.9,739.9c-3-2.3-7.2-1.7-10.4-0.6c-2.4,0.9-4.5,2.2-6.5,3.7c-0.7,0.5-5.4,3.9-2.8,4.3
					c1.1,0.2,3.2-2.8,4.1-3.4c1.9-1.6,4-3,6.3-3.9c1-0.4,2.1-0.7,3.2-0.9c1.5-0.2,3-0.1,4.4,0.3
					C-202.1,739.7-201.1,740.5-200.9,739.9z"/>
			</g>
		</g>
		<path class="st5" d="M-202.1,776.6c0,0-2.8,3.4-12.2,5.8c-10.7-0.9-21.7-4.3-21.7-4.3s-10.9,3.4-21.6,4.3
			c-9.4-2.4-12.2-5.8-12.2-5.8c0-0.7,0.1-1.3,0.2-2c0.8-4.4,4.1-7.7,5.2-9.1c0,0,0,0,0,0c0.4-0.3,0.6-0.4,0.6-0.4s3.2,9.8,25.8,9.8
			c0,0-5.8-7.6-9.1-8.3c-2.8-0.6-7.3,0-8.9-3.1c-0.4-0.8-0.1-1.8,0.7-2.3c2.5-1.4,8.4-4.4,16.2-4.6c0.5,0,0.8,0.5,0.6,0.9l-0.2,0.3
			c-0.3,0.6-0.5,1.3-0.5,2c0.2,2.8,0.7,10,1.3,11c0.7,1.3,1.9,1.5,1.9,1.5s1.1-0.2,1.9-1.5c0.6-1,1.1-8.2,1.3-11
			c0-0.7-0.1-1.4-0.5-2l-0.2-0.3c-0.2-0.4,0.1-0.9,0.6-0.9c7.8,0.2,13.7,3.2,16.2,4.6c0.8,0.5,1.2,1.5,0.7,2.3
			c-1.6,3.1-6.1,2.4-8.9,3.1c-3.2,0.7-9.1,8.3-9.1,8.3c22.6,0,25.8-9.8,25.8-9.8s0.3,0.2,0.7,0.5c1,1.2,3.4,3.3,4.6,6.9
			C-202.4,773.8-202.1,775.2-202.1,776.6z"/>
	</g>
	<g>
		<g>
			<path class="st6" d="M-217.5,899.1c-0.9,1.3-1.7,6-2.3,7.1c-1.8,3.5-3.8,9.3-5.2,13.8c-1.2,3.9-4.2,6.9-8,8.3l-3,1l-3-1
				c-3.8-1.3-6.8-4.4-8-8.3c-1.4-4.4-3.4-10.3-5.2-13.8c-0.6-1.2-1.5-5.9-2.4-7.3c5.8-1.7,11.9-2.7,18.3-2.7
				C-229.7,896.3-223.4,897.3-217.5,899.1z"/>
			<path class="st7" d="M-209.1,888.8c-2.3,2.9-5.1,8.6-7.3,12.3c-0.6,0.9-1.7,1.4-2.7,1.1c-5.4-1.5-11.2-2.3-17.1-2.3
				c-5.8,0-11.3,0.8-16.6,2.2c-1,0.3-2.1-0.1-2.7-1.1c-2.3-3.7-5.1-9.4-7.4-12.3c8-3.5,17.1-5.3,26.7-5.3
				C-226.4,883.3-217.2,885.2-209.1,888.8z"/>
			<path class="st8" d="M-204.2,877.8c-0.5,2.2,0.1,6-0.4,7.9c-0.4,1.5-2.5,3.2-4,5.3c-0.6,0.8-1.7,1.1-2.7,0.7
				c-7.7-3.1-15.7-4.9-24.9-4.9c-9,0-16.9,1.7-24.5,4.7c-0.9,0.4-2,0.1-2.7-0.7c-1.5-2-3.6-3.6-3.9-5.1c-0.5-2,0-5.8-0.5-8.1l0,0
				c9.2-4.7,19.6-7.3,31.6-7.3C-224,870.3-213.5,872.9-204.2,877.8z"/>
			<path class="st9" d="M-201.9,865.1c-0.7,4.5-0.9,11-1.4,14.7c-0.1,0.7-0.9,1.2-1.5,0.8c-9-4.4-19.8-6.8-31.4-6.8
				c-11.4,0-22,2.3-31,6.7c-0.7,0.3-1.4-0.1-1.5-0.8c-0.5-3.7-0.7-10.2-1.4-14.6c9.7-5.1,20.9-7.8,33.9-7.8
				C-223,857.2-211.6,859.9-201.9,865.1z"/>
			<path class="st10" d="M-200.1,852c-0.5,3.9-0.5,10.2-0.8,14.4c-0.1,1-1.2,1.6-2.1,1.2c-9.4-4.5-20.7-6.9-33-6.9
				c-12.2,0-23.5,2.3-32.8,6.8c-0.9,0.5-2-0.2-2.1-1.2c-0.3-4.2-0.4-10.4-0.8-14.3c10-5.2,22-7.8,35.8-7.8
				C-222.2,844.1-210.1,846.8-200.1,852z"/>
			<path class="st11" d="M-198.9,838.6c-0.3,4.1-0.1,11-0.4,15.4c0,0.7-0.8,1.1-1.4,0.8c-9.8-4.9-22-7.2-35.3-7.2
				c-13.2,0-25.5,2.4-35.2,7.2c-0.6,0.3-1.4-0.1-1.4-0.8c-0.3-4.5-0.1-11.3-0.4-15.4c10.1-5.2,22.7-7.5,37.1-7.5
				C-221.5,831.1-209,833.4-198.9,838.6z"/>
		</g>
		<path class="st3" d="M-198,838.9c-0.1,1.5-1.6,2.4-3,1.9c-9.7-4.3-21.8-6.2-34.9-6.2c-13.1,0-25.2,1.9-35,6.2
			c-1.4,0.6-2.9-0.3-3-1.9c-0.5-9.2-0.5-18.5,0.4-26.7c0.3-2.6,2.5-4.6,5.2-4.6h64.8c2.7,0,4.9,2,5.2,4.6
			C-197.4,820.4-197.4,829.8-198,838.9z"/>
	</g>
	<path class="st0" d="M-236,818.2"/>
	<g>
		<path class="st12" d="M-198.8,795.6l-0.9-10.2l0-0.1l1.1-0.8c1.6-1.2,1.9-3.6,0.5-5.1c-0.9-0.9-1.9-1.6-3-2.2
			c-1.1-0.6-2.3-0.9-3.5-1l-19.8-7.3c-7.6-1.7-15.6-1.7-23.2,0l-19.8,7.3c-2.5,0.3-4.7,1.4-6.5,3.2c-0.6,0.7-0.9,1.5-0.9,2.3
			c0,1,0.5,2.1,1.4,2.8l1.1,0.8l0,0l-0.9,10.2l-0.8,10.1c-0.3,3.8,2,7.3,5.5,8.5l21.2,11c1.6,0.6,3.3,1,5,1.4
			c5.9,1.1,12,0.7,17.7-1.4l21.2-11c3.6-1.3,5.8-4.8,5.5-8.5L-198.8,795.6z"/>
		<g>
			<path class="st13" d="M-244.4,802c-5.6-0.9-7-16.2-7.3-19.6c0.3,0,0.6,0,0.9-0.1c3.7-0.3,7.6-0.4,11.7-0.5c0,0.2,0,0.5,0,0.8
				c0,0.1,0,0.2,0,0.3c0,0.2,0,0.4,0,0.7c0,0.1,0,0.2,0,0.2c0,0.2,0,0.4,0,0.6C-239,790.9-239.9,802.7-244.4,802z"/>
			<path class="st3" d="M-243.7,800.6c-5.2-0.9-6.8-15-7.1-18.3c3.7-0.3,7.6-0.4,11.7-0.5c0,0.2,0,0.5,0,0.8c0,0.1,0,0.2,0,0.3
				c0,0.2,0,0.4,0,0.7c0,0.1,0,0.2,0,0.2c0,0.2,0,0.4,0,0.6C-239,790.6-239.5,801.3-243.7,800.6z"/>
		</g>
		<path class="st3" d="M-221.1,813c-1,2.8-4.2,7.3-14.7,11.1c-10.5-3.7-13.7-8.3-14.7-11.1c-0.5-1.3,0.1-2.7,1.3-3.3
			c2.6-1.4,7.5-4,10-6.5c2.8-2.8,2.3-16.3,2-21.4c0.4,0,0.8,0,1.2,0c0.5,0,1,0,1.5,0c-0.3,5.1-0.7,18.6,2,21.4
			c2.4,2.4,7.3,5.1,10,6.5C-221.2,810.3-220.7,811.7-221.1,813z"/>
		<path class="st10" d="M-242.3,826.5c-1.7-0.3-3.3-0.8-5-1.4l-21.2-11c-3.6-1.3-5.8-4.7-5.5-8.5l0.8-10.1l0.9-10.2
			c4.4-1.2,10.2-2.1,17-2.7l3.1,8.9c0.8,2.2,0.8,4.6,0,6.8C-260.4,819.4-243.8,821.2-242.3,826.5z"/>
		<g>
			<path class="st13" d="M-227.4,802c5.6-0.9,7-16.2,7.3-19.6c-0.3,0-0.6,0-0.9-0.1c-3.7-0.3-7.6-0.4-11.7-0.5c0,0.2,0,0.5,0,0.8
				c0,0.1,0,0.2,0,0.3c0,0.2,0,0.4,0,0.7c0,0.1,0,0.2,0,0.2c0,0.2,0,0.4,0,0.6C-232.9,790.9-232,802.7-227.4,802z"/>
			<path class="st3" d="M-228.1,800.6c5.2-0.9,6.8-15,7.1-18.3c-3.7-0.3-7.6-0.4-11.7-0.5c0,0.2,0,0.5,0,0.8c0,0.1,0,0.2,0,0.3
				c0,0.2,0,0.4,0,0.7c0,0.1,0,0.2,0,0.2c0,0.2,0,0.4,0,0.6C-232.8,790.6-232.3,801.3-228.1,800.6z"/>
		</g>
		<path class="st10" d="M-229.5,826.5c1.7-0.3,3.3-0.8,5-1.4l21.2-11c3.6-1.3,5.8-4.7,5.5-8.5l-0.8-10.1l-0.9-10.2
			c-4.4-1.2-10.2-2.1-17-2.7l-3.1,8.9c-0.8,2.2-0.8,4.6,0,6.8C-211.5,819.4-228.1,821.2-229.5,826.5z"/>
	</g>
	<g>
		<g>
			<path class="st14" d="M-241.6,1008.2c-0.6,3.1-1.9,4.7-3.3,5.3c-2-0.7-3.6-1.9-3.6-1.9c-11.5-11.5-19.2-70.5-26.8-113.1
				c-7.6-42.6,4.2-101.8,4.2-101.8c0,0.2,0,0.4,0.1,0.6c1.6,12.9,27.8,71,29.5,79.9C-239.9,886.4-239.5,997.8-241.6,1008.2z"/>
			<g>
				<path class="st15" d="M-272.4,798.5c-0.5,4.1-0.1,7.7-0.3,12c-0.3,4.2,0.7,7.4,0.5,11.7c-0.1,4.2,0,8.5-0.1,12.7
					c0,4.3,0.2,8.5,0.3,12.7c0.1,4.3-1.3,8.6-1.1,12.8c0.2,4.4,0,8.7,0.3,12.8c0.3,4.4,2.2,8.6,2.6,12.6c0.5,4.6,0.1,8.9,0.7,12.7
					c0.6,3.7,0.7,7.9,1.5,12.3c0.7,3.8,1.7,7.9,2.6,12c0.9,3.9,3.3,7.5,4.3,11.6c0.9,3.9,0.4,8.3,1.5,12.3c1,3.9,2.7,7.8,3.8,11.7
					c1.1,4,1.1,18,2.2,23.9c0.6,3,2.5,7.9,3.7,11.8c0.6,2,1.3,3.9,2,5.8c0.5,1.3,2.4,1,2.5-0.4c0.8-14.7,2.5-50.4-0.3-54.1
					c-1.3-4.1-1.9-8.3-3.1-12.4c-1.3-4-2.3-8.2-3.6-12.2c-1.3-4-3.2-7.9-4.4-12c-1.2-4-1.8-8.3-2.9-12.4c-1.1-4.1-3-8-4-12.1
					c-0.9-4.1-1.5-8.3-2.3-12.6c-0.7-4.2-0.7-8.4-1.3-12.5c-0.5-4.2-0.1-8.4-0.5-12.5c-0.4-4.2-0.7-8.3-1-12.5
					c-0.3-4.2-1.9-19.7-2-23.9C-270.9,806.2-272.3,802.7-272.4,798.5"/>
				<path class="st15" d="M-272.4,798.5c0.6,4.2,1.2,7.9,1.9,12.1c0.7,4.2,3.3,7.2,4,11.5c0.7,4.2,0.2,8.7,0.9,12.9
					c0.8,4.2,2.3,8.3,3.2,12.5c0.8,4.2,2.4,8.3,3.3,12.4c0.9,4.2,1.3,8.5,2.3,12.7c1.1,4.2,3.2,8,4.4,12.1c1.2,4.1,0.6,8.8,2,12.9
					c1.4,4,3,8.1,4.6,12.1c0,0,3.4,27,0.1,35.7"/>
				<path class="st15" d="M-272.4,798.5c1.1,4.1,2.7,7.5,3.8,11.7c1.2,4.1,3.2,7.1,4.4,11.2c1.2,4.1,2.4,8.2,3.6,12.3
					c1.2,4.1,1.6,8.4,2.9,12.5c1.3,4.1,2.9,8,4.3,12.1c1.3,4,2.5,8.2,3.8,12.2c1.4,4,4,7.6,5.4,11.6c0,0,0.8,23.4-1.7,27.7"/>
			</g>
			<path class="st5" d="M-244.9,1013.6c-3.4,1.6-7.9-1.9-7.9-1.9c-11.5-11.5-19.2-70.5-26.8-113.1c-5.9-32.7,1.2-77.9,5-96.2
				c0.3-1.4-0.8-2.7-0.6-3.7c0.8-3.1,4.1-1.9,4.1-1.9s-11.8,59.2-4.2,101.8c7.6,42.6,15.3,101.6,26.8,113.1
				C-248.5,1011.7-246.9,1012.9-244.9,1013.6z"/>
		</g>
		<g>
			<path class="st14" d="M-230.3,1008.2c0.6,3.1,1.9,4.7,3.3,5.3c2-0.7,3.6-1.9,3.6-1.9c11.5-11.5,19.2-70.5,26.8-113.1
				c7.6-42.6-4.2-101.8-4.2-101.8c0,0.2,0,0.4-0.1,0.6c-1.6,12.9-27.8,71-29.5,79.9C-232,886.4-232.4,997.8-230.3,1008.2z"/>
			<g>
				<path class="st15" d="M-199.5,798.5c0.5,4.1,0.1,7.7,0.3,12c0.3,4.2-0.7,7.4-0.5,11.7c0.1,4.2,0,8.5,0.1,12.7
					c0,4.3-0.2,8.5-0.3,12.7c-0.1,4.3,1.3,8.6,1.1,12.8c-0.2,4.4,0,8.7-0.3,12.8c-0.3,4.4-2.2,8.6-2.6,12.6
					c-0.5,4.6-0.1,8.9-0.7,12.7c-0.6,3.7-0.7,7.9-1.5,12.3c-0.7,3.8-1.7,7.9-2.6,12c-0.9,3.9-3.3,7.5-4.3,11.6
					c-0.9,3.9-0.4,8.3-1.5,12.3c-1,3.9-2.7,7.8-3.8,11.7c-1.1,4-1.1,18-2.2,23.9c-0.6,3-2.5,7.9-3.7,11.8c-0.6,2-1.3,3.9-2,5.8
					c-0.5,1.3-2.4,1-2.5-0.4c-0.8-14.7-2.5-50.4,0.3-54.1c1.3-4.1,1.9-8.3,3.1-12.4c1.3-4,2.3-8.2,3.6-12.2c1.3-4,3.2-7.9,4.4-12
					c1.2-4,1.8-8.3,2.9-12.4c1.1-4.1,3-8,4-12.1c0.9-4.1,1.5-8.3,2.3-12.6c0.7-4.2,0.7-8.4,1.3-12.5c0.5-4.2,0.1-8.4,0.5-12.5
					c0.4-4.2,0.7-8.3,1-12.5c0.3-4.2,1.9-19.7,2-23.9C-201.1,806.2-199.6,802.7-199.5,798.5"/>
				<path class="st15" d="M-199.5,798.5c-0.6,4.2-1.2,7.9-1.9,12.1c-0.7,4.2-3.3,7.2-4,11.5c-0.7,4.2-0.2,8.7-0.9,12.9
					c-0.8,4.2-2.3,8.3-3.2,12.5c-0.8,4.2-2.4,8.3-3.3,12.4c-0.9,4.2-1.3,8.5-2.3,12.7c-1.1,4.2-3.2,8-4.4,12.1
					c-1.2,4.1-0.6,8.8-2,12.9c-1.4,4-3,8.1-4.6,12.1c0,0-3.4,27-0.1,35.7"/>
				<path class="st15" d="M-199.5,798.5c-1.1,4.1-2.7,7.5-3.8,11.7c-1.2,4.1-3.2,7.1-4.4,11.2c-1.2,4.1-2.4,8.2-3.6,12.3
					c-1.2,4.1-1.6,8.4-2.9,12.5c-1.3,4.1-2.9,8-4.3,12.1c-1.3,4-2.5,8.2-3.8,12.2c-1.4,4-4,7.6-5.4,11.6c0,0-0.8,23.4,1.7,27.7"/>
			</g>
			<path class="st5" d="M-227,1013.6c3.4,1.6,7.9-1.9,7.9-1.9c11.5-11.5,19.2-70.5,26.8-113.1c5.9-32.7-1.2-77.9-5-96.2
				c-0.3-1.4,0.8-2.7,0.6-3.7c-0.8-3.1-4.1-1.9-4.1-1.9s11.8,59.2,4.2,101.8c-7.6,42.6-15.3,101.6-26.8,113.1
				C-223.4,1011.7-225,1012.9-227,1013.6z"/>
		</g>
	</g>
</g>
</svg>
