<svg xmlns="http://www.w3.org/2000/svg" width="275.3" height="360" viewBox="-375.7 305 275.3 360" enable-background="new -375.7 305 275.3 360"><switch><g><g><path d="m-260.9 520.6c-.8-.6-2-1.2-3.1-2l-3.3-1.8c-2.3-1.2-4.5-2.7-6.8-3.7-4.7-2.3-9.2-4.5-14.1-6.6-4.7-1.8-9.6-3.7-14.5-4.9-1.2-.4-2.5-.6-3.7-.8s-2.5-.4-3.7-.4c-1.2 0-2.5 0-3.5.2-1.2.2-2 .6-2.9 1.2l1.4-1.8c-1.2 4.7-2.5 9.6-3.5 14.5-1 4.9-2 9.6-2.9 14.5l-1.2 7.4-1.2 7.2c-.2 1.2-.4 2.5-.6 3.7-.2 1.2-.4 2.5-.4 3.7l-.4 3.5c0 .6-.2 1.2-.6 1.6-.4.6-1 1.2-2 1.8v-.4c1 .4 1.6 1 2 1.6.4.6.8 1.4 1.2 2 .8 1.4 1.4 2.9 2.5 4.3.4.6.8 1.4 1.4 2 .4.6.8 1.4 1.4 2 1 1.4 1.8 2.7 2.9 3.9 1 1.2 2 2.5 3.1 3.7l1.6 1.8 1.8 1.6c1.2 1.2 2.5 2.3 3.7 3.3.6.6 1.2 1 1.8 1.6.6.6 1.2 1.2 1.6 1.8l.4.4v.2c0 .2.2.2.2.4.2.2.4.4.6.6.4.4 1 .8 1.6 1.2 1.2.6 2.7 1 4.3 1.2v.4c-.8 0-1.6.2-2.3.2-.8 0-1.6 0-2.5 0s-1.6-.2-2.5-.4c-.4-.2-.8-.2-1.2-.4-.2 0-.4-.2-.6-.2s-.4 0-.8-.2l.4.2c-1 0-2.5.4-3.3.2-.8-.4-1.6-.8-2.3-1.4-1.4-1-3.1-2-4.5-3.1-.6-.6-1.4-1-2.3-1.6l-2-1.8c-.6-.6-1.4-1.2-2-1.8-.6-.6-1.2-1.2-1.8-2-1.2-1.4-2.3-2.9-3.3-4.3-1-1.4-2-3.1-2.9-4.7-.8-1.6-1.6-3.3-2.5-4.9-.4-.8-.8-1.6-.8-2.7s.4-2.3 1.4-3.7l.4-.4h-.4c-2.9-.6-4.5-1.4-5.5-2-1-.8-1.4-1.4-1.4-2.3l.2-4.1c.2-1.4.2-2.7.4-4.1.2-1.2.4-2.7.6-3.9.2-1.2.4-2.7.8-3.9l1-3.7c.8-2.5 1.6-4.9 2.5-7.4 1.8-4.9 3.9-9.6 5.7-14.3 1-2.3 2-4.7 3.1-7 .4-1.2 1.2-2.3 1.8-3.5.8-1 1.6-2.3 2.7-3.3l.8-.6.2-.2c0-2.7 1-4.5 2.5-5.7 1.2-1.2 2.7-2 4.3-2.5 1.6-.4 3.1-.4 4.5-.4s2.9 0 4.3 0 2.9.2 4.3.2 2.9.2 4.1.4c2.7.4 5.5.8 8.2 1.4s5.3 1.4 8 2c2.7.8 5.1 1.8 7.8 2.7 2.5.8 4.9 2 7.6 3.3 2.5 1.2 4.9 2.5 7.2 3.9l-5 17.1" fill="#934d3c"/><path d="m-262 476.7c-.4-.6-1.4-1.2-2.3-1.8l-2.5-2c-1.6-1.4-3.5-2.7-5.1-3.9-3.5-2.7-7-5.1-10.9-7.4-3.7-2.5-7.6-4.5-11.7-6.4-1-.4-2-.8-3.1-1.2-1-.4-2-.6-3.1-1.2-1-.4-2-1.4-3.3-2-.6-.4-1.2-.6-1.6-.8-.6-.2-1.2-.4-1.6 0h.2c-.4.4-.6 1-1 1.4-.4.4-.8.4-1.2.8l-2.5 1.2c-1.6.8-3.3 1.6-4.7 2.5-1.6.8-3.1 1.6-4.7 2.7l-4.1 2.3-4.5 2.7c-1.4.8-2.9 1.8-4.3 2.7s-2.9 1.8-4.1 2.7c-.6.4-1.2.8-2.3.8-.4 0-1 0-1.8-.2-.6-.2-1.4-.4-2.5-.8l-1.6.4c-2.3.2-4.1-.4-5.9-.8s-3.9-.8-5.7-1l-2.9-.2c-.4 0-1 0-1.4 0h-1.4-1.4c-.4 0-1 0-1.4.2-.4 0-.8.2-1.4 0-.6-.2-1.2-.8-1.6-.6-.2 0-.6 0-1 .2-.4 0-.6.2-1 .2-.8-.2-1.4 0-2 .6-.2.2-.4.4-.8.8-.2.2-.4.2-.6.4-.2.6-.4 1.6-.4 1.6h-.2c0 0 0-.4.2-.6 0-.4.2-.6.2-.8.2-.8.6-1.2 1.2-1.8s1-1 1.8-1.6c.2-.4.6-.6.8-.8.4-.2.6-.4 1.2-.4.4-.2.8-.8 1.4-1.2.4-.6 1-.6 1.6-.6.6-.2 1-.2 1.6-.4l1.6-.2c.6 0 1 0 1.6-.2.6 0 1.2 0 1.6 0 1 0 2.3 0 3.3.2 2.3.4 4.3.8 6.6 1.4 1 .4 2 .6 3.1 1.2 1 .6 1.8 1 2.9 2l-1.6.2c.4-1 .8-1.8 1.4-2.7s1.4-1.4 2-2c1.4-1.2 3.1-2.3 4.7-3.3 3.3-2 6.6-3.9 9.8-5.5 1.6-.8 3.3-1.6 5.1-2.3 1.6-.8 3.5-1.4 5.1-2 1.6-.6 3.5-1.2 5.1-1.8l2.7-.8c.4-.2.8-.4 1.4-.4.4 0 1 .2 1.4.2l.6-.2c.6.2 1.2-.2 1.8-.2.6-.2 1.2-.4 1.8-.8 1.2-.6 2.5-1.2 3.9-1.2 1.2 0 2.5 0 3.7.2 1.2 0 2.5.2 3.7.4 4.9.8 9.8 1.8 14.3 3.3 4.7 1.6 9.2 3.5 13.5 5.5 2.3 1 4.3 2.3 6.4 3.5l3.1 1.8c1 .6 2 1.2 3.1 2l-10.3 16" fill="#934d3c"/><path d="m-253.6 400.3c-1.4-.2-3.1-.6-4.5-.8l-4.3-1c-2.9-.8-5.7-1.4-8.6-2.5-2.9-.8-5.7-1.8-8.6-2.9-2.9-1-5.5-2.3-8.4-3.3-2.9-1.2-5.5-2.5-8.4-3.7-2.7-1.2-5.5-2.9-8.2-4.3l-3.9-2.5c-1.2-.8-2.7-1.8-3.9-2.7-1.2-.8-2.5-2-3.7-3.1-1.2-1-2.5-2.5-3.5-3.7l-1-1v-.4c-2-2.5-1.8-5.1-2.3-7.8-.2-2.7-.4-5.3-.4-7.8v-3.9l.2-3.9c0-1.2.2-2.7.4-3.9 0-1.2.2-2.7.4-3.9.2-1.2.4-2.7.6-3.9l.8-3.9 1-3.9c.4-1.2.8-2.5 1.2-3.7.4-1.2.8-2.5 1.2-3.7l1.6-3.7c.4-1.2 1-2.5 1.6-3.5.2-.6.6-1.2 1.2-1.6.6-.4 1.4-.8 1.6-1.2v.2c.2-.4.4-.6.6-.8.4-.2.6-.4.8-.6.4-.4.8-.6 1.2-1 .8-.6 1.8-.8 2.9-1 .6 0 1 0 1.4 0s1 0 1.4 0 .8.2 1.4.2c.4.2.8.2 1.4.4-.8-.2-1.8-.2-2.7-.2-.4 0-.8.2-1.2.2-.4 0-.8.2-1.2.4-.8.4-1.4.8-2 1.4-.2.2-.4.6-.6 1-.2.2-.4.4-.4.6 0 .2-.2.4-.2.4v.2c-.2.6 0 1.4 0 2 .2.8-.2 1.2-.4 1.8-.6 1-1 2.3-1.4 3.3l-1.2 3.5-1 3.5c-.4 1.2-.6 2.3-1 3.5l-.8 3.7-.6 3.7c-.2 1.2-.4 2.5-.6 3.7-.2 1.2-.4 2.5-.4 3.7-.2 1.2-.2 2.5-.4 3.7l-.2 3.7v3.7c0 2.5.2 4.9.4 7.4 0 1.2.2 2.5.4 3.7l.4 3.5-1-1.8c.8 0 1.6 0 2.3.2.6 0 1.4.2 2 .2 1.4 0 2.9.2 4.3.2 1.4.2 2.9.2 4.3.4 1.4.2 2.9.2 4.3.4 2.9.2 5.7.8 8.4 1.2 1.4.2 2.9.4 4.1.8 1.4.2 2.9.6 4.1 1 1.4.4 2.9.6 4.1 1 1.4.4 2.9.6 4.1 1.2 1.4.4 2.7.8 4.1 1.2 1.4.4 2.7 1 4.1 1.4 1.4.6 2.7 1 4.1 1.6s2.7 1 4.1 1.8c1.2.6 2.7 1.2 3.9 2 1.2.8 2.7 1.4 3.9 2.5l-3.3 17.4" fill="#934d3c"/><path d="m-224.5 486.2c1.6 0 3.1 0 4.5 0h4.3l8.6.2c5.7.2 11.5.6 17.2 1 5.7.6 11.5 1.2 17 2.7 1.4.4 2.9.6 4.3 1 1.4.4 2.9.8 4.3 1.4 1.4.6 2.9 1 4.1 1.6 1.4.6 2.9 1.2 4.3 1.8l1 .4.4 1.4c1.4 4.9 2.9 9.6 4.3 14.5l2 7.4c.6 2.5 1.4 4.9 2 7.4.6 2.5 1.2 4.9 1.6 7.4.4 2.5 1 4.9 1.4 7.6.2 1.2.4 2.5.4 3.9.2 1.2.4 2.5.4 3.9l.2 3.9c0 .6-.2 1.4-.6 2s-.8 1.4-1.8 2l-.2.2.2.4c.4 1.2.4 2 .2 3.1-.2 1-.6 1.8-1 2.7-.8 1.6-1.6 3.3-2.5 4.7-.8 1.6-1.8 3.1-2.9 4.5s-2.3 2.9-3.3 4.3c-.6.6-1.2 1.2-1.8 2-.6.6-1.2 1.2-1.8 1.8l-1.8 1.8-2 1.8c-1.2 1.2-2.9 2.3-4.1 3.3-.6.6-1.4 1-2.3 1.4-.8.4-1.6.8-2.5 1l.4-.4c-.4.2-.4.4-.8.6-.2.2-.4.2-.6.4-.4.2-.8.4-1.2.4-.8.2-1.8.4-2.7.4-1.6 0-3.3-.2-4.9-.6v-.4c.4 0 .8 0 1.2 0 .4 0 .8 0 1.2 0 .8-.2 1.4-.4 2.3-.6.6-.4 1.2-.6 1.8-1.2.2-.2.6-.4.8-.6.2-.2.2-.2.2-.4s0-.4 0-.4l.4-.2c.2-1 .4-2.5.8-3.1.4-.6 1.2-1 1.8-1.6 1.2-1.2 2.5-2.3 3.5-3.5s2.3-2.3 3.3-3.5c1-1.2 2-2.5 3.1-3.7s2-2.5 2.9-3.7c.4-.6.8-1.2 1.4-2 .4-.6.8-1.2 1.4-1.8.8-1.2 1.6-2.7 2.5-4.1.4-.6.6-1.4 1.4-1.8.6-.6 1.6-1 3.3-1.2v.4c-3.1-.6-4.5-1.2-5.7-1.6-1-.6-1.6-1-1.6-1.6l-.4-3.3c-.2-1.2-.4-2.3-.4-3.5s-.2-2.3-.4-3.5c-.2-1.2-.2-2.5-.4-3.5l-.4-3.7c-.2-2.5-.4-4.9-.4-7.4-.2-4.9-.6-10-1-15l-.8-7.6c-.2-1.2-.2-2.5-.2-3.9 0-1.2.2-2.7.6-4.1l.6.8c-1.2.8-1.8 1.2-2.7 1.6-.8.4-1.4.8-2 1-1.2.6-2.3.6-3.3.6s-2.3-.4-3.3-.4c-1.2-.2-2.3-.2-3.5-.2-2.5-.2-4.9 0-7.4-.2-2.5 0-5.1 0-7.6.2-2.7 0-5.1.2-7.8.2-2.7.2-5.3.2-7.8.4-2.7.2-5.3.2-8 .2h-4.1-4.1l-5.5-17.4" fill="#934d3c"/><path d="m-229.6 451.3c1.4-.6 2.7-1 3.9-1.6l3.7-1.2c2.5-.8 4.9-1.6 7.4-2.3 5.1-1.2 10-2.3 15.2-2.9 5.1-.6 10.4-.8 15.6-.4 1.2 0 2.7.2 3.9.4 1.2.2 2.7.2 3.9.6 1.2.4 2.5 1.2 3.7 2 .6.4 1.2.6 1.8 1 .6.2 1.2.6 1.8.2h.2c.6-.2 1.2-.6 1.6-.6.6-.2 1 0 1.4.2l2.7.6c1.8.4 3.7.8 5.5 1.2 1.8.4 3.7 1 5.5 1.4 1.8.6 3.7 1 5.3 1.6 1.8.6 3.5 1.2 5.3 2 1.8.8 3.5 1.6 5.1 2.7 1.6 1 3.3 2 4.9 3.3.8.6 1.6 1.2 2 2.5.4 1.2.6 2.7-.2 4.7l-1.6-.2c.4-.4.8-.8 1.2-1.2.4-.4.8-.6 1.4-1 .4-.2 1-.4 1.4-.8.4-.2 1-.4 1.6-.6 2-.6 4.3-1.2 6.6-1.6 1-.2 2.3-.2 3.3-.4 1.2 0 2.3 0 3.5.2l1.6.2c.6 0 1.2.2 1.6.4.6.2 1.2.2 1.6.8.4.6.8 1.2 1.2 1.4.4.2.8.4 1.2.6.4.2.6.4 1 .6.6.4 1.2 1 1.6 1.6.6.6.8 1.2 1 2 .2.4.2.4.2.6 0 .4 0 .6.2.6h-.4c0 0-.2-1-.4-1.6-.4-.6-.8-1-1.2-1.4-.6-.4-1.2-.6-1.8-1-.4-.2-.6-.2-1-.2-.4 0-.6-.2-1-.2-.4 0-1.2.2-1.6.4-.6.2-1 0-1.4 0-.4 0-1-.2-1.4-.2h-1.4c-.4 0-1 0-1.4 0-.4 0-1 0-1.4 0-1 0-1.8.2-2.9.4-1.8.2-3.9.6-5.7 1.2-1 .2-1.8.6-2.9.8s-2 .4-3.1.4h-.4l-1.2-.2c-2-.4-3.3-1.2-4.7-2.3-1.4-1-2.9-1.8-4.5-2.7-3.1-1.6-6.4-3.3-9.4-4.5l-4.9-2c-1.6-.6-3.3-1.4-4.9-2-1.6-.6-3.3-1.2-5.1-1.8l-2.5-.8c-.4-.2-.8-.2-1.2-.4-.4-.2-.8-.6-1-1l.6.2c-.6-.2-1 0-1.6 0-.6.2-1 .4-1.6.6-1 .6-2 1.2-3.3 1.4-1 .2-2 .2-3.3.4-1 .2-2 .4-3.3.4-4.3.8-8.6 2-12.7 3.5-4.3 1.4-8.4 2.9-12.5 4.7-2 1-4.1 1.8-6.1 2.7l-5.9 2.9-10.3-16.3" fill="#934d3c"/><path d="m-226.5 380.9c1.4-.4 2.7-.8 4.1-1.2l4.1-1c1.4-.4 2.9-.6 4.3-1 1.4-.4 2.9-.6 4.3-1 1.4-.2 2.9-.6 4.3-1l4.3-.8c2.9-.6 5.7-1 8.4-1.6 2.9-.6 5.7-1 8.4-1.6 1.4-.2 2.9-.4 4.3-.8 1.4-.2 2.9-.6 4.3-.8l4.1-.8c1.4-.2 2.7-.6 4.1-.8 1.4-.2 2.7-.6 4.1-1 .6-.2 1.2-.4 1.8-.6l2-.6-.8 1.4c-.6-1.2-.6-2.5-.6-3.7 0-1.2.2-2.5.4-3.7.2-2.5.4-4.9.4-7.4v-3.7l-.2-3.7c0-1.2-.2-2.5-.2-3.7s-.2-2.5-.4-3.7-.2-2.5-.4-3.7l-.6-3.7-.8-3.5c-.2-1.2-.6-2.5-.8-3.5l-1-3.1-1.2-3.5c-.4-1.2-.8-2.3-1.4-3.5-.2-.6-.4-1-.4-1.8 0-.8.2-1.4 0-2v-.2c0 0 0-.2-.2-.4 0-.2-.2-.4-.2-.4-.2-.4-.4-.6-.6-1-.4-.6-1.2-1.2-2-1.4-.4-.2-.8-.4-1.2-.4-.4-.2-.8-.2-1.2-.2-.8 0-1.8 0-2.7.2.4 0 .8-.2 1.4-.4.4 0 .8-.2 1.4-.2.4 0 1-.2 1.4 0 .4 0 1 0 1.4.2 1 .2 2 .4 2.9 1 .4.2.8.6 1.2 1 .2.2.4.4.6.6.2.2.4.4.6.8v-.2c.4.6 1 .8 1.6 1.2.6.4 1 1 1.2 1.6.6 1.2 1.2 2.3 1.6 3.5l1.4 3.7c.4 1.2.8 2.5 1.2 3.7s.8 2.5 1 3.7l1 3.9.6 3.9c.2 1.2.4 2.7.6 3.9.2 1.2.4 2.7.4 3.9s.2 2.7.2 3.9l.2 3.9v3.9c0 2.7-.2 5.1-.4 7.8-.2 1.2 0 2.7-.2 3.9-.2 1.2-.4 2.5-.4 3.9l-1.2 1.4c-.8 1.6-2 3.3-3.1 4.7-1 1.2-2.5 2.7-3.5 3.9-1.2 1-2.5 2.3-3.9 3.3-1.2 1-2.7 2-3.9 2.9-1.2.8-2.7 1.6-4.1 2.5-1.4.8-2.7 1.4-4.1 2.3-1.4.6-2.9 1.4-4.1 1.8-1.4.6-2.9 1.2-4.3 1.6-2.9 1-5.7 2-8.6 2.9-1.4.4-2.9.8-4.3 1-1.4.4-2.9.6-4.5.8-1.4.2-3.1.4-4.5.6-1.4.2-3.1.4-4.5.4-1.6 0-3.1.2-4.5 0-1.4 0-3.1-.2-4.7-.4l-3.9-17.9" fill="#934d3c"/></g><g><circle cx="-250.5" cy="385.4" r="9.2" fill="#3a3531"/><circle cx="-224.9" cy="385.4" r="9.2" fill="#3a3531"/></g><g><path d="M-238.6,628.1V665" fill="#fff"/><path d="m-234.1 628.1c0 0 .2 2.3.2 5.7 0 3.5 0 8.2-.2 12.7-.2 2.3-.2 4.7-.4 6.8-.2 2.3-.4 4.3-.4 5.9-.2 1.8-.8 3.1-1.4 4.1-.6 1-1.2 1.4-1.2 1.4h-.4c0 0-.6-.4-1.2-1.4-.6-1-1.2-2.5-1.4-4.1-.2-1.8-.4-3.7-.4-5.9-.2-2.3-.2-4.5-.4-6.8-.2-4.7-.2-9.2-.2-12.7 0-3.5.2-5.7.2-5.7h7.2" fill="#604945"/></g><g><path d="m-276.9 428.4c-3.5 0-6.1 2.7-6.4 6.1l-3.5 108.6c0 25 24 99.8 49 99.8s49-74.6 49-99.8l-3.5-108.6c0-3.5-2.9-6.1-6.4-6.1 0 0-78.2 0-78.2 0z" fill="#393434" stroke="#604945" stroke-width=".373" stroke-miterlimit="10"/><path d="m-192.7 433.5l3.7 116.1c0 26.4-24 104.7-49 104.7-16.6 0-32.6-40.6-41.6-68.2-1.8-5.5-.6-11.9 3.3-16.2 19-21.3 75.6-78.6 83.6-136.4" opacity=".5" fill="#604945"/><path d="m-283.1 433.5l-3.7 116.1c0 26.4 24 104.7 49 104.7 16.6 0 32.6-40.6 41.6-68.2 1.8-5.5.6-11.9-3.3-16.2-18.8-21.3-75.6-78.6-83.6-136.4" opacity=".5" fill="#604945"/></g><path d="m-227.8 384.8c0 4.5-4.5 6.4-10 6.4-5.5 0-10-1.8-10-6.4 0-4.5 4.5-10 10-10 5.5-.1 10 5.5 10 10" fill="#604945"/><path d="m-237.8 386c-12.1 0-22.3 5.1-31.1 15.6-7.4 8.6-11.3 17.2-11.9 25.4 0 10.2 3.9 11.1 11.9 10.4 8-.6 19.1-4.1 31.1-4.1s23.1 3.3 31.1 4.1c8 .8 11.9 0 11.9-10.4-.4-8-4.5-16.6-11.9-25.4-8.8-10.3-19-15.6-31.1-15.6" fill="#604945"/></g></switch></svg>