<svg xmlns="http://www.w3.org/2000/svg" width="81.8" height="116.5" viewBox="-822 1787 81.8 116.5" enable-background="new -822 1787 81.8 116.5"><g fill="#5e9c1b"><path d="m-786.3 1816.4c-.3-.4-.5-.8-.8-1.2-.2-.4-.5-.8-.7-1.3l-.7-1.3c-.1-.2-.2-.4-.3-.7-.1-.2-.1-.5-.1-.8l.1.1c-1.3-1.1-2.7-2.1-4-3.2-1.3-1.1-2.7-2.2-4-3.3s-2.6-2.2-4-3.3c-.2-.2-.4-.2-.4-.5-.1-.3 0-.6-.2-.8 0 0-.1 0-.2 0l-.1-.1-.3-.2-.5-.4c-.7-.5-1.4-1-2.1-1.4-.7-.5-1.4-.9-2.1-1.5-.7-.5-1.4-1-2-1.5-.6-.6-1.3-1.2-2-1.6-.7-.5-1.4-1-2.2-1.4-.7-.4-1.5-.8-2.3-1.2-.8-.4-1.6-.7-2.3-1.1-.8-.3-1.5-.6-2.3-1.1-.7-.4-1.5-.7-2.2-1.3 0 0-.1-.1 0-.1 0 0 0 0 .1 0 .9-.1 1.8 0 2.7.2.8.3 1.7.6 2.5 1 .8.4 1.5.9 2.3 1.3.7.5 1.4 1 2.2 1.4.8.4 1.4 1 2.2 1.4.7.5 1.5.8 2.3 1.3.7.4 1.5.9 2.1 1.5.7.5 1.3 1.1 2 1.7s1.3 1.2 1.9 1.7l.5.4.2.2.1.1c0 0 0 .2.1.2.2.1.6 0 .9 0 .3 0 .4.2.5.4 1.3 1.1 2.6 2.3 3.9 3.4 1.3 1.1 2.5 2.4 3.7 3.6s2.4 2.5 3.5 3.8l.1.1c.5.3.9.6 1.1 1l.8 1.2c.3.4.5.8.7 1.3.2.4.4.9.6 1.3v.1c.2.4 0 .9-.4 1-.3 0-.7-.1-.9-.4"/><path d="m-777.2 1815.6c.2-.4.4-.9.6-1.3s.5-.9.7-1.3l.8-1.2c.1-.2.3-.4.4-.6.2-.2.3-.4.6-.5l.1-.1c1.1-1.3 2.3-2.6 3.6-3.8 1.2-1.2 2.5-2.4 3.8-3.6 1.3-1.1 2.6-2.3 3.9-3.4.2-.1.3-.3.5-.4.3 0 .6.1.8 0 .1 0 0-.1.1-.2l.1-.1.2-.2.5-.4c.6-.6 1.3-1.2 1.9-1.7.7-.6 1.3-1.1 2-1.7.7-.5 1.4-1 2.1-1.5s1.6-.8 2.3-1.3c.8-.4 1.4-1 2.2-1.4.7-.5 1.4-1 2.2-1.4s1.5-.9 2.3-1.3c.8-.4 1.6-.7 2.5-1 .9-.2 1.8-.3 2.7-.2.1 0 .1.1.1.1v.1c-.7.6-1.5 1-2.2 1.3-.7.4-1.5.7-2.3 1.1-.7.4-1.5.7-2.3 1.1s-1.5.8-2.3 1.2c-.7.4-1.5.9-2.2 1.4s-1.3 1.1-2 1.6c-.7.6-1.3 1.1-2 1.5-.7.5-1.4 1-2.1 1.5-.7.5-1.4 1-2.1 1.4l-.5.4-.3.2-.1.1h-.2c-.1.2-.1.6-.1.8-.1.2-.3.3-.4.5-1.3 1.1-2.7 2.1-4 3.2-1.3 1.1-2.7 2.1-4 3.2s-2.7 2.1-4 3.2l.1-.1c.1.6-.1 1.1-.3 1.5l-.6 1.3c-.2.4-.5.9-.7 1.3s-.5.8-.8 1.2-.8.4-1.1.2c-.6.1-.7-.4-.5-.7"/></g><path d="m-773.3 1816.1l-2-2.5c0 0-1.8-4.7-5.6-4.7-3.8 0-5.7 4.7-5.7 4.7l-2 2.5-1 3.7 2.3.9 1.2 2.7 5.3 2.3 5.3-2.3 1.1-2.7 2.2-.9-1.1-3.7" fill="#73bf20"/><g fill="#a7877b"><path d="m-774.8 1817.6c0 1.1.2 1.9 1.5 1.9s2.3-.5 2.3-1.5-1-2.3-2.3-2.3-1.5.8-1.5 1.9"/><path d="m-787.4 1818c0 1.1-.2 1.9-1.5 1.9-1.3 0-2.3-.5-2.3-1.5s1-2.3 2.3-2.3c1.3 0 1.5.9 1.5 1.9"/></g><g fill="#bcbf20"><circle cx="-777.1" cy="1820.9" r=".7"/><circle cx="-785" cy="1820.9" r=".7"/></g><g fill="#3d7316"><path d="m-802.3 1835c-2.3-.1-4.7-.2-7-.3.2-.1.4-.3.6-.4 0 1.6-.9 3.4-1.5 4.9-.3.8-.8 1.6-1.4 2.2-.7.7-1.5.6-2.4.5-1.6-.1-3.3-.3-4.9.1-1 .2-1.9-.1-1.8-1.3.1-1.2 1.1-1.3 2-1 1.8.7 4.1 1.4 6 1.4-.4.4-.7 0-.7-.5 0-.5.6-1 .8-1.4.7-1 1.3-1.7 1.7-2.8.4-1 .8-2 1.1-3 .1-.5.1-.4.6-.4.1 0 .2 0 .4 0 1.7 0 3.4 0 5.1-.1.5 0 1-.1 1.5 0 1.3.2 1 2.1-.1 2.1"/><path d="m-795.3 1825.6c-2.6-.5-5.1-.9-7.7-1.4-.7-.1-2-.1-2.6-.5-.5-.4-.6-1.5-.8-2.1-.3-.9-.4-1.8-.6-2.7-.2-1.2-.4-2.3-.3-3.4 0-.6.3-2.6 1.1-1.5-1.5-.5-3-.9-4.5-1.4-.9-.3-1.7-.5-2.7-.7-.4-.1-1-.2-1.3-.5-.5-.5-.5-1.3.1-1.6 1-.7 2.1.2 3 .7.6.3 1.2.6 1.8.8.9.4 1.8.8 2.8 1.2.8.3 1.2.6 1.8 1.1.7.5.5 1.3.3 2.1-.1.9-.3 1.7-.3 2.6 0 .8 0 1.7.1 2.5.1.7.4 1.4.4 2.1-.2-.2-.4-.4-.6-.6 2.1.3 4.1.6 6.2.9 1.1.2 2.2.3 3.4.5.2 0 .4 0 .6.1 1 .3 1.1 2.1-.2 1.8"/><path d="m-797.7 1853.5c-3.5 2.4-7.7 3.9-11.6 5.5-1 .4-2 .9-2.8-.2-.5-.7.3-.2.5.1.4.5.3 1.2.3 1.8.2 2.3.2 4.6.2 6.9 0 2 0 4 .1 6.1 0 .8 0 1.6.1 2.4.1 1.3.9 2.4.4 3.7-.7 1.7-2.5 2.9-4 3.9-1.4 1-2.8 2-4.3 2.9-.6.4-1.2.6-1.8.2-.5-.4-.7-1-.4-1.6.3-.6 1.3-1 1.9-1.3 1.1-.6 2.1-1.3 3.2-1.9.6-.4 1.3-.7 1.9-1 .7-.3 1.4-.5 2.1-.8 0 .1-.1.3-.2.4-1.6-1.3-.7-3.2-.7-4.9 0-1.6 0-3.2-.2-4.8-.2-2.5-.5-4.9-.5-7.4 0-1 0-2 0-3 0-1.1 0-1.3.7-2.1.1-.1.3-.1.3-.2.1-.2-.1-.6-.1-.9 0-1 .5-1.2 1.3-1.7 2.3-1.4 4.6-3 7.1-4.1.9-.4 1.8-.8 2.6-1.2.8-.4 1.8-.9 2.8-.8 1.9.2 2.7 2.9 1.1 4"/><path d="m-759.9 1835c-1.1 0-1.4-1.9-.2-2.1.5-.1 1 0 1.5 0 1.7 0 3.4.1 5.1.1.1 0 .2 0 .4 0 .5 0 .4-.1.6.4.3 1 .7 2 1.1 3 .4 1.1 1 1.8 1.7 2.8.2.4.8.9.8 1.4 0 .5-.3.9-.7.5 1.9 0 4.3-.7 6-1.4.9-.4 1.9-.3 2 1 .1 1.2-.8 1.5-1.8 1.3-1.6-.4-3.3-.2-4.9-.1-.9.1-1.7.1-2.4-.5-.6-.6-1.1-1.4-1.4-2.2-.6-1.5-1.5-3.2-1.5-4.9.2.1.4.3.6.4-2.2.1-4.5.2-6.9.3"/><path d="m-766.9 1825.6c-1.3.2-1.2-1.5-.2-1.9.2-.1.4-.1.6-.1 1.1-.2 2.2-.3 3.4-.5 2.1-.3 4.1-.6 6.2-.9-.2.2-.4.4-.6.6 0-.7.3-1.4.4-2.1.1-.8.1-1.7.1-2.5 0-.9-.2-1.7-.3-2.6-.1-.8-.3-1.6.3-2.1.6-.5 1-.8 1.8-1.1.9-.4 1.8-.8 2.8-1.2.6-.3 1.2-.5 1.8-.8.9-.5 2-1.5 3-.7.5.4.5 1.1.1 1.6-.3.3-.9.4-1.3.5-.9.2-1.8.4-2.7.7-1.5.5-3 .9-4.5 1.4.8-1.1 1.1 1 1.1 1.5.1 1.2-.1 2.3-.3 3.4-.2.9-.3 1.8-.6 2.7-.2.6-.3 1.7-.8 2.1-.6.4-1.9.4-2.6.5-2.5.6-5.1 1.1-7.7 1.5"/><path d="m-764.5 1853.5c-1.6-1.2-.8-3.9 1.1-4.1.9-.1 2 .4 2.8.8.9.4 1.8.8 2.6 1.2 2.5 1.1 4.8 2.7 7.1 4.1.8.5 1.3.7 1.3 1.7 0 .2-.2.7-.1.9 0 .1.2.1.3.2.7.8.7 1 .7 2.1 0 1 0 2 0 3-.1 2.5-.3 4.9-.5 7.4-.1 1.6-.2 3.2-.2 4.8 0 1.7.9 3.6-.7 4.9-.1-.1-.2-.3-.2-.4.7.3 1.4.5 2.1.8.7.3 1.3.7 2 1 1.1.6 2.1 1.3 3.2 1.9.6.3 1.6.7 1.9 1.3.3.6.1 1.3-.4 1.6-.6.4-1.2.1-1.8-.2-1.5-.9-2.8-2-4.3-2.9-1.5-1-3.3-2.2-4-3.9-.6-1.3.2-2.4.4-3.7.1-.8 0-1.6.1-2.4.1-2 0-4 0-6.1 0-2.3 0-4.6.2-6.9 0-.6-.1-1.3.3-1.8.2-.2 1-.8.5-.1-.7 1.1-1.8.6-2.8.2-3.9-1.4-8-3-11.6-5.4"/></g><path d="m-755.5 1839.4c0-1.4-1.2-2.4-2.6-2.4h-23-22.9c-1.4 0-2.5 1.1-2.6 2.4-.2 6.2-.7 22.2.5 26.5 1.4 5.4 7.2 30.2 25 35.5 17.8-5.4 23.6-30.2 25-35.5 1.2-4.3.8-20.4.6-26.5" fill="#5c734c"/><path d="m-766 1848.1c0 0-6 11.1-13.5 22.3-.7 1.1-2.4 1.1-3.1 0-7.5-11.2-13.6-22.3-13.6-22.3-1.9-4.3-1.9-8.7-1.8-11.1h33.7c.3 2.3.2 6.7-1.7 11.1" fill="#68ad1b"/><g fill="#9ac1ca"><path d="m-770 1896.4c-3 3.2-6.7 5.8-11.1 7.1-17.8-5.5-23.6-31.2-25-36.7-1.2-4.5-.7-21-.5-27.4.1-1.4 1.2-2.5 2.6-2.5h5.4c-.2 2.5-.1 7.1 1.8 11.6 0 0 14.6 26.8 26.9 40 2 2.3 2 5.7-.1 7.9" opacity=".5"/><path d="m-792.1 1896.4c3 3.2 6.7 5.8 11.1 7.1 17.8-5.5 23.6-31.2 25-36.7 1.2-4.5.7-21 .5-27.4-.1-1.4-1.2-2.5-2.6-2.5h-5.4c.2 2.5.1 7.1-1.8 11.6 0 0-14.6 26.8-26.9 40-2.1 2.3-2 5.7.1 7.9" opacity=".5"/></g><g fill="#73bf20"><path d="m-801.3 1881.9c.9 2.2 3.3 3.4 5.6 2.9 5.1-1.1 8.4-4.3 9.3-5.7 1.5-2.4 2.8-7.4 1.4-10.9-6.7-10.4-11.7-19.7-11.7-19.7-1.9-4.5-2-9.1-1.8-11.6h-5.4c-1.4 0-2.5 1.1-2.6 2.5-.2 6.4-.7 22.9.5 27.4.5 2.4 1.9 8.5 4.7 15.1"/><path d="m-760.8 1881.9c-.9 2.2-3.3 3.4-5.6 2.9-5.1-1.1-8.4-4.3-9.3-5.7-1.5-2.4-2.8-7.4-1.4-10.9 6.7-10.4 11.7-19.7 11.7-19.7 1.9-4.5 2-9.1 1.8-11.6h5.4c1.4 0 2.5 1.1 2.6 2.5.2 6.4.7 22.9-.5 27.4-.5 2.4-1.9 8.5-4.7 15.1"/></g><path d="m-757.4 1829.2c-2.9-2.4-7.9-5.4-10.9-7.1-1.3-.8-3-.8-4.3-.1-4.3 2.2-8.4 2-8.4 2s-4.1.2-8.4-2c-1.4-.7-3-.7-4.3.1-3 1.7-8.1 4.8-11 7.1-1 .8-1.7 2.1-1.7 3.4v.4c0 1.4.8 2.6 1.9 3.3l7.2 4.5c1.3.8 2.9 1.3 4.4 1.3h11.8 11.8c1.6 0 3.1-.5 4.4-1.3l7.2-4.5c1.1-.7 1.8-2 1.8-3.4v-.4c.1-1.2-.4-2.5-1.5-3.3" fill="#5e9c1b"/><path d="m-792.7 1840.1c-1.1 0-2.3-.3-3.4-1l-7.2-4.5c-.6-.4-.9-1-.9-1.6v-.4c0-.7.3-1.4.9-1.8 2.1-1.7 5.8-4.1 10.7-6.9.4-.2.8-.3 1.2-.3.4 0 .8.1 1.1.3 3.9 2 7.6 2.2 9 2.2.1 0 .3 0 .3 0 .1 0 .2 0 .3 0 1.4 0 5.1-.2 9-2.2.4-.2.7-.3 1.1-.3s.8.1 1.2.3c4.8 2.8 8.5 5.3 10.6 7 .5.4.8 1.1.8 1.8v.1.4c0 .7-.3 1.3-.8 1.6l-7.1 4.3c-1 .6-2.2 1-3.3 1h-23.5" fill="#73bf20"/></svg>