<svg xmlns="http://www.w3.org/2000/svg" width="89.7" height="144" viewBox="-260 325 89.7 144" enable-background="new -260 325 89.7 144"><switch><g><g><path d="m-224.1 364c-1-1.8-2.1-3.5-3.2-5.3-1.2-2-2.5-3.9-3.5-6-.3-.5-.4-1.1-.9-1.4-.2-.1-.5-.2-.7-.4 0 0-.2-.2-.2-.3-.4-1.5-.8-3-1.1-4.6-.2-.9-.4-1.9-.6-2.8-.1-.5-.2-.9-.3-1.4 0-.2-.1-.4-.1-.7 0-.2 0-.4 0-.6.3-3.7 1.2-7.3 2.6-10.7.7-1.6 1.4-3.3 2.4-4.8-1.1 1.3-2 2.7-2.9 4.1-1 1.7-2 3.5-2.8 5.4-.1-1.5-.4-3-1.1-4.4-.5-1.1-1.3-2.3-2.4-2.8.5.9.7 1.8.8 2.8.1 1.3.2 2.7-.1 3.9-1-.7-2.1-1.2-3.3-1.4.8.5 1.5 1.2 2.1 1.9.2.2.4.5.5.7.1.1.2.2.2.4.1.2 0 .3-.1.5-.2.6-.3 1.3-.4 1.9-.5-.3-1.1-.6-1.6-.7.6.5 1.1 1.1 1.6 1.7.1.2.1.5.2.7 0 .2.1.5.1.7s.1.4.1.6c.3 1.3.8 2.6 1.2 3.8.4 1.2.9 2.4 1.2 3.6.2.8.3 1.6.4 2.4.1.9-.6 1.5-.7 2.3-.1.5.1 1 .2 1.4.1.5.3 1 .4 1.6.3 1 .6 2 1 3 .7 1.9 1.6 3.7 2.5 5.5.5.9.9 1.7 1.5 2.5.2.4.4.7.7 1.1.1.1.1.2.2.2s.2-.1.2-.2c.1-.1.2-.2.4-.3.4-.3.7-.5 1.1-.8.9-.6 1.8-1.3 2.7-1.9.4-.3.8-.5 1.1-.8.2-.1.5-.3.7-.5 0 .2 0 .3-.1.1" fill="#a6762b"/><path d="m-224.3 399.8c-.7.2-1.4.3-2.2.4-.7.1-1.4.3-2.2.4l-2.2.4c-.7.1-1.4.3-2.2.4l-4.4.7-1.1.2c-.4.1-.7.1-1.1.2h-.6c-.2 0-.4 0-.6 0-.4 0-.8 0-1.2-.1l.4-.3c-.3.5-.6.9-.9 1.4l-.9 1.3c-.3.5-.6.9-1 1.3-.3.4-.7.9-1 1.3l-1 1.3c-.3.4-.7.9-1 1.3l-1 1.3-1 1.3-1 1.3c-.1.1-.2.2-.4.2-.2 0-.4 0-.6.1-.1 0-.2 0-.2.1 0 0-.1 0-.1.1l-.3.3-.6.6-.5.6c-.4.4-.7.8-1.1 1.2l-1 1.3c-.3.4-.7.9-1 1.3-.4.4-.7.8-1.1 1.2-.2.2-.4.4-.6.6s-.5.3-.9.3l.1-.2c0 .1 0 .1 0 .2s0 .2 0 .2c0 .2.1.3.1.5s.1.3.2.5c0 .1.1.1.1.2s.1.1.1.2l.1.1.1.1c.1.1.1.1.2.2l.2.1c.1 0 .2.1.2.1.1 0 .2.1.2.1l.2.1c.1 0 .2 0 .3.1l.3.1h-.3c-.1 0-.2 0-.3 0h-.3c-.1 0-.2 0-.3-.1-.1 0-.2 0-.3-.1l-.3-.1c-.1 0-.2-.1-.3-.1l-.1-.1-.1-.1c-.1-.1-.2-.1-.2-.2-.1-.1-.1-.1-.2-.2-.1-.2-.2-.3-.3-.5-.1-.2-.2-.4-.3-.6 0-.1-.1-.2-.1-.3 0-.1 0-.2-.1-.3l.2-.4c-.2-.5-.1-.8.1-1s.4-.4.5-.6c.4-.4.8-.8 1.2-1.2.4-.4.8-.7 1.2-1.1l1.2-1.1c.2-.2.4-.4.6-.6s.4-.4.6-.6c.4-.4.7-.8 1.1-1.2l.3-.3v-.1c0-.1 0-.2-.1-.3-.1-.2-.2-.5-.3-.8-.1-.3-.1-.4 0-.5l1-1.3 1.1-1.2 1.1-1.2c.4-.4.7-.8 1.1-1.2l1.1-1.2c.4-.4.8-.8 1.2-1.2.4-.4.8-.8 1.2-1.1.4-.4.8-.7 1.2-1.1.4-.4.9-.7 1.3-1l.4-.3c.2-.6.5-1 .8-1.3s.6-.6.9-.8c.3-.2.7-.4 1-.5l1-.4c.7-.3 1.3-.6 2-.9l2-.8c.3-.1.7-.3 1-.4l1-.4c.3-.1.7-.3 1-.4l1-.3c.3-.1.7-.2 1-.3l1.1-.3c.7-.2 1.4-.4 2.1-.5l2.5 6" fill="#a6762b"/><path d="m-227.5 427.6c-.6.4-1.2.9-1.8 1.3-.6.4-1.2.9-1.8 1.3l-1.8 1.3c-.6.4-1.2.8-1.8 1.3l-3.7 2.5-.9.6c-.3.2-.6.4-.9.6l-.5.3c-.2.1-.3.2-.5.2-.4.2-.7.3-1.1.4l.3-.6.1 1.1v1.1c0 .8 0 1.5 0 2.3s0 1.5-.1 2.3l-.1 2.3-.1 2.3c0 .4 0 .8-.1 1.1l-.1 1.1-.2 2.3c0 .1 0 .2-.1.3-.1.1-.1.2-.3.3-.2.2-.5.3-.7.5-.1.1-.1.2-.1.3v.3l-.1.6v.1c-.1.3-.1.5-.2.8l-.2.8c-.1.5-.2 1.1-.3 1.6-.1.3-.1.5-.2.8l-.1.8-.3 1.6-.3 1.6c0 .3-.1.5-.2.8l-.2.8c-.1.3-.1.5-.2.8l-.2.8c-.1.3-.1.5-.2.8-.1.1-.1.2-.2.4-.1.1-.2.2-.4.3v-.2c0 .1.1.1.1.2s.1.1.1.2c.1.1.2.3.3.4.2.2.5.5.8.6s.6.2 1 .2c.2 0 .3 0 .5 0s.3-.1.5-.1c-.2.1-.3.1-.5.2s-.3.1-.5.1c-.4.1-.8 0-1.1-.1-.4-.1-.7-.3-1-.6-.2-.1-.3-.3-.4-.4s-.1-.1-.2-.2-.1-.2-.2-.3v-.2c-.1-.2-.2-.3-.2-.5 0-.1-.1-.3-.1-.4 0-.3.1-.5.1-.8.1-.3.1-.5.2-.8s.1-.5.2-.8l.2-.8c.1-.3.1-.5.2-.8l.5-1.5.5-1.5.2-.8c.1-.3.1-.5.2-.8l.2-.8c.1-.3.1-.5.2-.8.1-.5.2-1.1.3-1.6v.1c0-.2 0-.4 0-.6v-.3c0-.1 0-.2-.1-.3-.2-.2-.7-.4-1-.6-.2-.1-.3-.2-.4-.3-.1-.1-.1-.2 0-.3.1-.8.1-1.5.2-2.3s.1-1.5.2-2.3.2-1.5.3-2.3l.2-1.1c.1-.4.1-.8.2-1.1.1-.8.3-1.5.4-2.3.1-.4.2-.7.2-1.1l.3-1.1.3-1.1c.1-.4.2-.7.3-1.1l.3-.6c0-.6 0-1.1.1-1.5s.3-.8.5-1.1c.2-.3.5-.6.7-.9l.7-.8c.5-.5 1-1.1 1.5-1.6l1.5-1.6c.2-.3.5-.5.8-.8l.8-.8c.3-.3.5-.5.8-.8l.8-.7c.3-.3.5-.5.8-.7l.8-.7c.6-.5 1.1-.9 1.7-1.4l4.6 4.8" fill="#a6762b"/><path d="m-205.5 364c1-1.8 2.1-3.5 3.2-5.3 1.2-2 2.5-3.9 3.5-6 .3-.5.4-1.1.9-1.4.2-.1.5-.2.7-.4 0 0 .2-.2.2-.3.4-1.5.8-3 1.1-4.6.2-.9.4-1.9.6-2.8.1-.5.2-.9.3-1.4 0-.2.1-.4.1-.7 0-.2 0-.4 0-.6-.3-3.7-1.2-7.3-2.6-10.7-.7-1.6-1.4-3.3-2.4-4.8 1.1 1.3 2 2.7 2.9 4.1 1 1.7 2 3.5 2.8 5.4.1-1.5.4-3 1.1-4.4.5-1.1 1.3-2.3 2.4-2.8-.5.9-.7 1.8-.8 2.8-.1 1.3-.2 2.7.1 3.9 1-.7 2.1-1.2 3.3-1.4-.8.5-1.5 1.2-2.1 1.9-.2.2-.4.5-.5.7-.1.1-.2.2-.2.4-.1.2 0 .3.1.5.2.6.3 1.3.4 1.9.5-.3 1.1-.6 1.6-.7-.6.5-1.1 1.1-1.6 1.7-.1.2-.1.5-.2.7 0 .2-.1.5-.1.7s-.1.4-.1.6c-.3 1.3-.8 2.6-1.2 3.8-.4 1.2-.9 2.4-1.2 3.6-.2.8-.3 1.6-.4 2.4-.1.9.6 1.5.7 2.3.1.5-.1 1-.2 1.4-.1.5-.3 1-.4 1.6-.3 1-.6 2-1 3-.7 1.9-1.6 3.7-2.5 5.5-.5.9-.9 1.7-1.5 2.5-.2.4-.4.7-.7 1.1-.1.1-.1.2-.2.2-.1 0-.2-.1-.2-.2-.1-.1-.2-.2-.4-.3-.4-.3-.7-.5-1.1-.8-.9-.6-1.8-1.3-2.7-1.9-.4-.3-.8-.5-1.1-.8-.2-.1-.5-.3-.6-.4" fill="#a6762b"/><path d="m-203.3 393.3c.7.3 1.4.5 2 .8.7.3 1.4.5 2 .8l2 .9c.7.3 1.4.6 2 .9l4 1.8 1 .5c.3.1.7.3 1 .5l.5.3c.2.1.3.2.5.3.3.2.6.4.9.7l.4.3c.4.4.8.8 1.2 1.2l1.2 1.2c.4.4.8.8 1.1 1.2.4.4.7.8 1.1 1.2l1.1 1.2c.4.4.7.8 1.1 1.2l1.1 1.2 1 1.3 1 1.3c.1.1.1.3.1.4 0 .2-.1.4 0 .6 0 .1 0 .2 0 .2v.1l.3.3.5.6.5.6c.4.4.7.8 1.1 1.2l1.1 1.2c.4.4.8.8 1.1 1.2.4.4.7.8 1.1 1.2.2.2.4.4.5.6.2.2.3.5.2.9l.1.2c0 .1 0 .2 0 .3 0 .1 0 .2-.1.3-.1.2-.1.4-.2.5-.1.2-.2.3-.3.5-.1.1-.1.1-.2.2-.1.1-.1.1-.2.2l-.1.1-.1.1c-.1 0-.2.1-.2.1l-.3.1c-.1 0-.2.1-.3.1s-.2.1-.3.1h-.3c-.1 0-.2 0-.3 0h-.3l.3-.1c.1 0 .2 0 .3-.1l.2-.1c.1 0 .2-.1.2-.1.1 0 .1-.1.2-.1l.2-.2c.1 0 .1-.1.2-.2l.1-.1.1-.1c0-.1.1-.1.1-.2s.1-.1.1-.2c.1-.1.1-.3.1-.4 0-.2.1-.3.1-.5 0-.1 0-.2 0-.2 0-.1 0-.2 0-.2l.2.4c-.5.1-.8 0-1-.2s-.4-.4-.5-.6c-.4-.4-.7-.9-1-1.3s-.6-.9-1-1.3l-1-1.3c-.2-.2-.3-.4-.5-.7-.2-.2-.3-.4-.5-.6-.4-.4-.7-.8-1.1-1.2l-.3-.3h-.1c-.1 0-.2 0-.3 0-.3 0-.6.1-.8.2-.3 0-.4 0-.5-.1l-1-1.3-1-1.3-1-1.3c-.3-.4-.7-.9-1-1.3l-.9-1.3c-.3-.4-.6-.9-.9-1.4-.3-.5-.6-.9-.9-1.4-.3-.5-.6-.9-.9-1.4-.3-.5-.5-1-.8-1.5l.4.3c-.5.4-.9.5-1.3.7-.4.1-.8.2-1.2.2s-.7-.1-1.1-.1l-1.1-.2c-.7-.1-1.5-.2-2.2-.4l-2.2-.4c-.4-.1-.7-.2-1.1-.2l-1.1-.2c-.4-.1-.7-.2-1.1-.3l-1.1-.3c-.4-.1-.7-.2-1.1-.3l-1.1-.3c-.7-.2-1.4-.5-2.1-.7l2.4-6.5" fill="#a6762b"/><path d="m-197.5 422.5c.5.5 1 1.1 1.5 1.6s1 1.1 1.5 1.6l1.5 1.6c.5.5 1 1.1 1.5 1.6l2.9 3.3.7.8c.2.3.5.6.7.9l.3.5c.1.2.2.3.3.5.2.3.4.7.5 1.1l.3.6.2 1.1.2 1.1c.1.8.2 1.5.3 2.3s.2 1.5.3 2.3l.3 2.3.2 2.3c0 .4.1.8.1 1.1l.1 1.1.1 2.3c0 .1 0 .2 0 .3 0 .1-.1.2-.2.3-.2.2-.5.4-.6.6-.1.1-.1.2-.1.3v.3.6-.1c.1.3.1.5.2.8l.2.8c.1.5.3 1 .4 1.6.1.3.1.5.2.8l.2.8.5 1.6.5 1.6c.1.3.1.5.2.8l.2.8c.1.3.1.5.2.8l.2.8c.1.3.1.5.1.8 0 .1 0 .3-.1.4 0 .1-.1.3-.2.5v.2c-.1.1-.1.2-.2.3-.1.1-.1.2-.2.2-.1.1-.3.3-.4.4-.3.2-.6.4-1 .6-.4.1-.8.1-1.1.1-.2 0-.4-.1-.5-.1-.2-.1-.3-.1-.5-.2.2 0 .3.1.5.1s.3 0 .5 0c.3 0 .7-.1 1-.2s.6-.4.8-.6c.1-.1.2-.3.3-.4 0-.1.1-.1.1-.2s.1-.2.1-.2v.2c-.2-.1-.3-.2-.4-.3-.1-.1-.2-.2-.2-.4-.1-.2-.2-.5-.2-.8-.1-.3-.1-.5-.2-.8-.1-.3-.1-.5-.2-.8l-.2-.8c0-.3-.1-.5-.1-.8l-.3-1.6-.3-1.6-.1-.8c0-.3-.1-.5-.2-.8l-.2-.8c-.1-.3-.1-.5-.2-.8-.1-.5-.3-1-.4-1.6v-.1c0-.2-.1-.4-.1-.6v-.3c0-.1-.1-.2-.2-.3-.2-.2-.7-.3-1.1-.5-.2-.1-.3-.2-.4-.3-.1-.1-.1-.2-.1-.3-.1-.8-.1-1.5-.2-2.3-.1-.8-.1-1.5-.1-2.3s-.1-1.5-.1-2.3v-1.1c0-.4 0-.8 0-1.1 0-.8 0-1.5.1-2.3 0-.4 0-.8.1-1.1l.1-1.1.1-1.1c0-.4.1-.8.2-1.2l.3.6c-.6.1-1.1.1-1.5 0s-.8-.2-1.2-.3c-.4-.2-.7-.4-1-.6l-.9-.6c-.6-.4-1.2-.8-1.8-1.2l-1.8-1.3c-.3-.2-.6-.4-.9-.7l-.9-.7c-.3-.2-.6-.4-.9-.7l-.8-.7c-.3-.2-.6-.5-.8-.7l-.8-.7c-.5-.5-1.1-1-1.6-1.5l4.7-5.3" fill="#a6762b"/></g><g><path d="m-223.8 341.7c0-.3-.3-.5-.8-.7-.4-.1-1-.1-1.3 0-.6.2-.9.8-.7 1.3.2.5.8.8 1.3.6.3-.1.6-.3.9-.5.3-.1.6-.4.6-.7" fill="#c9902b"/><path d="m-226.5 342.4c-.2-.5-1.6-.4-2.1-.2-.5.3-.8.9-.5 1.4.2.5.9.7 1.4.5.4-.3 1.4-1.2 1.2-1.7" fill="#c9902b"/><path d="m-229.2 343.6c-.2-.5-1.6-.4-2.1-.1s-.7.9-.5 1.4.9.7 1.4.5c.6-.4 1.5-1.3 1.2-1.8" fill="#c9902b"/><path d="m-231.7 344.8c-.2-.5-1.6-.4-2.1-.1-.5.2-.7.9-.5 1.4s.9.7 1.4.5c.5-.3 1.4-1.3 1.2-1.8" fill="#c9902b"/><path d="m-234.3 346.1c-.2-.5-1.5-.4-2.1-.2-.5.2-.8.8-.6 1.3.2.5.8.8 1.4.5.5-.2 1.5-1.1 1.3-1.6" fill="#c9902b"/><path d="m-237 347.2c-.2-.5-1.5-.5-2.1-.3-.5.2-.8.8-.6 1.3s.8.8 1.3.6c.6-.2 1.6-1.1 1.4-1.6" fill="#c9902b"/><path d="m-239.7 348.2c-.2-.5-1.5-.6-2-.4-.5.1-.9.7-.7 1.2.1.5.7.9 1.3.7.5-.2 1.6-1 1.4-1.5" fill="#c9902b"/><path d="m-242.5 349c-.1-.3-.4-.4-.8-.5s-.9-.2-1.1-.1c-.5.1-.9.6-.9 1.1.1.5.6 1 1.2.9.3-.1.8-.2 1.1-.5.4-.3.6-.6.5-.9" fill="#c9902b"/><path d="m-245.3 349.5c-.1-.6-1.3-.9-1.8-.9s-1 .4-1 1 .4 1 1.1 1c.5 0 1.8-.6 1.7-1.1" fill="#c9902b"/><path d="m-248.2 349.6c0-.6-1.2-1.1-1.7-1.2s-1.1.3-1.2.9.3 1.1.9 1.2c.7 0 2-.4 2-.9" fill="#c9902b"/><path d="m-251 349.3c.1-.6-1-1.2-1.5-1.4-.5-.1-1.1.2-1.3.7-.2.5.2 1.1.8 1.3.5.2 1.9-.1 2-.6" fill="#c9902b"/><path d="m-253.8 348.6c.1-.5-.9-1.3-1.4-1.5s-1.1.1-1.3.6c-.2.5.1 1.1.6 1.3.6.2 1.9.2 2.1-.4" fill="#c9902b"/><path d="m-256.5 347.7c.2-.5-.7-1.4-1.2-1.7-.5-.2-1.1-.1-1.4.4s-.1 1.1.5 1.4c.5.3 1.9.4 2.1-.1" fill="#c9902b"/></g><g><path d="m-206.1 341.7c0 .3.3.6.6.8.3.3.6.4.9.5.5.1 1.1-.1 1.3-.6s-.1-1.1-.7-1.3c-.3-.1-.8-.1-1.3 0s-.8.3-.8.6" fill="#c9902b"/><path d="m-203.3 342.4c-.2.5.7 1.4 1.3 1.6.5.2 1.1 0 1.4-.5.2-.5 0-1.1-.5-1.4-.7-.2-2-.2-2.2.3" fill="#c9902b"/><path d="m-200.7 343.6c-.2.5.7 1.5 1.2 1.7.5.3 1.1.1 1.4-.5.2-.5 0-1.1-.5-1.4-.5-.2-1.9-.3-2.1.2" fill="#c9902b"/><path d="m-198.1 344.8c-.2.5.7 1.5 1.2 1.7.5.3 1.1 0 1.4-.5.2-.5 0-1.1-.5-1.4-.6-.1-1.9-.3-2.1.2" fill="#c9902b"/><path d="m-195.5 346.1c-.2.5.7 1.5 1.3 1.7.5.2 1.2 0 1.4-.5s0-1.1-.6-1.3c-.6-.3-1.9-.4-2.1.1" fill="#c9902b"/><path d="m-192.9 347.2c-.2.5.8 1.4 1.4 1.6.6.2 1.2-.1 1.3-.6s-.1-1.1-.6-1.3c-.6-.2-1.9-.2-2.1.3" fill="#c9902b"/><path d="m-190.2 348.2c-.2.5.9 1.3 1.5 1.5s1.2-.2 1.3-.7-.2-1.1-.7-1.2c-.6-.2-1.9-.1-2.1.4" fill="#c9902b"/><path d="m-187.4 349c-.1.3.2.6.5.9.4.2.8.4 1.1.5.6.1 1.1-.3 1.2-.9.1-.6-.3-1-.9-1.1-.3 0-.7 0-1.1.1-.4 0-.8.2-.8.5" fill="#c9902b"/><path d="m-184.6 349.5c-.1.6 1.2 1.1 1.8 1.1s1.1-.5 1.1-1c0-.6-.5-1-1-1-.6 0-1.8.3-1.9.9" fill="#c9902b"/><path d="m-181.7 349.6c0 .6 1.3 1 1.9.9.6-.1 1-.6.9-1.2s-.6-.9-1.2-.9c-.5.1-1.6.6-1.6 1.2" fill="#c9902b"/><path d="m-178.9 349.3c.1.6 1.4.8 2 .6.6-.1.9-.7.8-1.3-.2-.5-.7-.8-1.3-.7-.4.2-1.5.8-1.5 1.4" fill="#c9902b"/><path d="m-176.1 348.6c.1.6 1.5.6 2.1.4s.8-.8.6-1.3-.8-.8-1.3-.6c-.5.2-1.5 1-1.4 1.5" fill="#c9902b"/><path d="m-173.3 347.7c.2.5 1.6.4 2.1.1s.8-.9.5-1.4-.9-.6-1.4-.4c-.5.3-1.4 1.2-1.2 1.7" fill="#c9902b"/></g><path d="m-222.2 337.4c0 0-1.7-5.4 6.3-7.3 0 0-4 5.1 1 7.3 0 0-5.3 1.3-7.3 0" fill="#2f2e30"/><path d="m-207.7 337.4c0 0 1.7-5.4-6.3-7.3 0 0 4 5.1-1 7.3.1 0 5.3 1.3 7.3 0" fill="#2f2e30"/><g><path d="m-205.8 390.6h-18l1.1-4.7h15.8l1.1 4.7" fill="#2f2e30"/><path d="m-207.4 390.6h-14.8l.9-4.7h13l.9 4.7" fill="#030403"/></g><g><path d="m-204 358.9h-21.2l1.7-6.4h17.9l1.6 6.4" fill="#2f2e30"/><path d="m-205.6 358.9h-18l1.5-6.4h15.1l1.4 6.4" fill="#030403"/></g><path d="m-214.8 465.7c0 0 16.1-3.5 19.7-23.3 2.4-13.1-.6-32.3-1.3-43-.3-5.4-4.4-9.7-9.7-9.7h-17.4c-5.4 0-9.4 4.4-9.7 9.7-.6 10.7-3.6 29.9-1.3 43 3.6 19.9 19.7 23.3 19.7 23.3" fill="#313334"/><path d="m-214.8 387.5c0 0 8.1-.3 10.6-1.2 2.4-.9 5.6-3.8 7-7.5.8-2.1.3-6.9.2-9.1-.3-6.2-2.4-15.5-5.1-15.4 0 0-2-.3-4 1.4-2 1.7-6 3.3-8.7 3.3s-6.6-1.6-8.7-3.3c-2-1.7-4-1.4-4-1.4-2.7 0-4.8 9.2-5.1 15.4-.1 2.3-.6 7 .2 9.1 1.3 3.7 4.6 6.6 7 7.5 2.6.9 10.6 1.2 10.6 1.2" fill="#313334"/><g><path d="m-215.9 382.1c0 1.9-1.6 3.4-3.5 3.2-2.3-.2-4.4-.5-5.4-.9-1.9-.7-4.6-3.3-5.7-6.2-.5-1.4-.3-5.5-.1-7.4 0-.4 0-.7.1-1 .2-2.8.6-6 1.3-8.7.5-2 1-3.2 1.4-4 .3-.6 1-.8 1.6-.6.3.1.6.3.9.6 2 1.7 4.5 3.1 7 3.8 1.4.3 2.5 1.6 2.5 3.1l-.1 18.1" fill="#100e0d"/><path d="m-213.7 382.1c0 1.9 1.6 3.4 3.5 3.2 2.3-.2 4.4-.5 5.4-.9 1.9-.7 4.6-3.3 5.7-6.2.5-1.4.3-5.5.1-7.4 0-.4 0-.7-.1-1-.2-2.8-.6-6-1.3-8.7-.5-2-1-3.2-1.4-4-.3-.6-1-.8-1.6-.6-.3.1-.6.3-.9.6-2 1.7-4.5 3.1-7 3.8-1.4.3-2.5 1.6-2.5 3.1v18.1h.1" fill="#100e0d"/></g><g><g><path d="m-215.9 391.7v71.9c0 .3-.3.5-.5.4-.4-.1-.9-.3-1.6-.6-.8-.4-1.4-1.2-1.4-2.1v-69.5c0-.2.2-.4.4-.4h2.7c.2-.1.4.1.4.3" fill="#100e0d"/><path d="m-222.9 391.7v67.7c0 .3-.4.5-.7.3-.7-.6-1.4-1.3-2-2.1-.5-.6-.8-1.3-.8-2v-61.2c0-1.7 1.3-3.1 3-3.1.3 0 .5.2.5.4" fill="#100e0d"/><path d="m-229.8 396.8v52.2c0 .4-.6.5-.8.1-.8-2.2-1.5-4.6-1.9-7.4-.5-3.5-.8-7.4-.8-11.4 0-10.6 1.4-22.3 1.8-29.8.1-1.4.4-2.7.9-3.9.2-.3.8-.2.8.2" fill="#100e0d"/></g><g><path d="m-213.6 391.7v71.9c0 .3.3.5.5.4.4-.1.9-.3 1.6-.6.8-.4 1.4-1.2 1.4-2.1v-69.5c0-.2-.2-.4-.4-.4h-2.7c-.2-.1-.4.1-.4.3" fill="#100e0d"/><path d="m-206.7 391.7v67.7c0 .3.4.5.7.3.7-.6 1.4-1.3 2-2.1.5-.6.8-1.3.8-2v-61.2c0-1.7-1.3-3.1-3-3.1-.3 0-.5.2-.5.4" fill="#100e0d"/><path d="m-199.7 396.8v52.2c0 .4.6.5.8.1.8-2.2 1.5-4.6 1.9-7.4.5-3.5.8-7.4.8-11.4 0-10.6-1.4-22.3-1.8-29.8-.1-1.4-.4-2.7-.9-3.9-.2-.3-.8-.2-.8.2" fill="#100e0d"/></g></g><path d="m-207.4 338.4c0-1.1-1-2-2.1-1.8-1.8.3-4.3.7-5.4.7-1.1 0-3.6-.4-5.4-.7-1.1-.2-2.1.6-2.1 1.8 0 0-5.1 6.5-5.1 9.2s2.2 5.7 4.9 5.7c.2 0 1.7 1 2.5 1h5.2 5.2c.8 0 2.3-1 2.5-1 2.7 0 4.9-3 4.9-5.7s-5.1-9.2-5.1-9.2" fill="#313334"/><path d="m-220.3 343.3c0 1.7-.7 3.1-2.4 3.1-1.7 0-3.1-1.4-3.1-3.1s1.4-4.7 3.1-4.7c1.7-.1 2.4 2.9 2.4 4.7" fill="#934420"/><path d="m-209.6 343.3c0 1.7.7 3.1 2.4 3.1s3.1-1.4 3.1-3.1-1.4-4.7-3.1-4.7c-1.7-.1-2.4 2.9-2.4 4.7" fill="#934420"/><path d="m-219.8 351.8c-.1 0-.3 0-.4-.1-.2-.1-.6-.3-.7-.4-.6-.3-1-.6-1.7-.6-.2 0-.4-.1-.6-.2-.9-.4-.5-1.8.5-1.7 3 0 5-2.3 5-5.7 0-.7-.1-1.5-.3-2.4-.1-.6.4-1.2 1-1.1 1.3.2 1.9.2 2.1.2.2 0 .8 0 2.1-.2.6-.1 1.2.5 1 1.1-.2.9-.3 1.8-.3 2.4 0 3.4 2 5.7 5 5.7 1 0 1.3 1.3.5 1.7-.2.1-.4.2-.6.2-.7 0-1.2.3-1.7.6-.2.1-.5.3-.7.4-.1.1-.3.1-.4.1h-9.8" fill="#100e0d"/></g></switch></svg>