<svg xmlns="http://www.w3.org/2000/svg" width="46.4" height="43.2" viewBox="-260 469 46.4 43.2" enable-background="new -260 469 46.4 43.2"><switch><g><g><path d="m-239.1 472.9c.3.5-.4.3-.9.6s-.6 1.1-.9.6-.2-1.1.4-1.5 1.1-.2 1.4.3" fill="#2f343a"/><path d="m-234.5 472.9c-.3.5.4.3.9.6s.6 1.1.9.6.2-1.1-.4-1.5-1.1-.2-1.4.3" fill="#2f343a"/></g><path d="m-234.4 477c.7 0 1.3.1 1.4-.6 0 0 .2-1.1.3-1.3.3-2.1-2-2.7-2-2.7-.3 0-.5-.1-.7-.3l-.2-.2c-.2-.2-.5-.4-.8-.4h-1c-.3 0-.6.1-.8.4l-.2.2c-.2.2-.4.3-.7.3 0 0-2.3.6-2 2.7 0 .2.3 1.3.3 1.3.1.7.7.6 1.4.6h5" fill="#0f1720"/><g><path d="m-237.8 472.9c0 0 0 0 0 0-.1-.1-.2-.1-.3-.1-.2-.1-.4-.2-.7-.3-.3-.1-.7-.2-1.1-.2-.4 0-.8 0-1.2.1-.2.1-.4.1-.6.2-.2.1-.4.1-.6.2-.4.1-.8.1-1.2.1-.2 0-.3 0-.5 0-.1 0-.3 0-.4 0-.1 0-.2 0-.3 0-.1 0-.1 0-.1 0-.2 0-.4-.1-.5-.3s.1-.4.3-.5c.2 0 .4.1.4.2 0 0 0 0 0 .1 0 0 .1.1.2.2.1.1.2.1.3.1.1 0 .3 0 .4.1.2 0 .3 0 .5 0 .2 0 .4-.1.6-.1.2-.1.4-.1.6-.2.2-.1.4-.2.6-.3.4-.2.9-.2 1.4-.2.4 0 .8.1 1.2.2.3.1.6.2.8.3.1 0 .2.1.2.1.1 0 .1 0 .1 0 .1.1.2.2.1.4.2-.1 0 0-.2-.1" fill="#0f1720"/><path d="m-235.4 472.9c0 0 .1 0 0 0 .1-.1.2-.1.3-.1.2-.1.4-.2.7-.3.3-.1.7-.2 1.1-.2.4 0 .8 0 1.2.1.2.1.4.1.6.2.2.1.4.1.6.2.4.1.8.1 1.2.1.2 0 .3 0 .5 0 .1 0 .3 0 .4 0 .1 0 .2 0 .3 0 .1 0 .1 0 .1 0 .2 0 .4-.1.5-.3s-.1-.4-.3-.5c-.2 0-.4.1-.4.2 0 0 0 0 0 .1 0 0-.1.1-.2.2-.1.1-.2.1-.3.1-.1 0-.3 0-.4.1-.2 0-.3 0-.5 0-.2 0-.4-.1-.6-.1-.2-.1-.4-.1-.6-.2-.2-.1-.4-.2-.6-.3-.4-.2-.9-.2-1.4-.2-.4 0-.8.1-1.2.2-.3.1-.6.2-.8.3-.1 0-.2.1-.2.1-.1 0-.1 0-.1 0-.1.1-.2.2-.1.4-.1-.1.1 0 .2-.1" fill="#0f1720"/></g><g><g><g><path d="m-213.6 490.4c-.1-.1-.2-.1-.2-.2-.1 0-.1-.1-.2-.1-.1 0-.1 0-.2 0-.1 0-.1 0-.2 0h-.2c-.1 0-.2 0-.2 0-.2 0-.3 0-.5-.1-.1 0-.1 0-.2-.1-.1 0-.1 0-.2-.1-.1-.1-.3-.1-.4-.2-.1-.1-.3-.1-.4-.2-.1 0-.1-.1-.2-.1-.1 0-.1-.1-.2-.1l-.1-.1h-.1l-2.6.4c0-.1 0-.2 0-.2 0-.1-.1-.1-.2-.2l-.4-.3-.7-.6-.7-.6c-.2-.2-.5-.4-.7-.6-.5-.4-1-.8-1.5-1.2-.5-.4-1-.8-1.5-1.2l-.1-.1h-.2l-2.9.1c-.1 0-.2 0-.3.1-.5.2-.7.7-.5 1.2s.7.7 1.2.5l2.5-1c.4.4.8.8 1.2 1.2.5.4.9.9 1.4 1.3.2.2.5.4.7.7l.7.6.7.6.4.3c.1 0 .1.1.2.1.1 0 .2 0 .3 0l.3.1 2.9-.4.8.2.5.1c.2 0 .3.1.5.1.2 0 .3.1.5.2.2.1.3.1.5.2.2 0 .3.1.5 0 .1 0 .2 0 .2-.1.1 0 .2-.1.2-.2-.4.1-.4 0-.4 0m-6.6-.7" fill="#0f1720"/><path d="m-217.7 510.9c0-.1-.1-.1-.1-.2 0-.1-.1-.1-.1-.2 0-.1-.1-.1-.2-.2l-.2-.1c-.1 0-.1-.1-.2-.1-.1-.1-.2-.2-.3-.3 0-.1-.1-.1-.1-.2 0-.1-.1-.1-.1-.2-.1-.1-.1-.3-.2-.4-.1-.1-.1-.3-.2-.4 0-.1 0-.1-.1-.2 0-.1 0-.2 0-.2v-.1l-.1-.1-2.2-1.5c.1-.1.1-.1.1-.2 0-.1 0-.2 0-.3v-.6-1.2-1.2c0-.4 0-.8-.1-1.2 0-.8-.1-1.6-.1-2.4-.1-.8-.1-1.6-.2-2.4v-.2l-.3-.2-2.3-1.7c-.1 0-.1-.1-.2-.1-.4-.2-1 0-1.2.5s0 1 .5 1.2l2.3 1c0 .7 0 1.4 0 2.1 0 .8 0 1.6.1 2.4 0 .4 0 .8.1 1.2l.1 1.2.1 1.2v.6c0 .1 0 .2 0 .3 0 .1.1.2.3.3l.1.3 2.4 1.6.4.7.2.4c.1.1.2.3.3.4.1.1.2.3.2.4.1.1.1.3.2.4.1.1.2.3.3.4.1 0 .1.1.2.1.1 0 .2 0 .3 0 .1 0 .1-.1.1-.1.2-.4.2-.5.2-.5m-4.4-4.7" fill="#0f1720"/><path d="m-229.1 481.3c.1 0 .3-.1.4-.1.1 0 .3-.1.4-.1l.4-.2c.1-.1.3-.1.4-.2l.2-.1c.1 0 .1-.1.2-.1.1 0 .1-.1.2-.2.1-.1.1-.1.2-.3l.2-.2c.1-.1.1-.3.2-.4.1-.1.1-.3.2-.4.1-.3.2-.6.3-.9l.1-.4c0-.2.1-.3.1-.5 0-.2.1-.3.1-.5 0-.2 0-.3.1-.5 0-.2 0-.3 0-.5v-.5c0-.2 0-.3 0-.5 0-.2 0-.3 0-.5l-.1-.5-.1-.5c0-.1 0-.2-.1-.2 0-.1-.1-.1-.1-.2 0-.1-.1-.2-.2-.2.1-.1.2-.1.3-.2.2-.1.4-.3.6-.4.2-.1.4-.3.6-.4.2-.2.4-.3.6-.5l.3-.2c.1-.1.2-.1.3-.2.1-.1.1-.3.2-.4 0-.1.1-.1.1-.1 0 0 .1-.1.1-.1.1-.1.2-.1.3-.2.1-.1.2-.1.3-.2.1-.1.2-.2.3-.2.1-.1.2-.2.2-.3 0-.1.1-.1 0-.2 0-.1-.2-.2-.3-.1-.1 0-.2.1-.3.2-.1.1-.2.1-.3.2-.1.1-.2.2-.3.3-.1.1-.2.2-.2.3 0 0-.1.1-.1.1 0 0-.1.1-.2.1-.1 0-.3 0-.4.1-.1.1-.2.1-.3.2l-.3.2c-.2.1-.4.3-.6.5-.2.2-.4.3-.6.5-.2.2-.4.3-.6.5-.2.2-.4.3-.5.5l-.2.2.1.2c-.2.2-.3.4-.3.5 0 .1 0 .1 0 .2 0 .1 0 .1 0 .2l.1.4.1.4c0 .1 0 .3 0 .4 0 .1 0 .3 0 .4v.4c0 .1 0 .3 0 .4 0 .1 0 .3 0 .4 0 .1 0 .3 0 .4 0 .1 0 .3 0 .4v.4c0 .1 0 .3 0 .4l-.1.4c0 .1 0 .3-.1.4 0 0 0 .1 0 .1 0 0-.1 0-.1 0-.1 0-.2-.1-.2-.1-.1 0-.2 0-.2 0h-.2c-.2 0-.3 0-.5 0h-.5c-.2 0-.3 0-.5.1-.2 0-.3 0-.4.1-.1 0-.3.1-.4.1-.1 0-.3.1-.4.1-.5.1-.8.6-.7 1.1.1.5.6.9 1.1.8.1 0 .3-.1.4-.1.4.1.6 0 .7 0m2.2-1.6c0 0 0 0 0 0" fill="#0f1720"/></g><g><path d="m-260 490.6c.1.1.2.1.2.2.1 0 .2.1.2.1.2 0 .3 0 .5 0 .2 0 .3-.1.5-.2.1-.1.3-.1.5-.2.2 0 .3-.1.5-.1l.5-.1.8-.2 2.9.4.3-.1c.2.1.3.1.3 0 .1 0 .1-.1.2-.1l.4-.3.7-.6.7-.6c.2-.2.5-.4.7-.7.5-.4.9-.9 1.4-1.3.4-.4.8-.8 1.2-1.2l2.5 1c.5.2 1 0 1.2-.5.2-.5 0-1-.5-1.2-.1 0-.2-.1-.3-.1l-2.9-.1h-.2l-.1.1c-.5.4-1 .8-1.5 1.2-.5.4-1 .8-1.5 1.2-.2.2-.5.4-.7.6l-.7.6-.7.6-.4.3c-.1.1-.1.1-.2.2 0 .1 0 .1 0 .2l-2.6-.4h-.1l-.1.1c0 0-.1.1-.2.1-.1 0-.1.1-.2.1-.1.1-.3.1-.4.2-.1.1-.3.1-.4.2-.1 0-.1 0-.2.1-.1 0-.1 0-.2.1-.1 0-.3.1-.5.1-.1 0-.2 0-.2 0h-.2c-.1 0-.1 0-.2 0-.1 0-.1 0-.2 0-.1 0-.1.1-.2.1-.1 0-.1.1-.2.2-.4-.2-.4-.1-.4 0m6.6-.9" fill="#0f1720"/><path d="m-255.9 511.1c0 .1.1.1.1.1.1 0 .2 0 .3 0 .1 0 .2-.1.2-.1.1-.1.2-.2.3-.4.1-.1.1-.3.2-.4.1-.2.1-.3.2-.4.1-.1.2-.3.3-.4l.2-.4.4-.7 2.4-1.6.1-.3c.2-.1.2-.2.3-.3 0-.1 0-.2 0-.3v-.6l.1-1.2.1-1.2c0-.4 0-.8.1-1.2 0-.8.1-1.6.1-2.4 0-.7 0-1.4 0-2.1l2.3-1c.4-.2.6-.7.5-1.2s-.7-.6-1.2-.5c-.1 0-.1.1-.2.1l-2.3 1.7-.3.2v.2c-.1.8-.1 1.6-.2 2.4 0 .8-.1 1.6-.1 2.4 0 .4 0 .8-.1 1.2v1.2 1.2.6c0 .1 0 .2 0 .3 0 .1.1.1.1.2l-2.2 1.5-.1.1v.1c0 .1 0 .1 0 .2 0 .1 0 .1-.1.2 0 .1-.1.3-.2.4-.1.1-.1.3-.2.4 0 .1-.1.1-.1.2 0 .1-.1.1-.1.2-.1.1-.2.2-.3.3-.1.1-.1.1-.2.1l-.2.1c-.1 0-.1.1-.2.2 0 .1-.1.1-.1.2 0 .1-.1.1-.1.2.2.3.2.4.2.5m4.4-4.9" fill="#0f1720"/><path d="m-244 481.4c.1 0 .3.1.4.1.5.1 1-.2 1.1-.8.1-.5-.2-1-.7-1.1-.1 0-.3-.1-.4-.1-.1 0-.3-.1-.4-.1-.1 0-.3 0-.4-.1-.2 0-.3 0-.5-.1h-.5c-.2 0-.3 0-.5 0h-.2c-.1 0-.2 0-.2 0-.1 0-.2 0-.2.1 0 0-.1 0-.1 0 0 0 0-.1 0-.1 0-.1 0-.3-.1-.4l-.1-.4c0-.1 0-.3 0-.4v-.4c0-.1 0-.3 0-.4 0-.1 0-.3 0-.4 0-.1 0-.3 0-.4 0-.1 0-.3 0-.4v-.4c0-.1 0-.3 0-.4 0-.1 0-.3 0-.4l.1-.4.1-.4c0-.1 0-.1 0-.2 0-.1 0-.1 0-.2 0-.2-.1-.3-.3-.5l.1-.2-.2-.2c-.2-.2-.4-.3-.5-.5-.2-.2-.4-.3-.6-.5-.2-.2-.4-.3-.6-.5-.2-.2-.4-.3-.6-.5l-.3-.2c-.1-.1-.2-.2-.3-.2-.1-.1-.3 0-.4-.1-.1 0-.1-.1-.2-.1-.1 0-.1-.1-.1-.1-.1-.1-.2-.2-.2-.3-.1-.1-.2-.2-.3-.3-.1-.1-.2-.1-.3-.2-.1-.1-.2-.1-.3-.2-.1 0-.2 0-.3.1 0 .1 0 .2 0 .2.1.1.2.2.2.3.1.1.2.2.3.2.1.1.2.1.3.2.1.1.2.1.3.2 0 0 .1.1.1.1 0 0 .1.1.1.1.1.1.1.3.2.4.1.1.2.2.3.2l.3.2c.2.2.4.3.6.5.2.2.4.3.6.4.2.1.4.3.6.4.1.1.2.1.3.2-.1.1-.1.1-.2.2 0 .1-.1.1-.1.2 0 .1 0 .2-.1.2l-.1.5-.1.5c0 .2 0 .3 0 .5 0 .2 0 .3 0 .5v.5c0 .2 0 .3 0 .5 0 .2 0 .3.1.5 0 .2 0 .3.1.5 0 .2.1.3.1.5l.1.4c.1.3.2.6.3.9.1.1.1.3.2.4.1.1.1.3.2.4l.2.2c.1.1.1.2.2.3.1.1.1.1.2.2.1 0 .1.1.2.1l.2.1c.1.1.3.1.4.2l.4.2c.1.1.3.1.4.1.1 0 .3.1.4.1.4-.1.5 0 .7 0m-2.6-1.7c0 0 0 0 0 0" fill="#0f1720"/></g></g><g><path d="m-228.7 481.4c.3.9-.3 1.9-1.3 2-1.8.2-4.7.6-6.8.6-2.1 0-5-.3-6.8-.6-.9-.1-1.6-1.1-1.3-2 1.1-3.4 4.3-5.9 8.1-5.9 3.8.1 7 2.5 8.1 5.9" fill="#121c26"/><path d="m-244.5 480.6c-.1.3-.2.6-.3.9-.3.9.3 1.8 1.3 2 0 0 0 0 .1 0 1.1.1 1.8-1.2 1-2-.3-.3-.7-.7-1-1-.4-.4-1-.3-1.1.1" fill="#e8e7e3"/><path d="m-240.9 478.3c-.2.2-.3.3-.5.5-.3.3-.3.8 0 1.1.3.3.5.5.8.8.4.4 1 .4 1.4 0 .4-.4.4-1 0-1.4-.3-.3-.7-.7-1-1-.2-.2-.5-.2-.7 0" fill="#e8e7e3"/><path d="m-229 480.6c.1.3.2.6.3.9.3.9-.3 1.8-1.3 2 0 0 0 0-.1 0-1.1.1-1.8-1.2-1-2 .3-.3.7-.7 1-1 .4-.4.9-.3 1.1.1" fill="#e8e7e3"/><path d="m-232.7 478.3c.2.2.3.3.5.5.3.3.3.8 0 1.1-.3.3-.5.5-.8.8-.4.4-1 .4-1.4 0-.4-.4-.4-1 0-1.4.3-.3.7-.7 1-1 .2-.2.5-.2.7 0" fill="#e8e7e3"/></g><path d="m-224.9 493.3c0 16.3-11.9 18.9-11.9 18.9s-11.9-2.6-11.9-18.9c0-4.4 1.3-7.9 3.5-10.1 2.1-2.2 5.1.8 8.4.8 3.3 0 6.3-3.1 8.4-.8 2.2 2.2 3.5 5.7 3.5 10.1" fill="#903716"/><g><g><path d="m-237.2 484v28.1c-.7-.2-2.2-.8-4-2-.8-.5-1.6-1.2-2.4-2-1-1.1-2-2.4-2.8-4-.5-1-1-2.1-1.3-3.4-.6-2.1-1-4.5-1-7.4 0-4.4 1.3-7.9 3.5-10.1 1.8-1.8 4.1-.1 6.6.6.5.1 1 .2 1.4.2" fill="#b34700"/><path d="m-240.4 500.7c.1.3 0 .6-.3 1-.3.3-.9.4-1.3.3-.7 0-1.7-.5-1.9-1.2-.3-1.2 1.3-1.5 2.1-1.2.5.1 1.2.5 1.4 1.1" fill="#0f1720"/><path d="m-239.4 509.5c-.3.4-1 .6-1.6.6-.1 0-.1 0-.2 0-.8-.5-1.6-1.2-2.4-2 .4-1.4 3.8-1.2 4.4.2.2.3.2.7-.2 1.2" fill="#0f1720"/><path d="m-239.7 491.3c-.1.6-.4 1.1-1 1.3-.1 0-.2 0-.3 0-.7 0-1.2-.5-1.2-1.2 0-1.3 2.3-2 2.5-.4 0 0 0 .1 0 .3" fill="#0f1720"/><path d="m-245.4 503.6c-.1.2-.3.3-.6.4-.1 0-.3.1-.4.1-.5-1-1-2.1-1.3-3.4.1 0 .1-.1.2-.1.2 0 .3 0 .5 0 1.2.1 2.3 2 1.6 3" fill="#0f1720"/><path d="m-237.2 484v2.5c-.4 0-.7-.3-1-.7-.2-.3-.3-.6-.4-1 0-.2-.1-.5-.1-.8 0-.1 0-.2 0-.2.6.1 1.1.2 1.5.2" fill="#0f1720"/></g><g><path d="m-236.4 484v28.1c.7-.2 2.2-.8 4-2 .8-.5 1.6-1.2 2.4-2 1-1.1 2-2.4 2.8-4 .5-1 1-2.1 1.3-3.4.6-2.1 1-4.5 1-7.4 0-4.4-1.3-7.9-3.5-10.1-1.8-1.8-4.1-.1-6.6.6-.5.1-1 .2-1.4.2" fill="#b34700"/><path d="m-233.2 500.7c-.1.3 0 .6.3 1 .3.3.9.4 1.3.3.7 0 1.7-.5 1.9-1.2.3-1.2-1.3-1.5-2.1-1.2-.5.1-1.2.5-1.4 1.1" fill="#0f1720"/><path d="m-234.2 509.5c.3.4 1 .6 1.6.6.1 0 .1 0 .2 0 .8-.5 1.6-1.2 2.4-2-.4-1.4-3.8-1.2-4.4.2-.2.3-.1.7.2 1.2" fill="#0f1720"/><path d="m-233.9 491.3c.1.6.4 1.1 1 1.3.1 0 .2 0 .3 0 .7 0 1.2-.5 1.2-1.2 0-1.3-2.3-2-2.5-.4 0 0 0 .1 0 .3" fill="#0f1720"/><path d="m-228.2 503.6c.1.2.3.3.6.4.1 0 .3.1.4.1.5-1 1-2.1 1.3-3.4-.1 0-.1-.1-.2-.1-.2 0-.3 0-.5 0-1.2.1-2.3 2-1.6 3" fill="#0f1720"/><path d="m-236.4 484v2.5c.4 0 .7-.3 1-.7.2-.3.3-.6.4-1 0-.2.1-.5.1-.8 0-.1 0-.2 0-.2-.6.1-1.1.2-1.5.2" fill="#0f1720"/></g></g></g></g></switch></svg>