<svg xmlns="http://www.w3.org/2000/svg" width="140.6" height="265" viewBox="-784 1873 140.6 265" enable-background="new -784 1873 140.6 265"><g fill="#6d504c"><path d="m-742.1 1917.3c-.5-.1-1.1-.6-1.6-.9-1-.7-1.9-1.6-2.6-2.6-1.6-2.1-2.9-4.5-3.9-6.9-1.1-2.6-2.1-5.2-2.8-8-.4-1.6-.8-3.3-1.3-4.9.1.3.3.5.4.8-.3-.5-.3-1.1-.4-1.7-.1-.6-.5-1-.8-1.5-.8-1.1-1.6-2.1-2.5-3.2-1.7-2-3.4-4.1-5-6.2-.6-.7-1.2-1.4-1.6-2.2-.4-.6-.2-1-.3-1.6-.1-.4-.2-.8-.2-1.2.1-2.2 2-3.9 4.1-4.2-1.8.9-2.4 2.4-2.1 4.3-.1-.1-.1-.3-.2-.4 1.4 0 2.1 1.8 2.8 2.7 1.3 1.8 2.4 3.6 3.6 5.4 1.1 1.7 2.1 3.4 3.3 4.9.3.4.6.7.8 1.1.3.4.6.4 1 .6.5.2.8.6 1 1.1.4.9.6 2 .9 3 .6 1.8 1.2 3.5 1.8 5.3 1.4 3.8 2.9 7.8 5.5 10.9.4.5.9 1 1.5 1.3.6.3 1.1.7 1.4 1.4.6 1.7-1.1 3.5-2.8 2.7"/><path d="m-741.2 1979.7c-.7-1-2 .4-2.5.8-1 .9-2 1.7-3 2.6-1 .9-2 1.9-3.1 2.8-1.4 1.2-2.7 2.5-4.1 3.7-3.3 2.9-6.7 6.1-9.1 9.9-.6.9-.2 1.3.1 2.3.3.9-.2 1.4-.7 2.1-1.4 1.8-2.5 3.7-4.1 5.5-.9 1-1.8 1.9-3 2.6-.6.4-1.6.6-2 1.2-.4.5-.3 1-.5 1.5-.2.5-.6 1-.9 1.5-.3.7-.7 1.7-.6 2.5.4-.5.8-1 1.2-1.5.4-.3.8-.7 1.3-.9.4-.2.7-.2 1.1-.2 1.9-.1 3.5-1.3 4.8-2.7 1.5-1.6 2.5-3.5 3.5-5.5.5-.9.9-1.9 1.3-2.8.2-.4.3-.7.3-1.1 0-.4 0-.8.4-1 0 0-.1.1-.1.1.4-.4 1.4 0 1.9-.1.6-.2 1-1 1.4-1.5.5-.7 1-1.3 1.5-1.9.8-1 1.6-2.1 2.4-3.1 2.1-2.8 4.2-5.6 6.4-8.3 1.1-1.3 2.2-2.6 3.3-3.9.7-.8 1.3-1.6 2-2.3.6-.9 1.3-1.3.8-2.3"/><path d="m-744.7 1926.3c-.9-1.2-2.6 1.2-3.2 1.8-1.1 1.2-2.3 2.3-3.4 3.5-.9.9-1.7 1.8-2.6 2.7-2.5 2.6-5 5.1-7.2 7.9-1 1.3-2 2.6-2.8 4-.3.6-.8 1.1-1.1 1.7-.3.7-.1 1.1 0 1.8-.8.1-1.7-.2-2.5-.3-2.2-.3-4.4-.4-6.6-.5-2-.1-4-.1-5.9.3-.3.1-.8.5-1.1.5-.4 0-1-.5-1.3-.7-.6-.3-1-.8-1.6-1.2.6.8.9 1.8 1.4 2.6.2.2.4.4.6.6.2.3.2.5.4.8.2.5.6.8 1.1 1 .8.3 1.9.1 2.8 0 1.4-.2 2.8-.4 4.2-.5 2.3-.3 4.6-.4 6.9-.5.7 0 1.4-.1 2.1-.1.5 0 1.1 0 1.5-.1.3-.1.6-.4.9-.5.4-.1.9 0 1.4 0 .6-.1.8-.3 1.2-.8.6-.9 1.1-1.7 1.7-2.6.6-.9 1.2-1.8 1.8-2.7 1.1-1.8 2.3-3.5 3.4-5.3 1.2-1.8 2.3-3.5 3.5-5.3 1-1.4 2-2.9 3.1-4.3.5-.7 1-1.4 1.5-2.1.1-.5.5-1-.2-1.7"/><path d="m-685.3 1917.3c-1.7.7-3.4-1-2.8-2.7.2-.7.8-1 1.4-1.4.6-.3 1.1-.8 1.5-1.3 2.6-3.1 4.2-7.1 5.5-10.9.6-1.8 1.2-3.5 1.8-5.3.3-1 .5-2.1.9-3 .2-.5.5-.8 1-1.1.4-.2.7-.3 1-.6.3-.3.6-.7.8-1.1 1.2-1.6 2.3-3.3 3.3-4.9 1.2-1.8 2.3-3.7 3.6-5.4.7-1 1.4-2.7 2.8-2.7-.1.1-.1.3-.2.4.3-1.9-.3-3.4-2.1-4.3 2.1.3 4 1.9 4.1 4.2 0 .5-.2.8-.2 1.2-.1.6.1 1.1-.3 1.6-.5.8-1.1 1.5-1.6 2.2-1.6 2.1-3.2 4.2-5 6.2-.9 1-1.7 2.1-2.5 3.2-.3.5-.7.9-.8 1.5-.1.6-.1 1.2-.4 1.7.1-.3.3-.5.4-.8-.5 1.6-.9 3.3-1.3 4.9-.7 2.7-1.8 5.4-2.8 8-1 2.4-2.3 4.8-3.9 6.9-.7 1-1.6 1.9-2.6 2.6-.5.3-1.1.8-1.6.9"/><path d="m-686.2 1979.7c-.5 1 .3 1.4.9 2.2.7.8 1.3 1.6 2 2.3 1.1 1.3 2.2 2.6 3.3 3.9 2.2 2.7 4.3 5.5 6.4 8.3.8 1 1.6 2.1 2.4 3.1.5.6 1 1.3 1.5 1.9.4.5.8 1.3 1.4 1.5.5.2 1.5-.3 1.9.1 0 0-.1-.1-.1-.1.4.2.4.6.4 1 0 .4.1.8.3 1.1.4.9.8 1.9 1.3 2.8 1 1.9 2.1 3.8 3.5 5.5 1.2 1.4 2.8 2.6 4.8 2.7.5 0 .7-.1 1.1.2.5.2.9.6 1.3.9.5.4.8 1 1.2 1.5.1-.8-.2-1.8-.6-2.5-.2-.5-.6-1-.9-1.5-.2-.5-.2-1-.5-1.5-.5-.6-1.4-.9-2-1.2-1.2-.7-2.1-1.6-3-2.6-1.5-1.7-2.7-3.7-4.1-5.5-.5-.7-1.1-1.2-.7-2.1.3-.9.6-1.4.1-2.3-2.4-3.7-5.8-7-9.1-9.9-1.4-1.2-2.7-2.4-4.1-3.7-1-.9-2-1.8-3.1-2.8-1-.9-2-1.8-3-2.6-.7-.4-1.9-1.8-2.6-.7"/><path d="m-682.8 1926.3c-.7.7-.3 1.2.2 1.9.5.7 1 1.4 1.5 2.1 1 1.4 2.1 2.8 3.1 4.3 1.2 1.7 2.4 3.5 3.5 5.3 1.1 1.8 2.3 3.5 3.4 5.3.6.9 1.1 1.8 1.8 2.7.6.8 1.1 1.7 1.7 2.6.3.5.6.7 1.2.8.4.1 1-.1 1.4 0 .3.1.6.4.9.5.4.1 1 .1 1.5.1.7 0 1.4.1 2.1.1 2.3.1 4.6.3 6.9.5 1.4.2 2.8.3 4.2.5.9.1 1.9.4 2.8 0 .5-.2.8-.6 1.1-1 .1-.3.2-.5.4-.8.2-.2.4-.4.6-.6.6-.8.9-1.8 1.4-2.6-.5.4-1 .8-1.6 1.2-.3.2-1 .7-1.3.7-.3 0-.7-.4-1.1-.5-2-.4-3.9-.4-5.9-.3-2.2.1-4.4.2-6.6.5-.8.1-1.7.4-2.5.3.1-.7.3-1.1 0-1.8-.3-.6-.7-1.2-1.1-1.7-.8-1.4-1.8-2.7-2.8-4-2.2-2.8-4.7-5.3-7.2-7.9-.9-.9-1.7-1.8-2.6-2.7-1.1-1.2-2.2-2.4-3.4-3.5-.9-.8-2.6-3.1-3.6-2"/></g><g fill="#f17647"><path d="m-734.8 1889.7c4.9 0 8.9 3.3 8.9 8.3 0 4.9-4 8.9-8.9 8.9s-8.9-4-8.9-8.9c0-4.9 4-8.3 8.9-8.3"/><path d="m-692.7 1889.7c4.9 0 8.9 3.3 8.9 8.3 0 4.9-4 8.9-8.9 8.9-4.9 0-8.9-4-8.9-8.9 0-4.9 3.9-8.3 8.9-8.3"/></g><g fill="#404147"><path d="m-682.3 1917.7c0 0-2.6 3.2-11.3 5.4-4.7 1.2-11.2 2.1-20 2.1s-15.4-.9-20-2.1c-8.7-2.2-11.3-5.4-11.3-5.4 0-.6.1-1.2.2-1.9.7-4.1 3.8-7.1 4.8-8.4.2-.3.4-.4.4-.4-3.3-2-2.8-5-2.8-5 5.7-1.2 7.7-3.7 10.2-5.6 1.5-1.1 2-2.4 1.4-4.2l-.2-.6c-.5-1.3-.3-2.7.5-3.7.8-1.1 2.1-1.9 3.6-1.9h2.9c1.3 0 2.5-.3 3.6-.9l3.7-2c2-1.1 4.5-1.1 6.4 0l3.7 2c1.1.6 2.3.9 3.6.9h2.9c1.4 0 2.8.6 3.6 1.9.7 1.1.9 2.5.5 3.7l-.2.6c-.6 1.8-.1 3.1 1.4 4.2 2.5 1.8 4.5 4.3 10.2 5.6 0 0 .6 3.1-2.8 5 0 0 0 0 .1.1.1.1.2.2.3.4.9 1.1 3.2 3.1 4.3 6.4 0 1.2.3 2.5.3 3.8"/><path d="m-746.3 1883.6c2.8-2.1 6.7-1.6 9.7-.6 2.2.8 4.2 2 6 3.4.6.5 5 3.6 2.6 4-1 .2-3-2.6-3.8-3.2-1.8-1.5-3.7-2.8-5.8-3.6-.9-.4-1.9-.6-3-.8-1.4-.2-2.8-.1-4.1.3-.6.3-1.4 1.1-1.6.5"/><path d="m-681.2 1883.6c-2.8-2.1-6.7-1.6-9.7-.6-2.2.8-4.2 2-6 3.4-.6.5-5 3.6-2.6 4 1 .2 3-2.6 3.8-3.2 1.8-1.5 3.7-2.8 5.8-3.6.9-.4 1.9-.6 3-.8 1.4-.2 2.8-.1 4.1.3.5.3 1.4 1.1 1.6.5"/></g><path d="m-696.6 2031.4c-.8 1.2-1.6 5.6-2.1 6.6-1.7 3.2-3.5 8.6-4.8 12.8-1.1 3.6-3.9 6.4-7.4 7.7l-2.8.9-2.8-.9c-3.5-1.2-6.3-4.1-7.4-7.7-1.3-4.1-3.2-9.6-4.8-12.8-.6-1.1-1.4-5.5-2.2-6.8 5.4-1.6 11-2.5 17-2.5 5.9.1 11.8 1 17.3 2.7" fill="#5c6270"/><path d="m-688.8 2021.8c-2.1 2.7-4.7 8-6.8 11.4-.6.8-1.6 1.3-2.5 1-5-1.4-10.4-2.1-15.9-2.1-5.4 0-10.5.7-15.4 2-.9.3-1.9-.1-2.5-1-2.1-3.4-4.7-8.7-6.9-11.4 7.4-3.2 15.9-4.9 24.8-4.9 9.1-.1 17.6 1.7 25.2 5" fill="#565c69"/><path d="m-684.3 2011.6c-.5 2 .1 5.6-.4 7.3-.4 1.4-2.3 3-3.7 4.9-.6.7-1.6 1-2.5.6-7.1-2.9-14.6-4.5-23.1-4.5-8.4 0-15.7 1.6-22.7 4.4-.8.4-1.9.1-2.5-.6-1.4-1.9-3.3-3.3-3.6-4.7-.5-1.9 0-5.4-.5-7.5 8.5-4.4 18.2-6.8 29.3-6.8 11.3-.1 21.1 2.3 29.7 6.9" fill="#525763"/><path d="m-682.2 1999.8c-.6 4.2-.8 10.2-1.3 13.6-.1.6-.8 1.1-1.4.7-8.4-4.1-18.4-6.3-29.1-6.3-10.6 0-20.4 2.1-28.8 6.2-.6.3-1.3-.1-1.4-.7-.5-3.4-.6-9.5-1.3-13.5 9-4.7 19.4-7.2 31.5-7.2 12.3-.1 22.8 2.4 31.8 7.2" fill="#4a4e59"/><path d="m-680.5 1987.6c-.5 3.6-.5 9.5-.7 13.4-.1.9-1.1 1.5-1.9 1.1-8.7-4.2-19.2-6.4-30.6-6.4-11.3 0-21.8 2.1-30.4 6.3-.8.5-1.9-.2-1.9-1.1-.3-3.9-.4-9.7-.7-13.3 9.3-4.8 20.4-7.2 33.2-7.2 12.5-.1 23.7 2.4 33 7.2" fill="#42464f"/><path d="m-679.4 1975.2c-.3 3.8-.1 10.2-.4 14.3 0 .6-.7 1-1.3.7-9.1-4.5-20.4-6.7-32.8-6.7-12.2 0-23.7 2.2-32.7 6.7-.6.3-1.3-.1-1.3-.7-.3-4.2-.1-10.5-.4-14.3 9.4-4.8 21.1-7 34.4-7s25.2 2.2 34.5 7" fill="#33353b"/><path d="m-678.5 1975.5c-.1 1.4-1.5 2.2-2.8 1.8-9-4-20.2-5.8-32.4-5.8s-23.4 1.8-32.5 5.8c-1.3.6-2.7-.3-2.8-1.8-.5-8.5-.5-17.2.4-24.8.3-2.4 2.3-4.3 4.8-4.3h60.1c2.5 0 4.5 1.9 4.8 4.3.9 7.6.9 16.3.4 24.8" fill="#25272b"/><path d="m-679.3 1935.3l-.8-9.5v-.1l1-.7c1.5-1.1 1.8-3.3.5-4.7-.8-.8-1.8-1.5-2.8-2s-2.1-.8-3.2-.9l-18.4-6.8c-7.1-1.6-14.5-1.6-21.5 0l-18.4 6.8c-2.3.3-4.4 1.3-6 3-.6.6-.8 1.4-.8 2.1 0 .9.5 1.9 1.3 2.6l1 .7-.8 9.5-.7 9.4c-.3 3.5 1.9 6.8 5.1 7.9l19.7 10.2c1.5.6 3.1.9 4.6 1.3 5.5 1 11.1.6 16.4-1.3l19.7-10.2c3.3-1.2 5.4-4.5 5.1-7.9l-1-9.4" fill="#292b30"/><path d="m-719 2132.6c-.6 2.9-1.8 4.4-3.1 4.9-1.9-.6-3.3-1.8-3.3-1.8-10.7-10.7-17.8-65.4-24.9-105-7.1-39.5 3.9-94.5 3.9-94.5 0 .2 0 .4.1.6 1.5 12 25.8 65.9 27.4 74.1 1.5 8.7 1.8 112-.1 121.7" opacity=".5" fill="#e2d5ca"/><g fill="none" stroke="#6d504c" stroke-width=".648" stroke-miterlimit="10"><path d="m-747.6 1938c-.5 3.8-.1 7.1-.3 11.1-.3 3.9.6 6.9.5 10.9-.1 3.9 0 7.9-.1 11.8 0 4 .2 7.9.3 11.8.1 4-1.2 8-1 11.9.2 4.1 0 8.1.3 11.9.3 4.1 2 8 2.4 11.7.5 4.3.1 8.3.6 11.8.6 3.4.6 7.3 1.4 11.4.6 3.5 1.6 7.3 2.4 11.1.8 3.6 3.1 7 4 10.8.8 3.6.4 7.7 1.4 11.4.9 3.6 2.5 7.2 3.5 10.9 1 3.7 1 16.7 2 22.2.6 2.8 2.3 7.3 3.4 11 .6 1.9 1.2 3.6 1.9 5.4.5 1.2 2.2.9 2.3-.4.7-13.6 2.3-46.8-.3-50.2-1.2-3.8-1.8-7.7-2.9-11.5-1.2-3.7-2.1-7.6-3.3-11.3-1.2-3.7-3-7.3-4.1-11.1-1.1-3.7-1.7-7.7-2.7-11.5s-2.8-7.4-3.7-11.2c-.8-3.8-1.4-7.7-2.1-11.7-.6-3.9-.6-7.8-1.2-11.6-.5-3.9-.1-7.8-.5-11.6-.4-3.9-.6-7.7-.9-11.6-.3-3.9-1.8-18.3-1.9-22.2 0-4.1-1.3-7.3-1.4-11.2"/><path d="m-747.6 1938c.6 3.9 1.1 7.3 1.8 11.2.6 3.9 3.1 6.7 3.7 10.7.6 3.9.2 8.1.8 12 .7 3.9 2.1 7.7 3 11.6.7 3.9 2.2 7.7 3.1 11.5.8 3.9 1.2 7.9 2.1 11.8 1 3.9 3 7.4 4.1 11.2 1.1 3.8.6 8.2 1.9 12 1.3 3.7 2.8 7.5 4.3 11.2 0 0 3.2 25.1.1 33.1"/><path d="m-747.6 1938c1 3.8 2.5 7 3.5 10.9 1.1 3.8 3 6.6 4.1 10.4 1.1 3.8 2.2 7.6 3.3 11.4 1.1 3.8 1.5 7.8 2.7 11.6s2.7 7.4 4 11.2c1.2 3.7 2.3 7.6 3.5 11.3 1.3 3.7 3.7 7.1 5 10.8 0 0 .7 21.7-1.6 25.7"/></g><path d="m-722.1 2137.6c-3.2 1.5-7.3-1.8-7.3-1.8-10.7-10.7-17.8-65.4-24.9-105-5.5-30.3 1.1-72.3 4.6-89.3.3-1.3-.7-2.5-.6-3.4.7-2.9 3.8-1.8 3.8-1.8s-11 54.9-3.9 94.5c7.1 39.5 14.2 94.3 24.9 105 .1 0 1.6 1.2 3.4 1.8" fill="#feb634"/><path d="m-708.5 2132.6c.6 2.9 1.8 4.4 3.1 4.9 1.9-.6 3.3-1.8 3.3-1.8 10.7-10.7 17.8-65.4 24.9-105 7.1-39.5-3.9-94.5-3.9-94.5 0 .2 0 .4-.1.6-1.5 12-25.8 65.9-27.4 74.1-1.5 8.7-1.9 112 .1 121.7" opacity=".5" fill="#e2d5ca"/><g fill="none" stroke="#6d504c" stroke-width=".648" stroke-miterlimit="10"><path d="m-679.9 1938c.5 3.8.1 7.1.3 11.1.3 3.9-.6 6.9-.5 10.9.1 3.9 0 7.9.1 11.8 0 4-.2 7.9-.3 11.8-.1 4 1.2 8 1 11.9-.2 4.1 0 8.1-.3 11.9-.3 4.1-2 8-2.4 11.7-.5 4.3-.1 8.3-.6 11.8-.6 3.4-.6 7.3-1.4 11.4-.6 3.5-1.6 7.3-2.4 11.1-.8 3.6-3.1 7-4 10.8-.8 3.6-.4 7.7-1.4 11.4-.9 3.6-2.5 7.2-3.5 10.9-1 3.7-1 16.7-2 22.2-.6 2.8-2.3 7.3-3.4 11-.6 1.9-1.2 3.6-1.9 5.4-.5 1.2-2.2.9-2.3-.4-.7-13.6-2.3-46.8.3-50.2 1.2-3.8 1.8-7.7 2.9-11.5 1.2-3.7 2.1-7.6 3.3-11.3 1.2-3.7 3-7.3 4.1-11.1 1.1-3.7 1.7-7.7 2.7-11.5s2.8-7.4 3.7-11.2c.8-3.8 1.4-7.7 2.1-11.7.6-3.9.6-7.8 1.2-11.6.5-3.9.1-7.8.5-11.6.4-3.9.6-7.7.9-11.6.3-3.9 1.8-18.3 1.9-22.2-.1-4.1 1.3-7.3 1.4-11.2"/><path d="m-679.9 1938c-.6 3.9-1.1 7.3-1.8 11.2s-3.1 6.7-3.7 10.7c-.6 3.9-.2 8.1-.8 12-.7 3.9-2.1 7.7-3 11.6-.7 3.9-2.2 7.7-3.1 11.5-.8 3.9-1.2 7.9-2.1 11.8-1 3.9-3 7.4-4.1 11.2-1.1 3.8-.6 8.2-1.9 12-1.3 3.7-2.8 7.5-4.3 11.2 0 0-3.2 25.1-.1 33.1"/><path d="m-679.9 1938c-1 3.8-2.5 7-3.5 10.9-1.1 3.8-3 6.6-4.1 10.4-1.1 3.8-2.2 7.6-3.3 11.4-1.1 3.8-1.5 7.8-2.7 11.6-1.2 3.8-2.7 7.4-4 11.2-1.2 3.7-2.3 7.6-3.5 11.3-1.3 3.7-3.7 7.1-5 10.8 0 0-.7 21.7 1.6 25.7"/></g><path d="m-705.5 2137.6c3.2 1.5 7.3-1.8 7.3-1.8 10.7-10.7 17.8-65.4 24.9-105 5.5-30.3-1.1-72.3-4.6-89.3-.3-1.3.7-2.5.6-3.4-.7-2.9-3.8-1.8-3.8-1.8s11 54.9 3.9 94.5c-7.1 39.5-14.2 94.3-24.9 105 0 0-1.5 1.2-3.4 1.8" fill="#feb634"/></svg>