<svg xmlns="http://www.w3.org/2000/svg" width="43.4" height="43.2" viewBox="-624.7 379.5 43.4 43.2" enable-background="new -624.7 379.5 43.4 43.2"><g fill="#0f1720"><path d="m-604 381.6c-.6-1.1-2-1.3-3.1-1.1-.9.1-1.8.4-2.7.6-.2 0-.9.2-1.1 0-.4-.4.2-.4.4-.4 0 0 .2.2.3.2.2 0 .3 0 .5-.1.4-.1.8-.2 1.1-.3.7-.2 1.3-.3 2-.4.7-.1 1.5 0 2.2.4.2.1.7.5.8.7-.1.3-.2.7-.4.4"/><path d="m-602 381.6c.6-1.1 2-1.3 3.1-1.1.9.1 1.8.4 2.7.6.2 0 .9.2 1.1 0 .4-.4-.2-.4-.4-.4 0 0-.2.2-.3.2-.2 0-.3 0-.5-.1-.4-.1-.8-.2-1.1-.3-.7-.2-1.3-.3-2-.4-.7-.1-1.5 0-2.2.4-.2.1-.7.5-.8.7.1.3.2.7.4.4"/></g><g fill="#2f343a"><path d="m-605.1 381.6c.3.5-.4.3-.8.5s-.5 1-.8.5c-.3-.5-.2-1 .4-1.4.5-.3.9-.1 1.2.4"/><path d="m-600.9 381.6c-.3.5.4.3.8.5.5.3.5 1 .8.5.3-.5.2-1-.4-1.4-.5-.3-.9-.1-1.2.4"/></g><g fill="#0f1720"><path d="m-600.8 386c.6 0 1.2.1 1.3-.5 0 0 .2-1.7.3-1.9.3-1.9-1.8-2.5-1.8-2.5-.3 0-.5-.1-.6-.3l-.2-.2c-.2-.2-.5-.4-.7-.4h-.9c-.3 0-.5.1-.7.4l-.2.2c-.2.2-.4.3-.6.3 0 0-2.1.5-1.8 2.5 0 .2.3 1.9.3 1.9.1.6.6.5 1.3.5h4.3"/><path d="m-624.7 397.2c.5.7 1.6.3 2.4.3.7 0 1.2 0 1.9.3.6.2 1.5.7 2.2.6.7-.1 1.3-.6 1.9-1 .6-.3 1.1-.7 1.7-1 .5-.3 1.6-1.3 2.1-1.3.7.1 1.4 1 2 1.3.7.3 1.6-.1 1.2-1-.2-.4-.5-.5-.9-.6-.6-.2-1.6-.6-2.3-.5-.6 0-1.3.6-1.8.8-.8.4-1.6.8-2.5 1.3-.4.2-1.9.7-2 1.2-.6-.2-1.4-.7-2.1-.8-.3 0-.6.1-1 .2-.6.2-1 .2-1.6.2-.3 0-1.2-.1-1.2 0"/><path d="m-622.3 418c-.1.6 1.1-.6 1.1-.6.3-.4.7-1 1.1-1.4.7-.7 1.9-.8 2.6-1.5.6-.6.7-2 .9-2.9.2-.9.4-1.8.6-2.8.1-.7.1-1.6.4-2.3.2-.6 0-.4.5-.6.5-.3 1.2-.2 1.7-.5.9-.5.8-1.8-.4-1.6-.4 0-.8.4-1.1.6-.4.2-1.2.5-1.5.8-.5.5-.6 2-.7 2.8-.2 1.1-.4 2.1-.6 3.2-.1.5-.1 1-.2 1.5 0 .3 0 1.1-.1 1.2-.3.5-1.5.6-1.9.9-.3.2-.2.3-.4.5-.4.5-.7 1-1.2 1.4-.1.1-.3 0-.5.2-.5.6-.3.7-.3 1.1"/><path d="m-609.5 390.7c.6 0 1.6.1 1.4-1-.2-.7-1-.7-1.5-.9-.6-.1-1.6-.4-2.2-.1 0-1.2-.2-2.4-.2-3.6 0-.5.2-1 .2-1.5-.1-.9-1.2-1.6-1.9-2.2-.6-.5-1.2-.7-1.7-1.1-.2-.1-1.6-1.5-1.1-.5.1.3.9.8 1.1 1 .7.7 1.8 1.2 2.5 1.9-1.1 1.1-.5 3.6-.2 4.9.4 2 1.6 3.1 3.6 3.1"/><path d="m-581.3 397.2c0-.1-.9-.1-1.2 0-.6 0-1 0-1.6-.2-.4-.1-.7-.2-1-.2-.7.1-1.5.5-2.1.8-.1-.5-1.5-1-2-1.2-.8-.5-1.6-.9-2.5-1.3-.5-.3-1.2-.8-1.8-.8-.7 0-1.7.3-2.3.5-.4.1-.7.2-.9.6-.4.9.6 1.3 1.2 1 .6-.3 1.3-1.2 2-1.3.5-.1 1.6 1 2.1 1.3.6.3 1.1.7 1.7 1 .6.3 1.3.9 1.9 1 .6.1 1.5-.4 2.2-.6.7-.2 1.1-.3 1.9-.3.8 0 1.9.4 2.4-.3"/><path d="m-583.7 418c-.1-.4.2-.5-.1-.8-.1-.2-.3-.1-.5-.2-.5-.4-.8-.9-1.2-1.4-.2-.3-.1-.3-.4-.5-.5-.4-1.6-.5-1.9-.9-.1-.1-.1-1-.1-1.2-.1-.5-.1-1-.2-1.5-.2-1.1-.4-2.1-.6-3.2-.2-.8-.2-2.3-.7-2.8-.3-.3-1.1-.6-1.5-.8-.3-.2-.7-.5-1.1-.6-1.2-.1-1.3 1.2-.4 1.6.5.3 1.2.2 1.7.5.5.2.3 0 .5.6.2.7.2 1.6.4 2.3.2.9.4 1.8.6 2.8.2.9.3 2.3.9 2.9.7.7 1.9.8 2.6 1.5.4.4.7.9 1.1 1.4-.1-.3 1 .9.9.3"/><path d="m-596.5 390.7c2 0 3.2-1.1 3.7-3 .3-1.3.9-3.8-.2-4.9.7-.7 1.8-1.2 2.5-1.9.3-.3 1-.7 1.1-1 .4-1-1 .4-1.1.5-.5.4-1.2.6-1.7 1.1-.7.6-1.8 1.3-1.9 2.2-.1.5.2 1 .2 1.5.1 1.2-.2 2.5-.2 3.6-.6-.3-1.6-.1-2.2.1-.6.1-1.4.1-1.5.9-.2 1 .7.9 1.3.9"/></g><path d="m-598.7 394.9l-1.8.3-1.8.3c-.1 0-.4 0-.7 0s-.6 0-.7 0l-1.7-.2-1.7-.2h-.1-.1c-.4 0-1.3-.8-2-1.9-.7-1.1-1.3-2.4-1-3.6.5-2.2 1.5-4 2.7-4.3 1.3-.3 2.9.6 4.6.6s3.3-.9 4.6-.6c1.3.3 2.3 2.1 2.7 4.3.3 1.1-.3 2.5-1 3.6-.7.8-1.6 1.6-2 1.7" fill="#fef2d7"/><g fill="#0f1720"><path d="m-607.1 394.9c.8-1.9-.5-4.5-1.1-6.1-.2-.7.2-1.5 1-1.5 1-.1 1.8-.4 2.4-.6.3-.1.7.2.6.5-.5 2.2.2 6.7.4 8.2l-3.3-.5"/><path d="m-598.9 394.9c-.8-1.9.5-4.5 1.1-6.1.2-.7-.2-1.5-1-1.5-1-.1-1.8-.4-2.4-.6-.3-.1-.7.2-.6.5.5 2.2-.2 6.7-.4 8.2l3.3-.5"/></g><path d="m-592.2 402.9c0 14.8-10.8 19.8-10.8 19.8s-10.8-4.9-10.8-19.8c0-4 1.2-6.8 3.2-8.8 1.9-2 4.6.7 7.6.7s5.7-2.8 7.6-.7c2 2 3.2 4.8 3.2 8.8" fill="#a98462"/><path d="m-603 394.8v27.9c0 0-.1-.1-.4-.2-.4-.2-1.1-.6-1.9-1.3-1.5-1.1-3.5-3-5.1-5.7-1.9-3-3.3-7.2-3.3-12.6 0-4 1.2-6.8 3.2-8.8.6-.7 1.3-.8 2.1-.7.6.1 1.3.3 2 .6.9.3 1.8.7 2.8.8.1 0 .3 0 .6 0" fill="#e1b083"/><g fill="#0f1720"><path d="m-603 394.8v27.9c0 0-.1-.1-.4-.2-.3-1.3-.8-3.3-1-4.8-.4-2.5-.6-6-.6-9.8 0-3.8.2-7.3.6-9.8.2-1.2.4-2.4.6-3.4.3.1.5.1.8.1"/><path d="m-605.3 421.2c-1.5-1.1-3.5-3-5.1-5.7-1.1-3.1-2-7.2-2-12.6 0-4 1-6.8 2.8-8.8.4-.4.7-.6 1.2-.7.6.1 1.3.3 2 .6 0 0-.1.1-.1.2-1.7 2-2.8 4.8-2.8 8.8-.2 8.7 1.8 15 4 18.2"/></g><path d="m-603 394.8v27.9c0 0 .1-.1.4-.2.4-.2 1.1-.6 1.9-1.3 1.5-1.1 3.5-3 5.1-5.7 1.9-3 3.3-7.2 3.3-12.6 0-4-1.2-6.8-3.2-8.8-.6-.7-1.3-.8-2.1-.7-.6.1-1.3.3-2 .6-.9.3-1.8.7-2.8.8-.1 0-.3 0-.6 0" fill="#e1b083"/><g fill="#0f1720"><path d="m-603 394.8v27.9c0 0 .1-.1.4-.2.3-1.3.8-3.3 1-4.8.4-2.5.6-6 .6-9.8 0-3.8-.2-7.3-.6-9.8-.2-1.2-.4-2.4-.6-3.4-.3.1-.5.1-.8.1"/><path d="m-600.7 421.2c1.5-1.1 3.5-3 5.1-5.7 1.1-3.1 2-7.2 2-12.6 0-4-1-6.8-2.8-8.8-.4-.4-.7-.6-1.2-.7-.6.1-1.3.3-2 .6 0 0 .1.1.1.2 1.7 2 2.8 4.8 2.8 8.8.2 8.7-1.8 15-4 18.2"/></g></svg>