<svg xmlns="http://www.w3.org/2000/svg" width="491.7" height="288" viewBox="0 3456 491.7 288" enable-background="new 0 3456 491.7 288"><path d="m258.1 3555.9c-.5-.7-1.3-1.1-2.1-1.1h-8.5c-.7 0-1.2.2-1.7.7-.4-.4-1.1-.7-1.7-.7h-8.5c-.8 0-1.5.4-2.1 1.1-.5.7-.7 1.6-.5 2.4.2 1 .4 3.1.7 5.4.3 2.4.6 5.1 1 7.9.1.7.4 1.3 1 1.8-.2.4-.2.9-.2 1.4.1.9.1 1.8.1 2.8 0 .8 0 1.5 0 2.3 0 .7.3 1.3.8 1.8-.2.4-.3.8-.3 1.3v.2c0 .9-.1 2.1-.2 3.7-.2 2.3-.3 5.1-.4 8.4 0 .8.2 1.5.7 2.1 0 0 .1.1.1.1-.1.3-.2.7-.2 1.1-.1 3-.3 6.4-.5 9.9-.3 4.4-.6 8.9-.7 13.6 0 .8.2 1.5.8 2 0 0 .1.1.2.2-.1.3-.2.7-.2 1.1 0 3.5-.2 7.1-.4 10.6-.2 4.2-.4 8.2-.4 12.1 0 .9.4 1.7 1 2.2-.1.3-.2.7-.2 1.1 0 3 0 5.9 0 8.5-.1 4.2-.1 7.7.2 10.3.1 1 .2 2.1.4 3.3.1.9.6 1.6 1.2 2.1-.1.4-.2.8-.1 1.2.3 3 .4 6.4.4 10 .1 3.1.1 6.2.4 9.5 0 .9.5 1.6 1.1 2.1-.1.4-.2.7-.1 1.1.2 2.7.1 5.5.1 8.2 0 2.4-.1 4.6 0 6.8 0 .9.5 1.5 1.3 1.9-.2.4-.4.8-.3 1.3.2 3.5 0 6.6-.2 8.9-.1 1.3-.2 2.3-.1 3.1 0 1.1.4 1.7 3.6 4.1l.9.7 1.5-.7 1.5.7.9-.7c3.1-2.4 3.5-3 3.6-4.1 0-.8 0-1.8-.1-3.1-.1-2.3-.3-5.4-.2-8.9 0-.5-.1-1-.3-1.3.7-.4 1.2-1 1.3-1.9.1-2.2.1-4.5 0-6.8 0-2.7-.1-5.4.1-8.2 0-.4 0-.8-.1-1.1.6-.5 1.1-1.2 1.1-2.1.2-3.2.3-6.4.4-9.5.1-3.6.2-7 .4-10 0-.4 0-.8-.1-1.2.7-.4 1.1-1.2 1.2-2.1.1-1.2.2-2.3.4-3.3.3-2.6.3-6.2.2-10.3 0-2.6-.1-5.5 0-8.5 0-.4 0-.7-.2-1.1.6-.5 1-1.3 1-2.2 0-3.9-.2-7.9-.4-12.1-.2-3.5-.4-7-.4-10.6 0-.4-.1-.7-.2-1.1 0 0 .1-.1.2-.2.5-.6.8-1.3.8-2-.1-4.7-.4-9.2-.7-13.6-.2-3.5-.5-6.9-.5-9.9 0-.4-.1-.7-.2-1.1 0 0 .1-.1.1-.1.5-.5.8-1.3.7-2.1-.1-3.3-.2-6.1-.4-8.4-.1-1.6-.2-2.9-.2-3.7v-.2c0-.4-.1-.9-.3-1.3.4-.5.7-1.1.8-1.8 0-.8 0-1.6 0-2.3 0-1 0-1.9.1-2.8 0-.5 0-1-.2-1.4.5-.4.9-1.1 1-1.8.4-2.9.7-5.5 1-7.9.3-2.4.5-4.4.7-5.4-.2-.8-.4-1.7-.9-2.4" fill="#32313e"/><g fill="#9cacc4"><path d="m244.5 3595.5l.4-12.4c0-.4-.3-.8-.7-.8h-5.2c-.4 0-.7.4-.7.8 0 .1 0 .1 0 .2 0 2.1-.5 6.1-.6 11.8 0 .4.3.9.7.9l5.5.4c.3-.1.6-.5.6-.9"/><path d="m244.1 3597.9h-5.1c-.4 0-.7.4-.7.8-.2 6.8-1.1 14.5-1.2 23 0 .4.3.8.7.8l6 .4c.4 0 .7-.4.7-.8l.4-23.4c0-.4-.4-.8-.8-.8"/><path d="m244.1 3624.6h-5.7c-.4 0-.7.4-.7.8-.1 7.7-.9 15.2-.9 22.2 0 .4.3.8.7.8l6.2.4c.4 0 .7-.4.7-.8l.4-22.6c.1-.4-.3-.8-.7-.8"/><path d="m244.1 3650.5h-5.7c-.4 0-.8.4-.7.8.1 7.9-.4 14.2.2 18.2.1 1 .3 2.1.4 3.3 0 .4.4.7.7.7l4.8.4c.4 0 .7-.4.7-.8l.4-21.8c0-.5-.4-.8-.8-.8"/><path d="m244.1 3675.6l-4.1-.4c-.4 0-.8.4-.7.9.6 5.7.4 12.6.8 19.5 0 .4.4.8.7.8l2.9.4c.4 0 .7-.4.7-.8l.4-19.6c.1-.5-.3-.8-.7-.8"/><path d="m244.1 3716.7c0 0-2.1-.4-2 0 .2 5.5-.3 10.8-.3 12.9 0 .3 2.4 2.4 2.4 2.4l.3-.2.4-14.5c0-.3-.4-.6-.8-.6"/><path d="m244.1 3698.4h-2.3c-.4 0-.8.4-.7.9.3 5.3-.1 9.7.1 14.3 0 .4 2.6 1.6 2.6 1.6.4 0 .7-.4.7-.8l.4-15.1c0-.6-.4-.9-.8-.9"/><path d="m244.1 3556.9h-8.5c-.5 0-.9.5-.7 1 .5 2.2.9 7.6 1.8 13.5 0 .4.4.7.7.7h6.3c.4 0 .7-.4.7-.8l.4-13.5c.1-.6-.3-.9-.7-.9"/><path d="m244.1 3573.7h-5.9c-.4 0-.8.4-.7.9.2 1.8 0 3.5.1 5.3 0 .4.4.8.7.8h5c.4 0 .7-.4.7-.8l.7-5.3c.2-.6-.2-.9-.6-.9"/><path d="m247.1 3595.5l-.4-12.4c0-.4.3-.8.7-.8h5.2c.4 0 .7.4.7.8 0 .1 0 .1 0 .2 0 2.1.5 6.1.6 11.8 0 .4-.3.9-.7.9l-5.5.4c-.2-.1-.6-.5-.6-.9"/><path d="m247.5 3597.9h5.1c.4 0 .7.4.7.8.2 6.8 1.1 14.5 1.2 23 0 .4-.3.8-.7.8l-6 .4c-.4 0-.7-.4-.7-.8l-.4-23.4c.1-.4.4-.8.8-.8"/><path d="m247.5 3624.6h5.7c.4 0 .7.4.7.8.1 7.7.9 15.2.9 22.2 0 .4-.3.8-.7.8l-6.2.4c-.4 0-.7-.4-.7-.8l-.4-22.6c0-.4.3-.8.7-.8"/><path d="m247.5 3650.5h5.7c.4 0 .8.4.7.8-.1 7.9.4 14.2-.2 18.2-.1 1-.3 2.1-.4 3.3 0 .4-.4.7-.7.7l-4.8.4c-.4 0-.7-.4-.7-.8l-.4-21.8c.1-.5.4-.8.8-.8"/><path d="m247.5 3675.6l4.1-.4c.4 0 .8.4.7.9-.6 5.7-.4 12.6-.8 19.5 0 .4-.4.8-.7.8l-2.9.4c-.4 0-.7-.4-.7-.8l-.4-19.6c0-.5.3-.8.7-.8"/><path d="m247.5 3716.7c0 0 2.1-.4 2 0-.2 5.5.3 10.8.3 12.9 0 .3-2.4 2.4-2.4 2.4l-.3-.2-.4-14.5c.1-.3.4-.6.8-.6"/><path d="m247.5 3698.4h2.3c.4 0 .8.4.7.9-.3 5.3.1 9.7-.1 14.3 0 .4-2.6 1.6-2.6 1.6-.4 0-.7-.4-.7-.8l-.4-15.1c.1-.6.4-.9.8-.9"/><path d="m247.5 3556.9h8.5c.5 0 .9.5.7 1-.5 2.2-.9 7.6-1.8 13.5 0 .4-.4.7-.7.7h-6.4c-.4 0-.7-.4-.7-.8l-.4-13.5c.1-.6.4-.9.8-.9"/><path d="m247.5 3573.7h5.9c.4 0 .8.4.7.9-.2 1.8 0 3.5-.1 5.3 0 .4-.4.8-.7.8h-5c-.4 0-.7-.4-.7-.8l-.7-5.3c-.1-.6.2-.9.6-.9"/></g><g fill="#55110c"><path d="m236.2 3499c-1-.4-2-.8-3-1.2-1-.4-2-.9-2.9-1.3-1-.4-1.9-.9-2.9-1.4-.9-.5-1.9-1-2.9-1.5-1.9-1-3.7-2.1-5.6-3.2-.4-.3-.9-.6-1.4-.9-.4-.3-.9-.6-1.3-1-.4-.3-.8-.8-1.2-1.2-.1-.1-.2-.2-.2-.3-.1-.1-.2-.2-.2-.4-.2-.3-.3-.6-.4-.9l-.2-.7c0-1.3 0-2.5.1-3.7 0-1.3.1-2.5.2-3.7s.2-2.5.4-3.7c.1-.6.2-1.3.4-1.9.1-.3.2-.7.3-1 .2-.3.2-.7.6-1.1l-.1.9c0-.2 0-.4-.1-.7-.1-.2-.2-.4-.2-.6-.2-.4-.4-.8-.6-1.1-.4-.8-.8-1.5-1.2-2.2s-.8-1.5-1.2-2.2c-.2-.4-.4-.8-.6-1.1l-.3-.6c-.1-.2-.1-.4 0-.7l.4-.2c.4 0 .5.2.6.4l.3.6c.2.4.4.8.6 1.1.4.8.7 1.5 1.1 2.3.4.8.7 1.5 1.1 2.3.2.4.4.8.6 1.1.1.2.2.4.3.5.1.2.3.3.4.5l-.1.9c-.1.1-.2.3-.3.6s-.2.5-.2.8c-.1.6-.2 1.1-.3 1.8-.2 1.2-.2 2.4-.3 3.6-.1 1.2-.1 2.4-.2 3.7 0 1.2 0 2.4 0 3.7l-.2-.7c.3 0 .5.1.8.2l.4.1c.1 0 .2.1.4.1.5.2.9.4 1.4.6.4.2.9.5 1.3.8.4.3.9.5 1.3.8l1.3.8 1.3.8c.4.3.9.5 1.3.8l1.3.8 2.7 1.6 1.4.8 1.3.8c.9.5 1.8 1.1 2.7 1.6.9.5 1.8 1.1 2.7 1.7l-.9 2.1"/><path d="m254.4 3496.7c.9-.6 1.8-1.1 2.7-1.7.9-.5 1.8-1.1 2.7-1.6l1.3-.8 1.4-.8 2.7-1.6 1.3-.8c.4-.2.9-.5 1.3-.8l1.3-.8 1.3-.8c.4-.2.9-.5 1.3-.8.4-.3.9-.5 1.3-.8.4-.2.9-.4 1.4-.6.1 0 .2-.1.4-.1l.4-.1c.2-.1.5-.2.8-.2l-.2.7c0-1.2 0-2.4 0-3.7 0-1.2-.1-2.4-.2-3.7-.1-1.2-.2-2.4-.3-3.6-.1-.6-.2-1.2-.3-1.8-.1-.3-.2-.6-.2-.8-.1-.2-.2-.5-.3-.6l-.1-.9c.2-.2.3-.3.4-.5.1-.2.2-.4.3-.5.2-.4.4-.8.6-1.1.4-.8.7-1.5 1.1-2.3.4-.8.7-1.5 1.1-2.3.2-.4.4-.8.6-1.1l.3-.6c.1-.2.2-.4.6-.4l.4.2c.2.3.2.6 0 .7l-.3.6c-.2.4-.4.8-.6 1.1-.4.8-.8 1.5-1.2 2.2s-.8 1.5-1.2 2.2c-.2.4-.4.8-.6 1.1-.1.2-.2.4-.2.6-.1.2-.1.4-.1.7l-.1-.9c.4.4.5.7.6 1.1s.2.7.3 1c.2.7.3 1.3.4 1.9.2 1.3.3 2.5.4 3.7.1 1.3.2 2.5.2 3.7 0 1.3.1 2.5.1 3.7l-.2.7c-.1.3-.2.6-.4.9-.1.1-.2.3-.2.4-.1.1-.2.2-.2.3-.4.4-.8.9-1.2 1.2-.4.4-.9.7-1.3 1-.4.3-.9.6-1.4.9-1.8 1.1-3.7 2.2-5.6 3.2-.9.5-1.9 1-2.9 1.5-.9.5-1.9.9-2.9 1.4-.9.4-1.9.9-2.9 1.3-1 .4-2 .9-3 1.2l-.9-2.1"/></g><path d="m245.7 3730.9l-4.7-.4c0 0 1.3 11.6 3.2 13.4 0 0 .8-1.6 1.5-2.4.8.8 1.5 2.4 1.5 2.4 1.9-1.9 3.2-13.4 3.2-13.4l-4.7.4" fill="#0d1022"/><path fill="#32313e" d="m252.7 3487.5l-6.8-4.4-6.9 4.4-2.2 11.9 9.1 4.4 9-4.4z"/><g fill="#0d1022"><path d="m234.7 3456c2.9 2.1 5.3 5.1 6.6 8.4.2.4.8 1.5.1 1.8-.7.2-.8-.9-.9-1.2-.6-1.9-1.7-3.7-2.9-5.3-.7-.9-1.4-1.7-2.2-2.5-.3-.2-.6-.5-.8-.7 0 0-.1-.1-.2-.2-.1-.2.1-.4.3-.3"/><path d="m257 3456c-2.9 2.1-5.3 5.1-6.6 8.4-.2.4-.8 1.5-.1 1.8.7.2.8-.9.9-1.2.6-1.9 1.7-3.7 2.9-5.3.7-.9 1.4-1.7 2.2-2.5.3-.2.6-.5.8-.7 0 0 .1-.1.2-.2.1-.2-.2-.4-.3-.3"/><path d="m252.4 3465.1c-.2-.1-.3-.2-.4-.4-.1-.3-.5-.8-2.3-.9-.2 0-.4-.2-.5-.4l-.3-.8c-.4-1.1-1.6-1.5-2.6-1.1-.2.1-.4.3-.4.5 0-.2-.1-.4-.4-.5-1-.4-2.2.1-2.6 1.1l-.3.8c-.1.2-.3.4-.5.4-1.8.1-2.2.6-2.3.9 0 .2-.2.4-.4.4-13.9 4.6-14.5 13.1-13.2 18.3.7 2.8 2.8 4.9 5.5 5.6l2.9.8c1.6.4 3.3.2 4.7-.6l6.3-3.4c.2-.1.4-.1.6 0l6.3 3.4c1.4.8 3.1 1 4.7.6l2.9-.8c2.7-.7 4.8-2.9 5.5-5.6 1.3-5.2.7-13.6-13.2-18.3"/></g><g fill="#7eaead"><path d="m225.6 3476.8c0 .9.7 1.5 1.5 1.5 2.5.1 8.2.1 12.1-2.1 5.2-2.9 6.8-8.3 5.7-9-1-.7-5-2-8.2-2-2.9.2-11.4 5.5-11.1 11.6"/><path d="m266.1 3476.8c0 .9-.7 1.5-1.5 1.5-2.5.1-8.2.1-12.1-2.1-5.2-2.9-6.8-8.3-5.7-9 1-.7 5-2 8.2-2 3 .2 11.4 5.5 11.1 11.6"/></g><g fill="#55110c"><path d="m197.6 3503.6c.3-.2.6-.2.8-.1l.7.2c.4.1.9.3 1.3.5.9.3 1.7.6 2.6 1 .9.3 1.7.7 2.6 1 .4.2.9.3 1.3.4l.3.1c.1 0 .2.1.3.1.3 0 .5-.1.8-.1l.3.1c.6.3 1.2.5 1.7.9.5.3 1 .7 1.6 1.1l3.1 2.2 6.2 4.4 6.2 4.4 3.1 2.2 3.1 2.2-1.1 1.6-3.2-2-3.2-2.1-6.3-4.2-6.3-4.2-3.1-2.1c-.5-.4-1.1-.7-1.6-1.1-.5-.4-1-.8-1.4-1.3l.3.1c-.2-.1-.3-.4-.5-.6-.1-.1-.2-.1-.3-.2l-.3-.1c-.4-.2-.8-.4-1.3-.5-.8-.4-1.7-.7-2.6-1-.9-.3-1.7-.6-2.6-1-.4-.2-.8-.4-1.3-.5l-.6-.3c-.2-.1-.4-.3-.5-.6l-.1-.5"/><path d="m212.1 3597.4c0-.5.1-.9.3-1.3l.6-1.2c.4-.8.8-1.5 1.2-2.3.8-1.5 1.7-3 2.6-4.5.9-1.5 1.7-3 2.6-4.5.4-.8.8-1.5 1.2-2.3l.3-.6c.1-.2.2-.4.3-.6.1-.4.1-.9.3-1.3v.1c.2-.6.3-1.2.5-1.8.2-.6.5-1.1.8-1.7l1.6-3.3 3.2-6.6 3.3-6.6 1.7-3.3 1.7-3.3 1.8.9-1.5 3.4-1.5 3.4-3 6.7-3.1 6.7-1.5 3.3c-.3.6-.5 1.1-.8 1.7-.3.5-.7 1-1 1.5v.1c-.2.4-.6.6-1 1-.2.2-.3.3-.4.5l-.3.6c-.4.7-.9 1.5-1.3 2.2-.9 1.5-1.7 3-2.6 4.5-.9 1.5-1.7 3-2.6 4.5-.4.8-.9 1.5-1.3 2.2l-.7 1.1c-.2.4-.5.7-1 .9l-.4-.1"/><path d="m294.1 3503.6c-.3-.2-.6-.2-.8-.1l-.7.2c-.4.1-.9.3-1.3.5-.9.3-1.7.6-2.6 1-.9.3-1.7.7-2.6 1-.4.2-.9.3-1.3.4l-.3.1c-.1 0-.2.1-.3.1-.3 0-.5-.1-.8-.1l-.3.1c-.6.3-1.2.5-1.7.9-.5.3-1 .7-1.6 1.1l-3.1 2.2-6.2 4.4-6.2 4.4-3.1 2.2-3.1 2.2 1.1 1.6 3.2-2 3.2-2.1 6.3-4.2 6.3-4.2 3.1-2.1c.5-.4 1.1-.7 1.6-1.1.5-.4 1-.8 1.4-1.3l-.3.1c.2-.1.3-.4.5-.6.1-.1.2-.1.3-.2l.3-.1c.4-.2.8-.4 1.3-.5.8-.4 1.7-.7 2.6-1 .9-.3 1.7-.6 2.6-1 .4-.2.8-.4 1.3-.5l.6-.3c.2-.1.4-.3.5-.6l.1-.5"/><path d="m279.6 3597.4c0-.5-.1-.9-.3-1.3l-.6-1.2c-.4-.8-.8-1.5-1.2-2.3-.8-1.5-1.7-3-2.6-4.5-.9-1.5-1.7-3-2.6-4.5-.4-.8-.8-1.5-1.2-2.3l-.3-.6c-.1-.2-.2-.4-.3-.6-.1-.4-.1-.9-.3-1.3v.1c-.2-.6-.3-1.2-.5-1.8-.2-.6-.5-1.1-.8-1.7l-1.6-3.3-3.2-6.6-3.3-6.6-1.7-3.3-1.7-3.3-1.8.9 1.5 3.4 1.5 3.4 3 6.7 3.1 6.7 1.5 3.3c.3.6.5 1.1.8 1.7.3.5.7 1 1 1.5v.1c.2.4.6.6 1 1 .2.2.3.3.4.5l.3.6c.4.7.9 1.5 1.3 2.2.9 1.5 1.7 3 2.6 4.5.9 1.5 1.7 3 2.6 4.5.4.8.9 1.5 1.3 2.2l.7 1.1c.2.4.5.7 1 .9l.4-.1"/></g><path d="m258.7 3496.8c-1.3-2.2-4.1-3.1-6.5-2.1l-4.3 1.8c-1.3.6-2.9.6-4.2 0l-4.3-1.8c-2.4-1-5.1-.1-6.5 2.1-4.5 7.6-12.2 26.6-2.2 57.4 1 3 3.4 5.3 6.5 6.2l8.6 2.4 8.6-2.4c3.1-.9 5.5-3.2 6.5-6.2 10-30.8 2.3-49.8-2.2-57.4" fill="#0d1022"/><g fill="#bcc6d6"><path d="m245.2 3500.5c0-.9-.5-1.6-1.3-1.9-2-.7-5.2-2-5.2-2-.4-.2-.8-.2-1.2-.2-1.1 0-2.1.6-2.7 1.5-2.2 3.7-5.1 10.1-6.3 19.2-1.5 11.1 0 23.4 4.2 36.5.8 2.4 2.7 4.2 5.1 4.9l4.8 1.4c1.3.4 2.6-.6 2.6-2v-57.4"/><path d="m246.5 3500.5c0-.9.5-1.6 1.3-1.9 2-.7 5.2-2 5.2-2 .4-.2.8-.2 1.2-.2 1.1 0 2.1.6 2.7 1.5 2.2 3.7 5.1 10.1 6.3 19.2 1.5 11.1 0 23.4-4.2 36.5-.8 2.4-2.7 4.2-5.1 4.9l-4.8 1.4c-1.3.4-2.6-.6-2.6-2v-57.4"/></g><path d="m252.6 3512.2c-.7-1.5-2.2-2.1-3.4-1.4l-2.2 1.2c-.7.4-1.5.4-2.2 0l-2.2-1.2c-1.3-.7-2.7-.1-3.4 1.4-2.4 5-6.4 17.4-1.2 37.6.5 2 1.8 3.5 3.4 4.1l4.5 1.6 4.5-1.6c1.6-.6 2.9-2.1 3.4-4.1 5.2-20.2 1.1-32.6-1.2-37.6" fill="#0d1022"/><path d="m240.7 3527.8v2.8c0 0-7.1 11.7-15.8 13.9-2.2.6-4.6.9-7.9.9-1.6 0-3.5.1-5.5 0-.3 0-.7 0-1.1 0-.4 0-.7 0-1.1 0-.6 0-1.1 0-1.8 0-10.6-.2-26.8-.9-53.8-.9-48.9 0-77.4-18.4-77.4-18.4s-59.1-21.5-68.4-27.4c-3.5-2.2-9.9-8.9-7.2-18.5.2-.8.7 7 .8 6.2.5 3.8 3 7.3 6.4 9.5 9.4 5.9 68.4 27.4 68.4 27.4s28.5 20 77.4 20c27 0 43.2.7 53.8.9.6 0 1.2 0 1.8 0 .4 0 .7 0 1.1 0s.7 0 1.1 0c2.1 0 3.9 0 5.5 0 3.3-.1 5.7-.4 7.9-.9 8.7-2.2 15.8-15.5 15.8-15.5" fill="#55110c"/><g fill="#0d1022"><path d="m240.7 3522.2v1.2c0 0-76.4-28.6-120-30.4 0 0-.2-.1-.5-.2 0 0-.1 0-.2-.1-.9-.3-2.6-1-5-1.9-.2-.1-.5-.2-.7-.3 0 0 0 0-.1 0-.2-.1-.4-.2-.7-.2-.9-.4-2-.7-3.1-1.2-.3-.1-.6-.2-.9-.4-.3-.1-.5-.2-.8-.3-1-.4-2.1-.8-3.3-1.2-.2-.1-.4-.1-.5-.2-.2-.1-.4-.1-.6-.2-.2-.1-.4-.1-.6-.2-.2-.1-.4-.1-.6-.2-.2-.1-.4-.1-.6-.2-.6-.2-1.2-.4-1.8-.6-.2-.1-.4-.1-.6-.2-.2-.1-.4-.1-.6-.2s-.4-.1-.6-.2c-.3-.1-.7-.2-1-.3-1.8-.6-3.5-1.2-5.4-1.8-1.2-.4-2.4-.8-3.7-1.2-.6-.2-1.1-.4-1.8-.6-.9-.3-1.9-.6-2.8-.9-.5-.2-.9-.3-1.4-.4-1-.3-1.9-.6-2.9-.9-.5-.2-1-.3-1.5-.4-.5-.2-1-.3-1.5-.4-1-.3-2-.6-3-.9-.6-.2-1.2-.3-1.8-.5-1.4-.4-2.8-.8-4.2-1.2-1-.3-2-.5-3-.8-1-.2-2-.5-3-.8-3.3-.8-6.6-1.6-9.7-2.3-.2 0-.4-.1-.6-.1-.2 0-.5 2.2-.7 3.5-.1.5-.6.9-1.1.7-4.2-1.1-20.9-5.3-29.2-4.2-8.8 1.1-19.9 8-19.6 14.5 0 .1 0 .2 0 .3-2.7-7.6 1-18 21.1-21.4 26.9-4.6 98.2 25.6 98.2 25.6 49.8 5 120.4 31.7 120.4 31.7"/><path d="m89 3481.5c1.3.4 2.5.8 3.7 1.2-1.2-.3-2.4-.7-3.7-1.2"/></g><path d="m240.7 3523.4v4.4c0 0-7.1 13.3-15.8 15.5-2.2.6-4.6.9-7.9.9-1.6 0-3.5.1-5.5 0-.3 0-.7 0-1.1 0-.4 0-.7 0-1.1 0-.6 0-1.1 0-1.8 0-10.6-.2-26.8-.9-53.8-.9-48.9 0-77.4-20-77.4-20s-59.1-21.5-68.4-27.4c-3.4-2.2-5.9-5.7-6.4-9.5 0-.1 0-.2 0-.4 0-.1 0-.2 0-.3-.3-6.5 10.8-13.5 19.6-14.5 8.3-1 25 3.1 29.2 4.2.5.1 1-.2 1.1-.7.2-1.3.5-3.5.7-3.5.2 0 .4.1.6.1 3.2.7 6.4 1.4 9.7 2.3 1 .2 2 .5 3 .8 1 .2 2 .5 3 .8 1.4.4 2.8.8 4.2 1.2.6.2 1.2.3 1.8.5 1 .3 2 .6 3 .9.5.2 1 .3 1.5.4.5.2 1 .3 1.5.4 1 .3 2 .6 2.9.9.5.2.9.3 1.4.4.9.3 1.9.6 2.8.9.6.2 1.1.4 1.8.6 1.3.4 2.5.8 3.7 1.2 1.9.6 3.7 1.3 5.4 1.8.3.1.7.2 1 .3.2.1.4.1.6.2.2.1.4.1.6.2s.4.1.6.2c.6.2 1.2.4 1.8.6.2.1.4.1.6.2s.4.1.6.2c.2.1.4.1.6.2.2.1.4.1.6.2.2.1.4.1.5.2 1.1.4 2.2.8 3.3 1.2.3.1.6.2.8.3.3.1.6.2.9.4 1.1.4 2.1.8 3.1 1.2.2.1.4.2.7.2 0 0 0 0 .1 0 .2.1.5.2.7.3 2.4.9 4.1 1.6 5 1.9.1 0 .1 0 .2.1.3.1.5.2.5.2 43.1 2.1 119.5 30.7 119.5 30.7" opacity=".25" fill="#e6e1ca"/><path d="m235.4 3551.7c0-.3.2-.5.4-.6l-.1-.3c0 0-2.6-6-16.6-5.1s-87.2 6.6-89.6 6.6c-2.4 0-75.6-2.3-90 0-14.5 2.3-34.4 12.6-34.4 23.1 0 .4.1.7.3 1.1 2.5-9.7 20.7-18.7 34.1-20.8 14.5-2.3 87.6 0 90 0 2.4 0 75.6-7.5 89.6-8.4 11.4-.9 15.2 3 16.3 4.4" fill="#0d1022"/><path d="m237.8 3574.8c-.3 10.2-5.3 18.9-31.6 27.5-40.1 13.1-106.1-1.8-108.8-1.8-2.6 0-88.5-11-92.4-21.2-.1-.2-.1-.5-.1-.7 0-.7.1-1.5.3-2.2 2.5-9.7 20.7-18.7 34.1-20.8 14.5-2.3 87.6 0 90 0 2.4 0 75.6-7.5 89.6-8.4 14.1-.9 16.6 5.1 16.6 5.1l1.1 5.1c0 5.5.9 10.7 1 15.4.2.7.2 1.4.2 2" opacity=".25" fill="#e6e1ca"/><g fill="#55110c"><path d="m206.2 3604.5c-40.1 13.1-106.1-1.8-108.8-1.8s-94-12.2-93.2-22.6c.2-3 .7-4.5 1.1-7.1.2-1.1-.1 3.6 0 3.3 4.3 14.4 89.6 24.2 92.2 24.2 2.6 0 68.6 15 108.8 1.8 26.3-8.6 31.3-17.3 31.6-27.5 0 0 0 .1 0 .1.1 11.1-3.7 20.5-31.7 29.6"/><path d="m266.8 3543.4c2.2.6 4.6.8 7.9.9 1.6 0 3.5.1 5.5 0 .3 0 .7 0 1.1 0 .4 0 .7 0 1.1 0 .6 0 1.1 0 1.8 0 10.6-.2 26.8-.9 53.8-.9 48.9 0 77.4-20 77.4-20s59.1-21.5 68.4-27.4c3.4-2.2 5.9-5.7 6.4-9.5.1.8.6-7 .8-6.2 2.7 9.6-3.7 16.3-7.2 18.5-9.4 5.9-68.4 27.4-68.4 27.4s-28.5 18.4-77.4 18.4c-27 0-43.2.7-53.8.9-.6 0-1.2 0-1.8 0-.4 0-.7 0-1.1 0-.4 0-.7 0-1.1 0-2.1 0-3.9 0-5.5 0-3.3-.1-5.7-.4-7.9-.9-8.7-2.2-15.8-13.9-15.8-13.9v-2.8c0-.1 7.1 13.2 15.8 15.5"/></g><g fill="#0d1022"><path d="m371.1 3490.3c0 0 71.3-30.2 98.2-25.6 20.1 3.4 23.8 13.9 21.1 21.4 0-.1 0-.2 0-.3.2-6.6-10.9-13.5-19.6-14.5-8.3-1-25 3.1-29.2 4.2-.5.1-1-.2-1.1-.7-.2-1.3-.5-3.5-.7-3.5-.2 0-.4.1-.6.1-3.2.7-6.4 1.5-9.7 2.3-1 .2-2 .5-3 .8-1 .3-2 .5-3 .8-1.4.4-2.8.8-4.2 1.2-.6.2-1.2.3-1.8.5-1 .3-2 .6-3 .9-.5.2-1 .3-1.5.4-.5.2-1 .3-1.5.4-1 .3-1.9.6-2.9.9-.5.2-.9.3-1.4.4-.9.3-1.9.6-2.8.9-.6.2-1.2.4-1.8.6-1.3.4-2.5.8-3.7 1.2-1.9.6-3.7 1.2-5.4 1.8-.3.1-.7.2-1 .3-.2.1-.4.1-.6.2s-.4.1-.6.2c-.2.1-.4.1-.6.2-.6.2-1.2.4-1.8.6-.2.1-.4.1-.6.2-.2.1-.4.1-.6.2-.2.1-.4.1-.6.2-.2.1-.4.1-.6.2-.2.1-.4.1-.5.2-1.1.4-2.2.8-3.3 1.2-.3.1-.5.2-.8.3-.3.1-.6.2-.9.4-1.1.4-2.2.8-3.1 1.2-.2.1-.5.2-.7.2 0 0 0 0-.1 0-.2.1-.5.2-.7.3-2.4.9-4.1 1.6-5 1.9 0 0-.1.1-.2.1-.3.1-.5.2-.5.2-43.6 1.8-120 30.4-120 30.4v-1.2c.3.2 70.9-26.5 120.4-31.7"/><path d="m399 3482.7c1.2-.4 2.4-.8 3.7-1.2-1.3.5-2.5.9-3.7 1.2"/></g><path d="m370.9 3493c0 0 .2-.1.5-.2 0 0 .1 0 .2-.1.9-.3 2.6-1 5-1.9.2-.1.5-.2.7-.3 0 0 0 0 .1 0 .2-.1.4-.2.7-.2 1-.4 2-.8 3.1-1.2.3-.1.6-.2.9-.4.2-.1.5-.2.8-.3 1.1-.4 2.1-.8 3.3-1.2.2-.1.4-.1.5-.2.2-.1.4-.1.6-.2.2-.1.4-.1.6-.2.2-.1.4-.1.6-.2s.4-.1.6-.2c.6-.2 1.1-.4 1.8-.6.2-.1.4-.1.6-.2s.4-.1.6-.2c.2-.1.4-.1.6-.2.3-.1.7-.2 1-.3 1.8-.6 3.5-1.2 5.4-1.8 1.2-.4 2.4-.8 3.7-1.2.6-.2 1.2-.4 1.8-.6.9-.3 1.9-.6 2.8-.9.5-.2.9-.3 1.4-.4.9-.3 1.9-.6 2.9-.9.5-.2 1-.3 1.5-.4.5-.2 1-.3 1.5-.4 1-.3 2-.6 3-.9.6-.2 1.2-.3 1.8-.5 1.4-.4 2.8-.8 4.2-1.2 1-.3 2-.6 3-.8 1-.3 2-.5 3-.8 3.3-.9 6.6-1.6 9.7-2.3.2 0 .4-.1.6-.1.2 0 .5 2.2.7 3.5.1.5.6.9 1.1.7 4.2-1.1 20.9-5.3 29.2-4.2 8.8 1.1 19.9 8 19.6 14.5 0 .1 0 .2 0 .3 0 .1 0 .2 0 .4-.5 3.8-3 7.3-6.4 9.5-9.4 5.9-68.4 27.4-68.4 27.4s-28.5 20-77.4 20c-27 0-43.2.7-53.8.9-.6 0-1.2 0-1.8 0-.4 0-.7 0-1.1 0-.4 0-.7 0-1.1 0-2.1 0-3.9 0-5.5 0-3.3-.1-5.7-.4-7.9-.9-8.7-2.2-15.8-15.5-15.8-15.5v-4.4c-.4-.3 76-28.9 119.5-30.7" opacity=".25" fill="#e6e1ca"/><path d="m256.3 3551.7c1-1.4 4.8-5.3 16.3-4.6 14.1.9 87.2 8.4 89.6 8.4s75.6-2.3 90 0c13.4 2.2 31.6 11.2 34.1 20.8.2-.4.3-.7.3-1.1 0-10.5-20-20.7-34.4-23.1-14.5-2.3-87.6 0-90 0s-75.6-5.7-89.6-6.6-16.6 5.1-16.6 5.1l-.1.3c.3.3.4.5.4.8" fill="#0d1022"/><path d="m253.9 3572.7c.1-4.8 1-9.9 1-15.4l1.1-5.1c0 0 2.6-6 16.6-5.1 14.1.9 87.2 8.4 89.6 8.4s75.6-2.3 90 0c13.4 2.2 31.6 11.2 34.1 20.8.2.8.3 1.5.3 2.2 0 .2 0 .4-.1.7-3.9 10.3-89.8 21.2-92.4 21.2-2.6 0-68.6 15-108.8 1.8-26.3-8.6-31.2-17.3-31.6-27.5.2-.5.2-1.2.2-2" opacity=".25" fill="#e6e1ca"/><path d="m253.9 3575c0 0 0-.1 0-.1.3 10.1 5.3 18.9 31.6 27.5 40.1 13.1 106.1-1.8 108.8-1.8 2.6 0 87.9-9.7 92.2-24.2.1.3-.2-4.5 0-3.3.4 2.6.8 4.1 1.1 7.1.8 10.4-90.6 22.6-93.2 22.6-2.6 0-68.6 15-108.8 1.8-28.1-9.2-31.9-18.6-31.7-29.6" fill="#55110c"/></svg>